<svg width="1000" height="1000"> 
    <g id="svg"><text x="690.8742251634105" y="427.5114603067396">0</text> <text x="964.9679859358897" y="643.3023506951598">1</text> <text x="275.6856778654393" y="262.4241863712349">2</text> <text x="334.5684186118163" y="762.0783846940006">3</text> <text x="824.0809758561121" y="393.66560669103757">4</text> <text x="852.4069097014839" y="668.749580980839">5</text> <text x="519.3997574736193" y="176.75709863338795">6</text> <text x="585.082201314801" y="641.7608394734351">7</text> <text x="13.899230404581298" y="537.9238344933545">8</text> <text x="459.9261281663656" y="537.637765362954">9</text><line x1="711.4490402454805" y1="229.43443936714368" x2="789.4029670362017" y2="536.2368444544085" r="10" stroke-width="10" stroke="black"></line>,<line x1="517.8281205327283" y1="361.83909195141956" x2="711.4490402454805" y2="229.43443936714368" r="10" stroke-width="10" stroke="black"></line>,<line x1="517.8281205327283" y1="361.83909195141956" x2="588.598724518618" y2="510.25355392333074" r="10" stroke-width="10" stroke="black"></line>,<line x1="588.598724518618" y1="510.25355392333074" x2="726.508727660518" y2="578.350733005461" r="10" stroke-width="10" stroke="black"></line>,<line x1="726.508727660518" y1="578.350733005461" x2="789.4029670362017" y2="536.2368444544085" r="10" stroke-width="10" stroke="black"></line><line x1="879.5085372515258" y1="526.9584979872682" x2="986.4513316801592" y2="1000" r="10" stroke-width="10" stroke="black"></line>,<line x1="879.5085372515258" y1="526.9584979872682" x2="1000" y2="458.9569624180846" r="10" stroke-width="10" stroke="black"></line><line x1="320.35517533344654" y1="0" x2="443.22214345063026" y2="349.5439245064665" r="10" stroke-width="10" stroke="black"></line>,<line x1="443.22214345063026" y1="349.5439245064665" x2="236.8805449792657" y2="487.6783478058379" r="10" stroke-width="10" stroke="black"></line>,<line x1="236.8805449792657" y1="487.6783478058379" x2="0" y2="262.5887087975656" r="10" stroke-width="10" stroke="black"></line><line x1="236.92713133839104" y1="560.3138300391495" x2="448.59539303512287" y2="678.5377440115021" r="10" stroke-width="10" stroke="black"></line>,<line x1="236.92713133839104" y1="560.3138300391495" x2="0" y2="899.2551131964337" r="10" stroke-width="10" stroke="black"></line><line x1="711.4490402454804" y1="229.43443936714323" x2="789.4029670362016" y2="536.2368444544084" r="10" stroke-width="10" stroke="black"></line>,<line x1="874.7878971805164" y1="0" x2="711.4490402454804" y2="229.43443936714323" r="10" stroke-width="10" stroke="black"></line><line x1="879.5085372515256" y1="526.9584979872677" x2="986.4513316801592" y2="1000" r="10" stroke-width="10" stroke="black"></line>,<line x1="789.4029670362019" y1="536.2368444544084" x2="879.5085372515256" y2="526.9584979872677" r="10" stroke-width="10" stroke="black"></line>,<line x1="726.5087276605182" y1="578.350733005461" x2="789.4029670362019" y2="536.2368444544084" r="10" stroke-width="10" stroke="black"></line>,<line x1="726.5087276605182" y1="578.350733005461" x2="683.9395871482945" y2="1000" r="10" stroke-width="10" stroke="black"></line><line x1="320.35517533344654" y1="0" x2="443.2221434506303" y2="349.5439245064667" r="10" stroke-width="10" stroke="black"></line>,<line x1="443.2221434506303" y1="349.5439245064667" x2="517.8281205327287" y2="361.8390919514194" r="10" stroke-width="10" stroke="black"></line>,<line x1="517.8281205327287" y1="361.8390919514194" x2="711.4490402454798" y2="229.43443936714425" r="10" stroke-width="10" stroke="black"></line>,<line x1="874.7878971805164" y1="0" x2="711.4490402454798" y2="229.43443936714425" r="10" stroke-width="10" stroke="black"></line><line x1="448.5953930351229" y1="678.5377440115022" x2="588.5987245186182" y2="510.2535539233308" r="10" stroke-width="10" stroke="black"></line>,<line x1="448.5953930351229" y1="678.5377440115022" x2="602.9882935146068" y2="1000" r="10" stroke-width="10" stroke="black"></line><line x1="236.88054497926566" y1="487.6783478058642" x2="0" y2="262.5887087975656" r="10" stroke-width="10" stroke="black"></line>,<line x1="236.88054497926566" y1="487.6783478058642" x2="236.92713133839104" y2="560.3138300391729" r="10" stroke-width="10" stroke="black"></line>,<line x1="236.92713133839104" y1="560.3138300391729" x2="0" y2="899.2551131964337" r="10" stroke-width="10" stroke="black"></line><line x1="448.5953930351228" y1="678.5377440115021" x2="588.598724518618" y2="510.25355392333074" r="10" stroke-width="10" stroke="black"></line>,<line x1="236.927131338391" y1="560.3138300391147" x2="448.5953930351228" y2="678.5377440115021" r="10" stroke-width="10" stroke="black"></line>,<line x1="236.8805449792657" y1="487.6783478059224" x2="236.927131338391" y2="560.3138300391147" r="10" stroke-width="10" stroke="black"></line>,<line x1="443.22214345063014" y1="349.5439245064666" x2="236.8805449792657" y2="487.6783478059224" r="10" stroke-width="10" stroke="black"></line>,<line x1="443.22214345063014" y1="349.5439245064666" x2="517.8281205327283" y2="361.8390919514193" r="10" stroke-width="10" stroke="black"></line>,<line x1="517.8281205327283" y1="361.8390919514193" x2="588.598724518618" y2="510.25355392333074" r="10" stroke-width="10" stroke="black"></line></g>

  </svg>