<svg width="1000" height="1000"> 
    <g id="svg"><circle cx="391.5488250639465" cy="586.7717857471266" r="10" fill="red"></circle>,<circle cx="286.69687892881933" cy="814.9930312962834" r="10" fill="red"></circle>,<circle cx="379.11069057506296" cy="426.5109135331968" r="10" fill="red"></circle>,<circle cx="54.16357610210021" cy="351.07186118980627" r="10" fill="red"></circle>,<circle cx="774.5047296769574" cy="931.1605030578554" r="10" fill="red"></circle>,<circle cx="118.19842010877935" cy="382.5739109068829" r="10" fill="red"></circle>,<circle cx="211.78117837809006" cy="834.385336546769" r="10" fill="red"></circle>,<circle cx="528.4153692978657" cy="117.68046626112105" r="10" fill="red"></circle>,<circle cx="588.0512461736564" cy="913.2800247062869" r="10" fill="red"></circle>,<circle cx="625.6035414436159" cy="639.7431987227586" r="10" fill="red"></circle>,<circle cx="978.3170193318416" cy="567.1870450165195" r="10" fill="red"></circle>,<circle cx="478.41561642525045" cy="597.5131335375388" r="10" fill="red"></circle>,<circle cx="829.4450300038518" cy="463.0162986723476" r="10" fill="red"></circle>,<circle cx="123.48052731707115" cy="227.88313928128278" r="10" fill="red"></circle>,<circle cx="76.94640311859291" cy="721.654244396739" r="10" fill="red"></circle>,<circle cx="414.0592529202776" cy="765.5724374298687" r="10" fill="red"></circle>,<circle cx="563.7220415865505" cy="976.0001499518363" r="10" fill="red"></circle>,<circle cx="685.5853526094671" cy="289.80220687289113" r="10" fill="red"></circle>,<circle cx="752.4517947206504" cy="814.6107616390005" r="10" fill="red"></circle>,<circle cx="594.9121156715746" cy="161.18209134835925" r="10" fill="red"></circle>,<circle cx="10.765278622388186" cy="50.08210582401884" r="10" fill="red"></circle>,<circle cx="537.2493898512911" cy="983.5750453945819" r="10" fill="red"></circle>,<circle cx="563.1539683824737" cy="18.376521455466754" r="10" fill="red"></circle>,<circle cx="97.31191977275189" cy="976.3016578287145" r="10" fill="red"></circle>,<circle cx="374.84404395626615" cy="17.54064969822555" r="10" fill="red"></circle>,<circle cx="425.61581334537067" cy="256.0824346838411" r="10" fill="red"></circle>,<circle cx="947.4577754576156" cy="910.4829254051259" r="10" fill="red"></circle>,<circle cx="642.8899462582472" cy="906.871872797413" r="10" fill="red"></circle>,<circle cx="646.6785563101319" cy="357.6774700570573" r="10" fill="red"></circle>,<circle cx="706.3908925230069" cy="68.43781413701878" r="10" fill="red"></circle>,<circle cx="613.4146714389863" cy="693.6099813860293" r="10" fill="red"></circle>,<circle cx="620.2604408929845" cy="668.9530034083873" r="10" fill="red"></circle>,<circle cx="476.7030847739171" cy="273.1421685993638" r="10" fill="red"></circle>,<circle cx="959.2815388295274" cy="453.20579618202703" r="10" fill="red"></circle>,<circle cx="388.5280950360157" cy="254.46824279611667" r="10" fill="red"></circle>,<circle cx="400.4477582964856" cy="86.14125180272603" r="10" fill="red"></circle>,<circle cx="168.23713277570172" cy="684.8123754954219" r="10" fill="red"></circle>,<circle cx="757.4397650198185" cy="398.1425814651291" r="10" fill="red"></circle>,<circle cx="888.9822101322837" cy="907.3025501498026" r="10" fill="red"></circle>,<circle cx="880.0153632619634" cy="262.3889791570742" r="10" fill="red"></circle>,<circle cx="788.7846210919703" cy="810.6942494276494" r="10" fill="red"></circle>,<circle cx="500.96720753027626" cy="575.2824381695074" r="10" fill="red"></circle>,<circle cx="99.27714339736737" cy="519.9526619186701" r="10" fill="red"></circle>,<circle cx="774.7257175606608" cy="621.3381124540582" r="10" fill="red"></circle>,<circle cx="585.0023983638555" cy="237.22984940406633" r="10" fill="red"></circle>,<circle cx="772.0196753997442" cy="973.283171743603" r="10" fill="red"></circle>,<circle cx="579.3933462573757" cy="727.7076054328146" r="10" fill="red"></circle>,<circle cx="95.63651233407944" cy="599.4290389441421" r="10" fill="red"></circle>,<circle cx="784.4171867479599" cy="261.11484476855765" r="10" fill="red"></circle>,<circle cx="347.60628031472174" cy="220.41441606743285" r="10" fill="red"></circle>,<circle cx="378.96883561466854" cy="321.3853888145406" r="10" fill="red"></circle>,<circle cx="340.6069746421807" cy="566.0008888539305" r="10" fill="red"></circle>,<circle cx="709.0378340008725" cy="469.0728622733069" r="10" fill="red"></circle>,<circle cx="968.4193406657967" cy="296.6078240738632" r="10" fill="red"></circle>,<circle cx="172.71227398788923" cy="961.2574064165528" r="10" fill="red"></circle>,<circle cx="517.6142894781291" cy="540.4107537156833" r="10" fill="red"></circle>,<circle cx="572.9308856855029" cy="344.84532508217615" r="10" fill="red"></circle>,<circle cx="536.4860611645265" cy="295.46530297940586" r="10" fill="red"></circle>,<circle cx="803.0904603138875" cy="94.14608691711534" r="10" fill="red"></circle>,<circle cx="957.4812802379116" cy="932.3868768771443" r="10" fill="red"></circle>,<circle cx="95.2614563549734" cy="443.7660608841325" r="10" fill="red"></circle>,<circle cx="248.56738297149582" cy="492.54658081750915" r="10" fill="red"></circle>,<circle cx="249.33355971352665" cy="92.41286964178275" r="10" fill="red"></circle>,<circle cx="611.4356168456184" cy="344.81594870666623" r="10" fill="red"></circle>,<circle cx="278.4079925751095" cy="275.81922412444374" r="10" fill="red"></circle>,<circle cx="971.9473091101969" cy="680.2593546030555" r="10" fill="red"></circle>,<circle cx="690.7166122220281" cy="414.5107813726008" r="10" fill="red"></circle>,<circle cx="410.46472818555355" cy="852.7219115106677" r="10" fill="red"></circle>,<circle cx="428.6978090544191" cy="123.25711942916028" r="10" fill="red"></circle>,<circle cx="682.478649782228" cy="636.2922284160423" r="10" fill="red"></circle>,<circle cx="965.0617816308255" cy="440.5088597838991" r="10" fill="red"></circle>,<circle cx="584.2090930191288" cy="376.4082813135294" r="10" fill="red"></circle>,<circle cx="757.7362123700016" cy="887.137012158536" r="10" fill="red"></circle>,<circle cx="542.8058691707864" cy="860.5707537505201" r="10" fill="red"></circle>,<circle cx="386.9134437844026" cy="741.1729111322722" r="10" fill="red"></circle>,<circle cx="609.7066712765383" cy="205.96052197284354" r="10" fill="red"></circle>,<circle cx="975.2742429403605" cy="84.87377718922696" r="10" fill="red"></circle>,<circle cx="783.8843039881547" cy="491.7854820144214" r="10" fill="red"></circle>,<circle cx="852.8354685298993" cy="644.1264168022402" r="10" fill="red"></circle>,<circle cx="939.693159528479" cy="488.9589740314708" r="10" fill="red"></circle>,<circle cx="111.49460876457783" cy="268.84426430531437" r="10" fill="red"></circle>,<circle cx="258.3199862737997" cy="1.8750459591465596" r="10" fill="red"></circle>,<circle cx="323.32969485694593" cy="812.8011835156767" r="10" fill="red"></circle>,<circle cx="674.7302033133886" cy="955.2022852599165" r="10" fill="red"></circle>,<circle cx="826.6133720462567" cy="111.33840474295043" r="10" fill="red"></circle>,<circle cx="549.0192489535445" cy="882.3828035669137" r="10" fill="red"></circle>,<circle cx="235.0721737654331" cy="587.058460120703" r="10" fill="red"></circle>,<circle cx="140.04689908789337" cy="383.4507277840864" r="10" fill="red"></circle>,<circle cx="588.5762979142011" cy="412.71026299028324" r="10" fill="red"></circle>,<circle cx="327.6096195145919" cy="977.5962532639453" r="10" fill="red"></circle>,<circle cx="239.21758897005674" cy="357.51111664893733" r="10" fill="red"></circle>,<circle cx="537.5107448253011" cy="991.3771375233407" r="10" fill="red"></circle>,<circle cx="658.9666441479534" cy="686.4525055345787" r="10" fill="red"></circle>,<circle cx="360.06192636767275" cy="897.4481924252493" r="10" fill="red"></circle>,<circle cx="580.5103988644063" cy="301.90017652434676" r="10" fill="red"></circle>,<circle cx="825.7296135241801" cy="806.9776672565034" r="10" fill="red"></circle>,<circle cx="496.9730837269475" cy="852.6614214786894" r="10" fill="red"></circle>,<circle cx="250.8282537013522" cy="126.58032500189087" r="10" fill="red"></circle>,<circle cx="978.5707717864772" cy="347.86158982220195" r="10" fill="red"></circle>,<circle cx="749.916089910086" cy="346.33454604573234" r="10" fill="red"></circle>,<circle cx="615.4422140062652" cy="739.0868030785766" r="10" fill="red"></circle>,<circle cx="609.227863749986" cy="715.1823722901147" r="10" fill="red"></circle>,<circle cx="320.401489221076" cy="896.7498543260124" r="10" fill="red"></circle>,<circle cx="438.2838940504605" cy="258.9158825180455" r="10" fill="red"></circle>,<circle cx="840.2864713731834" cy="237.52391128720495" r="10" fill="red"></circle>,<circle cx="159.1046766411508" cy="123.21472726445614" r="10" fill="red"></circle>,<circle cx="843.9761322204035" cy="673.003842960106" r="10" fill="red"></circle>,<circle cx="918.9563538087116" cy="418.74708804677164" r="10" fill="red"></circle>,<circle cx="712.7495063563966" cy="452.4767019614719" r="10" fill="red"></circle>,<circle cx="875.1675065902566" cy="258.74207256830584" r="10" fill="red"></circle>,<circle cx="392.20652278508373" cy="561.535914245811" r="10" fill="red"></circle>,<circle cx="24.753204519988525" cy="162.2628719135477" r="10" fill="red"></circle>,<circle cx="415.01835262629027" cy="75.90452621469024" r="10" fill="red"></circle>,<circle cx="890.9908073385091" cy="221.18256236458578" r="10" fill="red"></circle>,<circle cx="933.6453916250671" cy="837.905884308171" r="10" fill="red"></circle>,<circle cx="18.200306765215444" cy="763.5644754943291" r="10" fill="red"></circle>,<circle cx="717.1333358971834" cy="953.4550313753812" r="10" fill="red"></circle>,<circle cx="588.0700149724424" cy="634.6772615295624" r="10" fill="red"></circle>,<circle cx="861.5627179364201" cy="436.7473205711094" r="10" fill="red"></circle>,<circle cx="167.73827080271153" cy="397.7985535317128" r="10" fill="red"></circle>,<circle cx="494.1156140280227" cy="619.4604063576099" r="10" fill="red"></circle>,<circle cx="317.0654409367042" cy="223.40404547617453" r="10" fill="red"></circle>,<circle cx="505.5932893674917" cy="865.9309623516618" r="10" fill="red"></circle>,<circle cx="724.183904776698" cy="390.8342126601332" r="10" fill="red"></circle>,<circle cx="53.132035281654666" cy="971.3460883316308" r="10" fill="red"></circle>,<circle cx="126.12150119305122" cy="594.8088470146646" r="10" fill="red"></circle>,<circle cx="983.5522490435802" cy="845.0886885857083" r="10" fill="red"></circle>,<circle cx="48.76532400951072" cy="686.1099579997882" r="10" fill="red"></circle>,<circle cx="154.70665892199787" cy="200.05818970362975" r="10" fill="red"></circle>,<circle cx="857.7699434156167" cy="58.64940939157215" r="10" fill="red"></circle>,<circle cx="968.4707091522735" cy="865.4099876983532" r="10" fill="red"></circle>,<circle cx="406.92594754075293" cy="559.8886287539843" r="10" fill="red"></circle>,<circle cx="698.3453434625186" cy="703.9603635871512" r="10" fill="red"></circle>,<circle cx="341.30553234662585" cy="730.4374396716229" r="10" fill="red"></circle>,<circle cx="229.72200411691722" cy="303.62186466041805" r="10" fill="red"></circle>,<circle cx="303.49233502910454" cy="506.91479528665417" r="10" fill="red"></circle>,<circle cx="885.1442839695804" cy="956.5220842691941" r="10" fill="red"></circle>,<circle cx="721.2483505240998" cy="896.1638999603814" r="10" fill="red"></circle>,<circle cx="770.2600475871142" cy="109.44571916762436" r="10" fill="red"></circle>,<circle cx="624.2032381137883" cy="603.0895829521726" r="10" fill="red"></circle>,<circle cx="708.7014544570931" cy="464.389008432166" r="10" fill="red"></circle>,<circle cx="315.4915065009274" cy="259.9472276302375" r="10" fill="red"></circle>,<circle cx="733.2540349915145" cy="284.704768039733" r="10" fill="red"></circle>,<circle cx="279.10467430773787" cy="569.8903344843765" r="10" fill="red"></circle>,<circle cx="444.8585097950857" cy="754.0166531710366" r="10" fill="red"></circle>,<circle cx="242.8731391150074" cy="921.5556479771217" r="10" fill="red"></circle>,<circle cx="977.6537639555988" cy="498.9455258882618" r="10" fill="red"></circle>,<circle cx="294.2666777674814" cy="45.006662335249416" r="10" fill="red"></circle>,<circle cx="92.84023525243245" cy="926.0587623936023" r="10" fill="red"></circle>,<circle cx="534.2597300533283" cy="499.86578250553725" r="10" fill="red"></circle>,<circle cx="291.13158477031334" cy="4.993582246168637" r="10" fill="red"></circle>,<circle cx="631.7515273013407" cy="208.7963323843436" r="10" fill="red"></circle>,<circle cx="193.3632666656553" cy="92.42595143374066" r="10" fill="red"></circle>,<circle cx="885.9990560335826" cy="735.9493119269708" r="10" fill="red"></circle>,<circle cx="380.18682594015775" cy="27.630549925375504" r="10" fill="red"></circle>,<circle cx="80.21026234516194" cy="8.972176275013899" r="10" fill="red"></circle>,<circle cx="14.428863980807671" cy="805.8781398933335" r="10" fill="red"></circle>,<circle cx="281.2084602241669" cy="220.3653686935434" r="10" fill="red"></circle>,<circle cx="663.9567420019439" cy="657.7377589146944" r="10" fill="red"></circle>,<circle cx="593.3856472557726" cy="441.14152314277624" r="10" fill="red"></circle>,<circle cx="175.06394341438437" cy="419.7690744395675" r="10" fill="red"></circle>,<circle cx="826.2891267123471" cy="609.4434433442988" r="10" fill="red"></circle>,<circle cx="58.91636041417314" cy="660.2100404317581" r="10" fill="red"></circle>,<circle cx="209.8266573771279" cy="251.13354483382523" r="10" fill="red"></circle>,<circle cx="939.7223617068382" cy="163.6151788863729" r="10" fill="red"></circle>,<circle cx="339.24383654773436" cy="811.7266525358584" r="10" fill="red"></circle>,<circle cx="713.0021078391777" cy="650.5502312217433" r="10" fill="red"></circle>,<circle cx="91.20774610408766" cy="65.13519654977596" r="10" fill="red"></circle>,<circle cx="870.3922910865558" cy="702.1442916162837" r="10" fill="red"></circle>,<circle cx="734.7399971811242" cy="812.8940908673426" r="10" fill="red"></circle>,<circle cx="254.41899019566304" cy="372.2187049892862" r="10" fill="red"></circle>,<circle cx="104.45487724361801" cy="127.0506854388147" r="10" fill="red"></circle>,<circle cx="908.3384064491215" cy="41.13444804003174" r="10" fill="red"></circle>,<circle cx="86.32921617901546" cy="302.39168646203393" r="10" fill="red"></circle>,<circle cx="712.3554857332779" cy="293.4448347262564" r="10" fill="red"></circle>,<circle cx="650.8644054932569" cy="985.0407921111006" r="10" fill="red"></circle>,<circle cx="395.22626977315787" cy="718.0866221076811" r="10" fill="red"></circle>,<circle cx="993.0041044952358" cy="833.2771792493214" r="10" fill="red"></circle>,<circle cx="694.700074709401" cy="987.5527137592806" r="10" fill="red"></circle>,<circle cx="399.7916185162815" cy="779.7111706233046" r="10" fill="red"></circle>,<circle cx="438.9946244814069" cy="473.78358929460785" r="10" fill="red"></circle>,<circle cx="722.4170797713172" cy="158.7439668849402" r="10" fill="red"></circle>,<circle cx="513.8172003697483" cy="355.4390602888562" r="10" fill="red"></circle>,<circle cx="73.86395876410012" cy="308.4092172311901" r="10" fill="red"></circle>,<circle cx="766.8802255233991" cy="382.6707505347395" r="10" fill="red"></circle>,<circle cx="951.4327450701536" cy="113.4069633842032" r="10" fill="red"></circle>,<circle cx="615.5747711002" cy="43.912594970439756" r="10" fill="red"></circle>,<circle cx="966.9070696343622" cy="427.9113491957429" r="10" fill="red"></circle>,<circle cx="666.7367446419703" cy="888.1075552194253" r="10" fill="red"></circle>,<circle cx="17.649329006931946" cy="169.84865658183867" r="10" fill="red"></circle>,<circle cx="816.8938154712821" cy="943.4971864933846" r="10" fill="red"></circle>,<circle cx="945.1278231082243" cy="650.265174941829" r="10" fill="red"></circle>,<circle cx="418.54598961411307" cy="370.5688210028244" r="10" fill="red"></circle>,<circle cx="170.61950188860587" cy="610.031475013091" r="10" fill="red"></circle>,<circle cx="352.9771481886699" cy="325.8667686528869" r="10" fill="red"></circle>,<circle cx="417.38788965698404" cy="672.1120577903577" r="10" fill="red"></circle>,<circle cx="784.354812519259" cy="805.243690906893" r="10" fill="red"></circle>,<circle cx="791.390156590762" cy="2.089502384554409" r="10" fill="red"></circle>,<circle cx="53.91964682657901" cy="344.961086771985" r="10" fill="red"></circle>,<circle cx="319.4537182669277" cy="846.3924905041708" r="10" fill="red"></circle><line x1="0" y1="563.9407272560362" x2="401.09740470634995" y2="574.3941347801505" r="10" stroke-width="10" stroke="#0072"></line><line x1="1000" y1="916.965454132895" x2="401.09740470634995" y2="574.3941347801505" r="10" stroke-width="10" stroke="#7002"></line><line x1="401.09740470634995" y1="574.3941347801505" x2="367.2498746834348" y2="573.5119998651334" r="10" stroke-width="10" stroke="#0072"></line><line x1="193.3547726476105" y1="1000" x2="367.2498746834348" y2="573.5119998651334" r="10" stroke-width="10" stroke="#7002"></line><line x1="401.09740470634995" y1="574.3941347801505" x2="434.793548951712" y2="593.6682749858278" r="10" stroke-width="10" stroke="#0072"></line><line x1="384.5493726875984" y1="1000" x2="434.793548951712" y2="593.6682749858278" r="10" stroke-width="10" stroke="#7002"></line><line x1="367.2498746834348" y1="573.5119998651334" x2="335.9914417873701" y2="650.1751512542171" r="10" stroke-width="10" stroke="#0072"></line><line x1="1000" y1="449.12868614224226" x2="335.9914417873701" y2="650.1751512542171" r="10" stroke-width="10" stroke="#7002"></line><line x1="434.793548951712" y1="593.6682749858278" x2="431.37748576194434" y2="621.2944587918729" r="10" stroke-width="10" stroke="#0072"></line><line x1="335.9914417873701" y1="650.1751512542171" x2="431.37748576194434" y2="621.2944587918729" r="10" stroke-width="10" stroke="#7002"></line><line x1="367.2498746834348" y1="573.5119998651334" x2="336.78173994254047" y2="648.2368983893409" r="10" stroke-width="10" stroke="#0072"></line><line x1="1000" y1="880.1800822003551" x2="336.78173994254047" y2="648.2368983893409" r="10" stroke-width="10" stroke="#7002"></line><line x1="431.37748576194434" y1="621.2944587918729" x2="339.38552087327065" y2="649.1475024474494" r="10" stroke-width="10" stroke="#0072"></line><line x1="336.78173994254047" y1="648.2368983893409" x2="339.38552087327065" y2="649.1475024474494" r="10" stroke-width="10" stroke="#7002"></line><line x1="367.2498746834348" y1="573.5119998651334" x2="401.09740470634995" y2="574.3941347801505" r="10" stroke-width="10" stroke="black"></line>,<line x1="401.09740470634995" y1="574.3941347801505" x2="434.793548951712" y2="593.6682749858278" r="10" stroke-width="10" stroke="black"></line>,<line x1="367.2498746834348" y1="573.5119998651334" x2="336.78173994254047" y2="648.2368983893409" r="10" stroke-width="10" stroke="black"></line>,<line x1="434.793548951712" y1="593.6682749858278" x2="431.37748576194434" y2="621.2944587918729" r="10" stroke-width="10" stroke="black"></line>,<line x1="339.38552087327065" y1="649.1475024474494" x2="431.37748576194434" y2="621.2944587918729" r="10" stroke-width="10" stroke="black"></line>,<line x1="336.78173994254047" y1="648.2368983893409" x2="339.38552087327065" y2="649.1475024474494" r="10" stroke-width="10" stroke="black"></line><circle cx="391.5488250639465" cy="586.7717857471266" r="10" fill="green"></circle></g>

  </svg>