<svg width="1000" height="1000"> 
    <g id="svg"><circle cx="302.35901288168776" cy="878.9967318635992" r="10" fill="red"></circle>,<circle cx="434.63966397091224" cy="464.2045463392126" r="10" fill="red"></circle>,<circle cx="867.9215645579969" cy="378.74839085989476" r="10" fill="red"></circle>,<circle cx="514.8579166422642" cy="918.096784589638" r="10" fill="red"></circle>,<circle cx="830.1121873224793" cy="373.87423228296046" r="10" fill="red"></circle>,<circle cx="202.0285988917525" cy="232.25943347541335" r="10" fill="red"></circle>,<circle cx="625.3423284999036" cy="480.4998489006609" r="10" fill="red"></circle>,<circle cx="828.0056756559948" cy="777.5500342103729" r="10" fill="red"></circle>,<circle cx="588.4458433461326" cy="843.3378368157643" r="10" fill="red"></circle>,<circle cx="747.0011704059045" cy="888.0733901305123" r="10" fill="red"></circle>,<circle cx="388.33704545971125" cy="367.89296479528" r="10" fill="red"></circle>,<circle cx="937.367656594637" cy="159.70821363512732" r="10" fill="red"></circle>,<circle cx="80.38196876892334" cy="291.0792189459119" r="10" fill="red"></circle>,<circle cx="835.1665194397046" cy="809.467472340421" r="10" fill="red"></circle>,<circle cx="343.96997232827056" cy="655.9032429325226" r="10" fill="red"></circle>,<circle cx="111.84011552335681" cy="467.2487735898272" r="10" fill="red"></circle>,<circle cx="477.5475696348899" cy="744.9018306119242" r="10" fill="red"></circle>,<circle cx="796.052343785221" cy="208.7737620058545" r="10" fill="red"></circle>,<circle cx="638.1689747346502" cy="810.1348100636704" r="10" fill="red"></circle>,<circle cx="101.31126168615468" cy="193.30488516323507" r="10" fill="red"></circle>,<circle cx="454.35516385521055" cy="453.14993764159505" r="10" fill="red"></circle>,<circle cx="728.6061918508977" cy="432.84852816398154" r="10" fill="red"></circle>,<circle cx="433.5686837820807" cy="318.4585951820691" r="10" fill="red"></circle>,<circle cx="247.7539778120279" cy="140.14712583382936" r="10" fill="red"></circle>,<circle cx="624.1313830459902" cy="2.185909384272211" r="10" fill="red"></circle>,<circle cx="600.1451047686843" cy="642.9729749032853" r="10" fill="red"></circle>,<circle cx="197.23690267162542" cy="122.21509669103648" r="10" fill="red"></circle>,<circle cx="412.35032897520153" cy="274.9515998397562" r="10" fill="red"></circle>,<circle cx="224.5527610951763" cy="347.7391181988985" r="10" fill="red"></circle>,<circle cx="543.745508089981" cy="511.9480272858681" r="10" fill="red"></circle>,<circle cx="327.3164462132738" cy="372.5979997088407" r="10" fill="red"></circle>,<circle cx="617.6628557563417" cy="320.9353179354615" r="10" fill="red"></circle>,<circle cx="926.3951932656219" cy="5.991786034653224" r="10" fill="red"></circle>,<circle cx="613.8893894517248" cy="45.922945920457536" r="10" fill="red"></circle>,<circle cx="346.851921722668" cy="574.4397342286946" r="10" fill="red"></circle>,<circle cx="99.49002542539964" cy="718.7143850819195" r="10" fill="red"></circle>,<circle cx="941.0139761814238" cy="131.2439919037709" r="10" fill="red"></circle>,<circle cx="875.4604092705067" cy="179.23199217578323" r="10" fill="red"></circle>,<circle cx="293.0087479743424" cy="361.394551766038" r="10" fill="red"></circle>,<circle cx="534.4818380345058" cy="980.5681925817644" r="10" fill="red"></circle>,<circle cx="645.7476423143411" cy="565.5085810216702" r="10" fill="red"></circle>,<circle cx="945.4292988177808" cy="347.56925433055994" r="10" fill="red"></circle>,<circle cx="405.33850212884937" cy="205.71220460918815" r="10" fill="red"></circle>,<circle cx="761.1767732043905" cy="163.1479112866252" r="10" fill="red"></circle>,<circle cx="600.5378303322713" cy="630.2850326225338" r="10" fill="red"></circle>,<circle cx="471.4354576015445" cy="433.1982988294041" r="10" fill="red"></circle>,<circle cx="553.148938260704" cy="365.06721285744504" r="10" fill="red"></circle>,<circle cx="641.680533378155" cy="92.52690459752677" r="10" fill="red"></circle>,<circle cx="639.7625790883499" cy="82.0945374912938" r="10" fill="red"></circle>,<circle cx="8.141601848515867" cy="514.3639541873029" r="10" fill="red"></circle>,<circle cx="490.4632550723509" cy="748.3007021718986" r="10" fill="red"></circle>,<circle cx="709.5672449651054" cy="231.87937653511327" r="10" fill="red"></circle>,<circle cx="374.90651803790587" cy="321.3840978635709" r="10" fill="red"></circle>,<circle cx="402.40626536976134" cy="661.8216765038853" r="10" fill="red"></circle>,<circle cx="918.1921656272516" cy="792.3246066610077" r="10" fill="red"></circle>,<circle cx="60.385844986852845" cy="527.6407314007591" r="10" fill="red"></circle>,<circle cx="746.7305917816462" cy="398.80780788839144" r="10" fill="red"></circle>,<circle cx="661.3220500256793" cy="741.7353925813701" r="10" fill="red"></circle>,<circle cx="748.7115464277647" cy="681.8071216170684" r="10" fill="red"></circle>,<circle cx="159.7763568978845" cy="391.38577988418757" r="10" fill="red"></circle>,<circle cx="195.0408803401531" cy="281.34609658729823" r="10" fill="red"></circle>,<circle cx="222.80648391752766" cy="234.5208288281999" r="10" fill="red"></circle>,<circle cx="241.64917732728154" cy="424.06730975672826" r="10" fill="red"></circle>,<circle cx="745.4944772389762" cy="949.5308554087974" r="10" fill="red"></circle>,<circle cx="548.9192909027647" cy="798.990094618029" r="10" fill="red"></circle>,<circle cx="245.54628079086282" cy="99.05456521182576" r="10" fill="red"></circle>,<circle cx="31.904361991654806" cy="236.8324016284007" r="10" fill="red"></circle>,<circle cx="999.0205518920152" cy="945.3503122146578" r="10" fill="red"></circle>,<circle cx="7.932312659996166" cy="5.5893591699429646" r="10" fill="red"></circle>,<circle cx="585.7153640116009" cy="47.29099223224553" r="10" fill="red"></circle>,<circle cx="905.9981694535968" cy="101.5254194096109" r="10" fill="red"></circle>,<circle cx="939.4148655409114" cy="911.3122228506611" r="10" fill="red"></circle>,<circle cx="406.4112236885673" cy="136.2714337369446" r="10" fill="red"></circle>,<circle cx="261.8773029580466" cy="83.55861369070783" r="10" fill="red"></circle>,<circle cx="878.5206929477214" cy="656.5112311287162" r="10" fill="red"></circle>,<circle cx="183.6648471419926" cy="36.62414032037664" r="10" fill="red"></circle>,<circle cx="830.3848444203438" cy="433.2636236760643" r="10" fill="red"></circle>,<circle cx="475.1350599625122" cy="271.1037780084948" r="10" fill="red"></circle>,<circle cx="565.9689512798709" cy="564.521821682686" r="10" fill="red"></circle>,<circle cx="588.9578567042045" cy="689.1432656753109" r="10" fill="red"></circle>,<circle cx="82.14799648198957" cy="523.5636135261976" r="10" fill="red"></circle>,<circle cx="941.5678242316552" cy="576.5009990855061" r="10" fill="red"></circle>,<circle cx="220.54438056271985" cy="889.5663359922002" r="10" fill="red"></circle>,<circle cx="907.4846746507433" cy="885.5343951582946" r="10" fill="red"></circle>,<circle cx="370.76071837624846" cy="668.5822119182448" r="10" fill="red"></circle>,<circle cx="676.4938053326047" cy="847.664460085156" r="10" fill="red"></circle>,<circle cx="815.7085948555957" cy="45.246244538305945" r="10" fill="red"></circle>,<circle cx="177.37519283966918" cy="10.530011872538214" r="10" fill="red"></circle>,<circle cx="309.45651274476324" cy="97.81257272796707" r="10" fill="red"></circle>,<circle cx="755.1764954725992" cy="831.2610446390316" r="10" fill="red"></circle>,<circle cx="809.8103826942553" cy="730.1818884134483" r="10" fill="red"></circle>,<circle cx="891.9313633654095" cy="601.381275476559" r="10" fill="red"></circle>,<circle cx="11.434137495403895" cy="980.1772096942487" r="10" fill="red"></circle>,<circle cx="616.2428137683291" cy="638.9211140314344" r="10" fill="red"></circle>,<circle cx="365.66190598813716" cy="208.45732619883805" r="10" fill="red"></circle>,<circle cx="564.3563236678999" cy="4.394130889477266" r="10" fill="red"></circle>,<circle cx="889.1287385411524" cy="713.2404242085248" r="10" fill="red"></circle>,<circle cx="96.1246851667743" cy="294.3287963648442" r="10" fill="red"></circle>,<circle cx="112.80111183100571" cy="101.06531456204992" r="10" fill="red"></circle>,<circle cx="591.7837108732137" cy="744.4907651351731" r="10" fill="red"></circle>,<circle cx="735.8438472902455" cy="830.6430384176741" r="10" fill="red"></circle>,<circle cx="863.3435618856404" cy="338.4979213712469" r="10" fill="red"></circle>,<circle cx="902.4256973766767" cy="798.3947385825049" r="10" fill="red"></circle>,<circle cx="484.90671406769815" cy="882.8239823957971" r="10" fill="red"></circle>,<circle cx="565.0532313248051" cy="885.9738783949276" r="10" fill="red"></circle>,<circle cx="351.52306201991036" cy="216.44408086099443" r="10" fill="red"></circle>,<circle cx="668.212148175936" cy="554.4694744001692" r="10" fill="red"></circle>,<circle cx="133.16679229580308" cy="809.018061025363" r="10" fill="red"></circle>,<circle cx="487.23787894254644" cy="779.353672703456" r="10" fill="red"></circle>,<circle cx="85.12850801799642" cy="353.3230462240589" r="10" fill="red"></circle>,<circle cx="221.5382415143339" cy="647.6529571400469" r="10" fill="red"></circle>,<circle cx="550.5327068200913" cy="320.7005836199663" r="10" fill="red"></circle>,<circle cx="83.96853189137144" cy="704.0950303366329" r="10" fill="red"></circle>,<circle cx="927.1687623620031" cy="603.351564642139" r="10" fill="red"></circle>,<circle cx="933.945845916196" cy="984.1106601756672" r="10" fill="red"></circle>,<circle cx="269.2218199700618" cy="5.634396548055864" r="10" fill="red"></circle>,<circle cx="169.97819305365013" cy="407.7076030323661" r="10" fill="red"></circle>,<circle cx="618.5573178915012" cy="857.6387378999347" r="10" fill="red"></circle>,<circle cx="215.35521138564096" cy="526.6927976528151" r="10" fill="red"></circle>,<circle cx="2.275311099932731" cy="21.542252863153255" r="10" fill="red"></circle>,<circle cx="155.53297231933993" cy="972.1978729124729" r="10" fill="red"></circle>,<circle cx="757.9312460571856" cy="568.894823673358" r="10" fill="red"></circle>,<circle cx="805.4059285421121" cy="866.4701592002799" r="10" fill="red"></circle>,<circle cx="265.0404349666453" cy="226.15965079714306" r="10" fill="red"></circle>,<circle cx="226.52927215999674" cy="308.50402213824646" r="10" fill="red"></circle>,<circle cx="547.954914744327" cy="758.7471010665046" r="10" fill="red"></circle>,<circle cx="364.1240686640603" cy="359.26613442085096" r="10" fill="red"></circle>,<circle cx="59.23068984404822" cy="115.14571759375781" r="10" fill="red"></circle>,<circle cx="856.6941958920909" cy="813.1587607807662" r="10" fill="red"></circle>,<circle cx="236.90357425732844" cy="846.9882255209624" r="10" fill="red"></circle>,<circle cx="264.9114912505954" cy="200.42939870131616" r="10" fill="red"></circle>,<circle cx="998.7974833627735" cy="302.7053482366642" r="10" fill="red"></circle>,<circle cx="526.1355882969597" cy="115.01536832482628" r="10" fill="red"></circle>,<circle cx="596.4001433104906" cy="199.351991914128" r="10" fill="red"></circle>,<circle cx="941.125673840105" cy="689.8707689217143" r="10" fill="red"></circle>,<circle cx="72.81664890432805" cy="763.9904477036026" r="10" fill="red"></circle>,<circle cx="802.1768463875314" cy="936.9319533385891" r="10" fill="red"></circle>,<circle cx="284.2243212568172" cy="148.64915659863365" r="10" fill="red"></circle>,<circle cx="221.91206645264617" cy="211.2449597749202" r="10" fill="red"></circle>,<circle cx="326.1915880035611" cy="647.2725570910831" r="10" fill="red"></circle>,<circle cx="599.7853799365118" cy="107.50951233341621" r="10" fill="red"></circle>,<circle cx="420.55832299185346" cy="288.2983954075362" r="10" fill="red"></circle>,<circle cx="432.03023681007903" cy="541.8252562548673" r="10" fill="red"></circle>,<circle cx="232.86925241999" cy="475.40185256350685" r="10" fill="red"></circle>,<circle cx="937.4900744042423" cy="718.7552231454755" r="10" fill="red"></circle>,<circle cx="89.5612542851263" cy="308.430299206901" r="10" fill="red"></circle>,<circle cx="827.3436482210335" cy="58.798619641730056" r="10" fill="red"></circle>,<circle cx="699.0129268729854" cy="512.7258592941737" r="10" fill="red"></circle>,<circle cx="780.8337166573955" cy="868.6162955040597" r="10" fill="red"></circle>,<circle cx="760.5511970075689" cy="876.409409892483" r="10" fill="red"></circle>,<circle cx="242.7952423620583" cy="716.6753304262423" r="10" fill="red"></circle>,<circle cx="549.9695565473983" cy="22.959857397675478" r="10" fill="red"></circle>,<circle cx="237.99380184039998" cy="817.5619730140673" r="10" fill="red"></circle>,<circle cx="474.871227619214" cy="618.5678497435481" r="10" fill="red"></circle>,<circle cx="899.3681678399703" cy="109.59761049914118" r="10" fill="red"></circle>,<circle cx="807.6859959230071" cy="444.39537964644194" r="10" fill="red"></circle>,<circle cx="216.8831268838831" cy="230.79758758090563" r="10" fill="red"></circle>,<circle cx="666.3058577162877" cy="215.87296145607172" r="10" fill="red"></circle>,<circle cx="167.3577684119716" cy="594.4967892218777" r="10" fill="red"></circle>,<circle cx="92.3077637674401" cy="676.5574378133847" r="10" fill="red"></circle>,<circle cx="120.44222852038277" cy="370.89895321140267" r="10" fill="red"></circle>,<circle cx="452.61099374334134" cy="670.8801419366653" r="10" fill="red"></circle>,<circle cx="863.8306880692672" cy="482.24878959874485" r="10" fill="red"></circle>,<circle cx="768.7956553985762" cy="5.8045083557820565" r="10" fill="red"></circle>,<circle cx="958.5830200639762" cy="339.6218581635424" r="10" fill="red"></circle>,<circle cx="309.2900424839451" cy="691.8235611074208" r="10" fill="red"></circle>,<circle cx="261.34046764072673" cy="436.17160447482894" r="10" fill="red"></circle>,<circle cx="989.4202724198589" cy="179.37371089910425" r="10" fill="red"></circle>,<circle cx="160.58993048097702" cy="746.6821353037399" r="10" fill="red"></circle>,<circle cx="48.33717383278113" cy="394.881586747831" r="10" fill="red"></circle>,<circle cx="949.3604424648869" cy="111.38338344682607" r="10" fill="red"></circle>,<circle cx="256.60093791197426" cy="745.1760638231449" r="10" fill="red"></circle>,<circle cx="682.9919003279462" cy="353.11297070940253" r="10" fill="red"></circle>,<circle cx="807.0291551486977" cy="889.1827423901351" r="10" fill="red"></circle>,<circle cx="476.9629645782385" cy="143.84183167176423" r="10" fill="red"></circle>,<circle cx="598.9995932046183" cy="582.1544120600795" r="10" fill="red"></circle>,<circle cx="53.24964766573848" cy="538.9846083886857" r="10" fill="red"></circle>,<circle cx="734.621789443392" cy="208.90688922417831" r="10" fill="red"></circle>,<circle cx="98.45895337298249" cy="228.1314237783587" r="10" fill="red"></circle>,<circle cx="367.17635331499076" cy="267.69067492345243" r="10" fill="red"></circle>,<circle cx="317.17446832488247" cy="477.3337168293832" r="10" fill="red"></circle>,<circle cx="375.178014414681" cy="391.27534538365927" r="10" fill="red"></circle>,<circle cx="833.2884094913151" cy="625.8083662476106" r="10" fill="red"></circle>,<circle cx="142.6763915821121" cy="887.7448327584012" r="10" fill="red"></circle>,<circle cx="935.7415625307785" cy="850.4912655156531" r="10" fill="red"></circle>,<circle cx="451.076539838726" cy="525.2849071863182" r="10" fill="red"></circle>,<circle cx="505.19614868267547" cy="679.0488562469102" r="10" fill="red"></circle>,<circle cx="96.00200693453841" cy="785.4717356699821" r="10" fill="red"></circle>,<circle cx="423.26685686638467" cy="553.6461067168361" r="10" fill="red"></circle>,<circle cx="52.98506302808992" cy="776.4304014559191" r="10" fill="red"></circle>,<circle cx="679.8739905208606" cy="454.0968076173057" r="10" fill="red"></circle>,<circle cx="799.3565902893909" cy="450.7083650620556" r="10" fill="red"></circle>,<circle cx="504.7201211386054" cy="30.83848473345818" r="10" fill="red"></circle>,<circle cx="939.9461105647054" cy="997.031573424952" r="10" fill="red"></circle>,<circle cx="50.8085501441331" cy="45.73917087926538" r="10" fill="red"></circle>,<circle cx="545.3893603605997" cy="734.1709415664799" r="10" fill="red"></circle>,<circle cx="632.7893219756811" cy="729.666427141163" r="10" fill="red"></circle>,<circle cx="125.13497250214999" cy="743.8627652267376" r="10" fill="red"></circle>,<circle cx="196.85920141637658" cy="837.0900574434022" r="10" fill="red"></circle>,<circle cx="668.6933408525086" cy="837.2618757166625" r="10" fill="red"></circle><line x1="691.6451217312157" y1="0" x2="202.63294771876286" y2="1000" r="10" stroke-width="10" stroke="black"></line>,<line x1="260.98546798877703" y1="880.6726634406282" x2="260.98546798877703" y2="880.6726634406282" r="10" stroke-width="10" stroke="black"></line>,<line x1="1000" y1="83.64300580368581" x2="283.81246338130205" y2="833.9928533957685" r="10" stroke-width="10" stroke="black"></line>,<line x1="297.54578452554324" y1="805.9090512450853" x2="316.9508402229447" y2="799.2737683220862" r="10" stroke-width="10" stroke="black"></line>,<line x1="226.2601806332412" y1="951.6837531454244" x2="226.2601806332412" y2="951.6837531454244" r="10" stroke-width="10" stroke="black"></line>,<line x1="307.8171602221188" y1="784.9047158881623" x2="342.9818877752339" y2="772.0010337870232" r="10" stroke-width="10" stroke="black"></line>,<line x1="234.6344973555259" y1="934.5587874138525" x2="234.6344973555259" y2="934.5587874138525" r="10" stroke-width="10" stroke="black"></line>,<line x1="399.5799015362352" y1="597.2555198340378" x2="397.1050906811609" y2="715.2961415971986" r="10" stroke-width="10" stroke="black"></line>,<line x1="307.53895344630973" y1="785.4736317364658" x2="329.3517240621261" y2="786.2813594585249" r="10" stroke-width="10" stroke="black"></line>,<line x1="363.14728556504855" y1="671.7579921799695" x2="398.8192303007037" y2="633.537123098947" r="10" stroke-width="10" stroke="black"></line>,<line x1="486.86686772555856" y1="1000" x2="356.40433528131433" y2="757.9383324336175" r="10" stroke-width="10" stroke="black"></line>,<line x1="453.1264979110111" y1="656.6025002986198" x2="414.6094713300329" y2="865.9328043246355" r="10" stroke-width="10" stroke="black"></line>,<line x1="374.9500564624192" y1="792.3482745925892" x2="417.8390756676952" y2="848.3807210540001" r="10" stroke-width="10" stroke="black"></line>,<line x1="370.97778323138516" y1="784.9780736289958" x2="426.20198937997293" y2="802.9303988113437" r="10" stroke-width="10" stroke="black"></line>,<line x1="832.4650872192356" y1="0" x2="439.8541184611359" y2="514.8972083947912" r="10" stroke-width="10" stroke="black"></line>,<line x1="365.81864877712053" y1="775.4057568434682" x2="429.09494302130196" y2="787.2079269845167" r="10" stroke-width="10" stroke="black"></line>,<line x1="370.4383684234161" y1="776.2674178797344" x2="370.4383684234161" y2="776.2674178797344" r="10" stroke-width="10" stroke="black"></line>,<line x1="361.84165164326265" y1="768.0267910968101" x2="431.3096601905928" y2="775.1714989543157" r="10" stroke-width="10" stroke="black"></line>,<line x1="415.2459712182489" y1="799.368808442552" x2="415.2459712182489" y2="799.368808442552" r="10" stroke-width="10" stroke="black"></line>,<line x1="329.9948746717692" y1="739.5526456775634" x2="445.2738758923602" y2="699.2795161661265" r="10" stroke-width="10" stroke="black"></line>,<line x1="432.1326969963742" y1="898.4455966679039" x2="815.5833792264539" y2="22.139840733219444" r="10" stroke-width="10" stroke="black"></line>,<line x1="460.0828008367018" y1="834.570793442088" x2="460.0828008367018" y2="834.570793442088" r="10" stroke-width="10" stroke="black"></line>,<line x1="832.0828112961135" y1="0" x2="463.53648833976206" y2="466.4682098193424" r="10" stroke-width="10" stroke="black"></line>,<line x1="439.4813555720893" y1="881.6515939271969" x2="439.4813555720893" y2="881.6515939271969" r="10" stroke-width="10" stroke="black"></line>,<line x1="433.3564997061389" y1="895.6488214673518" x2="433.3564997061389" y2="895.6488214673518" r="10" stroke-width="10" stroke="black"></line><circle cx="302.35901288168776" cy="878.9967318635992" r="10" fill="green"></circle></g>

  </svg>