<svg xmlns="http://www.w3.org/2000/svg" width="512" height="512" viewBox="0 0 512 512">

<path stroke="blue" stroke-width="1" d="M2,1L1,8,M7,0L2,1,M1,8L8,9M0,0L2,1,M2,1L2,1,M7,0L2,1M59,5L69,5,M58,0L59,5,M72,0L69,5M93,0L88,3,M86,3L88,3,M86,0L86,3M2,1L0,2,M0,0L2,1M2,1L0,2,M2,1L2,1,M2,1L1,8,M0,7L1,8M34,0L30,5,M27,0L30,5M75,0L83,7,M86,3L83,7,M86,3L86,3,M86,0L86,3M93,0L88,3,M88,3L99,7,M103,6L99,7,M106,0L103,6M37,4L46,8,M36,0L37,4,M46,0L46,8M58,0L59,5,M59,5L53,14,M46,12L53,14,M46,8L46,12,M46,0L46,8M27,0L30,5,M30,5L30,7,M30,7L25,10,M21,7L25,10,M14,1L21,7,M14,0L14,1M37,4L33,8,M36,0L37,4,M30,7L33,8,M30,5L30,7,M34,0L30,5M153,8L170,4,M150,1L153,8,M149,0L150,1M72,0L81,14,M82,13L81,14,M83,7L82,13,M75,0L83,7M86,3L94,11,M86,3L86,3,M86,3L88,3,M88,3L99,7,M99,7L94,11M153,8L170,4,M153,8L155,13,M155,13L164,10,M164,10L170,4M37,4L46,8,M37,4L33,8,M33,8L42,15,M46,12L42,15,M46,8L46,12M72,0L81,14,M81,14L76,16,M75,16L76,16,M71,14L75,16,M69,5L71,14,M72,0L69,5M86,3L94,11,M86,3L83,7,M83,7L82,13,M82,13L90,16,M94,11L90,16M164,10L170,4,M164,10L170,9M116,0L120,21,M120,21L130,19,M130,0L130,19M150,1L135,19,M149,0L150,1,M132,20L135,19,M130,19L132,20,M130,0L130,19M59,5L69,5,M59,5L53,14,M53,14L58,20,M71,14L58,20,M69,5L71,14M164,10L170,9,M155,13L164,10,M155,13L156,15,M156,15L170,13M33,8L42,15,M30,7L33,8,M30,7L25,10,M25,10L26,15,M26,15L29,20,M29,20L38,20,M42,15L38,20M116,0L120,21,M120,21L116,23,M105,13L116,23,M103,6L105,13,M106,0L103,6M21,7L14,19,M14,1L21,7,M14,1L8,9,M8,9L8,10,M8,10L12,20,M14,19L12,20M8,10L0,19,M8,9L8,10,M1,8L8,9,M0,7L1,8M21,7L14,19,M21,7L25,10,M25,10L26,15,M26,15L14,19M150,1L135,19,M150,1L153,8,M153,8L155,13,M155,13L156,15,M156,15L156,17,M149,19L156,17,M135,19L149,19M164,27L170,14,M161,26L164,27,M156,17L161,26,M156,15L156,17,M156,15L170,13M164,27L170,14,M164,27L170,29M8,10L0,19,M8,10L12,20,M12,20L12,21,M12,21L10,24,M10,24L9,25,M6,24L9,25,M0,19L6,24M105,13L100,21,M103,6L105,13,M103,6L99,7,M99,7L94,11,M94,11L90,16,M90,16L90,16,M90,16L94,21,M94,21L99,22,M100,21L99,22M26,15L14,19,M26,15L29,20,M29,20L27,22,M27,22L22,25,M12,21L22,25,M12,20L12,21,M14,19L12,20M100,21L107,24,M105,13L100,21,M105,13L116,23,M116,23L115,24,M115,25L115,24,M107,24L115,25M78,19L83,24,M76,16L78,19,M81,14L76,16,M82,13L81,14,M82,13L90,16,M90,16L90,16,M90,16L88,20,M88,20L86,22,M86,22L84,23,M84,23L84,24,M83,24L84,24M6,24L0,29,M0,19L6,24,M0,29L0,29M40,26L53,30,M38,20L40,26,M42,15L38,20,M46,12L42,15,M46,12L53,14,M53,14L58,20,M58,20L58,22,M58,22L53,30M62,25L71,24,M58,22L62,25,M58,20L58,22,M71,14L58,20,M71,14L75,16,M75,16L72,24,M72,24L71,24M78,23L82,26,M78,19L78,23,M78,19L83,24,M83,24L82,26,M82,26L82,26M84,23L86,26,M86,22L84,23,M86,22L86,25,M86,25L86,26M88,20L89,27,M90,16L88,20,M90,16L94,21,M94,21L94,25,M94,25L92,28,M89,27L92,28,M89,27L89,27M149,19L144,29,M135,19L149,19,M132,20L135,19,M132,20L133,23,M133,23L144,29M78,24L74,25,M78,23L78,24,M78,19L78,23,M76,16L78,19,M75,16L76,16,M75,16L72,24,M72,24L74,25M78,23L82,26,M78,23L78,24,M78,24L78,26,M78,26L79,29,M79,29L79,30,M82,26L79,30M84,25L83,27,M84,24L84,25,M83,24L84,24,M83,24L82,26,M82,26L83,27M84,25L85,26,M84,25L83,27,M83,27L85,30,M85,30L85,30,M85,26L85,30M84,23L86,26,M84,23L84,24,M84,24L84,25,M84,25L85,26,M86,26L85,26M86,25L86,26,M86,25L89,27,M89,27L89,27,M89,27L85,30,M85,26L85,30,M86,26L85,26M86,22L86,25,M88,20L86,22,M88,20L89,27,M86,25L89,27M107,24L103,27,M100,21L107,24,M100,21L99,22,M99,22L99,24,M99,24L101,26,M101,26L103,27M15,29L21,29,M10,24L15,29,M12,21L10,24,M12,21L22,25,M22,25L21,29M62,25L71,24,M62,25L62,25,M62,25L68,29,M69,29L68,29,M71,27L69,29,M71,26L71,27,M71,24L71,26M71,26L74,27,M71,24L71,26,M72,24L71,24,M72,24L74,25,M74,25L75,27,M75,27L74,27M78,24L74,25,M78,24L78,26,M78,26L75,27,M74,25L75,27M74,28L79,29,M74,27L74,28,M75,27L74,27,M78,26L75,27,M78,26L79,29M82,26L83,27,M82,26L82,26,M82,26L79,30,M79,30L79,30,M79,30L80,31,M80,31L81,31,M81,31L85,31,M85,30L85,31,M83,27L85,30M94,25L98,27,M94,21L94,25,M94,21L99,22,M99,22L99,24,M99,24L98,27M71,26L74,27,M71,26L71,27,M71,27L73,29,M74,28L73,29,M74,27L74,28M94,25L98,27,M94,25L92,28,M92,28L94,32,M94,32L94,32,M97,29L94,32,M98,27L97,29M99,24L98,27,M99,24L101,26,M101,26L100,29,M97,29L100,29,M98,27L97,29M149,19L144,29,M149,19L156,17,M156,17L161,26,M154,33L161,26,M151,33L154,33,M146,33L151,33,M145,32L146,33,M144,29L145,32M28,27L38,31,M27,22L28,27,M29,20L27,22,M29,20L38,20,M38,20L40,26,M40,26L38,31M69,29L74,32,M71,27L69,29,M71,27L73,29,M73,29L74,32M74,28L79,29,M74,28L73,29,M73,29L74,32,M74,32L74,32,M74,32L76,32,M79,30L76,32,M79,30L79,30,M79,29L79,30M100,29L102,29,M100,29L100,29,M101,26L100,29,M101,26L103,27,M103,27L103,27,M103,27L102,29M104,29L104,30,M103,27L104,29,M103,27L102,29,M102,29L102,30,M102,30L103,30,M104,30L103,30M103,27L104,29,M103,27L103,27,M107,24L103,27,M107,24L115,25,M115,25L112,27,M112,27L110,29,M104,29L110,29M28,30L25,35,M28,27L28,30,M27,22L28,27,M27,22L22,25,M22,25L21,29,M21,29L22,34,M22,34L25,35M28,27L38,31,M28,27L28,30,M28,30L37,34,M38,31L37,34M89,27L85,30,M89,27L92,28,M92,28L94,32,M94,32L94,33,M87,34L94,33,M87,34L87,34,M85,31L87,34,M85,30L85,31,M85,30L85,30M100,29L100,32,M100,29L100,29,M97,29L100,29,M97,29L94,32,M94,32L100,32M100,29L100,32,M100,29L102,29,M102,29L102,30,M102,30L102,32,M101,32L102,32,M100,32L101,32M104,30L106,31,M104,29L104,30,M104,29L110,29,M110,29L109,30,M106,31L109,30M104,30L106,31,M104,30L103,30,M103,30L105,31,M105,31L106,31M133,23L132,36,M132,20L133,23,M130,19L132,20,M120,21L130,19,M120,21L116,23,M116,23L115,24,M115,24L118,32,M118,32L122,38,M122,38L122,38,M122,38L126,39,M126,39L129,40,M132,36L129,40M0,29L7,34,M6,24L0,29,M6,24L9,25,M9,25L9,31,M9,31L7,34M40,26L53,30,M40,26L38,31,M38,31L37,34,M37,34L38,40,M38,40L40,43,M40,43L40,43,M40,43L42,43,M51,38L42,43,M51,37L51,38,M53,34L51,37,M53,30L53,34M69,29L74,32,M69,29L68,29,M68,29L69,32,M69,32L72,34,M72,33L72,34,M74,32L72,33,M74,32L74,32M103,30L105,31,M102,30L103,30,M102,30L102,32,M102,32L103,33,M105,31L103,33M140,35L145,32,M136,36L140,35,M132,36L136,36,M133,23L132,36,M133,23L144,29,M144,29L145,32M15,29L16,35,M10,24L15,29,M10,24L9,25,M9,25L9,31,M9,31L16,35M15,29L16,35,M15,29L21,29,M21,29L22,34,M22,34L19,36,M16,35L19,36,M16,35L16,35M28,30L37,34,M28,30L25,35,M25,35L28,38,M28,38L38,40,M37,34L38,40M69,32L66,34,M68,29L69,32,M62,25L68,29,M62,25L64,33,M64,33L65,34,M65,34L66,34M0,29L7,34,M0,29L0,29,M7,34L6,35M57,35L64,33,M53,34L57,35,M53,30L53,34,M58,22L53,30,M58,22L62,25,M62,25L62,25,M62,25L64,33M94,32L100,32,M94,32L94,32,M94,32L94,33,M94,33L96,38,M96,38L98,38,M101,32L98,38,M100,32L101,32M105,31L103,33,M105,31L106,31,M106,31L109,30,M109,30L107,35,M104,34L107,35,M103,33L104,34M66,34L69,37,M69,32L66,34,M69,32L72,34,M72,34L70,38,M69,37L70,38M101,32L98,38,M101,32L102,32,M102,32L103,33,M103,33L104,34,M104,34L102,38,M98,38L102,38M72,33L75,36,M74,32L72,33,M74,32L76,32,M76,32L77,35,M77,35L75,36M80,31L78,35,M79,30L80,31,M79,30L76,32,M76,32L77,35,M77,35L77,35,M78,35L77,35M112,27L110,36,M115,25L112,27,M115,25L115,24,M115,24L118,32,M118,32L113,35,M110,36L113,35M7,36L16,35,M7,36L6,35,M7,34L6,35,M9,31L7,34,M9,31L16,35,M16,35L16,35,M16,35L16,35M65,35L61,36,M65,34L65,35,M64,33L65,34,M57,35L64,33,M57,35L59,36,M59,36L61,36M78,35L80,36,M80,31L78,35,M80,31L81,31,M81,31L81,35,M81,35L80,36M78,35L80,36,M78,35L77,35,M77,35L78,38,M80,36L78,38M81,31L81,35,M81,31L85,31,M85,31L87,34,M87,34L84,37,M81,35L84,37M104,34L107,35,M104,34L102,38,M102,38L103,39,M103,39L108,36,M107,35L108,36M112,27L110,36,M112,27L110,29,M110,29L109,30,M109,30L107,35,M107,35L108,36,M108,36L108,37,M110,36L108,37M7,37L0,41,M7,36L7,37,M7,36L6,35,M0,35L6,35M7,36L16,35,M7,36L7,37,M9,41L7,37,M14,37L9,41,M16,35L14,37M65,35L61,36,M65,35L65,36,M65,36L63,37,M61,36L63,37M63,37L63,39,M61,36L63,37,M59,36L61,36,M59,36L61,38,M61,38L63,39M72,33L75,36,M72,33L72,34,M72,34L70,38,M70,38L71,38,M71,38L75,38,M75,36L75,38M77,35L78,38,M77,35L77,35,M77,35L75,36,M75,36L75,38,M75,38L78,40,M78,38L78,40M63,37L63,39,M65,36L63,37,M65,36L65,38,M65,38L64,39,M63,39L64,39M65,38L66,39,M65,36L65,38,M65,35L65,36,M65,34L65,35,M65,34L66,34,M66,34L69,37,M69,37L66,39M80,36L78,38,M81,35L80,36,M81,35L84,37,M84,37L83,40,M78,40L83,40,M78,40L78,40,M78,38L78,40M87,34L90,43,M87,34L87,34,M87,34L84,37,M84,37L83,40,M83,40L87,44,M87,44L90,43M87,34L90,43,M87,34L94,33,M94,33L96,38,M96,38L94,43,M90,43L94,43M113,35L111,39,M110,36L113,35,M110,36L108,37,M108,37L109,39,M109,39L111,39M113,35L111,39,M118,32L113,35,M118,32L122,38,M114,39L122,38,M111,39L114,39M140,35L144,40,M140,35L145,32,M145,32L146,33,M146,33L144,40M140,35L144,40,M136,36L140,35,M136,36L144,41,M144,40L144,41M103,39L108,36,M103,39L104,42,M104,42L105,43,M105,43L109,41,M109,41L109,41,M109,39L109,41,M108,37L109,39,M108,36L108,37M151,33L145,47,M146,33L151,33,M146,33L144,40,M144,40L144,41,M144,41L145,47M154,33L156,48,M154,33L161,26,M161,26L164,27,M164,27L170,29,M156,48L167,49M14,37L16,45,M14,37L9,41,M9,41L9,41,M9,41L16,45,M16,45L16,45M19,36L18,45,M22,34L19,36,M22,34L25,35,M25,35L28,38,M28,38L23,46,M18,45L23,46M61,38L61,41,M59,36L61,38,M57,35L59,36,M53,34L57,35,M53,34L51,37,M51,37L58,44,M61,41L58,44M61,38L63,39,M61,38L61,41,M61,41L64,41,M64,39L64,41,M63,39L64,39M65,38L64,39,M65,38L66,39,M66,39L65,41,M64,41L65,41,M64,41L64,41,M64,39L64,41M66,39L65,41,M69,37L66,39,M69,37L70,38,M70,38L71,38,M71,38L71,43,M71,43L71,44,M65,41L71,44M7,37L0,41,M9,41L7,37,M9,41L9,41,M9,41L9,41,M9,41L5,43,M0,41L5,43M14,37L16,45,M16,35L14,37,M16,35L16,35,M16,35L19,36,M19,36L18,45,M16,45L18,45M75,38L78,40,M71,38L75,38,M71,38L71,43,M71,43L76,42,M76,42L77,42,M78,40L77,42,M78,40L78,40M109,41L112,42,M109,39L109,41,M109,39L111,39,M111,39L114,39,M114,39L112,42M136,36L144,41,M132,36L136,36,M132,36L129,40,M129,40L131,44,M131,44L136,49,M136,49L140,51,M140,51L144,50,M144,50L145,50,M145,47L145,50,M144,41L145,47M151,33L145,47,M151,33L154,33,M154,33L156,48,M149,50L156,48,M145,50L149,50,M145,47L145,50M78,40L83,40,M78,40L77,42,M77,42L82,48,M82,48L84,48,M84,48L84,47,M87,44L84,47,M83,40L87,44M95,45L104,42,M94,43L95,45,M96,38L94,43,M96,38L98,38,M98,38L102,38,M102,38L103,39,M103,39L104,42M113,43L116,43,M112,42L113,43,M114,39L112,42,M114,39L122,38,M122,38L122,38,M122,38L122,39,M116,43L122,39M61,41L64,41,M61,41L58,44,M58,44L59,46,M59,46L60,46,M60,46L62,45,M63,44L62,45,M64,41L63,44,M64,41L64,41M28,38L23,46,M28,38L38,40,M38,40L40,43,M40,43L26,52,M26,52L23,46M113,43L112,46,M112,42L113,43,M109,41L112,42,M109,41L109,41,M109,41L112,46,M112,46L112,46M113,43L116,43,M113,43L112,46,M112,46L114,44,M116,43L114,44M0,47L4,48,M5,43L4,48,M0,41L5,43M63,44L71,44,M64,41L63,44,M64,41L65,41,M65,41L71,44,M71,44L71,44M100,48L105,45,M95,46L100,48,M95,45L95,46,M95,45L104,42,M104,42L105,43,M105,43L105,45M114,44L117,47,M112,46L114,44,M112,46L112,46,M112,46L111,50,M111,50L113,50,M113,50L114,49,M114,49L117,47M114,44L117,47,M116,43L114,44,M116,43L122,39,M122,39L118,46,M117,47L118,46M9,45L6,50,M9,41L9,45,M9,41L5,43,M5,43L4,48,M5,49L4,48,M5,49L6,49,M6,49L6,50M12,52L9,45,M16,45L12,52,M9,41L16,45,M9,41L9,41,M9,41L9,45M51,38L55,49,M51,38L42,43,M42,43L48,50,M48,50L53,50,M53,50L55,49,M55,49L55,49M51,38L55,49,M51,37L51,38,M51,37L58,44,M58,44L59,46,M59,46L55,49M63,44L71,44,M63,44L62,45,M62,45L70,48,M71,44L70,48M76,42L77,51,M76,42L77,42,M77,42L82,48,M82,48L79,51,M77,51L79,51M109,41L112,46,M105,43L109,41,M105,43L105,45,M105,45L109,51,M109,51L110,51,M110,51L111,50,M112,46L111,50M76,42L77,51,M71,43L76,42,M71,43L71,44,M71,44L71,44,M71,44L70,48,M70,48L70,49,M70,49L72,50,M72,50L76,51,M76,51L77,51M9,45L6,50,M12,52L9,45,M12,52L11,54,M6,50L11,54M62,45L70,48,M60,46L62,45,M60,46L63,53,M63,53L70,49,M70,48L70,49M100,48L105,45,M100,48L104,54,M104,54L109,51,M105,45L109,51M88,51L93,52,M84,47L88,51,M87,44L84,47,M87,44L90,43,M90,43L94,43,M94,43L95,45,M95,45L95,46,M95,46L94,50,M94,50L93,52M114,49L119,50,M114,49L117,47,M117,47L118,46,M118,46L120,49,M120,49L119,50M126,39L121,49,M122,38L126,39,M122,38L122,39,M122,39L118,46,M118,46L120,49,M120,49L121,49M126,39L121,49,M126,39L129,40,M129,40L131,44,M130,46L131,44,M122,51L130,46,M121,49L122,51M5,49L0,52,M5,49L4,48,M0,47L4,48M16,45L12,52,M16,45L16,45,M16,45L18,45,M18,45L23,46,M26,52L23,46,M26,52L26,52,M26,52L25,53,M25,53L19,58,M12,55L19,58,M12,54L12,55,M11,54L12,54,M12,52L11,54M55,49L59,53,M55,49L55,49,M59,46L55,49,M59,46L60,46,M60,46L63,53,M63,53L62,54,M59,53L62,54M122,51L130,46,M122,51L122,54,M122,54L122,54,M122,54L125,53,M130,46L125,53M94,50L103,54,M95,46L94,50,M95,46L100,48,M100,48L104,54,M104,54L103,54M114,49L119,50,M113,50L114,49,M113,50L115,51,M115,51L118,52,M119,50L118,52M119,50L118,52,M120,49L119,50,M120,49L121,49,M121,49L122,51,M122,51L122,54,M119,53L122,54,M118,52L119,53M6,49L1,55,M5,49L6,49,M5,49L0,52,M0,54L1,55M29,53L35,54,M26,52L29,53,M26,52L26,52,M40,43L26,52,M40,43L40,43,M40,43L39,51,M39,51L35,54M53,50L55,53,M53,50L55,49,M55,49L59,53,M56,54L59,53,M55,53L56,54M84,48L86,55,M84,48L84,47,M84,47L88,51,M88,51L87,56,M86,55L87,56M94,50L103,54,M94,50L93,52,M93,52L94,56,M94,56L102,58,M103,54L102,58M125,53L128,56,M130,46L125,53,M130,46L131,44,M131,44L136,49,M130,55L136,49,M128,56L130,55M6,49L1,55,M6,49L6,50,M6,50L11,54,M11,54L12,54,M12,54L5,57,M1,55L5,57M84,48L86,55,M82,48L84,48,M82,48L79,51,M79,51L81,55,M81,55L83,56,M83,56L86,55M88,51L87,56,M88,51L93,52,M93,52L94,56,M94,56L90,59,M89,58L90,59,M87,56L89,58M115,51L117,54,M115,51L118,52,M118,52L119,53,M119,53L118,54,M117,54L118,54,M117,54L117,54,M117,54L117,54M55,53L53,56,M53,50L55,53,M48,50L53,50,M48,50L48,54,M48,54L50,56,M50,56L51,56,M51,56L53,56M56,55L58,57,M56,54L56,55,M56,54L59,53,M59,53L62,54,M62,54L62,56,M62,56L61,58,M59,59L61,58,M58,57L59,59M112,57L117,54,M112,56L112,57,M112,54L112,56,M112,54L117,54,M117,54L117,54M115,51L117,54,M113,50L115,51,M111,50L113,50,M110,51L111,50,M110,51L112,54,M112,54L117,54M118,54L119,57,M119,53L118,54,M119,53L122,54,M122,54L122,54,M122,54L122,57,M120,59L122,57,M119,57L120,59M125,53L128,56,M122,54L125,53,M122,54L122,57,M122,57L126,59,M126,59L128,56M29,53L35,54,M29,53L34,57,M34,57L34,57,M35,54L34,57M35,54L34,57,M39,51L35,54,M39,51L39,51,M39,51L38,57,M38,57L35,58,M35,58L35,58,M34,57L35,58M39,51L43,58,M39,51L39,51,M40,43L39,51,M40,43L42,43,M42,43L48,50,M48,50L48,54,M48,54L45,58,M43,58L45,58M54,56L56,55,M53,56L54,56,M55,53L53,56,M55,53L56,54,M56,54L56,55M54,56L58,57,M54,56L56,55,M56,55L58,57M70,56L67,57,M72,50L70,56,M70,49L72,50,M63,53L70,49,M63,53L62,54,M62,54L62,56,M62,56L67,57M70,56L72,58,M72,50L70,56,M72,50L76,51,M76,51L75,58,M72,58L75,58,M72,58L72,58M112,57L117,54,M112,57L113,58,M113,58L117,55,M117,54L117,55,M117,54L117,54M117,55L118,57,M117,54L117,55,M117,54L118,54,M118,54L119,57,M118,57L119,57M28,58L34,57,M28,58L25,53,M26,52L25,53,M26,52L29,53,M29,53L34,57M39,51L43,58,M39,51L38,57,M38,57L40,58,M40,58L40,58,M40,58L43,58M102,62L112,56,M102,58L102,62,M103,54L102,58,M104,54L103,54,M104,54L109,51,M109,51L110,51,M110,51L112,54,M112,54L112,56M113,58L118,57,M113,58L113,58,M113,58L117,55,M117,55L118,57M0,60L1,60,M4,58L1,60,M5,57L4,58,M1,55L5,57,M0,54L1,55M54,56L58,57,M53,56L54,56,M51,56L53,56,M51,56L52,59,M52,59L53,59,M53,59L57,60,M59,59L57,60,M58,57L59,59M76,59L79,58,M75,58L76,59,M76,51L75,58,M76,51L77,51,M77,51L79,51,M79,51L81,55,M81,55L81,56,M81,56L80,58,M79,58L80,58M81,56L84,59,M81,56L80,58,M80,58L81,60,M81,60L83,60,M84,59L83,60M28,58L34,57,M28,58L29,59,M29,59L30,60,M30,60L35,58,M34,57L35,58,M34,57L34,57M40,58L36,61,M38,57L40,58,M38,57L35,58,M35,58L35,61,M35,61L36,61M72,58L69,61,M70,56L72,58,M70,56L67,57,M67,57L69,62,M69,62L69,61M81,56L84,59,M81,55L81,56,M81,55L83,56,M83,56L84,59,M84,59L84,59M83,56L84,59,M83,56L86,55,M86,55L87,56,M87,56L89,58,M84,59L89,58M102,62L112,56,M102,62L102,62,M102,62L107,66,M107,66L112,63,M113,61L112,63,M114,59L113,61,M113,58L114,59,M113,58L113,58,M112,57L113,58,M112,56L112,57M113,58L118,57,M113,58L114,59,M114,59L120,59,M120,59L120,59,M119,57L120,59,M118,57L119,57M130,55L131,63,M128,56L130,55,M126,59L128,56,M126,59L126,61,M126,61L129,63,M129,63L131,63M130,55L131,63,M130,55L136,49,M136,49L140,51,M140,51L136,63,M134,63L136,63,M131,63L134,63M155,61L163,61,M152,60L155,61,M149,50L152,60,M149,50L156,48,M156,48L167,49,M163,61L167,49M40,58L36,61,M40,58L40,58,M40,58L40,59,M40,59L40,60,M39,61L40,60,M36,61L39,61M40,59L42,62,M40,58L40,59,M40,58L43,58,M43,58L45,58,M45,58L45,62,M42,62L45,62M50,56L46,65,M50,56L51,56,M51,56L52,59,M52,59L50,63,M47,65L50,63,M46,65L47,65M72,58L73,62,M72,58L72,58,M72,58L69,61,M69,61L71,62,M71,62L73,62M116,61L120,60,M113,61L116,61,M114,59L113,61,M114,59L120,59,M120,59L120,60M5,61L9,64,M5,61L4,58,M5,57L4,58,M12,54L5,57,M12,54L12,55,M12,55L9,64M19,59L26,63,M19,58L19,59,M25,53L19,58,M28,58L25,53,M28,58L29,59,M29,59L26,63M30,60L35,58,M30,60L33,64,M33,64L34,64,M35,63L34,64,M35,61L35,63,M35,58L35,61,M35,58L35,58M50,56L46,65,M48,54L50,56,M48,54L45,58,M45,58L45,62,M45,62L45,63,M45,63L46,65M61,58L65,62,M61,58L61,58,M62,56L61,58,M62,56L67,57,M67,57L69,62,M69,62L68,63,M65,62L68,63M72,58L73,62,M72,58L75,58,M75,58L76,59,M76,59L76,63,M73,62L76,63M79,58L79,63,M76,59L79,58,M76,59L76,63,M76,63L76,64,M76,64L77,64,M79,63L77,64M83,60L82,62,M83,60L83,60,M81,60L83,60,M81,60L81,61,M81,61L82,62M83,60L82,62,M83,60L84,61,M82,63L84,61,M82,62L82,63M83,60L84,61,M83,60L83,60,M84,59L83,60,M84,59L84,59,M84,59L89,58,M89,58L90,59,M90,59L90,60,M90,60L90,61,M88,62L90,61,M86,62L88,62,M84,61L86,62M90,60L98,65,M90,59L90,60,M94,56L90,59,M94,56L102,58,M102,58L102,62,M102,62L102,62,M98,65L102,62M120,64L126,61,M120,62L120,64,M120,60L120,62,M120,59L120,60,M120,59L120,59,M120,59L122,57,M122,57L126,59,M126,59L126,61M2,63L1,60,M0,62L2,63,M0,60L1,60M2,63L1,60,M2,63L3,63,M5,61L3,63,M5,61L4,58,M4,58L1,60M39,61L39,63,M36,61L39,61,M35,61L36,61,M35,61L35,63,M35,63L39,63M39,61L39,63,M39,61L40,60,M40,60L40,62,M40,62L40,63,M39,63L40,63,M39,63L39,63M40,62L42,62,M40,62L40,63,M40,63L42,64,M42,64L45,63,M45,62L45,63,M42,62L45,62M40,59L42,62,M40,59L40,60,M40,60L40,62,M40,62L42,62M51,63L53,62,M50,63L51,63,M52,59L50,63,M52,59L53,59,M53,59L53,62M53,62L55,64,M53,59L53,62,M53,59L57,60,M57,60L57,62,M57,62L55,64M79,58L79,63,M79,58L80,58,M80,58L81,60,M81,60L81,61,M81,61L79,63M81,61L82,62,M81,61L79,63,M79,63L77,64,M77,64L78,65,M78,65L80,65,M80,65L82,63,M82,63L82,63,M82,62L82,63M116,61L120,60,M116,61L120,62,M120,60L120,62M116,61L120,62,M113,61L116,61,M113,61L112,63,M112,63L114,65,M114,65L118,65,M118,65L120,65,M120,64L120,65,M120,62L120,64M144,50L144,65,M140,51L144,50,M140,51L136,63,M136,63L139,65,M139,65L144,65M144,50L144,65,M144,50L145,50,M145,50L149,50,M149,50L152,60,M148,67L152,60,M148,67L148,67,M144,65L148,67M163,61L165,74,M163,61L167,49,M167,49L170,48,M165,74L170,74M12,55L9,64,M12,55L19,58,M19,58L19,59,M19,59L18,65,M18,65L17,67,M17,67L15,69,M14,69L15,69,M9,64L14,69,M9,64L9,64M29,59L26,63,M29,59L30,60,M30,60L33,64,M33,64L31,66,M27,66L31,66,M26,63L27,66M51,63L53,62,M51,63L54,65,M55,64L54,65,M53,62L55,64M65,62L63,64,M61,58L65,62,M61,58L62,63,M62,63L63,64M82,63L84,61,M82,63L82,63,M82,63L84,64,M86,62L84,64,M84,61L86,62M120,64L126,61,M120,64L120,65,M120,65L123,69,M123,69L125,68,M125,68L126,68,M126,68L129,63,M126,61L129,63M0,64L3,64,M3,65L3,64,M3,65L2,66,M0,67L2,66,M0,67L0,67M0,64L3,64,M3,63L3,64,M2,63L3,63,M0,62L2,63M42,64L39,67,M40,63L42,64,M39,63L40,63,M39,63L39,67M61,58L62,63,M61,58L61,58,M59,59L61,58,M59,59L57,60,M57,60L57,62,M57,62L59,65,M59,65L60,65,M62,63L60,65M5,61L3,63,M5,61L9,64,M9,64L9,64,M9,64L7,66,M3,65L7,66,M3,65L3,64,M3,63L3,64M19,59L26,63,M19,59L18,65,M18,65L26,67,M26,67L26,67,M27,66L26,67,M26,63L27,66M35,63L39,63,M35,63L34,64,M34,64L39,67,M39,67L39,67,M39,63L39,67,M39,63L39,63M60,65L64,66,M62,63L60,65,M62,63L63,64,M63,64L64,66M65,62L63,64,M65,62L68,63,M68,63L68,63,M68,63L64,66,M64,66L64,66,M63,64L64,66M71,62L72,66,M69,61L71,62,M69,62L69,61,M69,62L68,63,M68,63L68,63,M68,63L70,67,M70,67L70,68,M70,68L72,67,M72,66L72,67M71,62L72,66,M71,62L73,62,M73,62L76,63,M76,63L76,64,M72,66L76,64M82,63L84,64,M80,65L82,63,M80,65L83,66,M84,65L83,66,M84,64L84,65M90,65L95,70,M90,61L90,65,M90,60L90,61,M90,60L98,65,M98,65L95,70M155,61L156,72,M152,60L155,61,M148,67L152,60,M148,67L150,69,M150,69L156,72M155,61L156,72,M155,61L163,61,M163,61L165,74,M161,76L165,74,M161,76L161,76,M156,72L161,76M42,64L39,67,M42,64L45,63,M45,63L46,65,M46,65L47,65,M47,65L47,66,M47,66L46,69,M46,69L44,71,M41,73L44,71,M39,67L41,73,M39,67L39,67M47,66L54,67,M47,65L47,66,M47,65L50,63,M50,63L51,63,M51,63L54,65,M54,65L54,67M84,65L87,66,M84,65L83,66,M83,66L84,69,M84,69L86,70,M87,68L86,70,M87,66L87,68M84,65L87,66,M84,64L84,65,M86,62L84,64,M86,62L88,62,M88,62L87,66M88,62L87,66,M88,62L90,61,M90,61L90,65,M90,65L87,68,M87,66L87,68M55,64L54,65,M57,62L55,64,M57,62L59,65,M59,65L59,66,M59,66L58,68,M58,68L56,71,M56,71L56,71,M55,70L56,71,M54,67L55,70,M54,65L54,67M60,65L64,66,M59,65L60,65,M59,65L59,66,M59,66L63,68,M63,68L64,68,M64,68L64,68,M64,66L64,68,M64,66L64,66M64,68L70,67,M64,66L64,68,M68,63L64,66,M68,63L70,67M80,65L83,66,M78,65L80,65,M78,65L79,70,M79,70L79,71,M79,71L80,71,M80,71L84,69,M83,66L84,69M90,65L87,68,M90,65L95,70,M95,70L95,73,M89,73L95,73,M86,70L89,73,M87,68L86,70M4,69L2,66,M4,69L5,69,M6,67L5,69,M7,66L6,67,M3,65L7,66,M3,65L2,66M26,67L23,70,M18,65L26,67,M18,65L17,67,M17,67L23,70M34,64L39,67,M33,64L34,64,M33,64L31,66,M31,66L32,71,M32,71L39,75,M39,75L40,75,M41,73L40,75,M39,67L41,73M46,69L55,70,M47,66L46,69,M47,66L54,67,M54,67L55,70M64,68L70,67,M64,68L64,68,M64,68L65,71,M65,71L66,72,M66,72L68,72,M68,72L69,71,M70,68L69,71,M70,67L70,68M72,67L76,71,M72,66L72,67,M72,66L76,64,M76,64L77,64,M77,64L78,65,M78,65L79,70,M78,71L79,70,M76,71L78,71,M76,71L76,71M107,71L115,70,M107,66L107,71,M107,66L112,63,M112,63L114,65,M114,65L115,67,M115,67L115,70M115,67L117,68,M115,67L115,70,M115,70L118,72,M118,72L118,71,M117,68L118,71M118,65L117,68,M118,65L120,65,M120,65L123,69,M123,69L122,70,M118,71L122,70,M117,68L118,71M139,67L143,71,M139,65L139,67,M139,65L144,65,M144,65L148,67,M143,71L148,67M3,71L1,68,M4,69L3,71,M4,69L2,66,M0,67L2,66,M1,68L0,67M8,71L6,67,M8,71L8,71,M5,69L8,71,M6,67L5,69M8,71L6,67,M8,71L12,72,M14,69L12,72,M9,64L14,69,M9,64L7,66,M7,66L6,67M26,67L27,74,M27,66L26,67,M27,66L31,66,M31,66L32,71,M27,74L32,71M58,68L62,68,M58,68L56,71,M56,71L56,71,M56,71L60,70,M62,68L60,70M58,68L62,68,M59,66L58,68,M59,66L63,68,M63,68L62,68M118,65L117,68,M114,65L118,65,M114,65L115,67,M115,67L117,68M126,68L133,70,M126,68L129,63,M129,63L131,63,M131,63L134,63,M134,63L133,70M137,70L139,67,M135,71L137,70,M133,71L135,71,M133,70L133,71,M134,63L133,70,M134,63L136,63,M136,63L139,65,M139,65L139,67,M139,67L139,67M1,68L0,71,M1,68L0,67,M0,67L0,67M26,67L23,70,M26,67L26,67,M26,67L27,74,M27,74L26,75,M26,75L23,71,M23,71L23,70M46,69L55,70,M46,69L44,71,M44,71L48,73,M48,73L56,71,M55,70L56,71M62,68L60,70,M63,68L62,68,M63,68L64,68,M64,68L65,71,M60,70L65,71M98,65L95,70,M98,65L102,62,M102,62L107,66,M107,66L107,71,M107,71L107,77,M107,77L104,82,M95,74L104,82,M95,73L95,74,M95,70L95,73M139,67L143,71,M139,67L139,67,M139,67L140,72,M140,72L140,72,M140,72L142,72,M142,72L143,71M1,68L0,71,M3,71L1,68,M3,71L3,71,M0,72L3,71M5,69L8,71,M4,69L5,69,M4,69L3,71,M3,71L3,71,M3,72L3,71,M3,72L5,73,M8,71L5,73M18,72L23,71,M18,72L15,69,M17,67L15,69,M17,67L23,70,M23,71L23,70M60,70L65,71,M56,71L60,70,M56,71L58,76,M58,76L65,74,M66,72L65,74,M65,71L66,72M72,67L76,71,M70,68L72,67,M70,68L69,71,M69,71L73,73,M73,73L76,71M137,70L139,72,M137,70L139,67,M139,67L140,72,M139,72L140,72M137,70L139,72,M135,71L137,70,M135,71L138,73,M138,73L139,72M107,71L115,70,M107,71L107,77,M107,77L116,74,M118,72L116,74,M115,70L118,72M3,72L2,75,M3,72L3,71,M0,72L3,71,M2,75L0,77M8,71L5,73,M8,71L8,71,M8,71L12,72,M12,72L12,72,M12,72L7,77,M7,77L5,73M18,72L23,71,M22,79L18,72,M22,79L24,80,M26,75L24,80,M26,75L23,71M125,68L130,75,M125,68L126,68,M126,68L133,70,M133,70L133,71,M133,71L132,76,M130,75L132,76M145,77L150,69,M144,77L145,77,M142,72L144,77,M142,72L143,71,M143,71L148,67,M148,67L148,67,M148,67L150,69M76,71L75,75,M76,71L78,71,M78,71L76,76,M75,76L76,76,M75,75L75,76M82,75L88,75,M80,71L82,75,M80,71L84,69,M84,69L86,70,M86,70L89,73,M89,73L88,75M140,72L140,79,M140,72L142,72,M142,72L144,77,M143,78L144,77,M140,79L143,78M2,75L7,77,M3,72L2,75,M3,72L5,73,M7,77L5,73,M7,77L7,77M48,73L56,71,M48,73L53,80,M53,80L57,77,M58,76L57,77,M56,71L58,76,M56,71L56,71,M56,71L56,71M68,72L71,77,M68,72L69,71,M69,71L73,73,M73,73L73,75,M73,75L71,77M76,71L75,75,M76,71L76,71,M73,73L76,71,M73,73L73,75,M73,75L75,75M79,71L78,77,M79,71L80,71,M80,71L82,75,M82,75L81,78,M80,78L81,78,M79,78L80,78,M78,77L79,78M125,68L130,75,M123,69L125,68,M123,69L122,70,M122,70L123,75,M123,75L127,76,M127,76L130,75M135,71L138,73,M133,71L135,71,M133,71L132,76,M132,76L134,81,M134,81L137,79,M138,73L137,79M140,72L140,79,M140,72L140,72,M139,72L140,72,M138,73L139,72,M138,73L137,79,M137,79L140,79M22,79L18,72,M15,78L22,79,M15,78L12,72,M12,72L12,72,M14,69L12,72,M14,69L15,69,M18,72L15,69M27,74L32,71,M27,74L26,75,M26,75L24,80,M25,82L24,80,M25,82L28,84,M39,75L28,84,M32,71L39,75M78,71L76,76,M78,71L79,70,M79,70L79,71,M79,71L78,77,M76,76L78,77M116,74L120,78,M118,72L116,74,M118,72L118,71,M118,71L122,70,M122,70L123,75,M123,75L123,77,M120,78L123,77M145,77L150,69,M145,77L148,79,M148,79L159,77,M159,77L161,76,M156,72L161,76,M150,69L156,72M12,72L7,77,M15,78L12,72,M15,78L11,82,M8,83L11,82,M8,83L7,81,M7,77L7,81,M7,77L7,77M68,72L71,77,M66,72L68,72,M66,72L65,74,M65,74L65,74,M65,74L68,78,M68,78L70,78,M70,78L71,78,M71,78L71,78,M71,77L71,78M73,75L75,75,M73,75L71,77,M71,77L71,78,M71,78L74,79,M74,79L74,79,M75,76L74,79,M75,75L75,76M75,76L74,79,M75,76L76,76,M76,76L78,77,M78,77L79,78,M79,78L78,80,M74,79L78,80M82,75L88,75,M82,75L81,78,M81,78L84,78,M84,78L85,78,M85,78L85,78,M85,78L87,76,M88,75L87,76M2,75L7,77,M2,75L0,77,M7,77L7,81M48,73L53,80,M44,71L48,73,M41,73L44,71,M41,73L40,75,M40,75L43,81,M43,81L53,80,M53,80L53,80M65,74L64,81,M65,74L65,74,M58,76L65,74,M58,76L57,77,M57,77L62,81,M62,81L64,81M65,74L64,81,M65,74L68,78,M68,78L64,81,M64,81L64,81M116,74L120,78,M107,77L116,74,M107,77L104,82,M104,82L104,82,M104,82L105,84,M105,84L117,83,M117,83L117,83,M117,83L118,82,M120,78L118,82M127,76L126,82,M127,76L130,75,M130,75L132,76,M132,76L134,81,M134,81L133,82,M128,84L133,82,M127,83L128,84,M126,82L127,83M127,76L126,82,M123,75L127,76,M123,75L123,77,M123,77L126,82M85,78L85,83,M84,78L85,78,M84,78L84,82,M84,82L85,83M85,78L87,83,M85,78L87,76,M87,76L89,82,M87,83L89,82,M87,83L87,83,M87,83L87,83M95,74L89,82,M95,73L95,74,M89,73L95,73,M89,73L88,75,M88,75L87,76,M87,76L89,82,M89,82L89,82M95,74L89,82,M95,74L104,82,M104,82L104,82,M95,85L104,82,M89,82L95,85M68,78L64,81,M68,78L70,78,M70,78L68,83,M64,81L68,83M80,78L83,83,M79,78L80,78,M79,78L78,80,M78,80L78,82,M78,82L79,85,M79,85L81,85,M83,83L81,85M84,78L84,82,M81,78L84,78,M80,78L81,78,M80,78L83,83,M83,83L84,82M85,78L87,83,M85,78L85,78,M85,78L85,83,M85,83L87,83M118,82L127,83,M120,78L118,82,M120,78L123,77,M123,77L126,82,M126,82L127,83M15,78L11,82,M15,78L22,79,M22,79L24,80,M25,82L24,80,M17,87L25,82,M11,82L17,87M71,78L72,84,M71,78L71,78,M71,78L74,79,M74,79L73,83,M73,83L72,84,M72,84L72,84M71,78L72,84,M70,78L71,78,M70,78L68,83,M68,83L69,83,M69,83L69,84,M69,84L72,84M144,84L148,83,M143,78L144,84,M143,78L144,77,M144,77L145,77,M145,77L148,79,M148,79L148,83M148,79L148,83,M148,79L159,77,M156,82L159,77,M151,87L156,82,M150,87L151,87,M148,83L150,87M32,86L40,85,M28,85L32,86,M28,85L28,84,M39,75L28,84,M39,75L40,75,M40,75L43,81,M43,81L42,84,M42,84L40,85M73,83L76,83,M74,79L73,83,M74,79L74,79,M74,79L78,80,M78,80L78,82,M76,83L78,82M143,78L144,84,M140,79L143,78,M137,79L140,79,M134,81L137,79,M134,81L133,82,M133,82L134,83,M134,83L138,87,M138,87L143,85,M143,85L144,84M5,89L0,82,M5,89L5,89,M0,90L5,89M5,89L0,82,M5,89L5,89,M8,83L5,89,M8,83L7,81,M0,79L7,81M54,85L62,83,M53,84L54,85,M53,80L53,84,M53,80L53,80,M53,80L57,77,M57,77L62,81,M62,81L62,83M64,81L68,83,M64,81L64,81,M62,81L64,81,M62,81L62,83,M62,83L63,92,M69,83L63,92,M68,83L69,83M43,81L53,80,M43,81L42,84,M42,84L46,88,M46,88L47,88,M47,88L53,84,M53,80L53,84M54,85L62,83,M54,85L55,88,M55,88L60,92,M60,92L63,93,M63,92L63,93,M62,83L63,92M76,83L75,87,M73,83L76,83,M73,83L72,84,M72,84L74,86,M74,86L75,87M76,83L75,87,M76,83L78,82,M78,82L79,85,M79,85L79,86,M77,87L79,86,M75,87L77,87M118,82L127,83,M117,83L118,82,M117,83L123,88,M123,88L126,88,M126,88L128,84,M127,83L128,84M144,84L148,83,M143,85L144,84,M143,85L146,87,M146,87L150,87,M148,83L150,87M69,84L71,89,M69,84L72,84,M72,84L72,84,M72,84L74,86,M71,89L74,86M87,83L85,87,M87,83L87,83,M85,83L87,83,M84,82L85,83,M83,83L84,82,M83,83L81,85,M81,85L85,87M87,83L89,90,M87,83L87,83,M87,83L85,87,M85,87L86,91,M86,91L89,90M17,87L10,91,M17,87L17,87,M11,82L17,87,M8,83L11,82,M8,83L5,89,M5,89L10,91M87,83L89,90,M87,83L89,82,M89,82L89,82,M89,82L95,85,M95,85L91,90,M89,90L91,90M156,82L158,92,M156,82L159,77,M159,77L161,76,M161,76L161,76,M161,76L162,87,M161,94L162,87,M158,92L161,94M162,87L170,88,M161,76L162,87,M161,76L165,74,M165,74L170,74M69,84L71,89,M69,83L69,84,M69,83L63,92,M63,92L63,93,M63,93L66,96,M71,89L66,96M79,86L84,92,M79,85L79,86,M79,85L81,85,M81,85L85,87,M85,87L86,91,M84,92L86,91M156,82L158,92,M151,87L156,82,M151,87L152,92,M152,92L158,92M162,87L170,88,M161,94L162,87,M161,94L161,94,M161,94L170,92M40,85L40,90,M32,86L40,85,M32,86L37,92,M40,90L37,92M71,89L74,86,M71,89L66,96,M66,96L66,97,M66,97L75,93,M75,93L76,93,M77,87L76,93,M75,87L77,87,M74,86L75,87M118,89L119,89,M117,83L118,89,M117,83L117,83,M117,83L123,88,M122,89L123,88,M119,89L122,89M143,92L146,87,M142,92L143,92,M139,91L142,92,M138,87L139,91,M138,87L143,85,M143,85L146,87M55,88L48,93,M54,85L55,88,M53,84L54,85,M47,88L53,84,M47,88L48,93M117,83L118,89,M105,84L117,83,M105,84L107,93,M107,93L116,91,M116,91L118,89M134,83L132,93,M133,82L134,83,M128,84L133,82,M126,88L128,84,M126,88L127,93,M127,93L132,93M143,92L146,87,M143,92L144,92,M144,92L150,95,M150,95L152,92,M151,87L152,92,M150,87L151,87,M146,87L150,87M19,91L21,93,M19,91L17,87,M17,87L17,87,M17,87L17,87,M17,87L25,82,M25,82L28,84,M28,85L28,84,M28,85L28,90,M21,93L28,90M46,88L42,91,M42,84L46,88,M42,84L40,85,M40,85L40,90,M40,90L42,91M46,88L42,91,M46,88L47,88,M47,88L48,93,M48,93L48,95,M44,95L48,95,M44,95L42,93,M42,91L42,93M55,88L48,93,M55,88L60,92,M52,96L60,92,M49,95L52,96,M48,95L49,95,M48,93L48,95M79,86L84,92,M77,87L79,86,M77,87L76,93,M76,93L78,93,M78,93L83,94,M84,92L83,94M119,89L119,92,M118,89L119,89,M116,91L118,89,M116,91L119,92M134,83L132,93,M134,83L138,87,M138,87L139,91,M137,93L139,91,M135,94L137,93,M132,93L135,94M37,93L42,93,M37,92L37,93,M37,92L37,92,M40,90L37,92,M40,90L42,91,M42,91L42,93M91,90L94,97,M95,85L91,90,M95,85L104,82,M104,82L105,84,M105,84L107,93,M107,93L107,94,M95,98L107,94,M94,97L95,98M119,89L119,92,M119,89L122,89,M122,89L120,93,M119,92L120,93M17,87L15,94,M17,87L17,87,M17,87L10,91,M12,94L10,91,M12,94L15,94,M15,94L15,94M17,87L15,94,M19,91L17,87,M19,91L18,93,M15,94L18,93M18,94L18,93,M18,94L20,94,M21,93L20,94,M19,91L21,93,M19,91L18,93M28,95L37,92,M28,90L28,95,M28,85L28,90,M28,85L32,86,M32,86L37,92,M37,92L37,92M37,93L42,93,M37,93L38,96,M38,96L38,96,M38,96L42,96,M42,96L44,95,M44,95L42,93M122,89L120,93,M122,89L123,88,M123,88L126,88,M126,88L127,93,M127,93L125,96,M121,98L125,96,M120,93L121,98M28,95L37,92,M28,95L28,95,M28,95L30,96,M30,96L38,96,M37,93L38,96,M37,92L37,93M116,91L119,92,M107,93L116,91,M107,93L107,94,M107,94L109,98,M109,98L118,100,M118,100L121,98,M120,93L121,98,M119,92L120,93M12,94L9,103,M12,94L10,91,M5,89L10,91,M5,89L5,89,M5,89L5,89,M5,89L5,94,M7,103L5,94,M7,103L8,103,M8,103L9,103M18,94L18,93,M18,94L17,97,M17,97L15,94,M15,94L15,94,M15,94L18,93M18,94L20,94,M18,94L17,97,M17,98L17,97,M17,98L19,99,M19,99L21,98,M21,98L20,94M21,98L20,94,M21,98L27,97,M28,95L27,97,M28,95L28,95,M28,90L28,95,M21,93L28,90,M21,93L20,94M86,91L89,90,M84,92L86,91,M84,92L83,94,M83,94L84,98,M84,98L86,101,M86,101L94,97,M91,90L94,97,M89,90L91,90M5,94L0,97,M5,89L5,94,M0,90L5,89M140,98L142,92,M140,98L140,98,M137,93L140,98,M137,93L139,91,M139,91L142,92M144,92L143,97,M143,92L144,92,M142,92L143,92,M140,98L142,92,M140,98L140,98,M140,98L143,97M144,92L143,97,M144,92L150,95,M150,95L149,96,M146,98L149,96,M143,97L146,98M5,94L0,97,M7,103L5,94,M0,102L7,103M75,93L77,98,M66,97L75,93,M66,97L66,100,M66,100L67,102,M67,102L71,104,M71,104L77,99,M77,98L77,99M78,93L77,98,M78,93L83,94,M83,94L84,98,M77,99L84,98,M77,98L77,99M126,97L134,96,M125,96L126,97,M127,93L125,96,M127,93L132,93,M132,93L135,94,M135,94L134,96M126,97L134,96,M126,97L131,104,M131,104L135,103,M135,103L135,103,M134,96L135,103M151,98L159,100,M149,96L151,98,M150,95L149,96,M150,95L152,92,M152,92L158,92,M158,92L161,94,M161,94L161,94,M161,94L161,96,M159,100L161,96M17,97L15,94,M17,98L17,97,M17,98L9,103,M9,103L9,103,M12,94L9,103,M12,94L15,94M53,99L58,101,M52,96L53,99,M52,96L60,92,M60,92L63,93,M63,93L66,96,M66,96L66,97,M66,97L66,100,M58,101L66,100M75,93L77,98,M75,93L76,93,M76,93L78,93,M78,93L77,98M137,93L140,98,M135,94L137,93,M135,94L134,96,M134,96L135,103,M135,103L138,100,M138,100L140,98M140,98L144,101,M140,98L143,97,M143,97L146,98,M144,101L146,98M166,101L170,97,M161,96L166,101,M161,94L161,96,M161,94L170,92M30,96L38,96,M30,96L33,100,M33,100L35,101,M35,101L37,100,M38,96L37,100,M38,96L38,96M37,100L41,103,M38,96L37,100,M38,96L42,96,M42,96L42,102,M42,102L41,103M42,96L42,102,M42,96L44,95,M44,95L48,95,M48,95L49,95,M49,95L47,101,M47,101L47,101,M42,102L47,101M166,101L170,97,M166,101L169,105,M169,105L170,105M33,100L29,104,M30,96L33,100,M28,95L30,96,M28,95L27,97,M27,97L27,98,M29,104L27,98,M29,104L29,104M51,102L53,100,M48,102L51,102,M47,101L48,102,M49,95L47,101,M49,95L52,96,M52,96L53,99,M53,99L53,100M53,100L54,104,M53,99L53,100,M53,99L58,101,M54,104L58,101M138,100L144,102,M138,100L140,98,M140,98L140,98,M140,98L140,98,M140,98L144,101,M144,101L144,102M144,103L150,102,M144,102L144,103,M144,101L144,102,M144,101L146,98,M146,98L149,96,M149,96L151,98,M151,98L150,102M19,101L18,105,M19,99L19,101,M17,98L19,99,M17,98L9,103,M9,103L14,108,M14,108L15,108,M18,105L15,108M19,101L24,103,M19,99L19,101,M19,99L21,98,M21,98L27,97,M27,97L27,98,M27,98L24,103M53,105L51,102,M54,104L53,105,M53,100L54,104,M51,102L53,100M77,99L84,98,M71,104L77,99,M71,104L71,104,M71,104L74,106,M74,106L84,108,M85,107L84,108,M86,101L85,107,M84,98L86,101M120,104L130,106,M120,103L120,104,M118,100L120,103,M118,100L121,98,M121,98L125,96,M125,96L126,97,M126,97L131,104,M130,106L131,104M138,100L144,102,M135,103L138,100,M135,103L135,103,M135,103L138,106,M138,106L143,106,M143,106L144,105,M144,105L144,103,M144,102L144,103M33,100L29,104,M33,100L35,101,M35,101L35,105,M33,106L35,105,M30,106L33,106,M30,106L29,104M37,100L41,103,M35,101L37,100,M35,101L35,105,M35,105L38,106,M41,103L38,106,M41,103L41,103M53,105L51,102,M53,105L52,107,M50,107L52,107,M50,107L48,102,M48,102L51,102M95,98L97,107,M95,98L107,94,M107,94L109,98,M109,98L107,105,M105,106L107,105,M101,108L105,106,M98,108L101,108,M97,107L98,108M151,98L159,100,M151,98L150,102,M150,102L151,103,M151,103L156,106,M156,106L158,105,M158,105L159,100M161,96L166,101,M159,100L161,96,M158,105L159,100,M158,105L160,106,M160,106L160,106,M160,106L161,107,M161,107L165,107,M165,107L169,105,M166,101L169,105M19,101L24,103,M19,101L18,105,M18,105L24,104,M24,104L24,104,M24,103L24,104M24,104L29,104,M24,103L24,104,M27,98L24,103,M29,104L27,98M44,105L46,105,M42,103L44,105,M42,103L41,103,M41,103L41,103,M42,102L41,103,M42,102L47,101,M47,101L46,105M24,104L29,104,M24,104L24,104,M25,109L24,104,M25,109L27,109,M27,109L27,109,M30,106L27,109,M30,106L29,104,M29,104L29,104M46,105L46,107,M47,101L46,105,M47,101L47,101,M47,101L48,102,M50,107L48,102,M49,108L50,107,M46,108L49,108,M46,107L46,108M54,104L58,101,M54,104L53,105,M53,105L52,107,M52,107L56,109,M56,109L61,107,M61,107L65,104,M67,102L65,104,M66,100L67,102,M58,101L66,100M85,107L97,107,M86,101L85,107,M86,101L94,97,M94,97L95,98,M95,98L97,107M148,108L151,103,M144,105L148,108,M144,105L144,103,M144,103L150,102,M150,102L151,103M18,105L24,104,M18,105L15,108,M17,112L15,108,M17,112L21,112,M21,112L25,109,M25,109L24,104M42,103L44,109,M42,103L41,103,M41,103L38,106,M39,108L38,106,M39,108L41,110,M41,110L44,109M44,105L46,105,M46,107L44,105,M46,105L46,107M0,109L5,109,M8,103L5,109,M7,103L8,103,M0,102L7,103M46,107L44,105,M46,107L46,108,M45,109L46,108,M44,109L45,109,M42,103L44,109,M42,103L44,105M111,109L116,107,M107,105L111,109,M109,98L107,105,M109,98L118,100,M118,100L120,103,M116,107L120,103M120,105L125,112,M120,104L120,105,M120,104L130,106,M130,106L129,112,M125,112L129,112M148,108L151,103,M148,108L150,113,M150,113L150,113,M150,113L156,106,M151,103L156,106M27,109L34,111,M30,106L27,109,M30,106L33,106,M33,106L34,111M35,111L39,108,M34,111L35,111,M34,111L34,111,M33,106L34,111,M33,106L35,105,M35,105L38,106,M39,108L38,106M116,107L117,114,M111,109L116,107,M111,109L114,113,M114,113L117,115,M117,115L117,114M116,107L117,114,M116,107L120,103,M120,103L120,104,M120,104L120,105,M120,105L118,114,M117,114L118,114M143,106L143,110,M138,106L143,106,M138,106L138,110,M138,110L139,111,M139,111L141,112,M141,112L143,110M143,110L150,113,M143,106L143,110,M143,106L144,105,M144,105L148,108,M148,108L150,113M91,113L97,111,M84,110L91,113,M84,108L84,110,M85,107L84,108,M85,107L97,107,M97,107L98,108,M98,108L97,111M130,115L138,110,M129,112L130,115,M130,106L129,112,M130,106L131,104,M131,104L135,103,M135,103L138,106,M138,106L138,110M5,114L14,108,M5,114L5,109,M8,103L5,109,M8,103L9,103,M9,103L9,103,M9,103L14,108M35,111L39,108,M35,111L40,115,M40,113L40,115,M41,110L40,113,M39,108L41,110M120,105L125,112,M120,105L118,114,M118,114L123,113,M123,113L125,112M154,115L160,106,M151,115L154,115,M150,114L151,115,M150,113L150,114,M150,113L156,106,M156,106L158,105,M158,105L160,106M154,115L160,106,M154,115L155,115,M155,115L157,114,M157,114L158,114,M158,114L160,106,M160,106L160,106M165,107L165,113,M161,107L165,107,M161,107L162,113,M162,113L163,115,M163,115L165,113M165,107L165,113,M165,107L169,105,M169,105L170,105,M165,113L170,112M0,109L5,109,M5,114L5,109,M5,114L5,116,M0,116L5,116M5,114L14,108,M5,114L5,116,M7,118L5,116,M7,118L14,115,M16,113L14,115,M17,112L16,113,M17,112L15,108,M14,108L15,108M27,109L34,111,M27,109L27,109,M30,114L27,109,M30,114L32,115,M34,111L32,115,M34,111L34,111M40,113L46,113,M41,110L40,113,M41,110L44,109,M44,109L45,109,M45,109L46,113M49,108L49,114,M49,108L50,107,M50,107L52,107,M52,107L56,109,M56,109L55,114,M55,114L55,114,M53,115L55,114,M49,114L53,115M61,107L61,116,M56,109L61,107,M56,109L55,114,M55,114L61,116M61,107L61,116,M61,107L65,104,M65,104L65,114,M62,117L65,114,M61,116L62,117M71,104L70,114,M71,104L71,104,M67,102L71,104,M67,102L65,104,M65,104L65,114,M65,114L68,115,M68,115L70,114M158,114L160,106,M158,114L162,113,M161,107L162,113,M160,106L161,107M49,108L49,114,M46,108L49,108,M45,109L46,108,M45,109L46,113,M47,115L46,113,M47,115L49,114M74,106L74,116,M71,104L74,106,M71,104L70,114,M70,114L74,116M74,106L74,116,M74,106L84,108,M84,108L84,110,M84,110L82,119,M79,121L82,119,M74,116L79,121M101,108L102,118,M98,108L101,108,M98,108L97,111,M97,111L98,118,M98,118L102,118M107,114L114,113,M106,114L107,114,M105,106L106,114,M105,106L107,105,M107,105L111,109,M111,109L114,113M143,110L150,113,M141,112L143,110,M141,112L142,115,M142,115L150,114,M150,114L150,114,M150,113L150,114,M150,113L150,113M35,111L40,115,M34,111L35,111,M34,111L32,115,M33,116L32,115,M33,116L40,116,M40,115L40,116M101,108L102,118,M101,108L105,106,M105,106L106,114,M106,114L105,118,M104,118L105,118,M102,118L104,118M139,111L138,115,M138,110L139,111,M130,115L138,110,M130,115L130,115,M130,115L131,115,M131,115L138,115M139,111L138,115,M139,111L141,112,M141,112L142,115,M141,117L142,115,M138,115L141,117M165,113L170,112,M163,115L165,113,M163,115L165,119,M165,119L169,121,M169,121L170,121M25,118L30,114,M25,118L21,112,M21,112L25,109,M25,109L27,109,M30,114L27,109M40,113L46,113,M40,113L40,115,M40,115L40,116,M41,118L40,116,M41,118L45,121,M47,115L45,121,M47,115L46,113M91,113L96,120,M91,113L97,111,M97,111L98,118,M96,120L98,118M107,114L115,118,M107,114L114,113,M114,113L117,115,M117,115L116,116,M115,118L116,116,M115,118L115,118M91,113L96,120,M84,110L91,113,M84,110L82,119,M82,119L85,120,M85,120L95,122,M95,122L96,120M131,115L138,115,M131,115L131,117,M131,117L137,121,M137,121L141,118,M141,117L141,118,M138,115L141,117M25,118L30,114,M25,118L25,120,M25,120L28,122,M28,122L33,119,M33,116L33,119,M33,116L32,115,M30,114L32,115M68,115L71,122,M68,115L70,114,M70,114L74,116,M74,116L79,121,M79,121L79,121,M71,122L79,121M107,114L115,118,M106,114L107,114,M106,114L105,118,M105,118L110,122,M110,122L111,121,M111,121L115,118M123,113L123,119,M123,113L125,112,M125,112L129,112,M129,112L130,115,M130,115L130,115,M125,119L130,115,M123,119L125,119M141,118L147,117,M141,118L141,118,M141,117L141,118,M141,117L142,115,M142,115L150,114,M147,117L150,114M157,114L165,119,M155,115L157,114,M155,115L160,121,M160,121L165,119M157,114L165,119,M157,114L158,114,M158,114L162,113,M162,113L163,115,M163,115L165,119,M165,119L165,119M35,121L41,118,M33,119L35,121,M33,116L33,119,M33,116L40,116,M41,118L40,116M53,115L46,123,M49,114L53,115,M47,115L49,114,M47,115L45,121,M45,121L45,123,M45,123L46,123M55,114L61,116,M55,114L55,114,M55,114L54,121,M54,121L56,121,M56,121L59,122,M62,118L59,122,M62,117L62,118,M61,116L62,117M68,115L71,122,M65,114L68,115,M62,117L65,114,M62,117L62,118,M62,118L68,123,M68,123L69,123,M69,123L71,122M123,113L123,119,M118,114L123,113,M117,114L118,114,M117,115L117,114,M117,115L116,116,M116,116L121,119,M121,119L123,119M53,115L46,123,M53,115L55,114,M55,114L54,121,M46,123L54,121M141,118L147,117,M141,118L144,120,M144,120L145,120,M145,120L147,117M145,120L147,117,M145,120L146,122,M146,122L151,118,M151,115L151,118,M150,114L151,115,M150,114L150,114,M147,117L150,114M155,115L160,121,M154,115L155,115,M151,115L154,115,M151,115L151,118,M151,118L154,124,M154,124L158,124,M158,124L160,121M16,121L14,115,M16,121L15,128,M13,129L15,128,M13,129L7,121,M7,118L7,121,M7,118L14,115M16,121L18,120,M16,121L14,115,M16,113L14,115,M18,120L16,113M18,120L16,113,M18,120L23,122,M23,122L25,120,M25,118L25,120,M25,118L21,112,M17,112L21,112,M17,112L16,113M0,123L3,123,M3,123L7,121,M7,118L7,121,M7,118L5,116,M0,116L5,116M16,121L18,120,M16,121L15,128,M15,128L18,128,M23,122L18,128,M18,120L23,122M121,119L122,122,M116,116L121,119,M115,118L116,116,M115,118L119,124,M119,124L119,124,M119,124L122,122M121,119L122,122,M121,119L123,119,M123,119L125,119,M125,119L125,123,M125,123L125,123,M122,122L125,123M125,123L128,123,M125,119L125,123,M125,119L130,115,M130,115L131,115,M131,115L131,117,M131,117L130,120,M128,123L130,120M35,121L35,127,M33,119L35,121,M28,122L33,119,M30,125L28,122,M30,125L32,127,M32,127L34,128,M34,128L35,127M62,118L68,123,M62,118L59,122,M59,122L61,127,M61,127L65,126,M65,126L68,123M143,123L144,120,M142,123L143,123,M137,122L142,123,M137,121L137,122,M137,121L141,118,M141,118L141,118,M141,118L144,120M35,121L41,118,M35,121L35,127,M35,127L45,127,M45,123L45,127,M45,121L45,123,M41,118L45,121M104,118L103,123,M102,118L104,118,M98,118L102,118,M96,120L98,118,M95,122L96,120,M95,122L96,124,M96,124L100,125,M100,125L103,123M111,121L117,126,M111,121L115,118,M115,118L115,118,M115,118L119,124,M117,126L119,124M130,120L134,128,M128,123L130,120,M128,123L129,126,M129,126L134,128M146,122L151,118,M146,122L147,127,M147,127L148,129,M148,129L152,128,M152,128L154,124,M151,118L154,124M103,123L107,126,M104,118L103,123,M104,118L105,118,M105,118L110,122,M110,122L109,125,M107,126L109,125,M107,126L107,126M130,120L134,128,M131,117L130,120,M131,117L137,121,M137,121L137,122,M137,122L135,129,M134,128L135,129M142,123L141,134,M137,122L142,123,M137,122L135,129,M135,129L136,131,M136,131L141,134,M141,134L141,134M143,123L144,120,M143,123L147,127,M146,122L147,127,M145,120L146,122,M144,120L145,120M56,121L54,129,M54,121L56,121,M46,123L54,121,M45,123L46,123,M45,123L45,127,M47,130L45,127,M47,130L54,129M56,121L54,129,M56,121L59,122,M59,122L61,127,M61,127L59,130,M58,130L59,130,M54,129L58,130M102,126L105,127,M100,125L102,126,M100,125L103,123,M103,123L107,126,M105,127L107,126,M105,127L105,127M111,121L117,126,M110,122L111,121,M110,122L109,125,M109,125L109,126,M109,126L112,128,M112,128L115,129,M115,129L116,128,M116,128L117,126M125,123L124,126,M122,122L125,123,M119,124L122,122,M119,124L121,127,M121,127L124,126M142,123L141,134,M142,123L143,123,M143,123L147,127,M147,127L148,129,M145,132L148,129,M141,134L145,132M162,129L169,121,M158,124L162,129,M158,124L160,121,M160,121L165,119,M165,119L165,119,M165,119L169,121M2,128L0,126,M2,128L2,128,M3,123L2,128,M0,123L3,123M21,130L30,125,M18,128L21,130,M23,122L18,128,M23,122L25,120,M25,120L28,122,M30,125L28,122M88,128L95,125,M85,120L88,128,M85,120L95,122,M95,122L96,124,M96,124L95,125M125,123L124,126,M125,123L125,123,M125,123L128,123,M128,123L129,126,M126,128L129,126,M124,126L126,128M2,128L0,126,M0,129L2,128M3,123L2,128,M3,123L7,121,M13,129L7,121,M13,129L11,131,M10,132L11,131,M6,131L10,132,M6,131L2,128M102,126L102,129,M102,126L105,127,M102,129L105,127M88,128L95,125,M88,128L87,132,M87,132L88,132,M88,132L95,130,M96,128L95,130,M95,125L96,128M102,126L102,129,M100,125L102,126,M96,124L100,125,M96,124L95,125,M95,125L96,128,M96,128L101,130,M101,130L102,129M121,127L124,126,M121,127L121,130,M121,130L122,132,M122,132L125,132,M126,128L125,132,M124,126L126,128M158,124L162,129,M154,124L158,124,M152,128L154,124,M152,128L156,133,M156,133L161,131,M161,131L162,130,M162,129L162,130M162,129L169,121,M162,129L162,130,M162,130L166,131,M166,131L170,130,M169,121L170,121M69,123L71,131,M69,123L71,122,M71,122L79,121,M79,121L79,130,M71,131L79,130M85,120L88,128,M82,119L85,120,M79,121L82,119,M79,121L79,121,M79,121L79,130,M79,130L80,131,M80,131L83,133,M83,133L85,133,M85,133L87,132,M88,128L87,132M103,131L105,127,M103,131L104,132,M104,132L104,133,M107,126L104,133,M107,126L107,126,M105,127L107,126M103,131L105,127,M102,131L103,131,M101,130L102,131,M101,130L102,129,M102,129L105,127,M105,127L105,127M116,128L121,130,M116,128L117,126,M117,126L119,124,M119,124L119,124,M119,124L121,127,M121,127L121,130M21,130L30,125,M24,134L21,130,M24,134L27,135,M32,127L27,135,M30,125L32,127M69,123L71,131,M68,123L69,123,M65,126L68,123,M65,126L67,131,M67,132L67,131,M67,132L70,132,M70,132L71,131M109,126L108,134,M109,125L109,126,M107,126L109,125,M107,126L104,133,M104,133L105,133,M105,133L108,134M126,128L125,132,M126,128L129,126,M129,126L134,128,M134,128L135,129,M135,129L136,131,M129,135L136,131,M125,132L129,135M0,129L2,128,M2,128L2,128,M6,131L2,128,M0,132L6,131M61,131L67,131,M59,130L61,131,M59,130L59,130,M61,127L59,130,M61,127L65,126,M65,126L67,131M109,126L108,134,M109,126L112,128,M112,128L111,132,M108,134L111,132,M108,134L108,134M116,128L121,130,M115,129L116,128,M115,129L116,133,M116,133L120,134,M120,134L122,132,M121,130L122,132M34,128L35,134,M32,127L34,128,M32,127L27,135,M28,138L27,135,M28,138L30,140,M35,134L30,140M35,134L46,138,M34,128L35,134,M34,128L35,127,M35,127L45,127,M47,130L45,127,M47,130L46,138M58,130L54,134,M54,129L58,130,M47,130L54,129,M47,130L46,138,M46,138L47,139,M47,140L47,139,M47,140L54,134M61,131L67,131,M61,131L64,135,M64,135L67,133,M67,132L67,133,M67,132L67,131M73,137L70,132,M73,137L76,136,M76,136L79,132,M79,132L80,131,M79,130L80,131,M71,131L79,130,M70,132L71,131M96,135L102,131,M95,130L96,135,M96,128L95,130,M96,128L101,130,M101,130L102,131M96,135L104,133,M96,135L96,135,M96,135L102,131,M102,131L103,131,M103,131L104,132,M104,133L104,132M111,132L114,134,M112,128L111,132,M112,128L115,129,M115,129L116,133,M114,134L116,133M54,134L59,131,M47,140L54,134,M48,140L47,140,M48,140L55,140,M55,140L58,139,M58,138L58,139,M59,131L58,138M54,134L59,131,M58,130L54,134,M58,130L59,130,M59,130L59,130,M59,130L59,131M96,135L104,133,M96,135L96,135,M96,135L102,136,M102,136L104,133M145,132L152,137,M145,132L148,129,M148,129L152,128,M152,128L156,133,M156,135L156,133,M152,137L156,135M0,132L6,131,M6,131L10,132,M10,132L8,137,M5,138L8,137,M4,137L5,138,M0,137L4,137M18,138L24,134,M17,138L18,138,M17,138L11,131,M13,129L11,131,M13,129L15,128,M15,128L18,128,M18,128L21,130,M24,134L21,130M61,131L64,135,M59,130L61,131,M59,130L59,131,M59,131L58,138,M58,138L64,136,M64,135L64,136M73,137L70,132,M73,137L73,137,M73,137L73,137,M69,137L73,137,M67,133L69,137,M67,132L67,133,M67,132L70,132M89,134L96,137,M88,132L89,134,M88,132L95,130,M95,130L96,135,M96,135L96,135,M96,135L96,135,M96,135L96,137M109,136L113,135,M108,135L109,136,M108,134L108,135,M108,134L111,132,M111,132L114,134,M114,134L113,135M166,131L166,136,M162,130L166,131,M161,131L162,130,M161,131L164,140,M164,140L164,139,M164,139L166,136M166,136L170,135,M166,131L166,136,M166,131L170,130M67,133L69,137,M64,135L67,133,M64,135L64,136,M67,140L64,136,M67,140L67,140,M67,140L69,137M89,134L91,138,M88,132L89,134,M87,132L88,132,M85,133L87,132,M85,133L87,137,M87,137L91,138,M91,138L91,138M122,140L128,138,M120,138L122,140,M119,137L120,138,M120,134L119,137,M120,134L122,132,M122,132L125,132,M125,132L129,135,M129,135L128,137,M128,138L128,137M161,131L164,140,M156,133L161,131,M156,135L156,133,M156,135L158,139,M158,139L161,142,M161,142L164,140M35,134L46,138,M35,134L30,140,M31,141L30,140,M31,141L36,142,M36,142L47,139,M46,138L47,139M89,134L96,137,M89,134L91,138,M91,138L96,137,M96,137L96,137M96,135L102,136,M96,135L96,137,M96,137L96,137,M96,137L96,138,M96,138L103,139,M102,136L103,139M105,133L104,139,M104,133L105,133,M104,132L104,133,M104,133L104,132,M102,136L104,133,M102,136L103,139,M103,139L103,140,M103,140L104,139M105,133L104,139,M105,133L108,134,M108,134L108,134,M108,134L108,135,M106,139L108,135,M104,139L106,139M109,136L113,135,M109,136L112,141,M112,141L114,137,M113,135L114,137M114,137L119,137,M113,135L114,137,M114,134L113,135,M114,134L116,133,M116,133L120,134,M120,134L119,137M166,136L170,135,M164,139L166,136,M164,139L170,140M106,139L108,135,M106,139L111,141,M111,141L112,141,M112,141L112,141,M109,136L112,141,M108,135L109,136M145,138L151,139,M143,137L145,138,M141,134L143,137,M141,134L141,134,M141,134L141,134,M141,134L145,132,M145,132L152,137,M151,139L152,137M18,138L24,134,M19,141L18,138,M19,141L21,142,M21,142L28,138,M28,138L27,135,M24,134L27,135M60,140L67,140,M58,139L60,140,M58,138L58,139,M58,138L64,136,M67,140L64,136M74,140L76,140,M74,140L73,137,M73,137L73,137,M73,137L76,136,M76,136L77,140,M76,140L77,140M79,132L79,140,M76,136L79,132,M76,136L77,140,M77,140L79,140M87,137L91,138,M87,137L87,143,M87,143L87,143,M87,143L89,143,M91,138L89,143M114,137L119,137,M112,141L114,137,M112,141L112,141,M112,141L112,141,M112,141L113,142,M113,142L115,141,M115,141L118,140,M118,140L118,140,M118,140L120,138,M119,137L120,138M131,141L134,142,M128,137L131,141,M129,135L128,137,M129,135L136,131,M136,131L141,134,M141,134L141,134,M137,141L141,134,M134,142L137,141M17,138L10,145,M17,138L11,131,M10,132L11,131,M10,132L8,137,M9,145L8,137,M9,145L10,145M79,132L79,140,M79,132L80,131,M80,131L83,133,M83,133L82,141,M79,141L82,141,M79,140L79,141M87,137L87,143,M85,133L87,137,M83,133L85,133,M83,133L82,141,M83,142L82,141,M83,142L87,143M96,138L103,139,M96,138L96,140,M96,140L97,142,M97,142L100,143,M100,143L103,143,M103,140L103,143,M103,139L103,140M145,138L151,139,M145,138L150,144,M150,144L151,143,M151,143L152,141,M151,139L152,141M152,141L158,139,M151,139L152,141,M151,139L152,137,M152,137L156,135,M156,135L158,139M4,137L0,143,M4,137L5,138,M5,138L3,141,M3,141L0,144M4,137L0,143,M0,137L4,137M17,138L10,145,M17,138L18,138,M19,141L18,138,M12,146L19,141,M10,145L12,146M73,137L71,145,M69,137L73,137,M67,140L69,137,M67,140L67,140,M70,145L67,140,M70,145L71,145M74,140L75,145,M74,140L76,140,M76,140L76,144,M75,145L76,144,M75,145L75,145M91,138L89,143,M91,138L91,138,M91,138L96,137,M96,137L96,138,M96,138L96,140,M93,142L96,140,M91,143L93,142,M89,143L91,143M3,147L3,141,M0,146L3,147,M3,141L0,144M3,147L3,141,M3,147L5,148,M5,148L9,145,M9,145L8,137,M5,138L8,137,M5,138L3,141M62,143L65,142,M62,143L60,140,M60,140L67,140,M67,140L67,140,M67,140L67,140,M65,142L67,140M74,140L75,145,M74,140L73,137,M73,137L73,137,M73,137L71,145,M71,145L73,146,M73,146L75,145M76,140L76,144,M76,140L77,140,M77,140L79,140,M79,140L79,141,M76,144L79,141M106,139L111,141,M104,139L106,139,M103,140L104,139,M103,140L103,143,M103,143L104,146,M104,146L108,146,M108,146L111,141M128,138L126,144,M122,140L128,138,M122,140L123,145,M123,145L124,146,M124,146L126,144M152,141L158,139,M151,143L152,141,M151,143L160,146,M160,146L160,146,M160,146L161,142,M158,139L161,142M65,142L65,148,M62,143L65,142,M62,143L63,148,M63,148L63,149,M63,149L65,148M65,142L65,148,M65,142L67,140,M70,145L67,140,M65,148L70,145M118,142L118,143,M118,140L118,142,M115,141L118,140,M115,141L117,144,M117,144L118,143M118,143L119,143,M118,143L121,144,M120,143L121,144,M119,143L120,143M118,140L120,143,M118,140L120,138,M120,138L122,140,M122,140L123,145,M122,145L123,145,M121,144L122,145,M120,143L121,144M128,138L126,144,M128,138L128,137,M128,137L131,141,M128,144L131,141,M126,144L128,144M145,138L150,144,M143,137L145,138,M143,137L144,147,M144,147L148,149,M148,149L150,144M21,142L28,138,M22,150L21,142,M22,150L27,151,M31,141L27,151,M31,141L30,140,M28,138L30,140M62,143L60,140,M62,143L63,148,M60,148L63,148,M60,148L55,140,M55,140L58,139,M58,139L60,140M76,144L79,141,M75,145L76,144,M75,145L80,147,M83,142L80,147,M83,142L82,141,M79,141L82,141M93,142L95,145,M91,143L93,142,M93,147L91,143,M93,147L95,145M115,141L117,144,M113,142L115,141,M113,142L115,146,M115,146L117,146,M117,144L117,146M118,143L121,144,M118,143L118,143,M117,144L118,143,M117,144L117,146,M117,146L118,146,M118,146L119,146,M119,146L122,145,M121,144L122,145M119,143L120,143,M118,142L119,143,M118,140L118,142,M118,140L118,140,M118,140L120,143M118,143L119,143,M118,143L118,143,M118,142L118,143,M118,142L119,143M137,141L139,148,M137,141L141,134,M141,134L143,137,M143,137L144,147,M139,148L144,147M12,146L19,141,M14,148L12,146,M14,148L22,150,M22,150L22,150,M22,150L21,142,M19,141L21,142M93,142L95,145,M93,142L96,140,M96,140L97,142,M97,142L97,144,M95,145L97,144M95,145L97,144,M93,147L95,145,M93,147L94,149,M94,149L97,149,M97,144L97,149M112,141L113,146,M112,141L113,142,M113,142L115,146,M115,146L115,146,M115,146L115,146,M113,146L115,146M129,144L133,146,M128,144L129,144,M128,144L131,141,M131,141L134,142,M134,142L133,146M137,141L139,148,M134,142L137,141,M134,142L133,146,M133,146L134,149,M134,149L137,151,M137,151L139,148M165,147L170,145,M164,147L165,147,M160,146L164,147,M160,146L161,142,M161,142L164,140,M164,140L164,139,M164,139L170,140M36,142L37,150,M36,142L47,139,M47,140L47,139,M48,140L47,140,M48,140L47,142,M47,142L41,151,M37,150L41,151M82,151L87,147,M80,147L82,151,M83,142L80,147,M83,142L87,143,M87,143L87,143,M87,143L87,147M100,143L98,149,M97,142L100,143,M97,142L97,144,M97,144L97,149,M97,149L98,149M100,143L98,149,M100,143L103,143,M103,143L104,146,M101,151L104,146,M98,149L101,151M112,141L113,146,M112,141L112,141,M111,141L112,141,M108,146L111,141,M108,146L109,148,M109,148L109,148,M109,148L113,146M129,144L130,150,M129,144L133,146,M133,146L134,149,M130,150L134,149M151,143L160,146,M150,144L151,143,M148,149L150,144,M148,149L150,154,M150,154L154,154,M154,154L157,152,M157,152L160,146M60,148L55,140,M57,151L60,148,M51,149L57,151,M51,149L47,142,M48,140L47,142,M48,140L55,140M88,148L92,150,M87,147L88,148,M87,143L87,147,M87,143L89,143,M89,143L91,143,M93,147L91,143,M93,147L94,149,M92,150L94,149,M92,150L92,150M112,150L115,146,M109,148L112,150,M109,148L113,146,M113,146L115,146M115,146L116,149,M115,146L115,146,M115,146L117,146,M117,146L118,146,M118,149L118,146,M116,149L118,149M36,142L37,150,M31,141L36,142,M31,141L27,151,M29,154L27,151,M29,154L37,150M119,146L122,152,M119,146L122,145,M122,145L123,145,M123,145L124,146,M124,146L124,146,M122,151L124,146,M122,152L122,151M129,144L130,150,M128,144L129,144,M126,144L128,144,M124,146L126,144,M124,146L124,146,M124,146L129,150,M129,150L130,150M168,149L170,148,M165,147L168,149,M165,147L170,145M112,150L115,146,M112,150L113,151,M113,151L116,149,M115,146L116,149,M115,146L115,146M168,149L170,148,M168,149L170,152M69,153L73,150,M65,152L69,153,M65,152L63,149,M63,149L65,148,M65,148L70,145,M70,145L71,145,M71,145L73,146,M73,146L73,150M75,145L80,147,M75,145L75,145,M73,146L75,145,M73,146L73,150,M73,150L78,155,M78,155L79,155,M79,155L82,154,M82,151L82,154,M80,147L82,151M88,148L87,150,M87,147L88,148,M82,151L87,147,M82,151L82,154,M82,154L82,154,M82,154L87,150M109,148L107,155,M108,146L109,148,M104,146L108,146,M101,151L104,146,M101,151L101,155,M101,155L102,155,M102,155L107,155M119,146L122,152,M118,146L119,146,M118,149L118,146,M118,149L120,152,M120,152L122,152M5,150L0,156,M5,148L5,150,M3,147L5,148,M0,146L3,147M43,153L50,152,M43,153L41,152,M41,152L41,151,M47,142L41,151,M51,149L47,142,M51,149L50,152M87,150L90,151,M88,148L87,150,M88,148L92,150,M90,151L92,150M113,151L116,149,M113,151L114,154,M114,154L114,154,M114,154L118,155,M118,155L120,152,M118,149L120,152,M116,149L118,149M124,146L129,150,M122,151L124,146,M122,151L125,153,M125,153L129,151,M129,151L129,150M139,148L144,147,M137,151L139,148,M137,151L138,157,M138,157L138,159,M138,159L148,155,M148,155L150,154,M148,149L150,154,M144,147L148,149M168,149L170,152,M165,147L168,149,M164,147L165,147,M164,147L166,154,M166,154L169,158,M169,158L170,158M8,154L5,150,M12,157L8,154,M14,148L12,157,M14,148L12,146,M10,145L12,146,M9,145L10,145,M5,148L9,145,M5,148L5,150M87,150L90,151,M82,154L87,150,M82,154L83,155,M83,155L88,153,M88,153L90,151M93,153L96,156,M92,150L93,153,M92,150L94,149,M94,149L97,149,M97,149L98,149,M98,149L101,151,M101,151L101,155,M97,156L101,155,M96,156L97,156M109,148L107,155,M109,148L109,148,M109,148L112,150,M112,150L113,151,M113,151L114,154,M108,156L114,154,M107,155L108,156M162,154L166,154,M157,152L162,154,M157,152L160,146,M160,146L160,146,M160,146L164,147,M164,147L166,154M129,151L130,154,M129,151L129,150,M129,150L130,150,M130,150L134,149,M134,149L137,151,M137,151L138,157,M130,154L138,157M22,150L17,158,M14,148L22,150,M14,148L12,157,M13,160L12,157,M13,160L14,160,M14,160L17,158M57,152L55,159,M57,151L57,152,M51,149L57,151,M51,149L50,152,M50,152L50,157,M50,157L55,159M57,152L63,156,M57,151L57,152,M57,151L60,148,M60,148L63,148,M63,148L63,149,M65,152L63,149,M65,152L64,155,M63,156L64,155M89,154L88,159,M88,153L89,154,M83,155L88,153,M87,159L83,155,M87,159L88,159M89,154L92,155,M88,153L89,154,M88,153L90,151,M90,151L92,150,M92,150L92,150,M92,150L93,153,M92,155L93,153M129,155L130,154,M126,155L129,155,M125,153L126,155,M125,153L129,151,M129,151L130,154M43,153L50,152,M46,159L43,153,M46,159L50,157,M50,152L50,157M69,153L72,160,M69,153L73,150,M73,150L78,155,M72,160L78,155M89,154L88,159,M89,154L92,155,M92,155L90,158,M88,159L90,158M17,158L30,159,M22,150L17,158,M22,150L22,150,M22,150L27,151,M29,154L27,151,M29,154L30,159M41,152L38,160,M41,152L41,151,M37,150L41,151,M29,154L37,150,M29,154L30,159,M30,161L30,159,M30,161L38,160M57,152L63,156,M57,152L55,159,M56,160L55,159,M56,160L62,158,M63,156L62,158M90,158L96,156,M90,158L90,158,M92,155L90,158,M92,155L93,153,M93,153L96,156M123,159L125,155,M119,158L123,159,M118,155L119,158,M118,155L120,152,M120,152L122,152,M122,152L122,151,M122,151L125,153,M125,153L126,155,M126,155L125,155M129,155L130,157,M129,155L130,154,M130,154L138,157,M138,157L138,159,M137,160L138,159,M137,160L137,160,M130,157L137,160M162,154L163,160,M162,154L166,154,M166,154L169,158,M163,160L169,158M0,161L8,154,M0,161L0,161,M8,154L5,150M41,152L38,160,M43,153L41,152,M46,159L43,153,M46,159L45,162,M38,160L45,162M90,158L96,156,M90,158L94,160,M94,160L97,156,M96,156L97,156M114,154L114,160,M114,154L118,155,M118,155L119,158,M118,159L119,158,M117,160L118,159,M115,160L117,160,M114,160L115,160M129,155L130,157,M126,155L129,155,M126,155L125,155,M125,155L127,157,M127,157L130,157M162,154L163,160,M157,152L162,154,M154,154L157,152,M154,154L158,161,M158,161L163,160M0,161L8,154,M0,161L9,165,M9,165L10,165,M13,160L10,165,M13,160L12,157,M12,157L8,154M64,155L72,161,M63,156L64,155,M63,156L62,158,M64,161L62,158,M64,161L71,163,M72,161L71,163M64,155L72,161,M65,152L64,155,M65,152L69,153,M69,153L72,160,M72,160L72,161M114,154L114,160,M114,154L114,154,M108,156L114,154,M108,156L110,161,M110,161L114,160M94,160L97,156,M94,160L97,171,M97,171L99,171,M99,171L102,166,M102,155L102,166,M101,155L102,155,M97,156L101,155M108,156L110,161,M107,155L108,156,M102,155L107,155,M102,155L102,166,M102,166L110,162,M110,162L110,161M127,157L130,157,M127,157L128,162,M128,162L131,163,M131,163L134,163,M134,163L137,160,M130,157L137,160M90,158L94,160,M90,158L90,158,M88,159L90,158,M87,159L88,159,M87,159L87,167,M91,173L87,167,M91,173L92,174,M92,174L94,173,M94,173L97,171,M94,160L97,171M127,157L128,162,M125,155L127,157,M123,159L125,155,M123,159L124,162,M124,162L128,162M20,163L28,165,M14,160L20,163,M14,160L17,158,M17,158L30,159,M30,161L30,159,M30,161L30,163,M28,165L30,163M79,155L80,164,M78,155L79,155,M72,160L78,155,M72,160L72,161,M72,161L71,163,M71,163L71,164,M73,165L71,164,M73,165L80,164M79,155L80,164,M79,155L82,154,M82,154L82,154,M82,154L83,155,M87,159L83,155,M87,159L87,167,M80,164L87,167M118,159L120,162,M118,159L119,158,M119,158L123,159,M123,159L124,162,M123,163L124,162,M120,162L123,163M141,165L149,162,M137,160L141,165,M137,160L138,159,M138,159L148,155,M148,155L149,162M149,162L150,165,M148,155L149,162,M148,155L150,154,M150,154L154,154,M154,154L158,161,M157,168L158,161,M157,168L157,168,M156,168L157,168,M150,165L156,168M64,161L59,170,M64,161L62,158,M56,160L62,158,M56,160L56,167,M57,169L56,167,M57,169L59,170M115,160L115,167,M114,160L115,160,M110,161L114,160,M110,162L110,161,M110,162L115,168,M115,168L115,167M117,160L117,163,M115,160L117,160,M115,160L115,167,M115,167L117,163M119,163L120,162,M117,163L119,163,M117,160L117,163,M117,160L118,159,M118,159L120,162M119,163L121,166,M119,163L120,162,M120,162L123,163,M123,163L123,164,M121,166L123,164M46,167L56,167,M45,162L46,167,M46,159L45,162,M46,159L50,157,M50,157L55,159,M56,160L55,159,M56,160L56,167M119,163L121,166,M117,163L119,163,M115,167L117,163,M115,168L115,167,M115,168L115,169,M115,169L118,169,M118,169L121,166M141,165L149,162,M141,165L142,168,M142,168L150,165,M149,162L150,165M20,163L18,170,M14,160L20,163,M13,160L14,160,M13,160L10,165,M15,169L10,165,M15,169L18,170M165,168L170,163,M157,168L165,168,M157,168L158,161,M158,161L163,160,M163,160L169,158,M169,158L170,158M20,163L18,170,M20,163L28,165,M28,165L23,171,M20,172L23,171,M18,170L20,172M33,167L45,167,M33,167L30,163,M30,161L30,163,M30,161L38,160,M38,160L45,162,M45,162L46,167,M46,167L45,167M64,161L59,170,M64,161L71,163,M71,163L71,164,M62,171L71,164,M59,170L62,171M125,167L131,163,M123,164L125,167,M123,163L123,164,M123,163L124,162,M124,162L128,162,M128,162L131,163M110,162L115,168,M102,166L110,162,M99,171L102,166,M99,171L103,173,M103,173L108,174,M108,174L114,170,M114,170L115,169,M115,168L115,169M121,166L123,164,M118,169L121,166,M118,169L124,172,M124,172L125,168,M125,167L125,168,M123,164L125,167M125,167L131,163,M125,167L125,168,M125,168L132,168,M132,168L134,163,M131,163L134,163M73,165L80,164,M73,165L74,171,M74,171L82,175,M82,175L91,173,M91,173L87,167,M80,164L87,167M142,168L150,165,M142,168L143,170,M143,170L149,173,M149,173L155,169,M155,169L156,168,M150,165L156,168M168,170L170,170,M166,169L168,170,M165,168L166,169,M165,168L170,163M132,168L133,180,M132,168L134,163,M134,163L137,160,M137,160L137,160,M137,160L141,165,M141,165L142,168,M142,168L143,170,M133,180L143,170M0,169L5,171,M9,166L5,171,M9,165L9,166,M0,161L9,165,M0,161L0,161M33,167L45,167,M35,173L33,167,M35,173L37,173,M37,173L45,171,M45,167L45,171M0,169L5,171,M5,171L0,179,M0,180L0,179M63,175L71,174,M63,175L62,171,M62,171L71,164,M73,165L71,164,M73,165L74,171,M71,174L74,171M125,168L132,168,M124,172L125,168,M124,172L127,182,M127,182L127,182,M127,182L128,183,M128,183L133,180,M133,180L133,180,M132,168L133,180M26,176L32,177,M26,176L23,171,M28,165L23,171,M28,165L30,163,M33,167L30,163,M35,173L33,167,M32,177L35,173M46,174L52,176,M46,174L46,173,M46,173L45,171,M45,167L45,171,M46,167L45,167,M46,167L56,167,M57,169L56,167,M52,175L57,169,M52,176L52,175M168,177L168,170,M168,177L170,178,M168,170L170,170M166,169L166,176,M165,168L166,169,M157,168L165,168,M157,168L157,168,M157,168L160,176,M160,176L166,176M168,177L168,170,M166,176L168,177,M166,169L166,176,M166,169L168,170M114,170L123,181,M114,170L115,169,M115,169L118,169,M118,169L124,172,M124,172L127,182,M123,181L127,182M10,180L9,166,M10,180L9,183,M0,179L9,183,M5,171L0,179,M9,166L5,171M15,169L11,179,M15,169L10,165,M9,165L10,165,M9,165L9,166,M10,180L9,166,M11,179L10,180M40,177L46,173,M39,177L40,177,M39,177L37,173,M37,173L45,171,M46,173L45,171M11,179L19,174,M15,169L11,179,M15,169L18,170,M18,170L20,172,M20,172L19,174M114,170L123,181,M108,174L114,170,M108,174L112,181,M112,181L123,181M137,181L148,177,M133,180L137,181,M133,180L133,180,M133,180L143,170,M143,170L149,173,M149,173L149,176,M148,177L149,176M154,177L155,169,M149,176L154,177,M149,173L149,176,M149,173L155,169M154,177L155,169,M154,177L157,182,M157,182L160,176,M157,168L160,176,M156,168L157,168,M155,169L156,168M45,181L40,177,M45,181L45,181,M46,174L45,181,M46,174L46,173,M40,177L46,173M59,181L52,175,M59,181L63,177,M63,176L63,177,M63,175L63,176,M63,175L62,171,M59,170L62,171,M57,169L59,170,M52,175L57,169M72,177L79,178,M71,174L72,177,M71,174L74,171,M74,171L82,175,M79,178L82,175M149,176L154,177,M148,177L149,176,M148,177L154,188,M154,188L156,188,M156,188L157,182,M154,177L157,182M11,179L19,174,M11,179L10,180,M10,180L9,183,M9,184L9,183,M9,184L18,183,M18,183L19,183,M19,174L19,183M39,177L38,181,M39,177L37,173,M35,173L37,173,M32,177L35,173,M33,180L32,177,M33,180L38,181M63,176L72,179,M63,175L63,176,M63,175L71,174,M71,174L72,177,M72,177L72,179M19,174L19,183,M20,172L19,174,M20,172L23,171,M26,176L23,171,M26,176L24,181,M23,182L24,181,M19,183L23,182M45,181L40,177,M44,182L45,181,M40,182L44,182,M40,182L38,181,M39,177L38,181,M39,177L40,177M52,176L50,182,M46,174L52,176,M46,174L45,181,M45,181L50,182M63,176L72,179,M63,176L63,177,M70,184L63,177,M70,184L71,181,M72,179L71,181M72,177L79,178,M72,177L72,179,M72,179L71,181,M71,181L79,179,M79,178L79,179M24,181L30,183,M26,176L24,181,M26,176L32,177,M33,180L32,177,M33,180L33,181,M30,183L33,181M59,181L52,175,M59,181L59,182,M51,184L59,182,M51,184L50,182,M52,176L50,182,M52,176L52,175M103,173L105,186,M99,171L103,173,M97,171L99,171,M94,173L97,171,M103,186L94,173,M103,186L104,186,M104,186L105,186M103,173L105,186,M103,173L108,174,M108,174L112,181,M112,182L112,181,M105,186L112,182M160,176L166,176,M157,182L160,176,M156,188L157,182,M156,188L159,189,M159,189L170,185,M166,176L168,177M71,181L79,179,M70,184L71,181,M70,184L70,184,M73,187L70,184,M73,187L79,182,M79,179L79,182M137,181L148,177,M137,181L146,187,M146,187L153,188,M153,188L153,188,M153,188L154,188,M148,177L154,188M38,185L33,182,M38,185L39,185,M40,182L39,185,M40,182L38,181,M33,180L38,181,M33,180L33,181,M33,182L33,181M65,186L70,184,M62,186L65,186,M62,186L59,182,M59,182L59,182,M59,181L59,182,M59,181L63,177,M70,184L63,177,M70,184L70,184M85,191L79,182,M85,191L90,188,M90,186L90,188,M92,174L90,186,M91,173L92,174,M82,175L91,173,M79,178L82,175,M79,178L79,179,M79,179L79,182M38,185L33,182,M35,187L38,185,M35,187L34,186,M33,182L34,186M44,188L49,187,M44,188L44,188,M44,182L44,188,M44,182L45,181,M45,181L45,181,M45,181L50,182,M51,184L50,182,M51,184L51,184,M49,187L51,184M90,186L103,186,M92,174L90,186,M92,174L94,173,M103,186L94,173M26,186L29,186,M26,186L25,185,M25,185L23,182,M23,182L24,181,M24,181L30,183,M30,183L29,186M30,188L34,186,M30,188L29,186,M30,183L29,186,M30,183L33,181,M33,182L33,181,M33,182L34,186M40,182L39,185,M40,182L44,182,M44,182L44,188,M41,188L44,188,M40,188L41,188,M40,188L39,185M73,187L79,182,M73,187L73,189,M73,189L85,191,M85,191L85,191,M85,191L79,182M25,185L22,189,M25,185L23,182,M19,183L23,182,M18,183L19,183,M20,188L18,183,M22,189L20,188M26,186L29,186,M27,190L26,186,M27,190L29,191,M30,189L29,191,M30,188L30,189,M30,188L29,186M35,187L38,185,M35,189L35,187,M36,190L35,189,M36,190L36,190,M36,190L36,190,M36,190L40,188,M40,188L39,185,M38,185L39,185M90,186L103,186,M90,186L90,188,M90,188L95,192,M95,192L104,193,M104,186L104,193,M103,186L104,186M0,191L9,187,M9,184L9,187,M9,184L9,183,M0,179L9,183,M0,180L0,179M25,185L22,189,M26,186L25,185,M27,190L26,186,M23,191L27,190,M23,191L22,189M59,182L56,189,M59,182L59,182,M51,184L59,182,M51,184L51,184,M53,187L51,184,M54,189L53,187,M54,189L56,189M61,192L56,189,M62,186L61,192,M62,186L59,182,M59,182L56,189,M56,189L56,189M112,182L112,191,M105,186L112,182,M104,186L105,186,M104,186L104,193,M104,194L104,193,M104,194L112,191M134,196L146,187,M130,193L134,196,M130,191L130,193,M129,190L130,191,M128,183L129,190,M128,183L133,180,M133,180L137,181,M137,181L146,187M20,188L13,197,M20,188L18,183,M9,184L18,183,M9,184L9,187,M12,196L9,187,M13,197L12,196M47,191L49,189,M45,190L47,191,M45,190L45,190,M45,190L44,188,M44,188L49,187,M49,187L49,189M66,190L65,186,M66,190L68,191,M68,191L72,191,M72,191L73,189,M73,187L73,189,M73,187L70,184,M65,186L70,184M114,192L127,182,M112,191L114,192,M112,182L112,191,M112,182L112,181,M112,181L123,181,M123,181L127,182,M127,182L127,182M20,188L13,197,M22,189L20,188,M23,191L22,189,M23,191L22,195,M14,200L22,195,M14,200L14,199,M14,199L13,197M30,189L35,189,M30,189L29,191,M30,191L29,191,M30,192L30,191,M30,192L30,192,M30,192L34,191,M34,191L36,190,M36,190L35,189M30,189L35,189,M30,188L30,189,M30,188L34,186,M35,187L34,186,M35,189L35,187M49,189L51,190,M49,187L49,189,M49,187L51,184,M53,187L51,184,M51,190L53,187,M51,190L51,190M54,191L51,190,M54,189L54,191,M54,189L53,187,M51,190L53,187M61,192L66,190,M61,192L61,192,M62,186L61,192,M62,186L65,186,M66,190L65,186M40,193L36,190,M41,188L40,193,M40,188L41,188,M36,190L40,188M41,188L40,193,M41,188L44,188,M44,188L44,188,M45,190L44,188,M45,190L43,194,M41,194L43,194,M41,194L40,193M56,189L55,196,M61,192L56,189,M61,192L61,192,M61,192L61,195,M56,197L61,195,M55,197L56,197,M55,196L55,197M49,189L51,190,M47,191L49,189,M48,192L47,191,M49,193L48,192,M49,193L49,193,M49,193L51,191,M51,190L51,191M51,191L54,192,M49,193L51,191,M52,197L49,193,M52,197L55,197,M55,196L55,197,M54,192L55,196M54,191L51,190,M54,191L54,192,M51,191L54,192,M51,190L51,191,M51,190L51,190M56,189L55,196,M56,189L56,189,M54,189L56,189,M54,189L54,191,M54,191L54,192,M54,192L55,196M115,193L129,190,M114,192L115,193,M114,192L127,182,M127,182L128,183,M128,183L129,190M135,196L153,188,M134,196L135,196,M134,196L146,187,M146,187L153,188M0,191L9,187,M12,196L9,187,M0,195L12,196M34,191L35,195,M30,192L34,191,M32,196L30,192,M32,196L34,196,M34,196L35,195M34,191L35,195,M34,191L36,190,M36,190L36,190,M36,190L37,195,M36,195L37,195,M35,195L36,195M40,193L36,190,M41,194L40,193,M41,194L41,195,M41,195L41,195,M37,195L41,195,M36,190L37,195,M36,190L36,190M45,190L46,194,M45,190L45,190,M45,190L43,194,M43,194L45,195,M46,194L45,195M46,194L48,192,M46,194L45,195,M46,195L45,195,M46,195L49,193,M49,193L48,192M66,193L68,191,M62,196L66,193,M61,195L62,196,M61,192L61,195,M61,192L66,190,M66,190L68,191M115,193L129,190,M115,193L116,197,M116,197L121,196,M121,196L130,191,M129,190L130,191M24,195L30,191,M22,195L24,195,M23,191L22,195,M23,191L27,190,M27,190L29,191,M30,191L29,191M24,195L30,191,M27,197L24,195,M30,192L27,197,M30,192L30,191M45,190L46,194,M45,190L47,191,M48,192L47,191,M46,194L48,192M46,195L49,193,M46,196L46,195,M46,196L52,197,M52,197L52,197,M52,197L49,193,M49,193L49,193M66,193L69,194,M66,193L68,191,M68,191L72,191,M72,191L72,192,M69,194L72,192M74,197L85,192,M74,197L72,192,M72,191L72,192,M72,191L73,189,M73,189L85,191,M85,191L85,192M135,196L153,188,M135,196L141,205,M141,205L145,206,M145,206L146,206,M146,206L153,188,M153,188L153,188M159,189L165,202,M159,189L170,185,M165,202L170,202M66,193L69,194,M62,196L66,193,M66,199L62,196,M66,199L69,194M115,193L116,197,M114,192L115,193,M112,191L114,192,M104,194L112,191,M104,194L104,196,M104,196L111,201,M111,201L114,200,M114,200L116,197M30,192L27,197,M30,192L30,192,M32,196L30,192,M32,196L30,198,M28,198L30,198,M28,198L27,197M45,198L42,196,M45,198L46,196,M46,196L46,195,M46,195L45,195,M43,194L45,195,M41,194L43,194,M41,194L41,195,M42,196L41,195M66,199L69,194,M67,202L66,199,M67,202L71,202,M71,202L74,201,M74,197L74,201,M74,197L72,192,M69,194L72,192M37,197L36,195,M39,198L37,197,M41,195L39,198,M37,195L41,195,M36,195L37,195M23,205L28,198,M19,206L23,205,M19,206L14,200,M14,200L22,195,M22,195L24,195,M27,197L24,195,M28,198L27,197M35,198L37,197,M35,198L34,196,M34,196L35,195,M35,195L36,195,M37,197L36,195M42,196L42,199,M42,196L41,195,M41,195L41,195,M41,195L39,198,M39,198L39,201,M39,201L42,199M45,198L46,196,M45,198L45,200,M46,202L45,200,M46,202L50,199,M50,199L52,197,M46,196L52,197M74,197L85,192,M74,197L74,201,M74,201L78,202,M78,202L84,199,M84,199L85,199,M85,192L85,199M95,192L94,202,M90,188L95,192,M85,191L90,188,M85,191L85,191,M85,191L85,192,M85,192L85,199,M86,200L85,199,M86,200L94,202M31,199L35,199,M31,199L30,198,M32,196L30,198,M32,196L34,196,M35,198L34,196,M35,199L35,198M35,198L37,197,M35,199L35,198,M38,202L35,199,M39,201L38,202,M39,198L39,201,M39,198L37,197M42,196L42,199,M45,198L42,196,M45,198L45,200,M42,199L45,200M95,192L94,202,M95,192L104,193,M104,194L104,193,M104,194L104,196,M101,201L104,196,M95,202L101,201,M94,202L95,202,M94,202L94,202M7,203L0,198,M4,206L7,203,M0,206L4,206M7,203L0,198,M7,203L14,199,M14,199L13,197,M13,197L12,196,M0,195L12,196M159,189L165,202,M156,188L159,189,M154,188L156,188,M153,188L154,188,M146,206L153,188,M146,206L158,208,M158,208L165,202M23,205L28,198,M23,205L28,204,M28,204L31,202,M31,199L31,202,M31,199L30,198,M28,198L30,198M31,199L35,199,M31,199L31,202,M38,205L31,202,M38,202L38,205,M38,202L35,199M39,201L42,199,M39,201L38,202,M38,202L38,205,M38,207L38,205,M38,207L45,207,M46,202L45,207,M46,202L45,200,M42,199L45,200M121,196L122,202,M116,197L121,196,M114,200L116,197,M114,200L118,204,M118,204L119,204,M119,204L122,202M121,196L122,202,M121,196L130,191,M130,191L130,193,M125,202L130,193,M122,202L125,202M56,197L58,210,M56,197L61,195,M61,195L62,196,M66,199L62,196,M67,202L66,199,M62,207L67,202,M58,210L62,207M55,211L50,199,M46,208L55,211,M46,208L45,207,M46,202L45,207,M46,202L50,199M55,211L50,199,M56,211L55,211,M56,211L57,211,M57,211L58,210,M56,197L58,210,M55,197L56,197,M52,197L55,197,M52,197L52,197,M50,199L52,197M102,204L106,205,M101,201L102,204,M101,201L104,196,M104,196L111,201,M111,201L110,204,M109,206L110,204,M106,205L109,206M131,209L125,202,M131,209L137,209,M137,209L141,205,M135,196L141,205,M134,196L135,196,M130,193L134,196,M125,202L130,193,M125,202L125,202M90,206L92,205,M87,206L90,206,M86,200L87,206,M86,200L94,202,M94,202L94,202,M92,205L94,202M84,199L83,207,M84,199L85,199,M86,200L85,199,M86,200L87,206,M87,206L87,209,M87,209L87,209,M83,207L87,209M96,206L101,206,M95,202L96,206,M95,202L101,201,M101,201L102,204,M102,204L101,206M123,208L125,202,M120,207L123,208,M119,204L120,207,M119,204L122,202,M122,202L125,202,M125,202L125,202M123,208L125,202,M126,211L123,208,M126,211L131,209,M131,209L125,202M29,206L37,209,M29,206L28,204,M28,204L31,202,M38,205L31,202,M38,207L38,205,M37,209L38,207M74,211L71,204,M74,211L74,211,M74,211L79,208,M79,207L79,208,M78,202L79,207,M74,201L78,202,M71,202L74,201,M71,202L71,204M84,199L83,207,M78,202L84,199,M78,202L79,207,M79,207L83,207M92,208L90,206,M92,208L92,209,M87,209L92,209,M87,206L87,209,M87,206L90,206M97,209L101,207,M96,209L97,209,M96,206L96,209,M96,206L101,206,M101,206L101,207,M101,207L101,207M103,208L106,205,M101,207L103,208,M101,206L101,207,M102,204L101,206,M102,204L106,205M115,208L118,204,M115,208L110,204,M111,201L110,204,M111,201L114,200,M114,200L118,204M115,208L118,204,M115,208L116,212,M116,212L118,209,M118,209L120,207,M119,204L120,207,M118,204L119,204M71,204L68,210,M71,202L71,204,M67,202L71,202,M62,207L67,202,M68,210L62,207M92,208L90,206,M92,205L92,208,M90,206L92,205M92,205L92,208,M92,205L94,202,M94,202L95,202,M95,202L96,206,M96,206L96,209,M94,210L96,209,M94,210L92,209,M92,208L92,209M103,208L106,205,M104,208L103,208,M104,208L108,208,M109,206L108,208,M106,205L109,206M29,206L29,219,M29,206L28,204,M23,205L28,204,M19,206L23,205,M19,206L19,219,M26,220L19,219,M26,220L29,219M29,206L29,219,M29,206L37,209,M37,209L36,211,M30,218L36,211,M29,219L30,218M79,207L83,207,M79,207L79,208,M80,209L79,208,M81,210L80,209,M81,210L84,210,M84,210L85,210,M85,210L86,209,M86,209L87,209,M83,207L87,209M97,209L101,207,M97,209L99,210,M99,210L101,209,M101,207L101,209M103,211L104,208,M103,211L101,209,M101,207L101,209,M101,207L101,207,M101,207L103,208,M104,208L103,208M115,208L110,204,M115,208L116,212,M116,212L115,218,M115,218L109,213,M108,208L109,213,M109,206L108,208,M109,206L110,204M7,214L4,206,M14,222L7,214,M14,222L19,219,M19,206L19,219,M19,206L14,200,M14,200L14,199,M7,203L14,199,M4,206L7,203M71,204L68,210,M74,211L71,204,M71,213L74,211,M71,213L68,210M0,213L7,214,M7,214L4,206,M0,206L4,206M88,213L94,211,M88,213L86,209,M86,209L87,209,M87,209L87,209,M87,209L92,209,M94,210L92,209,M94,210L94,211M103,211L101,209,M103,211L104,214,M101,217L104,214,M99,212L101,217,M99,210L99,212,M99,210L101,209M103,211L104,208,M103,211L104,214,M104,214L109,213,M108,208L109,213,M104,208L108,208M118,209L125,213,M118,209L120,207,M120,207L123,208,M126,211L123,208,M125,213L126,211M160,215L170,216,M158,208L160,215,M158,208L165,202,M165,202L170,202M80,209L79,212,M80,209L79,208,M74,211L79,208,M76,213L74,211,M76,213L78,213,M78,213L79,212M79,212L81,213,M80,209L79,212,M81,210L80,209,M81,210L81,213M81,213L84,210,M81,213L81,213,M81,213L81,213,M81,210L81,213,M81,210L84,210M81,213L84,210,M81,213L84,214,M84,214L85,210,M84,210L85,210M94,213L99,212,M94,211L94,213,M94,210L94,211,M94,210L96,209,M96,209L97,209,M97,209L99,210,M99,210L99,212M118,209L125,213,M116,212L118,209,M116,212L115,218,M115,218L116,220,M116,220L121,219,M121,219L125,213M41,214L45,208,M41,214L41,214,M41,214L41,214,M41,214L36,211,M37,209L36,211,M37,209L38,207,M38,207L45,207,M46,208L45,207,M46,208L45,208M41,214L45,208,M41,214L43,214,M43,214L45,212,M45,208L45,212M57,211L68,215,M57,211L58,210,M58,210L62,207,M68,210L62,207,M71,213L68,210,M71,213L70,213,M68,215L70,213M79,212L81,213,M78,213L79,212,M80,215L78,213,M80,215L81,213,M81,213L81,213M94,213L99,212,M94,213L95,216,M97,219L95,216,M97,219L99,220,M99,220L101,217,M99,212L101,217M81,213L84,214,M81,213L81,213,M80,215L81,213,M80,215L80,218,M80,218L80,218,M80,218L83,217,M83,217L84,215,M84,214L84,215M85,215L88,214,M84,215L85,215,M84,214L84,215,M84,214L85,210,M85,210L86,209,M88,213L86,209,M88,213L88,214M88,213L94,211,M88,213L88,214,M89,215L88,214,M89,215L95,216,M94,213L95,216,M94,211L94,213M41,214L43,215,M41,214L41,214,M41,214L43,214,M43,214L43,215M43,214L43,215,M43,214L45,212,M45,212L45,216,M44,217L45,216,M44,217L43,215M45,216L49,216,M45,212L45,216,M45,208L45,212,M46,208L45,208,M46,208L55,211,M56,211L55,211,M56,211L56,213,M49,216L56,213M80,215L78,213,M80,215L80,218,M80,218L76,216,M76,213L76,216,M76,213L78,213M0,213L7,214,M14,222L7,214,M14,222L14,222,M1,222L14,222,M1,222L0,221M42,219L41,214,M42,219L42,220,M30,218L42,220,M30,218L36,211,M41,214L36,211M41,214L43,215,M41,214L41,214,M42,219L41,214,M42,219L44,217,M44,217L43,215M57,211L68,215,M56,211L57,211,M56,211L56,213,M56,213L58,219,M60,223L58,219,M60,223L60,223,M60,223L61,223,M61,223L66,219,M68,215L66,219M75,216L71,214,M75,216L76,216,M76,216L76,216,M76,213L76,216,M76,213L74,211,M74,211L74,211,M71,213L74,211,M71,213L70,213,M71,214L70,213M87,218L85,215,M87,218L88,218,M89,215L88,218,M89,215L88,214,M85,215L88,214M121,219L125,213,M121,219L130,223,M130,223L134,223,M134,223L137,209,M131,209L137,209,M126,211L131,209,M125,213L126,211M145,206L148,223,M145,206L146,206,M146,206L158,208,M158,208L160,215,M157,225L160,215,M150,225L157,225,M148,223L150,225M75,216L71,214,M74,218L75,216,M72,219L74,218,M72,219L72,219,M71,214L72,219M104,214L109,213,M101,217L104,214,M99,220L101,217,M99,221L99,220,M99,221L106,222,M106,222L115,222,M115,222L116,220,M115,218L116,220,M115,218L109,213M45,216L49,216,M44,217L45,216,M42,219L44,217,M42,219L42,220,M44,222L42,220,M44,222L45,222,M45,222L49,216M66,219L72,219,M68,215L66,219,M68,215L70,213,M71,214L70,213,M71,214L72,219M89,215L88,218,M89,215L95,216,M97,219L95,216,M93,220L97,219,M92,220L93,220,M92,220L88,218M76,216L76,219,M75,216L76,216,M74,218L75,216,M74,218L76,219M76,216L76,219,M76,216L76,216,M80,218L76,216,M80,218L80,218,M80,218L80,221,M79,221L80,221,M79,221L76,219M86,219L83,217,M86,219L87,218,M87,218L85,215,M84,215L85,215,M83,217L84,215M135,224L148,223,M134,223L135,224,M134,223L137,209,M137,209L141,205,M141,205L145,206,M145,206L148,223M45,222L49,216,M48,223L45,222,M48,223L58,219,M56,213L58,219,M49,216L56,213M74,218L76,219,M72,219L74,218,M72,219L72,223,M72,223L78,222,M78,222L79,221,M79,221L76,219M86,219L83,217,M86,219L85,223,M85,224L85,223,M83,224L85,224,M83,224L80,221,M80,218L80,221,M80,218L83,217M160,215L170,216,M157,225L160,215,M157,225L158,225,M158,225L170,227M66,219L72,219,M61,223L66,219,M67,226L61,223,M69,227L67,226,M69,227L70,227,M70,227L72,223,M72,219L72,223,M72,219L72,219M86,219L87,218,M86,219L85,223,M85,223L86,223,M86,223L92,220,M92,220L88,218,M87,218L88,218M30,218L42,220,M29,219L30,218,M26,220L29,219,M32,229L26,220,M32,229L42,226,M43,224L42,226,M44,222L43,224,M44,222L42,220M89,225L91,225,M89,225L86,223,M86,223L92,220,M92,220L93,220,M91,225L93,220M49,225L52,226,M49,225L48,225,M48,225L48,223,M48,223L58,219,M60,223L58,219,M52,226L60,223M78,222L76,228,M72,223L78,222,M70,227L72,223,M70,227L76,228M95,228L91,225,M95,228L98,228,M98,228L99,225,M99,221L99,225,M99,221L99,220,M97,219L99,220,M93,220L97,219,M91,225L93,220,M91,225L91,225M47,227L43,224,M47,227L48,225,M48,225L48,223,M48,223L45,222,M44,222L45,222,M44,222L43,224M78,222L76,228,M78,222L79,221,M79,221L80,221,M83,224L80,221,M83,224L81,229,M79,230L81,229,M79,230L76,228M89,226L90,228,M89,225L89,226,M89,225L91,225,M91,225L91,225,M90,228L91,225M106,222L105,229,M99,221L106,222,M99,221L99,225,M105,229L99,225M106,222L105,229,M106,222L115,222,M115,222L115,231,M111,233L115,231,M110,233L111,233,M110,233L105,229M47,227L48,225,M47,227L46,229,M46,229L48,228,M48,228L49,227,M49,225L49,227,M49,225L48,225M87,229L89,226,M87,229L85,224,M85,224L85,223,M85,223L86,223,M89,225L86,223,M89,225L89,226M87,229L89,226,M88,231L87,229,M88,231L89,231,M90,228L89,231,M89,226L90,228M90,228L91,225,M90,228L89,231,M89,231L95,228,M95,228L91,225M1,222L1,229,M1,222L0,221,M0,229L1,229M1,222L1,229,M1,222L14,222,M14,222L12,229,M3,229L12,229,M3,229L1,229M47,227L43,224,M47,227L46,229,M45,231L46,229,M45,231L42,226,M43,224L42,226M51,230L48,228,M51,229L51,230,M51,229L49,227,M48,228L49,227M51,229L49,227,M52,226L51,229,M49,225L52,226,M49,225L49,227M87,229L85,224,M88,231L87,229,M88,233L88,231,M88,233L81,229,M83,224L81,229,M83,224L85,224M52,226L51,229,M52,226L60,223,M60,223L60,223,M60,223L56,237,M54,237L56,237,M54,237L51,230,M51,229L51,230M124,237L130,223,M124,237L115,231,M115,222L115,231,M115,222L116,220,M116,220L121,219,M121,219L130,223M136,228L147,233,M135,224L136,228,M135,224L148,223,M148,223L150,225,M147,233L150,225M0,233L3,229,M3,229L1,229,M0,229L1,229M105,229L99,225,M110,233L105,229,M100,235L110,233,M98,229L100,235,M98,228L98,229,M98,228L99,225M45,231L42,226,M45,231L46,238,M41,242L46,238,M33,242L41,242,M32,229L33,242,M32,229L42,226M51,230L48,228,M54,237L51,230,M46,238L54,237,M45,231L46,238,M45,231L46,229,M46,229L48,228M70,227L76,228,M69,227L70,227,M69,227L71,237,M75,239L71,237,M75,239L79,230,M79,230L76,228M124,237L130,223,M126,240L124,237,M126,240L132,242,M132,242L134,241,M136,228L134,241,M135,224L136,228,M134,223L135,224,M130,223L134,223M0,233L3,229,M3,229L12,229,M12,229L12,238,M0,237L12,238M32,229L33,242,M32,229L26,220,M26,220L19,219,M14,222L19,219,M14,222L14,222,M14,222L12,229,M12,229L12,238,M16,246L12,238,M22,253L16,246,M22,253L33,242M60,239L67,226,M58,239L60,239,M58,239L56,237,M60,223L56,237,M60,223L61,223,M67,226L61,223M60,239L67,226,M60,239L64,239,M64,239L71,237,M69,227L71,237,M69,227L67,226M88,237L98,229,M88,233L88,237,M88,233L88,231,M88,231L89,231,M89,231L95,228,M95,228L98,228,M98,228L98,229M136,228L147,233,M136,228L134,241,M134,241L138,242,M138,242L139,242,M139,242L142,241,M142,241L147,236,M147,233L147,236M88,233L81,229,M88,233L88,237,M88,237L88,244,M84,248L88,244,M84,248L81,246,M81,246L75,239,M75,239L79,230,M79,230L81,229M152,237L158,232,M147,236L152,237,M147,233L147,236,M147,233L150,225,M150,225L157,225,M157,225L158,225,M158,225L158,232M161,236L170,229,M158,232L161,236,M158,225L158,232,M158,225L170,227M88,237L98,229,M88,237L88,244,M88,244L96,242,M96,242L100,235,M98,229L100,235M161,236L170,229,M161,236L163,243,M163,243L170,241M152,237L158,232,M160,247L152,237,M160,247L163,243,M161,236L163,243,M158,232L161,236M100,235L110,233,M96,242L100,235,M108,247L96,242,M111,233L108,247,M110,233L111,233M111,233L108,247,M111,233L115,231,M124,237L115,231,M126,240L124,237,M113,254L126,240,M113,254L108,247M142,241L159,247,M142,241L147,236,M147,236L152,237,M160,247L152,237,M160,247L160,247,M159,247L160,247M0,246L16,246,M16,246L12,238,M0,237L12,238M51,255L41,242,M41,242L46,238,M46,238L54,237,M54,237L56,237,M58,239L56,237,M58,239L58,255M68,249L64,239,M60,255L68,249,M60,239L64,239,M58,239L60,239,M58,239L58,255M68,249L64,239,M68,249L81,246,M81,246L75,239,M75,239L71,237,M64,239L71,237M142,241L159,247,M139,242L142,241,M149,255L139,242,M156,255L159,247M5,255L0,249M5,255L0,249M132,242L130,255,M126,240L132,242,M113,254L126,240,M113,254L113,255M160,247L170,253,M160,247L160,247,M160,247L163,243,M163,243L170,241M108,247L96,242,M113,254L108,247,M113,254L113,255,M88,244L96,242,M84,248L88,244,M84,248L85,255M138,242L137,255,M134,241L138,242,M132,242L134,241,M132,242L130,255M60,255L68,249,M68,249L81,246,M84,248L81,246,M84,248L85,255M138,242L137,255,M138,242L139,242,M149,255L139,242M51,255L41,242,M33,242L41,242,M22,253L33,242,M22,253L21,255M160,247L170,253,M159,247L160,247,M156,255L159,247" />

</svg>