
<svg xmlns="http://www.w3.org/2000/svg" width="1012" height="1012" >

<path stroke="blue" stroke-width="4" d="
M190,0L174,8,M159,7L174,8,M156,0L159,7M620,0L622,23,M622,23L639,22M84,0L90,15,M90,15L94,15,M98,15L94,15,M102,0L98,15M317,0L339,18,M359,0L339,18M601,0L616,28,M616,28L622,23,M620,0L622,23M84,0L90,15,M90,15L79,18,M57,0L79,18M274,0L271,25,M242,25L271,25,M240,0L242,25M601,0L616,28,M614,30L616,28,M599,33L614,30,M581,34L599,33,M559,4L581,34,M559,0L559,4M102,0L98,15,M98,15L112,26,M127,11L112,26,M130,0L127,11M375,11L407,25,M370,0L375,11,M423,4L407,25,M424,0L423,4M202,3L225,43,M202,0L202,3,M242,25L225,43,M240,0L242,25M274,0L271,25,M271,25L299,47,M307,0L299,47M174,8L184,15,M190,0L174,8,M195,10L184,15,M202,3L195,10,M202,0L202,3M423,4L445,32,M424,0L423,4,M461,26L445,32,M474,0L461,26M317,0L339,18,M339,18L328,55,M328,55L320,57,M301,51L320,57,M299,47L301,51,M307,0L299,47M20,0L5,35,M5,35L0,39M127,11L137,23,M130,0L127,11,M137,23L159,30M174,8L184,15,M159,7L174,8,M159,7L160,29,M182,19L160,29,M184,15L182,19M182,19L189,30,M184,15L182,19,M195,10L184,15,M195,10L189,30M542,24L520,32,M559,4L542,24,M559,0L559,4,M508,26L520,32,M498,0L508,26M57,18L65,33,M54,0L57,18,M65,33L73,38M195,10L189,30,M202,3L195,10,M202,3L225,43,M225,43L224,45,M224,45L204,58,M204,58L196,60,M192,60L196,60,M189,30L192,60M34,19L49,29,M33,0L34,19,M49,29L50,29M182,19L189,30,M182,19L160,29,M160,29L159,30,M159,30L161,43,M161,43L163,46,M163,46L176,59,M176,59L183,61,M183,61L192,60,M189,30L192,60M137,23L125,39,M127,11L137,23,M127,11L112,26,M112,26L113,39,M113,39L113,39,M113,39L116,40,M125,39L116,40M373,21L360,46,M375,11L373,21,M370,0L375,11,M360,46L346,58M5,35L29,33,M20,0L5,35,M32,28L29,33,M34,19L32,28,M33,0L34,19M94,15L86,43,M90,15L94,15,M90,15L79,18,M79,18L73,38,M73,38L76,45,M76,45L77,46,M86,43L77,46M423,4L445,32,M423,4L407,25,M407,25L408,33,M408,33L425,45,M425,45L434,44,M442,36L434,44,M445,32L442,36M57,18L50,29,M57,18L65,33,M65,33L53,35,M50,29L53,35M49,29L42,35,M34,19L49,29,M34,19L32,28,M32,28L42,35M94,15L86,43,M98,15L94,15,M98,15L112,26,M112,26L113,39,M113,39L86,43M491,0L488,41,M468,36L488,41,M461,26L468,36,M474,0L461,26M137,23L125,39,M137,23L159,30,M159,30L161,43,M125,39L161,43M491,0L488,41,M488,41L495,48,M496,47L495,48,M508,26L496,47,M498,0L508,26M373,21L394,47,M375,11L373,21,M375,11L407,25,M407,25L408,33,M408,33L394,47M49,29L42,35,M49,29L50,29,M50,29L53,35,M53,35L47,44,M42,35L47,44M373,21L394,47,M373,21L360,46,M360,46L394,47,M394,47L394,47M42,35L47,44,M32,28L42,35,M32,28L29,33,M29,33L30,44,M30,44L45,61,M46,60L45,61,M47,44L46,60M53,35L47,44,M65,33L53,35,M65,33L73,38,M73,38L76,45,M76,45L46,60,M47,44L46,60M519,39L521,46,M520,32L519,39,M542,24L520,32,M542,24L538,43,M538,43L532,51,M530,51L532,51,M521,46L530,51M519,39L496,47,M520,32L519,39,M508,26L520,32,M508,26L496,47M30,44L13,49,M29,33L30,44,M5,35L29,33,M5,35L0,39,M0,42L13,49M614,30L630,58,M614,30L616,28,M616,28L622,23,M622,23L639,22,M630,58L639,58M519,39L496,47,M519,39L521,46,M521,46L502,58,M496,53L502,58,M495,48L496,53,M496,47L495,48M538,43L565,63,M542,24L538,43,M559,4L542,24,M559,4L581,34,M581,34L579,44,M579,44L565,63M242,25L271,25,M242,25L225,43,M225,43L224,45,M224,45L248,63,M248,63L266,66,M266,66L271,66,M281,64L271,66,M287,62L281,64,M301,51L287,62,M299,47L301,51,M271,25L299,47M442,36L462,59,M445,32L442,36,M461,26L445,32,M461,26L468,36,M468,36L467,54,M467,54L462,59M467,54L486,59,M468,36L467,54,M468,36L488,41,M488,41L495,48,M495,48L496,53,M496,53L486,59M30,44L13,49,M30,44L45,61,M45,61L40,75,M40,75L38,77,M13,49L38,77M122,50L139,57,M116,40L122,50,M125,39L116,40,M125,39L161,43,M161,43L163,46,M163,46L139,57M401,63L417,61,M395,61L401,63,M394,47L395,61,M394,47L394,47,M408,33L394,47,M408,33L425,45,M425,45L417,61M442,36L462,59,M442,36L434,44,M434,44L442,62,M442,62L449,66,M449,66L458,67,M462,59L458,67M538,43L565,63,M538,43L532,51,M532,51L550,72,M550,72L562,69,M565,63L562,69M79,51L103,67,M77,46L79,51,M86,43L77,46,M113,39L86,43,M113,39L113,39,M113,39L104,67,M104,67L103,67M360,46L394,47,M360,46L346,58,M346,58L355,66,M355,66L389,67,M395,61L389,67,M394,47L395,61M521,46L502,58,M521,46L530,51,M530,51L523,64,M509,71L523,64,M502,58L509,71M122,50L139,57,M122,50L126,68,M126,68L131,69,M139,57L131,69M599,33L613,76,M599,33L614,30,M614,30L630,58,M622,72L630,58,M613,76L622,72M122,50L126,68,M116,40L122,50,M113,39L116,40,M113,39L104,67,M104,67L116,74,M126,68L116,74M13,49L38,77,M0,42L13,49,M38,77L29,88M442,62L424,75,M434,44L442,62,M425,45L434,44,M425,45L417,61,M417,61L424,75M599,33L613,76,M581,34L599,33,M581,34L579,44,M579,44L600,74,M600,74L607,81,M607,81L610,79,M610,79L613,76M523,64L547,75,M530,51L523,64,M530,51L532,51,M532,51L550,72,M547,75L550,72M460,70L481,71,M458,67L460,70,M462,59L458,67,M467,54L462,59,M467,54L486,59,M486,59L481,71M79,51L77,77,M77,46L79,51,M76,45L77,46,M76,45L46,60,M46,60L45,61,M45,61L40,75,M40,75L51,79,M51,79L73,79,M77,77L73,79M79,51L103,67,M79,51L77,77,M77,77L88,81,M103,67L88,81M139,57L131,69,M163,46L139,57,M163,46L176,59,M176,59L163,71,M163,71L138,75,M131,69L138,75M406,72L423,86,M401,63L406,72,M401,63L417,61,M417,61L424,75,M424,75L423,86M566,75L600,74,M562,69L566,75,M565,63L562,69,M579,44L565,63,M579,44L600,74M481,71L487,91,M486,59L481,71,M496,53L486,59,M496,53L502,58,M502,58L509,71,M509,71L509,81,M509,81L494,94,M487,91L494,94M523,64L547,75,M509,71L523,64,M509,71L509,81,M509,81L529,89,M529,89L542,81,M547,75L542,81M622,72L639,85,M622,72L630,58,M630,58L639,58M460,70L481,71,M460,70L461,78,M461,78L478,92,M478,92L487,91,M481,71L487,91M406,72L393,102,M401,63L406,72,M395,61L401,63,M395,61L389,67,M389,67L393,102M449,66L437,93,M442,62L449,66,M442,62L424,75,M424,75L423,86,M423,86L423,94,M423,94L435,94,M437,93L435,94M566,75L600,74,M566,75L568,79,M568,79L577,87,M577,87L586,88,M586,88L605,84,M605,84L607,81,M600,74L607,81M218,79L243,80,M204,58L218,79,M224,45L204,58,M224,45L248,63,M248,63L243,80M406,72L393,102,M406,72L423,86,M423,86L423,94,M423,94L411,104,M407,106L411,104,M393,107L407,106,M393,102L393,107M389,67L393,102,M355,66L389,67,M355,66L360,80,M360,80L364,85,M364,85L390,108,M393,107L390,108,M393,102L393,107M138,75L132,101,M131,69L138,75,M126,68L131,69,M126,68L116,74,M116,74L117,99,M117,99L122,102,M122,102L132,101M103,67L88,81,M104,67L103,67,M104,67L116,74,M116,74L117,99,M96,98L117,99,M88,81L96,98M218,79L243,80,M218,79L234,106,M240,101L234,106,M243,80L240,101M449,66L437,93,M449,66L458,67,M458,67L460,70,M460,70L461,78,M461,78L451,91,M437,93L451,91M266,66L250,98,M248,63L266,66,M248,63L243,80,M243,80L240,101,M250,98L240,101M138,75L132,101,M163,71L138,75,M163,71L147,104,M132,101L147,104M610,79L639,100,M610,79L613,76,M613,76L622,72,M622,72L639,85M271,66L263,100,M266,66L271,66,M266,66L250,98,M250,98L263,100M451,91L465,103,M461,78L451,91,M461,78L478,92,M478,92L465,103M271,66L263,100,M281,64L271,66,M281,64L269,104,M263,100L269,104M322,86L347,94,M321,85L322,86,M320,57L321,85,M328,55L320,57,M328,55L346,58,M346,58L355,66,M355,66L360,80,M360,80L352,91,M352,91L347,94M281,64L269,104,M287,62L281,64,M287,62L287,103,M287,103L286,105,M271,105L286,105,M269,104L271,105M542,81L555,106,M547,75L542,81,M547,75L550,72,M550,72L562,69,M562,69L566,75,M566,75L568,79,M568,79L559,104,M555,106L559,104M73,79L73,103,M51,79L73,79,M51,79L65,99,M65,99L73,103M73,79L73,103,M77,77L73,79,M77,77L88,81,M88,81L96,98,M96,98L85,111,M74,104L85,111,M73,103L74,104M177,95L152,110,M183,61L177,95,M176,59L183,61,M176,59L163,71,M163,71L147,104,M147,104L152,110M201,94L213,119,M196,60L201,94,M204,58L196,60,M204,58L218,79,M218,79L234,106,M234,106L234,108,M234,108L230,110,M230,110L213,119M311,95L287,103,M321,85L311,95,M320,57L321,85,M301,51L320,57,M301,51L287,62,M287,62L287,103M610,79L639,100,M607,81L610,79,M605,84L607,81,M605,84L607,100,M607,100L609,104,M609,104L609,104,M609,104L617,106,M617,106L639,107M322,86L347,94,M322,86L325,93,M325,93L338,112,M340,112L338,112,M342,110L340,112,M347,94L342,110M347,94L342,110,M352,91L347,94,M352,91L349,104,M349,104L342,110M352,91L349,104,M360,80L352,91,M360,80L364,85,M364,85L354,102,M354,102L349,104M586,88L587,103,M586,88L605,84,M605,84L607,100,M587,103L607,100M201,94L183,105,M196,60L201,94,M192,60L196,60,M183,61L192,60,M183,61L177,95,M177,95L183,105M566,105L576,95,M559,104L566,105,M568,79L559,104,M568,79L577,87,M577,87L576,95M586,88L587,103,M577,87L586,88,M577,87L576,95,M576,95L580,105,M580,105L585,105,M585,105L587,103M65,99L47,112,M51,79L65,99,M40,75L51,79,M40,75L38,77,M38,77L29,88,M35,105L29,88,M35,105L47,112M542,81L555,106,M529,89L542,81,M529,89L530,100,M530,100L544,120,M555,106L544,120M354,102L377,114,M364,85L354,102,M364,85L390,108,M390,108L386,116,M377,114L386,116M451,91L465,103,M437,93L451,91,M437,93L435,94,M435,94L453,118,M453,118L461,114,M465,103L461,114M513,111L530,100,M495,103L513,111,M494,94L495,103,M509,81L494,94,M509,81L529,89,M529,89L530,100M566,105L576,95,M566,105L574,111,M574,111L580,105,M576,95L580,105M201,94L183,105,M201,94L213,119,M213,119L207,126,M185,115L207,126,M183,105L185,115M311,95L287,103,M311,95L305,110,M305,110L292,117,M286,105L292,117,M287,103L286,105M74,104L51,115,M73,103L74,104,M65,99L73,103,M65,99L47,112,M47,112L51,115M354,102L377,114,M354,102L349,104,M349,104L342,110,M342,110L340,112,M340,112L377,114M585,105L592,116,M585,105L587,103,M587,103L607,100,M607,100L609,104,M592,116L609,104M177,95L152,110,M177,95L183,105,M183,105L185,115,M185,115L158,124,M152,110L158,124M325,93L314,114,M322,86L325,93,M321,85L322,86,M321,85L311,95,M311,95L305,110,M305,110L314,114M461,114L475,120,M465,103L461,114,M478,92L465,103,M478,92L487,91,M487,91L494,94,M494,94L495,103,M495,103L490,117,M490,117L490,117,M486,119L490,117,M475,120L486,119M74,104L51,115,M74,104L85,111,M85,111L84,112,M84,112L64,121,M52,117L64,121,M52,117L51,115M271,105L262,130,M269,104L271,105,M263,100L269,104,M250,98L263,100,M250,98L240,101,M240,101L234,106,M234,106L234,108,M234,108L257,130,M257,130L262,130M325,93L314,114,M325,93L338,112,M338,112L332,141,M332,141L331,143,M331,143L328,144,M314,114L328,144M435,94L453,118,M423,94L435,94,M423,94L411,104,M411,104L437,127,M437,127L443,131,M450,123L443,131,M453,118L450,123M516,118L526,121,M513,111L516,118,M513,111L530,100,M530,100L544,120,M544,120L544,123,M526,121L544,123M585,105L592,116,M580,105L585,105,M574,111L580,105,M574,111L576,124,M576,124L589,123,M589,123L592,116M566,105L574,111,M559,104L566,105,M555,106L559,104,M555,106L544,120,M544,120L544,123,M544,123L545,125,M545,125L572,128,M572,128L576,124,M574,111L576,124M0,112L19,130,M22,128L19,130,M31,115L22,128,M35,105L31,115,M35,105L29,88,M0,88L29,88M87,121L115,115,M84,112L87,121,M85,111L84,112,M96,98L85,111,M96,98L117,99,M117,99L122,102,M122,102L120,111,M120,111L115,115M271,105L262,130,M271,105L286,105,M286,105L292,117,M292,117L292,143,M286,143L292,143,M262,130L286,143M305,110L314,114,M305,110L292,117,M292,117L292,143,M292,143L306,151,M306,151L323,148,M328,144L323,148,M314,114L328,144M340,112L377,114,M340,112L338,112,M338,112L332,141,M332,141L379,143,M386,116L379,143,M377,114L386,116M619,116L622,125,M617,106L619,116,M617,106L639,107,M622,125L635,134M87,121L115,115,M87,121L91,140,M115,115L91,140M592,116L609,104,M589,123L592,116,M589,123L602,136,M602,136L608,124,M609,104L608,124,M609,104L609,104M616,124L619,116,M608,124L616,124,M609,104L608,124,M609,104L617,106,M617,106L619,116M120,111L126,140,M122,102L120,111,M122,102L132,101,M132,101L147,104,M147,104L152,110,M152,110L158,124,M158,124L156,139,M156,139L151,145,M126,140L151,145M516,118L509,131,M513,111L516,118,M495,103L513,111,M495,103L490,117,M490,117L509,131M616,124L619,116,M616,124L622,125,M619,116L622,125M64,121L74,150,M84,112L64,121,M84,112L87,121,M87,121L91,140,M91,140L90,152,M90,152L90,153,M82,154L90,153,M74,150L82,154M0,112L19,130,M19,130L17,132,M17,132L0,137M50,144L31,115,M50,144L50,144,M52,117L50,144,M52,117L51,115,M47,112L51,115,M35,105L47,112,M35,105L31,115M185,115L158,124,M185,115L207,126,M207,126L205,139,M205,139L197,142,M156,139L197,142,M158,124L156,139M526,121L514,139,M516,118L526,121,M516,118L509,131,M509,131L509,133,M509,133L514,139M616,124L622,125,M608,124L616,124,M602,136L608,124,M602,136L603,138,M603,138L610,142,M610,142L635,134,M622,125L635,134M115,115L91,140,M120,111L115,115,M120,111L126,140,M126,140L118,144,M118,144L90,152,M91,140L90,152M450,123L466,134,M453,118L450,123,M453,118L461,114,M461,114L475,120,M475,120L472,132,M471,133L472,132,M466,134L471,133M64,121L74,150,M52,117L64,121,M52,117L50,144,M50,144L74,150M418,136L437,127,M407,106L418,136,M407,106L411,104,M411,104L437,127M526,121L514,139,M526,121L544,123,M544,123L545,125,M545,125L543,133,M543,133L525,159,M514,139L525,159M50,144L31,115,M50,144L42,148,M22,128L42,148,M31,115L22,128M472,132L482,143,M475,120L472,132,M475,120L486,119,M486,119L483,142,M482,143L483,142M230,110L237,141,M230,110L213,119,M213,119L207,126,M207,126L205,139,M205,139L211,147,M211,147L213,147,M213,147L229,146,M237,141L229,146M230,110L237,141,M234,108L230,110,M234,108L257,130,M257,130L250,139,M237,141L250,139M493,129L491,142,M490,117L493,129,M486,119L490,117,M486,119L483,142,M483,142L491,142M493,129L499,137,M490,117L493,129,M490,117L490,117,M490,117L509,131,M509,131L509,133,M499,137L509,133M407,106L418,136,M393,107L407,106,M393,107L390,108,M390,108L386,116,M386,116L379,143,M379,143L382,148,M382,148L385,152,M385,152L398,159,M398,159L413,152,M418,136L413,152M493,129L499,137,M493,129L491,142,M491,142L492,142,M492,142L499,137M589,123L602,136,M576,124L589,123,M572,128L576,124,M572,128L579,158,M579,158L603,138,M602,136L603,138M466,134L462,153,M450,123L466,134,M450,123L443,131,M443,131L443,139,M443,139L455,151,M455,151L462,153M418,136L437,127,M418,136L413,152,M413,152L426,152,M443,139L426,152,M443,131L443,139,M437,127L443,131M471,133L470,150,M466,134L471,133,M466,134L462,153,M462,153L463,154,M463,154L470,150M471,133L470,150,M471,133L472,132,M472,132L482,143,M482,143L481,144,M470,150L481,144M543,133L577,163,M545,125L543,133,M545,125L572,128,M572,128L579,158,M577,163L579,158M492,142L499,137,M492,142L513,169,M513,169L521,165,M521,165L524,162,M525,159L524,162,M514,139L525,159,M509,133L514,139,M499,137L509,133M17,142L33,162,M17,132L17,142,M19,130L17,132,M22,128L19,130,M22,128L42,148,M42,148L33,162M15,144L0,155,M17,142L15,144,M17,132L17,142,M17,132L0,137M15,144L16,167,M17,142L15,144,M17,142L33,162,M33,162L32,165,M16,167L32,165M15,144L16,167,M15,144L0,155,M5,169L16,167,M0,167L5,169M229,146L248,163,M237,141L229,146,M237,141L250,139,M250,139L250,163,M248,163L250,163M250,139L250,163,M257,130L250,139,M257,130L262,130,M262,130L286,143,M286,143L256,172,M250,163L256,172M481,145L509,171,M481,144L481,145,M482,143L481,144,M482,143L483,142,M483,142L491,142,M491,142L492,142,M492,142L513,169,M509,171L513,169M612,149L624,163,M610,142L612,149,M610,142L635,134,M635,134L639,133,M624,163L639,167M543,133L577,163,M543,133L525,159,M525,159L524,162,M524,162L543,169,M543,169L577,167,M577,163L577,167M481,145L509,171,M481,145L488,176,M488,176L492,180,M492,180L496,182,M496,182L509,171M154,163L187,156,M151,145L154,163,M156,139L151,145,M156,139L197,142,M197,142L187,156M481,145L488,176,M481,144L481,145,M470,150L481,144,M463,154L470,150,M463,154L464,155,M464,155L488,176M600,171L612,149,M580,173L600,171,M577,167L580,173,M577,163L577,167,M577,163L579,158,M579,158L603,138,M603,138L610,142,M610,142L612,149M455,151L443,166,M443,139L455,151,M443,139L426,152,M426,152L437,167,M437,167L443,166M229,146L248,163,M213,147L229,146,M213,147L226,161,M226,161L248,163M118,144L126,168,M126,140L118,144,M126,140L151,145,M151,145L154,163,M154,163L154,165,M154,165L153,165,M144,168L153,165,M126,168L144,168M600,171L612,149,M600,171L602,172,M602,172L624,163,M612,149L624,163M69,168L45,177,M82,154L69,168,M74,150L82,154,M50,144L74,150,M50,144L50,144,M50,144L42,148,M42,148L33,162,M33,162L32,165,M32,166L32,165,M32,166L45,177M154,163L187,156,M154,163L154,165,M154,165L160,173,M160,173L163,173,M163,173L185,171,M187,156L185,171M118,144L126,168,M118,144L90,152,M90,152L90,153,M90,153L100,176,M100,176L109,177,M126,168L109,177M187,156L185,171,M197,142L187,156,M205,139L197,142,M205,139L211,147,M211,147L206,173,M196,177L206,173,M189,174L196,177,M185,171L189,174M226,161L248,163,M226,161L230,181,M230,181L255,174,M256,172L255,174,M250,163L256,172,M248,163L250,163M331,143L358,172,M332,141L331,143,M332,141L379,143,M379,143L382,148,M382,148L358,172M331,143L358,172,M331,143L328,144,M328,144L323,148,M323,148L338,181,M338,181L343,188,M348,185L343,188,M358,172L348,185M426,152L437,167,M413,152L426,152,M398,159L413,152,M398,159L402,171,M402,171L409,184,M409,184L415,183,M415,183L431,177,M437,167L431,177M464,155L456,182,M463,154L464,155,M462,153L463,154,M455,151L462,153,M455,151L443,166,M443,166L456,182M267,183L298,177,M262,182L267,183,M258,178L262,182,M255,174L258,178,M256,172L255,174,M286,143L256,172,M286,143L292,143,M292,143L306,151,M306,151L298,177M226,161L230,181,M213,147L226,161,M211,147L213,147,M211,147L206,173,M206,173L213,180,M213,180L223,185,M230,181L223,185,M230,181L230,181M464,155L456,182,M464,155L488,176,M488,176L492,180,M456,182L492,180,M456,182L456,182M602,172L624,163,M602,172L620,187,M620,187L630,180,M630,180L639,171,M624,163L639,167M126,168L109,177,M126,168L144,168,M144,168L125,185,M109,177L125,185M348,185L373,180,M358,172L348,185,M382,148L358,172,M382,148L385,152,M385,152L373,180M431,177L450,192,M437,167L431,177,M437,167L443,166,M443,166L456,182,M456,182L456,182,M456,182L450,192M69,168L68,192,M69,168L45,177,M45,177L49,200,M49,200L60,202,M68,192L60,202M189,174L179,188,M185,171L189,174,M163,173L185,171,M163,173L179,188M303,190L338,181,M299,181L303,190,M298,177L299,181,M306,151L298,177,M306,151L323,148,M323,148L338,181M68,192L97,187,M69,168L68,192,M82,154L69,168,M82,154L90,153,M90,153L100,176,M100,176L97,187M189,174L179,188,M189,174L196,177,M196,177L193,188,M193,188L183,194,M179,188L183,194M153,165L135,195,M144,168L153,165,M144,168L125,185,M125,185L129,193,M129,193L135,195M26,186L20,194,M32,166L26,186,M32,166L32,165,M16,167L32,165,M5,169L16,167,M12,193L5,169,M12,193L20,194M402,171L376,191,M398,159L402,171,M385,152L398,159,M385,152L373,180,M373,180L376,191M402,171L376,191,M402,171L409,184,M409,184L408,198,M376,198L408,198,M376,191L376,198M551,198L580,176,M550,197L551,198,M543,169L550,197,M543,169L577,167,M577,167L580,173,M580,173L580,176M602,172L620,187,M600,171L602,172,M580,173L600,171,M580,173L580,176,M580,176L587,202,M587,202L610,214,M610,214L615,206,M615,206L620,187M26,186L46,202,M32,166L26,186,M32,166L45,177,M45,177L49,200,M49,200L47,201,M47,201L46,202M213,180L202,197,M206,173L213,180,M196,177L206,173,M196,177L193,188,M193,188L202,197M348,185L373,180,M348,185L343,188,M343,188L343,191,M343,191L350,199,M350,199L372,202,M376,198L372,202,M376,191L376,198,M373,180L376,191M415,183L450,195,M415,183L431,177,M431,177L450,192,M450,192L450,195M0,196L11,195,M12,193L11,195,M12,193L5,169,M0,167L5,169M303,190L338,181,M303,190L305,199,M305,199L313,200,M313,200L343,191,M343,191L343,191,M343,188L343,191,M338,181L343,188M415,183L450,195,M409,184L415,183,M409,184L408,198,M408,198L410,203,M410,203L449,198,M450,197L449,198,M450,195L450,197M531,192L550,197,M521,165L531,192,M521,165L524,162,M524,162L543,169,M543,169L550,197M153,165L135,195,M154,165L153,165,M154,165L160,173,M160,173L157,207,M136,196L157,207,M135,195L136,196M26,186L46,202,M26,186L20,194,M20,194L37,207,M46,202L37,207M163,173L179,188,M160,173L163,173,M160,173L157,207,M157,207L158,209,M158,209L179,210,M183,194L179,210,M179,188L183,194M299,181L280,198,M298,177L299,181,M267,183L298,177,M267,183L277,196,M277,196L280,198M99,197L124,197,M98,196L99,197,M97,187L98,196,M100,176L97,187,M100,176L109,177,M109,177L125,185,M125,185L129,193,M129,193L124,197M230,181L239,196,M230,181L230,181,M230,181L255,174,M255,174L258,178,M258,178L248,195,M239,196L248,195M630,180L637,199,M630,180L639,171,M637,199L639,199M213,180L202,197,M213,180L223,185,M223,185L222,205,M204,209L222,205,M204,209L204,209,M202,197L204,209M450,197L480,208,M450,195L450,197,M450,192L450,195,M456,182L450,192,M456,182L492,180,M492,180L496,182,M496,182L496,185,M496,185L480,208M630,180L637,199,M620,187L630,180,M615,206L620,187,M615,206L637,199M230,181L239,196,M230,181L223,185,M223,185L222,205,M222,205L228,210,M239,196L228,210M68,192L97,187,M68,192L60,202,M60,202L67,210,M67,210L73,212,M73,212L90,208,M98,196L90,208,M97,187L98,196M299,181L280,198,M299,181L303,190,M303,190L305,199,M305,199L301,205,M301,205L292,213,M286,213L292,213,M280,198L286,213M531,192L526,214,M521,165L531,192,M513,169L521,165,M509,171L513,169,M496,182L509,171,M496,182L496,185,M496,185L517,213,M517,213L526,214M551,198L580,176,M551,198L552,216,M552,216L562,220,M562,220L587,202,M580,176L587,202M193,188L202,197,M193,188L183,194,M183,194L179,210,M179,210L180,211,M180,211L204,209,M202,197L204,209M239,196L228,210,M239,196L248,195,M248,195L248,216,M233,216L248,216,M228,210L233,216M248,195L248,216,M258,178L248,195,M258,178L262,182,M262,182L263,212,M263,212L263,216,M249,217L263,216,M248,216L249,217M277,196L263,212,M267,183L277,196,M262,182L267,183,M262,182L263,212M531,192L550,197,M531,192L526,214,M526,214L535,220,M535,220L552,216,M551,198L552,216,M550,197L551,198M0,196L11,195,M11,195L10,204,M10,204L5,211,M5,211L0,217M99,197L124,197,M99,197L115,212,M121,208L115,212,M124,197L121,208M277,196L263,212,M277,196L280,198,M280,198L286,213,M270,220L286,213,M263,216L270,220,M263,212L263,216M615,206L637,199,M610,214L615,206,M610,214L620,239,M620,239L639,249,M637,199L639,199M10,204L31,216,M11,195L10,204,M12,193L11,195,M12,193L20,194,M20,194L37,207,M37,207L31,216M136,196L131,210,M135,195L136,196,M129,193L135,195,M129,193L124,197,M124,197L121,208,M121,208L131,210M313,200L326,216,M313,200L343,191,M343,191L327,216,M326,216L327,216M136,196L131,210,M136,196L157,207,M157,207L158,209,M158,209L155,214,M137,220L155,214,M137,220L131,210M372,202L375,221,M376,198L372,202,M376,198L408,198,M408,198L410,203,M410,203L410,221,M375,221L410,221M410,203L449,198,M410,203L410,221,M410,221L414,232,M414,232L431,242,M431,242L437,242,M437,242L447,229,M449,198L447,229M5,211L31,216,M10,204L5,211,M10,204L31,216,M31,216L31,216M350,208L334,221,M350,199L350,208,M343,191L350,199,M343,191L343,191,M343,191L327,216,M327,216L328,219,M328,219L334,221M450,197L480,208,M450,197L449,198,M449,198L447,229,M447,229L480,221,M480,208L480,221M5,211L31,216,M5,211L0,217,M31,216L29,222M312,219L326,216,M301,205L312,219,M305,199L301,205,M305,199L313,200,M313,200L326,216M350,208L356,231,M350,199L350,208,M350,199L372,202,M372,202L375,221,M375,221L366,232,M356,231L366,232M493,238L517,213,M480,221L493,238,M480,208L480,221,M496,185L480,208,M496,185L517,213M121,208L131,210,M121,208L115,212,M115,212L116,231,M116,231L125,232,M137,220L125,232,M137,220L131,210M92,213L111,233,M90,208L92,213,M98,196L90,208,M98,196L99,197,M99,197L115,212,M115,212L116,231,M116,231L111,233M350,208L334,221,M350,208L356,231,M346,236L356,231,M334,221L346,236M205,223L226,232,M204,209L205,223,M204,209L222,205,M222,205L228,210,M228,210L233,216,M233,216L226,232M312,219L311,231,M301,205L312,219,M301,205L292,213,M292,213L300,235,M300,235L311,231M47,201L51,227,M47,201L46,202,M46,202L37,207,M37,207L31,216,M31,216L31,216,M31,216L29,222,M29,222L45,232,M51,227L45,232M47,201L51,227,M49,200L47,201,M49,200L60,202,M60,202L67,210,M67,210L61,225,M51,227L61,225M92,213L84,238,M90,208L92,213,M73,212L90,208,M73,212L75,219,M84,238L75,219,M84,238L84,238M205,223L188,234,M205,223L205,223,M204,209L205,223,M204,209L204,209,M180,211L204,209,M180,211L181,213,M181,213L188,234M312,219L326,216,M312,219L311,231,M311,231L321,232,M328,219L321,232,M327,216L328,219,M326,216L327,216M92,213L84,238,M92,213L111,233,M111,233L96,251,M84,238L96,251M563,224L612,242,M562,220L563,224,M562,220L587,202,M587,202L610,214,M610,214L620,239,M612,242L620,239M75,219L66,237,M73,212L75,219,M67,210L73,212,M67,210L61,225,M65,237L61,225,M65,237L66,237M158,227L173,229,M156,225L158,227,M155,214L156,225,M158,209L155,214,M158,209L179,210,M179,210L180,211,M180,211L181,213,M181,213L173,229M75,219L66,237,M84,238L75,219,M66,237L84,238M292,213L300,235,M286,213L292,213,M270,220L286,213,M270,220L273,239,M273,239L296,244,M300,235L296,244M173,229L174,248,M181,213L173,229,M181,213L188,234,M188,234L186,246,M174,248L186,246M334,221L346,236,M328,219L334,221,M328,219L321,232,M321,232L332,248,M332,248L337,249,M346,236L337,249M156,225L141,249,M155,214L156,225,M137,220L155,214,M137,220L125,232,M125,232L140,249,M140,249L141,249M158,227L173,229,M158,227L173,249,M173,249L174,248,M173,229L174,248M205,223L208,245,M205,223L205,223,M205,223L226,232,M226,232L226,238,M226,238L225,241,M225,241L221,247,M221,247L220,248,M208,245L220,248M493,243L530,242,M493,238L493,243,M493,238L517,213,M517,213L526,214,M526,214L535,220,M535,220L530,242M51,227L61,225,M51,227L45,232,M49,248L45,232,M58,244L49,248,M65,237L58,244,M65,237L61,225M226,238L249,235,M226,232L226,238,M233,216L226,232,M233,216L248,216,M248,216L249,217,M249,217L249,235M249,217L249,235,M249,217L263,216,M263,216L270,220,M270,220L273,239,M273,239L261,252,M250,238L261,252,M249,235L250,238M375,221L410,221,M375,221L366,232,M366,232L380,256,M380,256L414,232,M410,221L414,232M205,223L208,245,M205,223L188,234,M188,234L186,246,M186,246L187,247,M187,247L208,245M563,224L612,242,M563,224L563,229,M563,229L568,251,M568,251L597,251,M597,251L612,242M535,251L563,229,M530,242L535,251,M535,220L530,242,M535,220L552,216,M552,216L562,220,M562,220L563,224,M563,224L563,229M17,235L42,254,M17,235L17,232,M29,222L17,232,M29,222L45,232,M49,248L45,232,M49,248L48,250,M48,250L42,254M238,243L250,238,M225,241L238,243,M226,238L225,241,M226,238L249,235,M249,235L250,238M447,229L480,221,M437,242L447,229,M437,242L466,265,M466,265L470,264,M470,264L492,248,M493,243L492,248,M493,238L493,243,M480,221L493,238M158,227L173,249,M156,225L158,227,M156,225L141,249,M141,249L141,249,M141,249L168,253,M173,249L168,253M16,232L0,243,M0,223L16,232M311,231L321,232,M300,235L311,231,M300,235L296,244,M296,244L301,256,M301,256L307,257,M307,257L332,248,M321,232L332,248M535,251L563,229,M535,251L538,260,M538,260L543,266,M543,266L563,257,M563,257L568,251,M563,229L568,251M0,246L14,243,M17,235L14,243,M17,235L17,232,M16,232L17,232,M16,232L0,243M238,243L250,238,M238,243L255,257,M261,253L255,257,M261,252L261,253,M250,238L261,252M58,244L94,265,M65,237L58,244,M65,237L66,237,M66,237L84,238,M84,238L84,238,M84,238L96,251,M96,251L94,265M0,246L14,243,M14,243L13,253,M0,252L13,253M238,243L255,257,M225,241L238,243,M225,241L221,247,M221,247L241,257,M241,257L252,260,M255,257L252,260M343,262L378,265,M337,249L343,262,M346,236L337,249,M346,236L356,231,M356,231L366,232,M366,232L380,256,M380,256L378,265M140,249L100,270,M125,232L140,249,M116,231L125,232,M116,231L111,233,M111,233L96,251,M96,251L94,265,M94,265L95,270,M95,270L100,270M17,235L42,254,M17,235L14,243,M14,243L13,253,M13,253L13,253,M13,253L31,270,M37,262L31,270,M42,254L37,262M261,253L285,275,M261,252L261,253,M273,239L261,252,M273,239L296,244,M296,244L301,256,M301,256L285,275M509,262L538,260,M496,253L509,262,M492,248L496,253,M493,243L492,248,M493,243L530,242,M530,242L535,251,M535,251L538,260M58,244L94,265,M58,244L49,248,M49,248L48,250,M48,250L85,284,M86,283L85,284,M95,270L86,283,M94,265L95,270M0,259L8,259,M13,253L8,259,M13,253L13,253,M0,252L13,253M190,255L213,267,M187,247L190,255,M187,247L208,245,M208,245L220,248,M220,248L218,263,M218,263L213,267M0,259L8,259,M8,259L4,269,M4,269L0,271M380,256L414,232,M380,256L378,265,M378,265L390,296,M390,296L399,296,M399,296L415,286,M417,282L415,286,M431,242L417,282,M414,232L431,242M241,257L226,271,M221,247L241,257,M221,247L220,248,M220,248L218,263,M218,263L226,271M140,249L100,270,M140,249L141,249,M141,249L141,249,M141,249L141,269,M141,269L130,277,M125,277L130,277,M100,270L125,277M141,269L155,276,M141,249L141,269,M141,249L168,253,M168,253L166,278,M155,276L166,278M307,257L330,293,M307,257L332,248,M332,248L337,249,M337,249L343,262,M343,262L330,293M190,255L213,267,M190,255L192,278,M192,278L201,282,M213,267L201,282M4,269L29,275,M8,259L4,269,M13,253L8,259,M13,253L31,270,M31,270L29,275M190,255L192,278,M187,247L190,255,M186,246L187,247,M174,248L186,246,M173,249L174,248,M173,249L168,253,M168,253L166,278,M166,278L170,284,M170,284L192,278M241,257L226,271,M241,257L252,260,M252,260L248,274,M229,274L248,274,M226,271L229,274M567,263L588,278,M563,257L567,263,M563,257L568,251,M568,251L597,251,M588,278L597,251M37,262L80,288,M42,254L37,262,M48,250L42,254,M48,250L85,284,M85,284L84,286,M84,286L80,288M509,262L515,294,M509,262L538,260,M538,260L543,266,M543,266L540,284,M538,287L540,284,M524,296L538,287,M515,294L524,296M496,253L500,279,M496,253L509,262,M509,262L515,294,M515,294L515,294,M500,279L515,294M249,277L273,294,M248,274L249,277,M252,260L248,274,M255,257L252,260,M261,253L255,257,M261,253L285,275,M285,275L285,285,M285,285L273,294M417,282L461,279,M431,242L417,282,M431,242L437,242,M437,242L466,265,M466,265L461,279M588,278L638,289,M588,278L588,278,M588,278L597,251,M597,251L612,242,M612,242L620,239,M620,239L639,249,M638,289L639,288M37,262L80,288,M37,262L31,270,M31,270L29,275,M29,275L30,288,M31,292L30,288,M31,292L59,303,M80,288L59,303M496,253L500,279,M492,248L496,253,M470,264L492,248,M470,264L484,277,M484,277L500,279M0,274L30,288,M29,275L30,288,M4,269L29,275,M4,269L0,271M307,257L330,293,M301,256L307,257,M301,256L285,275,M285,275L285,285,M285,285L325,303,M330,298L325,303,M330,293L330,298M567,263L571,284,M567,263L588,278,M588,278L588,278,M581,289L588,278,M571,284L581,289M567,263L571,284,M563,257L567,263,M543,266L563,257,M543,266L540,284,M540,284L571,284M343,262L378,265,M343,262L330,293,M330,293L330,298,M330,298L385,301,M385,301L390,296,M378,265L390,296M229,274L223,294,M226,271L229,274,M218,263L226,271,M218,263L213,267,M213,267L201,282,M201,282L205,290,M205,290L207,294,M207,294L209,295,M209,295L214,296,M214,296L223,294M0,274L30,288,M31,292L30,288,M31,292L23,298,M0,292L23,298M155,276L140,292,M141,269L155,276,M141,269L130,277,M138,292L130,277,M138,292L140,292M249,277L236,300,M248,274L249,277,M229,274L248,274,M229,274L223,294,M223,294L236,300M486,285L513,295,M484,277L486,285,M484,277L500,279,M500,279L515,294,M513,295L515,294M417,282L461,279,M417,282L415,286,M415,286L462,306,M461,279L462,306M486,285L479,305,M484,277L486,285,M470,264L484,277,M466,265L470,264,M466,265L461,279,M461,279L462,306,M462,306L463,308,M463,308L479,305M155,276L140,292,M155,276L166,278,M166,278L170,284,M170,284L168,301,M168,301L160,305,M142,294L160,305,M140,292L142,294M588,278L638,289,M581,289L588,278,M581,289L582,291,M582,291L591,305,M591,305L615,306,M615,306L636,290,M636,290L638,289M125,277L124,299,M100,270L125,277,M95,270L100,270,M95,270L86,283,M86,283L124,299M125,277L124,299,M125,277L130,277,M138,292L130,277,M138,292L125,300,M124,299L125,300M249,277L236,300,M249,277L273,294,M273,294L270,302,M270,302L256,318,M254,319L256,318,M247,316L254,319,M246,315L247,316,M236,300L246,315M486,285L513,295,M486,285L479,305,M479,305L496,306,M496,306L513,295M561,305L582,291,M555,304L561,305,M538,287L555,304,M538,287L540,284,M540,284L571,284,M571,284L581,289,M581,289L582,291M169,301L205,290,M168,301L169,301,M170,284L168,301,M170,284L192,278,M192,278L201,282,M201,282L205,290M169,301L205,290,M169,301L179,308,M179,308L207,294,M205,290L207,294M86,283L124,299,M86,283L85,284,M85,284L84,286,M87,291L84,286,M87,291L115,315,M115,315L126,312,M125,300L126,312,M124,299L125,300M142,294L132,314,M140,292L142,294,M138,292L140,292,M138,292L125,300,M125,300L126,312,M126,312L131,314,M131,314L132,314M0,292L23,298,M23,298L13,321,M0,322L13,321M142,294L132,314,M142,294L160,305,M160,305L154,316,M154,316L154,316,M132,314L154,316M415,286L462,306,M399,296L415,286,M399,296L433,330,M433,330L453,319,M453,319L461,315,M461,315L461,314,M463,308L461,314,M462,306L463,308M561,305L582,291,M561,305L572,316,M572,316L580,321,M580,321L591,305,M582,291L591,305M270,302L300,323,M273,294L270,302,M285,285L273,294,M285,285L325,303,M325,303L321,319,M314,322L321,319,M300,323L314,322M179,308L207,294,M191,327L179,308,M191,327L200,326,M209,295L200,326,M207,294L209,295M214,296L220,316,M214,296L223,294,M223,294L236,300,M236,300L246,315,M220,316L246,315M214,296L220,316,M209,295L214,296,M209,295L200,326,M200,326L208,331,M220,316L208,331M555,304L551,324,M538,287L555,304,M524,296L538,287,M524,296L525,302,M525,302L544,331,M544,331L550,327,M550,327L551,324M96,330L113,321,M87,291L96,330,M87,291L115,315,M115,315L113,321M499,325L517,326,M496,306L499,325,M496,306L513,295,M513,295L515,294,M515,294L515,294,M515,294L524,296,M524,296L525,302,M525,302L517,326M551,324L572,316,M555,304L551,324,M555,304L561,305,M561,305L572,316M23,298L13,321,M31,292L23,298,M31,292L59,303,M59,303L57,334,M30,346L57,334,M30,346L13,321M191,327L179,308,M191,327L179,340,M172,339L179,340,M163,333L172,339,M154,316L163,333,M160,305L154,316,M168,301L160,305,M168,301L169,301,M169,301L179,308M220,316L246,315,M220,316L208,331,M208,331L209,331,M209,331L219,333,M219,333L247,316,M246,315L247,316M461,314L494,332,M463,308L461,314,M463,308L479,305,M479,305L496,306,M496,306L499,325,M494,332L499,325,M494,332L494,332M580,328L598,336,M580,321L580,328,M580,321L591,305,M591,305L615,306,M609,336L615,306,M598,336L609,336M270,302L300,323,M270,302L256,318,M256,318L284,334,M284,334L300,323M339,346L374,332,M321,319L339,346,M325,303L321,319,M330,298L325,303,M330,298L385,301,M385,301L383,312,M383,312L374,332M551,324L572,316,M550,327L551,324,M550,327L567,332,M567,332L577,332,M577,332L580,328,M580,321L580,328,M572,316L580,321M87,291L96,330,M87,291L84,286,M84,286L80,288,M80,288L59,303,M59,303L57,334,M57,334L78,351,M92,341L78,351,M92,340L92,341,M96,330L92,340M154,316L131,343,M132,314L154,316,M131,314L132,314,M131,314L131,343M525,302L544,331,M525,302L517,326,M517,326L523,340,M523,340L540,338,M540,338L542,335,M542,335L544,331M117,331L113,321,M129,346L117,331,M131,343L129,346,M131,343L131,343,M131,314L131,343,M126,312L131,314,M115,315L126,312,M115,315L113,321M627,353L636,290,M623,352L627,353,M609,336L623,352,M609,336L615,306,M615,306L636,290M627,353L636,290,M627,353L639,361,M636,290L638,289M92,340L117,331,M96,330L92,340,M96,330L113,321,M117,331L113,321M154,316L131,343,M154,316L154,316,M154,316L163,333,M151,340L163,333,M131,343L151,340,M131,343L131,343M401,337L427,361,M383,312L401,337,M385,301L383,312,M385,301L390,296,M390,296L399,296,M399,296L433,330,M433,330L427,361M499,325L517,326,M494,332L499,325,M494,332L514,352,M514,352L523,340,M517,326L523,340M474,345L493,333,M461,315L474,345,M461,315L461,314,M461,314L494,332,M493,333L494,332M92,340L117,331,M92,340L92,341,M92,341L127,348,M129,346L127,348,M129,346L129,346,M129,346L117,331M228,341L233,341,M219,333L228,341,M219,333L247,316,M247,316L254,319,M254,319L252,337,M233,341L252,337M0,322L13,321,M30,346L13,321,M30,346L25,356,M0,362L25,356M256,318L284,334,M254,319L256,318,M254,319L252,337,M252,337L257,356,M257,356L273,363,M282,353L273,363,M284,334L282,353M542,335L560,343,M542,335L544,331,M544,331L550,327,M550,327L567,332,M560,343L567,332M314,322L301,350,M300,323L314,322,M284,334L300,323,M284,334L282,353,M282,353L301,350M394,344L401,337,M377,341L394,344,M374,332L377,341,M383,312L374,332,M383,312L401,337M453,319L462,361,M453,319L461,315,M461,315L474,345,M474,345L474,346,M462,361L474,346M560,343L567,332,M560,343L562,352,M562,352L569,354,M569,354L571,353,M571,353L575,349,M577,332L575,349,M567,332L577,332M394,344L401,337,M394,344L422,366,M422,366L427,365,M427,361L427,365,M401,337L427,361M453,319L462,361,M433,330L453,319,M433,330L427,361,M427,361L427,365,M427,365L431,369,M431,369L444,375,M444,375L458,367,M458,367L462,361M493,333L491,354,M493,333L494,332,M494,332L494,332,M494,332L514,352,M514,352L513,355,M494,358L513,355,M491,354L494,358M542,335L560,343,M540,338L542,335,M540,338L541,341,M541,341L549,356,M549,356L562,352,M560,343L562,352M183,351L209,346,M179,340L183,351,M191,327L179,340,M191,327L200,326,M200,326L208,331,M208,331L209,331,M209,331L209,346M228,341L223,358,M219,333L228,341,M209,331L219,333,M209,331L209,346,M209,346L212,358,M212,358L214,359,M214,359L223,358M493,333L491,354,M474,345L493,333,M474,345L474,346,M474,346L491,354M575,349L590,353,M577,332L575,349,M577,332L580,328,M580,328L598,336,M590,353L598,336M151,340L156,359,M151,340L163,333,M163,333L172,339,M172,339L156,359M151,340L156,359,M131,343L151,340,M131,343L129,346,M129,346L129,346,M129,346L148,360,M148,360L155,360,M156,359L155,360M394,344L422,366,M377,341L394,344,M377,341L383,365,M383,365L389,367,M389,367L416,368,M416,368L422,366M233,341L231,360,M228,341L233,341,M228,341L223,358,M223,358L231,360M233,341L231,360,M233,341L252,337,M252,337L257,356,M242,365L257,356,M231,360L242,365M301,350L312,364,M314,322L301,350,M314,322L321,319,M321,319L339,346,M339,346L339,348,M312,364L339,348M183,351L209,346,M183,351L186,365,M186,365L212,358,M209,346L212,358M590,353L598,336,M590,353L593,362,M593,362L597,363,M597,363L623,352,M609,336L623,352,M598,336L609,336M92,341L127,348,M92,341L78,351,M78,351L81,367,M81,367L111,382,M111,382L113,382,M127,348L113,382M377,341L383,365,M374,332L377,341,M339,346L374,332,M339,346L339,348,M339,348L352,377,M352,377L353,376,M353,376L383,365M528,369L541,341,M523,371L528,369,M518,366L523,371,M513,355L518,366,M514,352L513,355,M514,352L523,340,M523,340L540,338,M540,338L541,341M172,339L156,359,M172,339L179,340,M179,340L183,351,M183,351L186,365,M186,365L185,367,M173,373L185,367,M165,373L173,373,M165,373L155,360,M156,359L155,360M528,369L541,341,M528,369L547,363,M547,363L549,356,M541,341L549,356M474,346L491,354,M462,361L474,346,M458,367L462,361,M458,367L486,371,M486,371L494,358,M491,354L494,358M571,353L582,369,M571,353L575,349,M575,349L590,353,M590,353L593,362,M582,369L593,362M301,350L312,364,M282,353L301,350,M282,353L273,363,M273,363L276,370,M276,370L303,388,M312,364L303,388M562,375L569,354,M555,374L562,375,M547,363L555,374,M547,363L549,356,M549,356L562,352,M562,352L569,354M37,381L55,386,M37,381L25,356,M30,346L25,356,M30,346L57,334,M57,334L78,351,M78,351L81,367,M81,367L69,379,M55,386L69,379M562,375L569,354,M562,375L574,384,M574,384L576,383,M576,383L582,369,M571,353L582,369,M569,354L571,353M148,360L131,388,M129,346L148,360,M129,346L127,348,M127,348L113,382,M113,382L131,388M499,378L518,366,M486,371L499,378,M486,371L486,371,M486,371L494,358,M494,358L513,355,M513,355L518,366M312,364L339,348,M312,364L303,388,M303,388L308,397,M308,397L321,408,M321,408L325,408,M325,408L327,407,M327,407L336,402,M351,380L336,402,M352,377L351,380,M339,348L352,377M597,363L603,389,M597,363L623,352,M623,352L627,353,M627,353L639,361,M603,389L613,397M214,359L215,384,M212,358L214,359,M186,365L212,358,M186,365L185,367,M194,379L185,367,M194,379L202,388,M202,388L204,389,M204,389L215,384M215,384L239,377,M215,384L215,384,M214,359L215,384,M214,359L223,358,M223,358L231,360,M231,360L242,365,M242,365L239,377M148,360L131,388,M148,360L155,360,M165,373L155,360,M165,373L145,398,M131,388L145,398M597,363L603,389,M593,362L597,363,M582,369L593,362,M576,383L582,369,M576,383L591,387,M591,387L603,389M539,393L555,374,M524,375L539,393,M523,371L524,375,M523,371L528,369,M528,369L547,363,M547,363L555,374M245,392L273,373,M239,377L245,392,M242,365L239,377,M242,365L257,356,M257,356L273,363,M273,363L276,370,M276,370L273,373M499,378L518,366,M499,378L501,385,M501,385L507,389,M507,389L517,384,M517,384L524,375,M523,371L524,375,M518,366L523,371M0,396L20,402,M37,381L20,402,M37,381L25,356,M0,362L25,356M486,371L484,394,M486,371L486,371,M458,367L486,371,M444,375L458,367,M444,375L451,390,M451,390L476,396,M476,396L484,394M487,395L501,385,M484,394L487,395,M486,371L484,394,M486,371L499,378,M499,378L501,385M353,376L385,389,M353,376L383,365,M383,365L389,367,M389,367L385,389M194,379L182,390,M194,379L185,367,M173,373L185,367,M173,373L178,392,M178,392L182,390M353,376L385,389,M352,377L353,376,M352,377L351,380,M351,380L384,401,M385,389L384,401M540,398L572,388,M539,393L540,398,M539,393L555,374,M555,374L562,375,M562,375L574,384,M572,388L574,384M182,390L202,388,M194,379L182,390,M194,379L202,388M389,367L385,389,M389,367L416,368,M416,368L391,411,M388,410L391,411,M384,401L388,410,M385,389L384,401M173,373L178,392,M165,373L173,373,M165,373L145,398,M149,407L145,398,M149,407L156,409,M156,409L169,402,M178,393L169,402,M178,392L178,393M215,384L240,411,M215,384L239,377,M239,377L245,392,M245,392L245,406,M240,411L245,406M245,392L273,373,M245,392L245,406,M245,406L265,405,M273,373L265,405M182,390L202,388,M178,392L182,390,M178,392L178,393,M178,393L200,403,M204,389L200,403,M202,388L204,389M273,373L265,405,M276,370L273,373,M276,370L303,388,M303,388L308,397,M272,409L308,397,M265,405L272,409M487,395L501,385,M487,395L493,402,M493,402L507,398,M507,389L507,398,M501,385L507,389M517,384L520,402,M507,389L517,384,M507,389L507,398,M507,398L514,405,M514,405L520,402M517,384L520,402,M517,384L524,375,M524,375L539,393,M539,393L540,398,M540,398L540,399,M520,402L540,399M80,405L69,379,M87,412L80,405,M87,412L99,413,M99,412L99,413,M101,410L99,412,M111,382L101,410,M81,367L111,382,M81,367L69,379M540,398L572,388,M540,398L540,399,M540,399L541,403,M541,403L542,404,M542,404L546,407,M546,407L563,409,M563,409L572,404,M572,388L572,404M215,384L240,411,M215,384L215,384,M204,389L215,384,M204,389L200,403,M200,403L200,408,M200,408L202,415,M210,429L202,415,M210,429L224,429,M224,429L236,418,M240,411L236,418M416,368L391,411,M416,368L422,366,M422,366L427,365,M427,365L431,369,M431,369L415,411,M402,416L415,411,M391,413L402,416,M391,411L391,413M583,404L591,387,M576,406L583,404,M572,404L576,406,M572,388L572,404,M572,388L574,384,M574,384L576,383,M576,383L591,387M583,404L591,387,M583,404L607,402,M607,402L613,397,M603,389L613,397,M591,387L603,389M351,380L384,401,M351,380L336,402,M336,402L357,411,M357,411L388,410,M384,401L388,410M169,402L200,408,M178,393L169,402,M178,393L200,403,M200,403L200,408M22,406L54,408,M22,406L20,402,M37,381L20,402,M37,381L55,386,M55,386L55,396,M55,396L54,408M55,396L71,407,M55,386L55,396,M55,386L69,379,M80,405L69,379,M71,407L80,405M431,369L415,411,M431,369L444,375,M444,375L451,390,M451,390L450,408,M436,419L450,408,M415,411L436,419M478,408L493,408,M476,396L478,408,M476,396L484,394,M484,394L487,395,M487,395L493,402,M493,402L493,408M55,396L71,407,M55,396L54,408,M54,408L56,420,M71,407L56,420M169,402L200,408,M156,409L169,402,M156,409L162,415,M162,415L202,415,M200,408L202,415M493,402L507,398,M493,402L493,408,M493,408L494,413,M494,413L498,433,M498,433L511,423,M514,405L511,423,M507,398L514,405M583,404L607,402,M576,406L583,404,M576,406L581,417,M581,417L591,420,M591,420L594,419,M594,419L607,402M22,406L54,408,M23,418L22,406,M23,418L38,426,M38,426L56,424,M56,420L56,424,M54,408L56,420M101,410L140,419,M111,382L101,410,M111,382L113,382,M113,382L131,388,M131,388L145,398,M149,407L145,398,M149,407L140,419M478,408L475,422,M478,408L478,408,M476,396L478,408,M451,390L476,396,M451,390L450,408,M450,408L456,415,M456,415L475,422M478,408L494,413,M478,408L478,408,M478,408L493,408,M493,408L494,413M71,407L56,420,M71,407L80,405,M87,412L80,405,M87,412L69,426,M56,425L69,426,M56,424L56,425,M56,420L56,424M478,408L494,413,M478,408L475,422,M475,422L489,437,M489,437L497,434,M497,434L498,433,M494,413L498,433M520,423L541,403,M511,423L520,423,M514,405L511,423,M514,405L520,402,M520,402L540,399,M540,399L541,403M0,423L23,418,M23,418L23,418,M23,418L22,406,M22,406L20,402,M0,396L20,402M564,418L573,426,M563,409L564,418,M563,409L572,404,M572,404L576,406,M576,406L581,417,M573,426L581,417M615,397L624,434,M615,397L639,382,M624,434L625,437M274,425L306,431,M272,409L274,425,M272,409L308,397,M308,397L321,408,M321,408L311,427,M306,431L311,427M556,426L564,418,M548,422L556,426,M546,407L548,422,M546,407L563,409,M563,409L564,418M99,412L134,435,M101,410L99,412,M101,410L140,419,M140,419L134,435M533,425L542,404,M523,425L533,425,M520,423L523,425,M520,423L541,403,M541,403L542,404M162,415L202,415,M164,419L162,415,M164,419L188,443,M188,443L198,441,M210,429L198,441,M210,429L202,415M357,411L369,440,M357,411L388,410,M388,410L391,411,M391,411L391,413,M391,413L379,438,M369,440L379,438M533,425L542,404,M533,425L538,428,M538,428L545,426,M545,426L548,422,M546,407L548,422,M542,404L546,407M236,418L267,435,M240,411L236,418,M240,411L245,406,M245,406L265,405,M265,405L272,409,M272,409L274,425,M274,425L269,433,M267,435L269,433M598,424L624,434,M594,419L598,424,M594,419L607,402,M607,402L613,397,M613,397L615,397,M615,397L624,434M408,428L425,445,M402,416L408,428,M402,416L415,411,M415,411L436,419,M436,419L432,442,M425,445L432,442M556,426L564,418,M556,426L561,436,M561,436L572,431,M573,426L572,431,M564,418L573,426M99,412L134,435,M99,412L99,413,M99,413L100,431,M110,444L100,431,M110,444L111,445,M111,445L134,439,M134,435L134,439M327,407L366,443,M327,407L336,402,M336,402L357,411,M357,411L369,440,M366,443L369,440M585,441L591,420,M572,431L585,441,M573,426L572,431,M573,426L581,417,M581,417L591,420M0,423L23,418,M23,418L19,428,M19,428L0,445M83,439L100,431,M70,428L83,439,M70,428L69,426,M87,412L69,426,M87,412L99,413,M99,413L100,431M456,415L456,441,M450,408L456,415,M436,419L450,408,M436,419L432,442,M432,442L440,445,M440,445L456,441M456,415L456,441,M456,415L475,422,M475,422L489,437,M478,449L489,437,M476,449L478,449,M456,441L476,449M524,426L533,436,M523,425L524,426,M523,425L533,425,M533,425L538,428,M538,428L537,432,M533,436L537,432M598,424L599,433,M594,419L598,424,M591,420L594,419,M585,441L591,420,M585,441L586,444,M586,444L594,440,M594,440L599,433M599,433L625,437,M598,424L599,433,M598,424L624,434,M624,434L625,437,M625,437L625,437M547,433L561,437,M545,426L547,433,M545,426L548,422,M548,422L556,426,M556,426L561,436,M561,437L561,436M164,419L156,458,M164,419L162,415,M156,409L162,415,M149,407L156,409,M149,407L140,419,M140,419L134,435,M134,435L134,439,M148,459L134,439,M148,459L152,460,M152,460L156,458M269,433L291,443,M274,425L269,433,M274,425L306,431,M306,431L300,442,M291,443L300,442M327,407L366,443,M325,408L327,407,M325,408L349,453,M349,453L360,450,M360,450L366,443M537,432L543,440,M538,428L537,432,M538,428L545,426,M545,426L547,433,M543,440L547,433M524,426L529,444,M524,426L533,436,M533,436L531,444,M529,444L531,444M236,418L267,435,M224,429L236,418,M225,431L224,429,M225,431L240,445,M240,445L264,449,M267,435L264,449M396,446L408,428,M390,448L396,446,M379,438L390,448,M391,413L379,438,M391,413L402,416,M402,416L408,428M164,419L156,458,M164,419L188,443,M169,457L188,443,M156,458L169,457M524,426L529,444,M523,425L524,426,M520,423L523,425,M511,423L520,423,M498,433L511,423,M497,434L498,433,M497,434L511,449,M511,449L529,444M537,432L543,440,M533,436L537,432,M533,436L531,444,M531,444L541,449,M541,449L544,446,M543,440L544,446M547,433L561,437,M543,440L547,433,M543,440L544,446,M544,446L561,437,M561,437L561,437M599,433L625,437,M594,440L599,433,M594,440L623,442,M623,442L625,437M26,454L19,428,M26,454L32,454,M38,426L32,454,M23,418L38,426,M23,418L23,418,M23,418L19,428M26,454L19,428,M6,462L26,454,M0,460L6,462,M19,428L0,445M38,426L32,454,M38,426L56,424,M56,424L56,425,M56,425L55,449,M55,449L45,460,M32,454L45,460M396,446L408,428,M396,446L424,447,M424,447L425,445,M408,428L425,445M572,431L585,441,M561,436L572,431,M561,437L561,436,M561,437L561,437,M561,437L566,453,M566,453L585,452,M585,452L586,444,M585,441L586,444M70,428L69,447,M70,428L69,426,M56,425L69,426,M56,425L55,449,M55,449L64,450,M64,450L69,447M269,433L291,443,M267,435L269,433,M267,435L264,449,M264,449L267,455,M267,455L291,443M70,428L69,447,M70,428L83,439,M83,439L83,444,M83,444L81,450,M69,447L81,450M311,427L335,465,M321,408L311,427,M321,408L325,408,M325,408L349,453,M345,457L349,453,M335,465L345,457M83,444L102,449,M83,439L83,444,M83,439L100,431,M110,444L100,431,M102,449L110,444M594,440L623,442,M586,444L594,440,M585,452L586,444,M585,452L596,467,M596,467L599,469,M599,469L618,459,M618,459L623,442M544,446L561,437,M541,449L544,446,M541,449L546,467,M546,467L549,470,M549,470L566,453,M561,437L566,453M82,451L98,452,M82,451L81,450,M83,444L81,450,M83,444L102,449,M102,449L98,452M396,446L424,447,M390,448L396,446,M390,448L394,466,M394,466L406,469,M406,469L421,456,M424,447L421,456M267,455L291,443,M267,455L270,476,M270,476L282,478,M282,478L292,475,M292,475L300,469,M300,442L300,469,M291,443L300,442M74,465L64,450,M74,465L78,465,M81,456L78,465,M82,451L81,456,M82,451L81,450,M69,447L81,450,M64,450L69,447M311,427L335,465,M306,431L311,427,M306,431L300,442,M300,442L300,469,M300,469L330,474,M330,474L331,474,M335,465L331,474M511,449L529,444,M511,449L514,460,M514,460L546,467,M541,449L546,467,M531,444L541,449,M529,444L531,444M82,451L98,452,M82,451L81,456,M81,456L95,458,M98,452L95,458M618,459L639,475,M618,459L623,442,M623,442L625,437,M625,437L625,437,M625,437L639,435M448,466L476,449,M440,445L448,466,M440,445L456,441,M456,441L476,449M74,465L64,450,M57,471L74,465,M46,464L57,471,M46,464L45,460,M55,449L45,460,M55,449L64,450M360,450L374,471,M360,450L366,443,M366,443L369,440,M369,440L379,438,M379,438L390,448,M390,448L394,466,M392,467L394,466,M374,471L392,467M98,452L95,458,M102,449L98,452,M102,449L110,444,M110,444L111,445,M111,445L111,451,M111,451L102,468,M98,469L102,468,M98,469L95,458M118,465L111,451,M118,465L123,468,M123,468L140,467,M148,459L140,467,M148,459L134,439,M111,445L134,439,M111,445L111,451M240,445L241,462,M240,445L264,449,M264,449L267,455,M267,455L270,476,M251,488L270,476,M241,462L251,488M225,458L222,465,M225,431L225,458,M225,431L224,429,M210,429L224,429,M210,429L198,441,M198,441L205,471,M205,471L210,472,M210,472L222,465M225,458L232,462,M225,431L225,458,M225,431L240,445,M240,445L241,462,M232,462L241,462M81,456L95,458,M81,456L78,465,M88,478L78,465,M98,469L88,478,M98,469L95,458M421,456L437,476,M424,447L421,456,M424,447L425,445,M425,445L432,442,M432,442L440,445,M440,445L448,466,M448,466L448,468,M437,476L448,468M479,461L495,475,M478,449L479,461,M478,449L489,437,M489,437L497,434,M497,434L511,449,M511,449L514,460,M509,473L514,460,M495,475L509,473M107,470L118,465,M102,468L107,470,M111,451L102,468,M118,465L111,451M232,462L228,467,M225,458L232,462,M225,458L222,465,M222,465L228,467M232,462L228,467,M232,462L241,462,M241,462L251,488,M250,490L251,488,M228,467L250,490M448,466L476,449,M448,466L448,468,M448,468L459,475,M459,475L470,474,M470,474L479,461,M478,449L479,461,M476,449L478,449M570,478L596,467,M550,478L570,478,M549,470L550,478,M549,470L566,453,M566,453L585,452,M585,452L596,467M187,481L172,462,M187,481L194,482,M194,482L205,471,M198,441L205,471,M188,443L198,441,M169,457L188,443,M172,462L169,457M228,467L250,490,M222,465L228,467,M210,472L222,465,M210,472L234,494,M234,494L249,491,M250,490L249,491M107,470L118,465,M114,480L107,470,M123,468L114,480,M118,465L123,468M345,457L369,482,M345,457L349,453,M349,453L360,450,M360,450L374,471,M374,471L369,482M21,480L38,478,M14,478L21,480,M14,478L6,462,M6,462L26,454,M26,454L32,454,M32,454L45,460,M46,464L45,460,M46,464L38,478M408,474L434,486,M406,469L408,474,M406,469L421,456,M421,456L437,476,M437,476L434,486M514,460L546,467,M509,473L514,460,M509,473L525,497,M525,497L542,501,M542,501L550,478,M549,470L550,478,M546,467L549,470M345,457L369,482,M335,465L345,457,M335,465L331,474,M331,474L332,476,M332,476L368,485,M369,482L368,485M57,471L74,465,M62,489L57,471,M62,489L88,486,M88,478L88,486,M88,478L78,465,M74,465L78,465M123,468L114,480,M123,468L140,467,M140,467L132,490,M114,485L132,490,M114,480L114,485M114,480L107,470,M114,480L114,485,M113,486L114,485,M99,492L113,486,M93,493L99,492,M93,493L88,486,M88,478L88,486,M98,469L88,478,M98,469L102,468,M102,468L107,470M172,462L172,491,M172,462L169,457,M156,458L169,457,M152,460L156,458,M152,460L163,495,M163,495L166,495,M166,495L172,491M172,462L172,491,M187,481L172,462,M172,491L187,481M472,482L493,482,M470,474L472,482,M470,474L479,461,M479,461L495,475,M493,482L495,475M613,495L639,480,M599,471L613,495,M599,469L599,471,M599,469L618,459,M618,459L639,475M381,493L391,478,M371,496L381,493,M368,485L371,496,M369,482L368,485,M374,471L369,482,M374,471L392,467,M392,467L391,478M459,475L451,498,M448,468L459,475,M437,476L448,468,M437,476L434,486,M434,486L435,489,M435,489L451,498M391,478L397,493,M392,467L391,478,M392,467L394,466,M394,466L406,469,M406,469L408,474,M408,474L405,493,M397,493L405,493M472,482L493,482,M472,482L473,498,M473,498L488,504,M493,482L488,504M40,492L38,478,M40,492L57,497,M62,489L57,497,M62,489L57,471,M46,464L57,471,M46,464L38,478M391,478L397,493,M381,493L391,478,M381,493L391,494,M391,494L397,493M459,475L451,498,M459,475L470,474,M470,474L472,482,M472,482L473,498,M462,500L473,498,M453,500L462,500,M451,498L453,500M0,493L11,490,M14,478L11,490,M14,478L6,462,M0,460L6,462M578,490L597,475,M570,478L578,490,M570,478L596,467,M596,467L599,469,M599,469L599,471,M597,475L599,471M152,460L163,495,M148,459L152,460,M148,459L140,467,M140,467L132,490,M137,503L132,490,M137,503L145,507,M145,507L163,495M32,497L21,480,M32,497L40,492,M40,492L38,478,M21,480L38,478M197,492L224,501,M194,482L197,492,M194,482L205,471,M205,471L210,472,M210,472L234,494,M228,498L234,494,M225,501L228,498,M224,501L225,501M408,474L434,486,M408,474L405,493,M405,493L409,499,M409,499L431,492,M431,492L435,489,M434,486L435,489M493,482L488,504,M493,482L495,475,M495,475L509,473,M509,473L525,497,M500,507L525,497,M490,506L500,507,M488,504L490,506M578,490L597,475,M578,490L580,506,M580,506L585,506,M585,506L597,475M310,492L330,474,M306,493L310,492,M304,491L306,493,M304,491L292,475,M292,475L300,469,M300,469L330,474M332,476L354,502,M332,476L332,476,M332,476L368,485,M368,485L371,496,M371,496L369,500,M354,502L369,500M570,478L578,490,M550,478L570,478,M542,501L550,478,M542,501L545,508,M545,508L559,512,M559,512L580,506,M578,490L580,506M32,497L21,480,M32,497L25,509,M17,506L25,509,M17,506L11,490,M14,478L11,490,M14,478L21,480M312,494L330,486,M310,492L312,494,M310,492L330,474,M330,474L331,474,M331,474L332,476,M332,476L332,476,M332,476L330,486M312,494L330,486,M312,494L314,497,M314,497L318,498,M318,498L329,494,M330,486L329,494M585,506L597,475,M585,506L601,514,M601,514L605,513,M605,513L612,505,M613,495L612,505,M599,471L613,495,M597,475L599,471M172,491L187,481,M166,495L172,491,M184,514L166,495,M194,500L184,514,M197,492L194,500,M194,482L197,492,M187,481L194,482M120,507L113,486,M121,508L120,507,M121,508L137,503,M137,503L132,490,M114,485L132,490,M113,486L114,485M312,494L314,497,M310,492L312,494,M306,493L310,492,M306,493L307,498,M307,498L314,497M613,495L639,480,M613,495L612,505,M612,505L639,510M304,491L297,505,M304,491L292,475,M282,478L292,475,M282,478L288,498,M288,498L297,505M304,491L297,505,M304,491L306,493,M306,493L307,498,M307,498L307,508,M297,505L307,508,M297,505L297,505M0,493L11,490,M17,506L11,490,M0,512L17,506M62,489L88,486,M62,489L57,497,M57,500L57,497,M67,509L57,500,M67,509L80,513,M91,502L80,513,M93,493L91,502,M93,493L88,486M120,507L113,486,M99,492L120,507,M99,492L113,486M332,476L354,502,M332,476L330,486,M330,486L329,494,M329,494L332,511,M336,517L332,511,M336,517L354,502M307,498L314,497,M307,498L307,508,M307,508L307,509,M307,509L318,498,M314,497L318,498M194,500L209,508,M197,492L194,500,M197,492L224,501,M217,505L224,501,M209,508L217,505M392,504L399,506,M391,494L392,504,M391,494L397,493,M397,493L405,493,M405,493L409,499,M409,499L409,501,M399,506L409,501M307,509L318,498,M307,509L307,509,M307,509L332,511,M329,494L332,511,M318,498L329,494M391,494L392,504,M381,493L391,494,M371,496L381,493,M371,496L369,500,M369,500L376,521,M376,521L392,504M32,497L40,492,M32,497L25,509,M32,520L25,509,M32,520L42,519,M57,500L42,519,M57,500L57,497,M40,492L57,497M288,498L277,518,M282,478L288,498,M270,476L282,478,M251,488L270,476,M250,490L251,488,M250,490L249,491,M249,491L251,497,M252,498L251,497,M252,498L260,506,M260,506L277,518M99,492L120,507,M93,493L99,492,M93,493L91,502,M111,520L91,502,M121,508L111,520,M121,508L120,507M431,492L429,510,M409,499L431,492,M409,499L409,501,M409,501L414,518,M414,518L416,518,M416,518L429,510M194,500L209,508,M194,500L184,514,M184,514L184,515,M184,515L184,515,M184,515L201,518,M201,518L209,508M392,504L399,506,M376,521L392,504,M376,521L377,525,M377,525L382,528,M382,528L399,506M429,510L446,518,M431,492L429,510,M431,492L435,489,M435,489L451,498,M451,498L453,500,M453,500L447,517,M446,518L447,517M297,505L286,524,M297,505L297,505,M288,498L297,505,M288,498L277,518,M280,523L277,518,M280,523L286,524M382,528L399,506,M382,528L386,532,M386,532L414,518,M409,501L414,518,M399,506L409,501M146,518L174,522,M145,507L146,518,M145,507L163,495,M163,495L166,495,M184,514L166,495,M184,514L184,515,M174,522L184,515M336,517L354,502,M336,517L336,519,M336,519L336,521,M336,521L372,526,M372,526L377,525,M376,521L377,525,M369,500L376,521,M354,502L369,500M297,505L286,524,M297,505L307,508,M307,508L307,509,M307,509L307,509,M307,509L307,510,M307,510L300,521,M289,525L300,521,M286,524L289,525M466,515L482,521,M462,500L466,515,M462,500L473,498,M473,498L488,504,M488,504L490,506,M482,521L490,506M67,509L56,529,M67,509L57,500,M57,500L42,519,M42,519L56,529M217,505L209,526,M209,508L217,505,M201,518L209,508,M206,524L201,518,M206,524L209,526M312,519L336,519,M312,519L307,510,M307,509L307,510,M307,509L332,511,M336,517L332,511,M336,517L336,519M462,523L466,515,M462,523L462,523,M447,517L462,523,M453,500L447,517,M453,500L462,500,M462,500L466,515M121,508L111,520,M121,508L137,503,M137,503L145,507,M145,507L146,518,M146,518L141,540,M130,544L141,540,M120,540L130,544,M120,540L111,528,M111,520L111,528M217,505L209,526,M217,505L224,501,M224,501L225,501,M225,501L220,523,M214,528L220,523,M213,528L214,528,M209,526L213,528M429,510L446,518,M416,518L429,510,M416,518L430,538,M430,538L435,537,M435,537L444,524,M444,524L446,518M466,515L482,521,M462,523L466,515,M462,523L466,525,M466,525L482,522,M482,521L482,522M0,529L25,535,M32,520L25,535,M32,520L25,509,M17,506L25,509,M0,512L17,506M67,509L56,529,M67,509L80,513,M80,513L81,528,M59,533L81,528,M59,533L56,529M111,520L91,502,M111,520L111,528,M84,532L111,528,M84,532L81,528,M80,513L81,528,M91,502L80,513M228,498L232,526,M228,498L234,494,M234,494L249,491,M249,491L251,497,M251,497L237,531,M232,526L237,531M622,528L639,518,M605,513L622,528,M605,513L612,505,M612,505L639,510M228,498L232,526,M225,501L228,498,M225,501L220,523,M220,523L232,526M312,519L312,530,M312,519L307,510,M307,510L300,521,M300,521L312,530M312,519L336,519,M312,519L312,530,M312,530L313,532,M313,532L315,534,M315,534L323,535,M323,535L333,529,M336,521L333,529,M336,519L336,521M502,514L516,534,M500,507L502,514,M500,507L525,497,M525,497L542,501,M542,501L545,508,M540,520L545,508,M521,536L540,520,M516,534L521,536M567,526L588,537,M559,512L567,526,M559,512L580,506,M580,506L585,506,M585,506L601,514,M598,529L601,514,M588,537L598,529M252,520L249,532,M252,498L252,520,M252,498L251,497,M251,497L237,531,M237,531L238,533,M238,534L238,533,M238,534L249,532M260,532L252,520,M260,532L260,532,M260,506L260,532,M252,498L260,506,M252,498L252,520M260,506L260,532,M260,506L277,518,M280,523L277,518,M280,523L273,533,M260,532L273,533M502,514L498,538,M500,507L502,514,M490,506L500,507,M482,521L490,506,M482,521L482,522,M482,522L485,537,M485,537L493,541,M493,541L498,538M260,532L252,520,M257,534L260,532,M249,532L257,534,M252,520L249,532M146,518L174,522,M146,518L141,540,M141,540L143,541,M143,541L167,545,M174,522L167,545M197,534L206,524,M188,528L197,534,M184,515L188,528,M184,515L201,518,M206,524L201,518M502,514L498,538,M502,514L516,534,M498,538L516,534M300,521L312,530,M289,525L300,521,M289,525L295,536,M295,536L313,532,M312,530L313,532M458,533L462,523,M444,524L458,533,M444,524L446,518,M446,518L447,517,M447,517L462,523M220,523L232,526,M214,528L220,523,M214,528L223,534,M223,534L238,533,M237,531L238,533,M232,526L237,531M458,533L462,523,M458,533L463,542,M463,542L465,541,M466,525L465,541,M462,523L466,525,M462,523L462,523M631,536L639,520,M622,536L631,536,M622,528L622,536,M622,528L639,518M466,525L465,541,M466,525L482,522,M482,522L485,537,M477,541L485,537,M465,541L477,541M605,513L622,528,M601,514L605,513,M598,529L601,514,M598,529L615,544,M615,544L615,545,M615,545L622,536,M622,528L622,536M389,543L424,544,M386,532L389,543,M386,532L414,518,M414,518L416,518,M416,518L430,538,M424,544L430,538M188,528L181,549,M184,515L188,528,M184,515L184,515,M174,522L184,515,M174,522L167,545,M167,545L176,553,M176,553L181,549M197,534L206,524,M197,534L198,537,M198,537L210,540,M213,528L210,540,M209,526L213,528,M206,524L209,526M350,550L372,526,M348,550L350,550,M348,550L333,529,M336,521L333,529,M336,521L372,526M444,524L458,533,M435,537L444,524,M435,537L453,551,M453,551L463,542,M458,533L463,542M631,536L639,520,M631,536L639,542M42,519L56,529,M32,520L42,519,M32,520L25,535,M29,557L25,535,M48,570L29,557,M48,570L50,570,M59,533L50,570,M59,533L56,529M198,537L192,547,M197,534L198,537,M188,528L197,534,M188,528L181,549,M181,549L192,547M223,534L220,552,M214,528L223,534,M213,528L214,528,M213,528L210,540,M210,540L213,553,M215,556L213,553,M215,556L216,556,M216,556L220,552M223,534L220,552,M223,534L238,533,M238,534L238,533,M238,534L238,539,M238,539L237,540,M226,549L237,540,M220,552L226,549M274,540L293,554,M273,538L274,540,M273,533L273,538,M280,523L273,533,M280,523L286,524,M286,524L289,525,M289,525L295,536,M295,536L294,554,M294,554L293,554M567,526L562,565,M559,512L567,526,M545,508L559,512,M540,520L545,508,M540,520L543,528,M543,528L559,568,M559,568L562,565M85,561L120,540,M84,532L85,561,M84,532L111,528,M120,540L111,528M567,526L562,565,M567,526L588,537,M588,538L588,537,M580,555L588,538,M577,559L580,555,M562,565L577,559M59,533L81,528,M59,533L50,570,M50,570L63,570,M63,570L82,567,M85,561L82,567,M84,532L85,561,M84,532L81,528M238,539L255,546,M238,534L238,539,M238,534L249,532,M249,532L257,534,M257,534L256,546,M255,546L256,546M258,547L273,538,M257,547L258,547,M256,546L257,547,M257,534L256,546,M257,534L260,532,M260,532L260,532,M260,532L273,533,M273,533L273,538M294,554L310,540,M295,536L294,554,M295,536L313,532,M313,532L315,534,M310,540L315,534M631,536L639,542,M622,536L631,536,M615,545L622,536,M615,545L617,546,M617,546L639,553M0,529L25,535,M29,557L25,535,M21,559L29,557,M0,553L21,559M198,537L210,540,M198,537L192,547,M192,547L213,553,M210,540L213,553M494,542L510,553,M493,541L494,542,M493,541L498,538,M498,538L516,534,M516,534L521,536,M521,536L521,552,M514,555L521,552,M510,553L514,555M530,561L543,528,M521,552L530,561,M521,536L521,552,M521,536L540,520,M540,520L543,528M310,540L311,551,M294,554L310,540,M294,554L293,554,M293,554L294,555,M294,555L300,555,M300,555L311,551M588,538L603,553,M588,538L588,537,M588,537L598,529,M598,529L615,544,M603,553L615,544,M603,553L603,553M243,554L255,546,M237,540L243,554,M238,539L237,540,M238,539L255,546M258,547L270,551,M258,547L273,538,M273,538L274,540,M274,540L270,551M310,540L311,551,M310,540L315,534,M315,534L323,535,M323,535L322,543,M311,551L322,543,M311,551L311,551M350,550L372,526,M350,550L364,563,M364,563L376,571,M376,571L385,568,M389,543L385,568,M386,532L389,543,M382,528L386,532,M377,525L382,528,M372,526L377,525M530,561L543,528,M530,561L543,575,M543,575L551,582,M551,582L559,568,M543,528L559,568M322,543L329,567,M323,535L322,543,M323,535L333,529,M348,550L333,529,M329,567L348,550M258,547L270,551,M257,547L258,547,M257,547L258,552,M258,552L270,556,M270,551L270,556M274,540L270,551,M274,540L293,554,M293,554L294,555,M294,555L291,561,M281,561L291,561,M271,556L281,561,M270,556L271,556,M270,551L270,556M311,551L329,567,M311,551L322,543,M322,543L329,567,M329,567L329,567M580,555L603,553,M580,555L588,538,M588,538L603,553M226,549L243,558,M226,549L237,540,M237,540L243,554,M243,554L243,558M468,565L477,552,M455,572L468,565,M453,551L455,572,M453,551L463,542,M463,542L465,541,M465,541L477,541,M477,541L477,552M477,552L491,560,M477,541L477,552,M477,541L485,537,M485,537L493,541,M493,541L494,542,M494,542L492,559,M491,560L492,559M243,554L255,546,M243,554L243,558,M243,558L244,562,M244,562L256,560,M258,552L256,560,M257,547L258,552,M256,546L257,547,M255,546L256,546M226,549L243,558,M220,552L226,549,M216,556L220,552,M230,574L216,556,M230,574L235,576,M244,562L235,576,M243,558L244,562M389,543L424,544,M389,543L385,568,M385,568L401,577,M401,577L413,575,M413,575L423,568,M424,544L423,568M492,559L510,553,M494,542L492,559,M494,542L510,553M192,547L213,553,M181,549L192,547,M176,553L181,549,M176,553L177,561,M177,561L196,569,M196,569L215,556,M215,556L213,553M258,552L270,556,M258,552L256,560,M256,560L261,564,M261,564L262,564,M262,564L271,556,M270,556L271,556M424,544L423,568,M424,544L430,538,M430,538L435,537,M435,537L453,551,M453,551L455,572,M455,573L455,572,M423,568L455,573M580,555L603,553,M577,559L580,555,M577,559L601,570,M601,570L603,553,M603,553L603,553M85,561L120,540,M85,561L82,567,M88,572L82,567,M88,572L123,577,M130,544L123,577,M120,540L130,544M311,551L329,567,M311,551L311,551,M300,555L311,551,M300,555L324,569,M324,569L328,570,M329,567L328,570M477,552L491,560,M468,565L477,552,M468,565L491,564,M491,564L491,564,M491,560L491,564M492,559L510,553,M491,560L492,559,M491,560L491,564,M491,564L503,569,M503,569L514,555,M510,553L514,555M617,546L639,553,M617,546L618,567,M618,567L631,569,M631,569L639,566M601,570L603,553,M601,570L605,574,M605,574L609,572,M609,572L618,567,M617,546L618,567,M615,545L617,546,M615,544L615,545,M603,553L615,544M150,564L159,570,M150,564L143,541,M143,541L167,545,M167,545L176,553,M176,553L177,561,M177,561L172,569,M159,570L172,569M128,584L150,564,M128,584L123,577,M130,544L123,577,M130,544L141,540,M141,540L143,541,M150,564L143,541M268,571L281,561,M268,571L262,564,M262,564L271,556,M271,556L281,561M21,559L4,577,M0,553L21,559,M0,577L4,577M304,572L324,569,M291,562L304,572,M291,561L291,562,M294,555L291,561,M294,555L300,555,M300,555L324,569M329,575L364,563,M328,570L329,575,M329,567L328,570,M329,567L329,567,M329,567L348,550,M348,550L350,550,M350,550L364,563M504,570L543,575,M503,569L504,570,M503,569L514,555,M514,555L521,552,M521,552L530,561,M530,561L543,575M247,585L261,564,M243,588L247,585,M243,588L235,576,M244,562L235,576,M244,562L256,560,M256,560L261,564M128,584L150,564,M134,598L128,584,M134,598L159,570,M150,564L159,570M329,575L364,563,M329,575L334,603,M334,603L334,603,M334,603L337,609,M337,609L346,614,M346,614L376,571,M364,563L376,571M268,571L281,561,M268,571L269,577,M269,577L283,587,M283,587L284,585,M291,562L284,585,M291,561L291,562,M281,561L291,561M468,565L491,564,M455,572L468,565,M455,573L455,572,M455,573L458,585,M458,585L484,582,M484,582L491,564M247,585L261,564,M247,585L269,577,M268,571L269,577,M268,571L262,564,M261,564L262,564M199,582L222,579,M196,569L199,582,M196,569L215,556,M215,556L216,556,M230,574L216,556,M222,579L230,574M504,570L543,575,M504,570L505,597,M505,597L522,628,M522,628L524,627,M524,627L550,600,M551,585L550,600,M551,582L551,585,M543,575L551,582M551,585L605,575,M551,582L551,585,M551,582L559,568,M559,568L562,565,M562,565L577,559,M577,559L601,570,M601,570L605,574,M605,575L605,574M304,577L334,603,M304,572L304,577,M304,572L324,569,M324,569L328,570,M328,570L329,575,M329,575L334,603M300,583L304,577,M284,585L300,583,M291,562L284,585,M291,562L304,572,M304,572L304,577M484,582L491,564,M484,582L505,597,M504,570L505,597,M503,569L504,570,M491,564L503,569,M491,564L491,564M172,583L191,594,M172,569L172,583,M177,561L172,569,M177,561L196,569,M196,569L199,582,M199,582L197,589,M191,594L197,589M609,572L628,584,M609,572L618,567,M618,567L631,569,M628,584L631,569M134,598L159,570,M134,598L137,612,M137,612L143,614,M143,614L172,583,M172,569L172,583,M159,570L172,569M12,592L4,577,M12,592L48,570,M48,570L48,570,M48,570L29,557,M21,559L29,557,M21,559L4,577M304,577L334,603,M300,583L304,577,M300,583L307,588,M307,588L334,603,M334,603L334,603M551,585L605,575,M551,585L550,600,M550,600L587,609,M587,609L596,600,M596,600L605,590,M605,575L605,590M609,572L628,584,M605,574L609,572,M605,575L605,574,M605,575L605,590,M605,590L628,595,M628,584L628,595M628,584L631,569,M628,584L628,595,M628,595L629,596,M629,596L639,596,M631,569L639,566M425,589L452,594,M413,575L425,589,M413,575L423,568,M423,568L455,573,M455,573L458,585,M458,585L456,591,M452,594L456,591M247,585L269,577,M243,588L247,585,M243,588L244,596,M244,596L282,592,M282,592L283,591,M283,587L283,591,M269,577L283,587M222,579L213,597,M199,582L222,579,M199,582L197,589,M197,589L212,596,M212,596L213,597M284,591L307,588,M283,591L284,591,M283,587L283,591,M283,587L284,585,M284,585L300,583,M300,583L307,588M0,593L11,593,M12,592L11,593,M12,592L4,577,M0,577L4,577M284,591L307,588,M284,591L329,610,M329,610L337,609,M334,603L337,609,M307,588L334,603M94,606L88,572,M94,606L126,619,M126,619L137,612,M134,598L137,612,M134,598L128,584,M128,584L123,577,M88,572L123,577M222,579L213,597,M222,579L230,574,M230,574L235,576,M243,588L235,576,M243,588L244,596,M244,596L243,603,M242,604L243,603,M225,608L242,604,M225,608L213,597M484,582L505,597,M458,585L484,582,M458,585L456,591,M456,591L494,632,M494,632L512,638,M512,638L518,634,M518,634L522,628,M505,597L522,628M12,592L48,570,M12,592L11,593,M12,603L11,593,M28,613L12,603,M47,580L28,613,M48,570L47,580M425,589L422,609,M413,575L425,589,M401,577L413,575,M401,577L402,595,M402,595L409,613,M409,613L409,613,M409,613L409,613,M409,613L422,609M84,608L72,597,M84,608L91,607,M91,607L94,606,M94,606L88,572,M88,572L82,567,M63,570L82,567,M72,597L63,570M348,616L402,595,M346,615L348,616,M346,615L346,614,M346,614L376,571,M376,571L385,568,M385,568L401,577,M401,577L402,595M425,589L422,609,M425,589L452,594,M445,604L452,594,M426,610L445,604,M422,609L426,610M172,583L191,594,M143,614L172,583,M150,619L143,614,M150,619L163,618,M163,618L188,608,M190,602L188,608,M191,594L190,602M0,593L11,593,M12,603L11,593,M5,607L12,603,M0,607L5,607M72,597L61,613,M72,597L63,570,M50,570L63,570,M48,570L50,570,M48,570L48,570,M48,570L47,580,M60,613L47,580,M60,613L61,613M244,596L282,592,M244,596L243,603,M243,603L270,613,M270,613L281,607,M282,592L281,607M190,602L206,604,M191,594L190,602,M191,594L197,589,M197,589L212,596,M212,596L206,604M72,597L61,613,M84,608L72,597,M79,612L84,608,M61,613L79,612M284,591L329,610,M283,591L284,591,M282,592L283,591,M282,592L281,607,M281,607L299,623,M299,623L329,610M596,600L625,608,M596,600L605,590,M605,590L628,595,M628,595L629,596,M625,608L629,596M190,602L206,604,M190,602L188,608,M208,626L188,608,M208,626L212,621,M206,604L212,621M206,604L212,621,M212,596L206,604,M212,596L213,597,M225,608L213,597,M212,621L225,608M348,616L402,595,M348,616L364,628,M364,628L409,613,M402,595L409,613M596,600L625,608,M587,609L596,600,M587,609L589,612,M589,612L619,626,M619,626L621,626,M621,626L625,608M60,613L47,580,M60,613L55,623,M33,633L55,623,M33,633L31,630,M31,630L28,613,M47,580L28,613M625,608L629,596,M621,626L625,608,M621,626L624,628,M624,628L639,631,M629,596L639,596M6,624L5,607,M0,626L6,624,M0,607L5,607M6,624L5,607,M6,624L31,630,M31,630L28,613,M28,613L12,603,M5,607L12,603M445,604L449,638,M445,604L452,594,M452,594L456,591,M456,591L494,632,M449,638L494,632M263,634L243,615,M263,634L269,631,M270,613L269,631,M243,603L270,613,M242,604L243,603,M242,604L243,615M426,610L442,643,M426,610L445,604,M445,604L449,638,M442,643L449,638,M442,643L442,643M79,612L76,636,M61,613L79,612,M60,613L61,613,M60,613L55,623,M76,636L55,623M270,613L269,631,M270,613L281,607,M281,607L299,623,M291,636L299,623,M269,631L291,636M91,607L83,643,M84,608L91,607,M79,612L84,608,M79,612L76,636,M80,640L76,636,M83,643L80,640M91,607L83,643,M91,607L94,606,M94,606L126,619,M126,619L114,639,M103,643L114,639,M87,647L103,643,M87,647L83,643M243,615L234,638,M242,604L243,615,M225,608L242,604,M212,621L225,608,M208,626L212,621,M208,626L208,628,M208,628L212,631,M212,631L234,638M426,610L442,643,M422,609L426,610,M409,613L422,609,M409,613L429,642,M429,642L442,643M196,641L163,618,M196,641L208,628,M208,626L208,628,M208,626L188,608,M163,618L188,608M263,634L243,615,M263,634L259,644,M250,651L259,644,M239,649L250,651,M239,649L234,638,M243,615L234,638M377,653L405,631,M364,628L377,653,M364,628L409,613,M409,613L409,613,M409,613L405,631M17,642L0,630,M17,642L33,637,M33,633L33,637,M33,633L31,630,M6,624L31,630,M0,626L6,624M17,642L0,630,M0,648L17,642M405,631L416,649,M409,613L405,631,M409,613L409,613,M409,613L429,642,M416,649L429,642M524,627L587,651,M524,627L550,600,M550,600L587,609,M587,609L589,612,M589,612L587,651M592,659L619,626,M587,651L592,659,M589,612L587,651,M589,612L619,626M196,641L163,618,M196,641L193,649,M181,655L193,649,M161,653L181,655,M161,653L150,619,M150,619L163,618M405,631L416,649,M377,653L405,631,M377,653L380,662,M380,662L400,665,M400,665L416,649M44,651L80,640,M38,651L44,651,M38,651L37,650,M37,650L33,637,M33,633L33,637,M33,633L55,623,M76,636L55,623,M80,640L76,636M315,655L333,640,M307,656L315,655,M292,646L307,656,M291,636L292,646,M291,636L299,623,M299,623L329,610,M329,610L337,609,M337,609L346,614,M346,615L346,614,M333,640L346,615M259,644L274,651,M263,634L259,644,M263,634L269,631,M269,631L291,636,M291,636L292,646,M285,652L292,646,M274,651L285,652M615,659L624,628,M593,664L615,659,M592,659L593,664,M592,659L619,626,M619,626L621,626,M621,626L624,628M212,631L221,668,M212,631L234,638,M239,649L234,638,M221,668L239,649M212,631L221,668,M208,628L212,631,M196,641L208,628,M196,641L193,649,M217,673L193,649,M217,673L221,668M622,661L639,642,M615,659L622,661,M615,659L624,628,M624,628L639,631M44,651L78,658,M44,651L80,640,M83,643L80,640,M87,647L83,643,M87,647L84,654,M78,658L84,654M131,673L114,639,M131,673L152,669,M161,653L152,669,M161,653L150,619,M150,619L143,614,M137,612L143,614,M126,619L137,612,M126,619L114,639M0,661L37,650,M0,661L0,661,M37,650L33,637M261,673L274,651,M261,673L250,651,M250,651L259,644,M259,644L274,651M445,672L472,668,M442,643L445,672,M442,643L449,638,M449,638L494,632,M494,632L512,638,M512,639L512,638,M472,668L512,639M524,627L587,651,M522,628L524,627,M518,634L522,628,M518,634L578,680,M578,680L588,677,M588,677L589,675,M589,675L593,664,M592,659L593,664,M587,651L592,659M622,661L639,642,M622,661L628,666,M628,666L639,666M333,640L344,680,M333,640L346,615,M346,615L348,616,M348,616L364,628,M364,628L377,653,M377,653L380,662,M374,672L380,662,M361,684L374,672,M344,680L361,684M0,661L37,650,M0,661L28,672,M28,672L35,672,M38,665L35,672,M38,651L38,665,M38,651L37,650M44,651L78,658,M38,651L44,651,M38,651L38,665,M38,665L53,668,M53,668L72,666,M78,658L72,666M261,673L274,651,M261,673L264,686,M264,686L278,675,M285,652L278,675,M274,651L285,652M416,649L429,642,M400,665L416,649,M400,665L424,687,M424,687L429,689,M429,689L435,689,M435,689L445,672,M442,643L445,672,M442,643L442,643,M429,642L442,643M333,683L315,655,M333,683L344,680,M333,640L344,680,M315,655L333,640M103,643L106,678,M103,643L114,639,M131,673L114,639,M131,673L117,693,M117,693L106,678M285,652L278,675,M285,652L292,646,M292,646L307,656,M307,656L302,674,M278,675L302,674M103,643L106,678,M87,647L103,643,M87,647L84,654,M89,667L84,654,M106,678L89,667M181,655L186,681,M181,655L193,649,M217,673L193,649,M217,673L217,685,M212,689L217,685,M198,689L212,689,M198,689L186,681M261,673L250,651,M261,673L264,686,M264,686L264,688,M248,695L264,688,M217,685L248,695,M217,673L217,685,M217,673L221,668,M221,668L239,649,M239,649L250,651M181,655L186,681,M161,653L181,655,M161,653L152,669,M160,680L152,669,M160,680L186,681M333,683L315,655,M326,688L333,683,M313,694L326,688,M313,694L302,674,M307,656L302,674,M307,656L315,655M0,683L28,672,M0,661L28,672,M0,661L0,661M89,667L83,689,M89,667L84,654,M78,658L84,654,M78,658L72,666,M72,666L73,687,M73,687L83,689M589,675L624,681,M589,675L593,664,M593,664L615,659,M615,659L622,661,M622,661L628,666,M624,681L628,666M70,688L53,668,M70,688L73,687,M72,666L73,687,M53,668L72,666M521,689L575,683,M514,658L521,689,M512,639L514,658,M512,639L512,638,M512,638L518,634,M518,634L578,680,M575,683L578,680M89,667L83,689,M106,678L89,667,M117,693L106,678,M117,693L115,701,M115,701L115,701,M111,701L115,701,M94,697L111,701,M94,697L83,689M624,681L628,666,M624,681L639,705,M628,666L639,666M70,688L53,668,M63,694L70,688,M36,686L63,694,M36,686L35,672,M38,665L35,672,M38,665L53,668M472,668L473,698,M445,672L472,668,M435,689L445,672,M435,689L459,714,M459,714L470,708,M470,708L473,698M473,698L514,658,M472,668L473,698,M472,668L512,639,M512,639L514,658M0,683L28,672,M28,672L35,672,M36,686L35,672,M36,686L27,705,M0,724L27,705M278,675L302,674,M264,686L278,675,M264,686L264,688,M276,699L264,688,M276,699L308,704,M308,704L313,694,M313,694L302,674M589,675L624,681,M588,677L589,675,M588,677L588,678,M588,678L613,700,M613,700L639,707,M624,681L639,705M182,704L160,689,M182,704L198,689,M198,689L186,681,M160,680L186,681,M160,680L160,689M130,709L157,695,M130,709L115,701,M117,693L115,701,M131,673L117,693,M131,673L152,669,M160,680L152,669,M160,680L160,689,M160,689L157,695M390,694L404,699,M390,694L374,672,M374,672L380,662,M380,662L400,665,M400,665L424,687,M404,699L424,687M473,698L514,658,M470,708L473,698,M470,708L520,707,M521,689L520,707,M514,658L521,689M527,722L572,693,M520,707L527,722,M521,689L520,707,M521,689L575,683,M572,693L575,683M65,716L94,697,M63,694L65,716,M63,694L70,688,M70,688L73,687,M73,687L83,689,M94,697L83,689M390,694L388,709,M390,694L374,672,M361,684L374,672,M361,684L361,700,M361,700L376,710,M376,710L388,709M182,704L160,689,M182,704L180,707,M163,711L180,707,M163,711L157,695,M160,689L157,695M347,723L326,688,M347,723L361,700,M361,684L361,700,M344,680L361,684,M333,683L344,680,M326,688L333,683M390,694L388,709,M390,694L404,699,M398,711L404,699,M396,712L398,711,M388,709L396,712M63,723L27,705,M65,716L63,723,M63,694L65,716,M36,686L63,694,M36,686L27,705M594,720L613,700,M588,678L594,720,M588,678L613,700M347,723L326,688,M347,723L347,723,M342,731L347,723,M314,724L342,731,M308,704L314,724,M308,704L313,694,M313,694L326,688M588,678L594,720,M588,677L588,678,M578,680L588,677,M575,683L578,680,M572,693L575,683,M572,693L576,743,M576,743L587,749,M587,749L594,720M163,711L157,695,M163,711L159,718,M145,726L159,718,M144,725L145,726,M144,725L130,709,M130,709L157,695M406,714L420,708,M398,711L406,714,M398,711L404,699,M404,699L424,687,M424,687L429,689,M420,708L429,689M527,722L572,693,M527,722L529,732,M529,732L576,743,M572,693L576,743M65,716L94,697,M65,716L63,723,M68,738L63,723,M68,738L111,701,M94,697L111,701M186,731L211,709,M180,707L186,731,M182,704L180,707,M182,704L198,689,M198,689L212,689,M212,689L211,709M594,720L613,700,M587,749L594,720,M587,749L587,749,M587,749L639,733,M613,700L639,707M226,735L211,709,M226,735L238,741,M238,741L242,739,M242,739L244,738,M248,695L244,738,M217,685L248,695,M212,689L217,685,M212,689L211,709M159,718L186,731,M163,711L159,718,M163,711L180,707,M180,707L186,731,M186,731L186,731M276,699L276,731,M276,699L264,688,M248,695L264,688,M248,695L244,738,M244,738L263,740,M263,740L268,740,M268,740L276,731M406,714L411,728,M406,714L420,708,M420,708L419,719,M411,728L419,719M396,712L393,738,M388,709L396,712,M376,710L388,709,M376,710L380,727,M389,742L380,727,M389,742L393,738M419,719L431,725,M420,708L419,719,M420,708L429,689,M429,689L435,689,M435,689L459,714,M459,714L457,731,M451,732L457,731,M431,725L451,732M276,731L312,726,M276,699L276,731,M276,699L308,704,M308,704L314,724,M312,726L314,724M406,714L411,728,M398,711L406,714,M396,712L398,711,M396,712L393,738,M393,738L402,735,M402,735L411,728,M411,728L411,728M347,723L380,727,M347,723L347,723,M347,723L361,700,M361,700L376,710,M376,710L380,727M414,729L431,725,M411,728L414,729,M411,728L411,728,M411,728L419,719,M419,719L431,725M470,708L520,707,M459,714L470,708,M459,714L457,731,M457,731L458,732,M458,732L471,743,M471,743L487,745,M487,745L520,745,M520,745L529,732,M527,722L529,732,M520,707L527,722M63,723L27,705,M68,738L63,723,M68,738L68,742,M68,742L44,786,M41,788L44,786,M26,799L41,788,M24,800L26,799,M0,800L24,800,M0,724L27,705M186,731L211,709,M186,731L186,731,M186,731L186,734,M197,742L186,734,M197,742L226,735,M226,735L211,709M159,718L186,731,M145,726L159,718,M161,751L145,726,M161,751L186,734,M186,731L186,734M83,742L113,714,M68,742L83,742,M68,738L68,742,M68,738L111,701,M111,701L115,701,M115,701L113,714M347,723L380,727,M342,731L347,723,M342,731L349,747,M349,747L381,763,M381,763L389,742,M389,742L380,727M414,729L431,725,M414,729L432,741,M432,741L451,732,M431,725L451,732M83,742L113,714,M83,742L105,744,M105,744L111,735,M113,714L111,735M123,739L141,729,M111,735L123,739,M113,714L111,735,M115,701L113,714,M115,701L115,701,M130,709L115,701,M144,725L130,709,M141,729L144,725M402,735L426,747,M402,735L411,728,M411,728L414,729,M414,729L432,741,M426,747L432,741M127,749L135,741,M127,749L123,739,M123,739L141,729,M141,729L135,741M276,731L312,726,M268,740L276,731,M291,761L268,740,M291,761L301,763,M301,763L302,763,M312,726L302,763M140,758L135,741,M140,758L161,754,M161,751L161,754,M161,751L145,726,M144,725L145,726,M141,729L144,725,M141,729L135,741M127,749L123,739,M127,749L127,755,M108,751L127,755,M108,751L105,744,M105,744L111,735,M111,735L123,739M140,758L135,741,M136,759L140,758,M128,756L136,759,M128,756L127,755,M127,749L127,755,M127,749L135,741M402,735L426,747,M393,738L402,735,M389,742L393,738,M381,763L389,742,M381,763L384,770,M384,770L401,774,M401,774L421,758,M421,758L426,747M302,763L334,763,M312,726L302,763,M312,726L314,724,M314,724L342,731,M342,731L349,747,M334,763L349,747M197,742L226,735,M197,742L201,776,M201,776L201,776,M201,776L227,769,M238,741L227,769,M226,735L238,741M197,742L201,776,M197,742L186,734,M161,751L186,734,M161,751L161,754,M164,763L161,754,M174,778L164,763,M176,779L174,778,M176,779L201,776M54,784L108,753,M44,786L54,784,M68,742L44,786,M68,742L83,742,M83,742L105,744,M108,751L105,744,M108,751L108,753M421,758L444,766,M421,758L426,747,M426,747L432,741,M432,741L451,732,M451,732L457,731,M457,731L458,732,M444,766L458,732M54,784L108,753,M54,784L109,778,M108,753L109,778M111,779L128,756,M111,779L109,778,M108,753L109,778,M108,751L108,753,M108,751L127,755,M128,756L127,755M260,779L242,739,M260,779L265,774,M263,740L265,774,M244,738L263,740,M242,739L244,738M263,740L265,774,M263,740L268,740,M291,761L268,740,M277,770L291,761,M265,774L277,770M446,774L465,770,M445,773L446,774,M444,766L445,773,M444,766L458,732,M458,732L471,743,M471,743L470,763,M465,770L470,763M487,745L485,776,M487,745L520,745,M520,745L519,762,M514,780L519,762,M510,788L514,780,M487,779L510,788,M485,776L487,779M260,779L242,739,M260,779L260,781,M254,789L260,781,M242,786L254,789,M242,786L227,769,M238,741L227,769,M238,741L242,739M487,745L485,776,M471,743L487,745,M471,743L470,763,M470,763L485,776M111,779L128,756,M128,793L111,779,M133,784L128,793,M136,759L133,784,M128,756L136,759M519,762L577,789,M520,745L519,762,M520,745L529,732,M529,732L576,743,M576,743L587,749,M587,749L587,749,M587,749L587,779,M580,790L587,779,M577,789L580,790M617,787L639,748,M587,779L617,787,M587,749L587,779,M587,749L639,733M421,758L444,766,M401,774L421,758,M413,785L401,774,M413,785L430,782,M430,782L445,773,M444,766L445,773M617,787L639,748,M617,787L630,791,M630,791L639,792M133,784L164,763,M136,759L133,784,M136,759L140,758,M140,758L161,754,M164,763L161,754M356,792L334,766,M356,792L374,786,M374,786L384,770,M381,763L384,770,M349,747L381,763,M334,763L349,747,M334,763L334,766M470,763L485,776,M465,770L470,763,M465,770L470,785,M470,785L470,786,M470,786L487,779,M485,776L487,779M334,766L328,791,M334,763L334,766,M302,763L334,763,M301,763L302,763,M301,763L302,767,M302,767L306,796,M306,796L328,791M133,784L164,763,M133,784L128,793,M131,800L128,793,M131,800L174,778,M174,778L164,763M280,783L302,767,M277,770L280,783,M277,770L291,761,M291,761L301,763,M301,763L302,767M446,774L465,770,M446,774L455,791,M455,791L458,793,M458,793L470,785,M465,770L470,785M277,770L280,783,M265,774L277,770,M260,779L265,774,M260,779L260,781,M260,781L280,784,M280,783L280,784M356,792L334,766,M346,798L356,792,M328,791L346,798,M334,766L328,791M280,783L302,767,M280,783L280,784,M292,807L280,784,M292,807L295,806,M295,806L303,802,M303,802L306,796,M302,767L306,796M514,780L556,791,M514,780L519,762,M519,762L577,789,M556,791L577,789M260,781L280,784,M254,789L260,781,M262,803L254,789,M267,810L262,803,M267,810L288,809,M288,809L292,807,M292,807L280,784M439,790L451,792,M439,790L430,782,M430,782L445,773,M445,773L446,774,M446,774L455,791,M451,792L455,791M225,804L242,786,M220,804L225,804,M220,804L207,796,M207,796L201,776,M201,776L227,769,M242,786L227,769M487,808L470,786,M487,808L488,808,M488,808L508,802,M508,802L509,801,M510,788L509,801,M487,779L510,788,M470,786L487,779M514,780L556,791,M510,788L514,780,M510,788L509,801,M509,801L519,807,M519,807L556,791M439,790L438,795,M439,790L430,782,M413,785L430,782,M413,785L416,798,M416,798L422,799,M422,799L438,795M439,790L438,795,M439,790L451,792,M443,800L451,792,M443,800L438,795M41,788L131,809,M41,788L44,786,M44,786L54,784,M54,784L109,778,M111,779L109,778,M128,793L111,779,M131,800L128,793,M131,800L131,809M131,809L173,796,M131,809L131,809,M131,800L131,809,M131,800L174,778,M176,779L174,778,M176,779L175,792,M175,792L173,796M487,808L470,786,M467,809L487,808,M461,804L467,809,M458,793L461,804,M458,793L470,785,M470,785L470,786M189,807L175,792,M189,807L199,807,M199,807L207,796,M207,796L201,776,M201,776L201,776,M176,779L201,776,M176,779L175,792M422,799L438,795,M422,799L440,807,M440,807L443,800,M443,800L438,795M443,800L451,792,M440,807L443,800,M440,807L444,816,M444,816L461,804,M458,793L461,804,M455,791L458,793,M451,792L455,791M519,807L556,791,M519,807L521,809,M521,809L541,818,M541,818L555,818,M555,818L580,791,M580,790L580,791,M577,789L580,790,M556,791L577,789M131,809L173,796,M131,809L131,811,M131,812L131,811,M131,812L151,818,M151,818L168,819,M173,796L168,819M416,798L409,839,M413,785L416,798,M413,785L401,774,M384,770L401,774,M374,786L384,770,M374,786L377,803,M396,842L377,803,M396,842L409,839M234,814L262,803,M234,814L226,805,M226,805L225,804,M225,804L242,786,M242,786L254,789,M262,803L254,789M177,828L189,807,M177,828L168,819,M173,796L168,819,M175,792L173,796,M189,807L175,792M317,817L341,822,M317,817L303,802,M303,802L306,796,M306,796L328,791,M328,791L346,798,M346,798L342,820,M341,822L342,820M611,831L630,791,M592,816L611,831,M580,791L592,816,M580,790L580,791,M580,790L587,779,M587,779L617,787,M617,787L630,791M89,815L131,811,M26,799L89,815,M26,799L41,788,M41,788L131,809,M131,809L131,809,M131,809L131,811M213,820L200,813,M220,804L213,820,M220,804L207,796,M199,807L207,796,M199,807L200,813M422,799L440,807,M416,798L422,799,M416,798L409,839,M409,839L422,843,M422,843L441,828,M444,816L441,828,M440,807L444,816M359,819L377,803,M351,821L359,819,M342,820L351,821,M346,798L342,820,M346,798L356,792,M356,792L374,786,M374,786L377,803M177,828L189,807,M178,831L177,828,M178,831L192,829,M200,813L192,829,M199,807L200,813,M189,807L199,807M611,831L630,791,M611,831L614,834,M614,834L639,826,M630,791L639,792M234,814L262,803,M234,814L236,825,M252,838L236,825,M252,838L267,810,M267,810L262,803M463,830L467,809,M441,828L463,830,M444,816L441,828,M444,816L461,804,M461,804L467,809M110,831L89,815,M110,831L125,832,M131,812L125,832,M131,812L131,811,M89,815L131,811M226,805L224,821,M226,805L225,804,M220,804L225,804,M220,804L213,820,M213,820L213,824,M213,824L224,821M226,805L224,821,M234,814L226,805,M234,814L236,825,M233,826L236,825,M233,826L224,821M213,820L200,813,M213,820L213,824,M213,824L212,829,M212,829L209,836,M209,836L192,829,M200,813L192,829M393,845L359,819,M393,845L396,842,M396,842L377,803,M359,819L377,803M463,830L467,809,M471,836L463,830,M471,836L476,838,M476,838L488,808,M487,808L488,808,M467,809L487,808M212,829L231,826,M213,824L212,829,M213,824L224,821,M233,826L224,821,M231,826L233,826M110,831L89,815,M61,844L110,831,M61,844L52,834,M52,834L24,800,M24,800L26,799,M26,799L89,815M393,845L359,819,M387,851L393,845,M387,851L351,821,M351,821L359,819M476,838L488,808,M484,846L476,838,M484,846L499,851,M499,851L508,802,M488,808L508,802M213,845L231,826,M213,845L213,845,M213,845L209,836,M212,829L209,836,M212,829L231,826M313,849L295,806,M310,854L313,849,M310,854L296,848,M296,848L290,834,M288,809L290,834,M288,809L292,807,M292,807L295,806M313,849L295,806,M313,849L314,848,M317,817L314,848,M317,817L303,802,M295,806L303,802M317,817L314,848,M317,817L341,822,M341,822L341,836,M314,848L341,836M527,864L541,818,M521,809L527,864,M521,809L541,818M560,865L592,816,M555,818L560,865,M555,818L580,791,M580,791L592,816M387,851L351,821,M386,853L387,851,M345,840L386,853,M345,840L341,836,M341,822L341,836,M341,822L342,820,M342,820L351,821M521,809L527,864,M519,807L521,809,M509,801L519,807,M508,802L509,801,M499,851L508,802,M515,867L499,851,M515,867L516,867,M516,867L527,864,M527,864L527,864M527,864L541,818,M527,864L527,864,M527,864L560,868,M560,868L560,865,M555,818L560,865,M541,818L555,818M252,842L290,834,M252,838L252,842,M252,838L267,810,M267,810L288,809,M288,809L290,834M159,853L151,818,M159,853L127,845,M125,832L127,845,M131,812L125,832,M131,812L151,818M159,853L151,818,M162,854L159,853,M162,854L168,855,M168,855L174,844,M178,831L174,844,M178,831L177,828,M177,828L168,819,M151,818L168,819M213,845L231,826,M227,856L213,845,M227,856L251,850,M252,842L251,850,M252,838L252,842,M252,838L236,825,M233,826L236,825,M231,826L233,826M252,842L290,834,M252,842L251,850,M253,852L251,850,M253,852L274,856,M274,856L296,848,M296,848L290,834M560,865L592,816,M560,868L560,865,M560,868L570,878,M570,878L613,848,M613,848L614,834,M611,831L614,834,M592,816L611,831M449,856L471,836,M426,848L449,856,M426,848L422,843,M422,843L441,828,M441,828L463,830,M471,836L463,830M61,844L110,831,M65,851L61,844,M98,870L65,851,M98,870L115,868,M127,845L115,868,M125,832L127,845,M110,831L125,832M202,851L174,844,M202,851L213,845,M213,845L209,836,M209,836L192,829,M178,831L192,829,M178,831L174,844M614,834L639,826,M613,848L614,834,M613,848L631,863,M631,863L639,864M345,840L336,878,M345,840L341,836,M314,848L341,836,M313,849L314,848,M310,854L313,849,M310,854L315,871,M327,880L315,871,M327,880L336,878M449,856L471,836,M462,868L449,856,M462,868L484,846,M484,846L476,838,M471,836L476,838M202,851L174,844,M185,881L202,851,M185,881L176,869,M176,869L168,855,M168,855L174,844M345,840L336,878,M345,840L386,853,M382,864L386,853,M356,880L382,864,M336,878L356,880M185,881L202,851,M193,897L185,881,M193,897L206,899,M206,899L212,892,M227,856L212,892,M227,856L213,845,M213,845L213,845,M202,851L213,845M138,882L162,854,M130,886L138,882,M130,886L129,885,M129,885L115,868,M127,845L115,868,M159,853L127,845,M162,854L159,853M286,883L274,856,M286,883L302,877,M302,877L315,871,M310,854L315,871,M310,854L296,848,M274,856L296,848M462,868L484,846,M462,868L465,893,M465,893L515,867,M515,867L499,851,M484,846L499,851M462,868L449,856,M462,868L465,893,M463,897L465,893,M449,909L463,897,M438,907L449,909,M438,907L434,903,M426,848L434,903,M426,848L449,856M602,895L628,868,M600,895L602,895,M570,879L600,895,M570,878L570,879,M570,878L613,848,M613,848L631,863,M628,868L631,863M286,883L274,856,M274,898L286,883,M274,898L265,893,M265,893L256,881,M253,852L256,881,M253,852L274,856M149,881L176,869,M138,882L149,881,M138,882L162,854,M162,854L168,855,M176,869L168,855M52,834L33,893,M52,834L24,800,M0,800L24,800,M33,894L33,893,M33,894L0,875M426,848L434,903,M426,848L422,843,M409,839L422,843,M396,842L409,839,M393,845L396,842,M387,851L393,845,M386,853L387,851,M382,864L386,853,M396,889L382,864,M434,903L396,889M52,834L33,893,M61,844L52,834,M65,851L61,844,M65,851L59,877,M33,893L59,877M212,892L256,881,M227,856L212,892,M227,856L251,850,M253,852L251,850,M253,852L256,881M187,901L149,881,M187,901L193,897,M193,897L185,881,M185,881L176,869,M149,881L176,869M627,899L628,868,M627,899L639,904,M628,868L631,863M627,899L628,868,M602,895L627,899,M602,895L628,868M68,904L59,877,M81,906L68,904,M81,906L86,903,M98,870L86,903,M98,870L65,851,M65,851L59,877M187,901L149,881,M162,923L187,901,M162,923L152,915,M152,915L130,886,M130,886L138,882,M138,882L149,881M33,893L59,877,M33,894L33,893,M43,918L33,894,M43,918L68,904,M68,904L59,877M212,892L256,881,M206,899L212,892,M220,915L206,899,M220,915L265,893,M265,893L256,881M302,877L300,906,M286,883L302,877,M274,898L286,883,M276,904L274,898,M276,904L300,906M109,909L86,903,M109,909L117,901,M117,901L129,885,M129,885L115,868,M98,870L115,868,M98,870L86,903M302,877L300,906,M302,877L315,871,M327,880L315,871,M327,880L326,885,M318,894L326,885,M301,906L318,894,M300,906L301,906M356,880L362,905,M356,880L382,864,M396,889L382,864,M381,915L396,889,M376,916L381,915,M376,916L369,913,M369,913L362,905M510,914L463,897,M510,914L514,911,M516,867L514,911,M515,867L516,867,M465,893L515,867,M463,897L465,893M547,923L514,911,M547,923L560,908,M560,908L562,905,M562,905L570,879,M570,878L570,879,M560,868L570,878,M527,864L560,868,M516,867L527,864,M516,867L514,911M334,917L362,905,M326,885L334,917,M327,880L326,885,M327,880L336,878,M336,878L356,880,M356,880L362,905M43,918L33,894,M43,918L31,955,M33,894L0,875M318,894L312,922,M301,906L318,894,M310,922L301,906,M312,922L310,922M220,915L265,893,M222,920L220,915,M261,927L222,920,M261,927L271,920,M276,908L271,920,M276,904L276,908,M276,904L274,898,M274,898L265,893M128,919L117,901,M128,919L152,915,M152,915L130,886,M130,886L129,885,M117,901L129,885M318,894L312,922,M318,894L326,885,M326,885L334,917,M334,917L334,922,M321,926L334,922,M321,926L312,922M602,895L627,899,M600,895L602,895,M600,895L606,934,M606,934L613,955,M627,899L639,904M128,919L117,901,M113,924L128,919,M113,924L109,909,M109,909L117,901M381,915L396,889,M399,935L381,915,M399,935L414,930,M414,930L438,907,M438,907L434,903,M434,903L396,889M334,917L362,905,M334,917L334,922,M345,934L334,922,M345,934L369,913,M369,913L362,905M510,914L463,897,M500,935L510,914,M495,935L500,935,M495,935L457,925,M457,925L455,921,M455,921L449,909,M449,909L463,897M562,905L606,934,M562,905L570,879,M570,879L600,895,M600,895L606,934M111,931L84,927,M113,924L111,931,M113,924L109,909,M109,909L86,903,M81,906L86,903,M84,927L81,906M302,926L276,908,M302,926L310,922,M310,922L301,906,M300,906L301,906,M276,904L300,906,M276,904L276,908M84,927L81,906,M68,955L84,927,M81,906L68,904M562,905L606,934,M560,908L562,905,M597,955L560,908,M606,934L613,955M302,926L276,908,M293,943L302,926,M293,943L271,920,M276,908L271,920M113,924L128,919,M113,924L111,931,M113,937L111,931,M142,955L113,937,M128,919L152,915M367,937L376,916,M367,937L345,935,M345,934L345,935,M345,934L369,913,M376,916L369,913M547,923L514,911,M547,923L545,955,M510,914L514,911,M500,935L510,914,M512,955L500,935M293,943L302,926,M293,943L295,955,M302,926L310,922M367,937L376,916,M380,955L367,937,M376,916L381,915M597,955L560,908,M547,923L560,908,M547,923L545,955M198,955L222,925,M222,920L222,925,M222,920L220,915,M220,915L206,899,M193,897L206,899,M187,901L193,897,M162,923L187,901,M162,923L159,955M260,953L229,940,M261,927L260,953,M261,927L222,920,M222,920L222,925,M229,940L222,925M321,926L312,955,M321,926L334,922,M345,934L334,922,M345,934L345,935,M345,935L342,955M98,955L113,937,M113,937L111,931,M111,931L84,927,M68,955L84,927M293,943L271,920,M293,943L295,955,M261,927L271,920,M261,927L260,953,M260,955L260,953M367,937L345,935,M380,955L367,937,M345,935L342,955M432,955L455,921,M455,921L449,909,M438,907L449,909,M414,930L438,907,M414,930L425,955M479,955L495,935,M495,935L457,925,M457,925L461,955M432,955L455,921,M457,925L455,921,M457,925L461,955M479,955L495,935,M495,935L500,935,M512,955L500,935M229,940L229,955,M229,940L222,925,M198,955L222,925M260,953L229,940,M260,955L260,953,M229,940L229,955M414,930L425,955,M399,935L414,930,M389,955L399,935M98,955L113,937,M142,955L113,937"/>

</svg>