<svg xmlns="http://www.w3.org/2000/svg" width="512" height="512" viewBox="0 0 512 512">

<path stroke="blue" stroke-width="1" d="M14,0L16,7,M16,7L28,7,M32,3L28,7,M32,0L32,3M50,0L41,8,M32,3L41,8,M32,0L32,3M79,1L69,7,M79,1L79,1,M79,0L79,1,M65,5L69,7,M65,0L65,5M150,0L143,9,M141,8L143,9,M139,0L141,8M8,0L8,6,M4,4L8,6,M4,0L4,4M86,0L88,7,M92,3L88,7,M92,1L92,3,M93,0L92,1M116,3L120,7,M116,3L115,5,M115,5L120,7M134,0L129,11,M124,10L129,11,M124,10L124,10,M124,0L124,10M8,0L8,6,M8,6L11,9,M15,7L11,9,M16,7L15,7,M14,0L16,7M84,0L85,7,M80,3L85,7,M79,1L80,3,M79,0L79,1M86,0L88,7,M88,7L88,7,M85,7L88,7,M85,7L85,7,M84,0L85,7M116,3L115,5,M117,0L116,3,M108,3L115,5,M107,0L108,3M116,3L120,7,M117,0L116,3,M120,7L124,10M134,0L129,11,M129,11L131,12,M141,8L131,12,M139,0L141,8M157,8L170,2,M156,0L157,8M4,4L0,10,M4,0L4,4M50,0L53,9,M53,9L59,9,M62,9L59,9,M65,5L62,9,M65,0L65,5M79,1L69,7,M79,1L76,13,M72,10L76,13,M69,7L72,10M80,3L81,10,M80,3L85,7,M85,7L85,7,M85,7L81,10M92,1L95,6,M93,0L92,1,M95,6L97,6M80,3L81,10,M79,1L80,3,M79,1L79,1,M79,1L76,13,M76,13L77,15,M77,14L77,15,M81,10L77,14M92,3L94,7,M92,1L92,3,M92,1L95,6,M95,6L94,7M150,0L143,9,M143,9L146,12,M146,12L150,14,M150,14L156,13,M158,11L156,13,M157,8L158,11,M156,0L157,8M157,8L170,2,M157,8L158,11,M158,11L164,11,M164,11L170,9M50,0L41,8,M41,8L41,8,M41,8L48,14,M53,9L48,14,M50,0L53,9M92,3L94,7,M92,3L88,7,M88,7L88,7,M88,7L91,10,M94,7L91,10M99,0L97,6,M97,6L101,15,M101,15L102,16,M107,9L102,16,M108,3L107,9,M107,0L108,3M115,5L120,7,M108,3L115,5,M108,3L107,9,M107,9L121,13,M124,10L121,13,M124,10L124,10,M120,7L124,10M4,4L8,6,M4,4L0,10,M8,6L11,9M95,6L94,7,M95,6L97,6,M97,6L101,15,M93,15L101,15,M91,14L93,15,M91,10L91,14,M94,7L91,10M85,7L81,10,M85,7L88,7,M88,7L91,10,M91,10L91,14,M91,14L90,14,M77,14L90,14,M81,10L77,14M41,8L38,16,M41,8L41,8,M32,3L41,8,M32,3L28,7,M28,7L28,16,M28,16L31,19,M31,19L33,19,M38,16L33,19M72,10L67,16,M69,7L72,10,M65,5L69,7,M65,5L62,9,M62,9L62,13,M62,13L67,16M17,15L21,18,M15,7L17,15,M16,7L15,7,M16,7L28,7,M28,7L28,16,M28,16L28,16,M28,16L21,18M59,9L56,20,M53,9L59,9,M53,9L48,14,M48,14L49,18,M49,18L55,20,M56,20L55,20M6,18L0,19,M7,12L6,18,M0,10L7,12M12,14L15,18,M11,10L12,14,M11,9L11,10,M15,7L11,9,M15,7L17,15,M17,15L15,18M38,16L47,20,M41,8L38,16,M41,8L48,14,M48,14L49,18,M49,18L47,20M62,16L66,18,M62,13L62,16,M62,13L67,16,M67,16L67,17,M67,17L66,18M107,9L121,13,M107,9L102,16,M102,16L103,17,M103,17L111,25,M111,25L117,24,M118,21L117,24,M121,13L118,21M133,16L141,18,M132,14L133,16,M131,12L132,14,M141,8L131,12,M141,8L143,9,M143,9L146,12,M146,12L141,18M156,13L165,19,M156,13L156,13,M158,11L156,13,M158,11L164,11,M164,11L167,17,M165,19L167,17M164,11L167,17,M164,11L170,9,M167,17L170,18M12,14L15,18,M12,14L11,26,M11,26L11,26,M11,26L12,26,M15,18L12,26M59,9L56,20,M62,9L59,9,M62,9L62,13,M62,13L62,16,M62,16L62,17,M62,17L56,20M72,10L67,16,M72,10L76,13,M76,13L77,15,M77,15L77,15,M77,15L67,17,M67,16L67,17M12,14L11,26,M11,10L12,14,M11,10L7,12,M7,12L6,18,M9,23L6,18,M9,23L11,26M17,15L15,18,M17,15L21,18,M21,18L17,25,M17,25L14,26,M12,26L14,26,M15,18L12,26M38,16L47,20,M38,16L33,19,M33,19L35,21,M35,21L39,22,M39,22L47,21,M47,20L47,21M62,16L66,18,M62,16L62,17,M62,17L64,23,M67,21L64,23,M66,18L67,21M77,15L67,17,M77,15L77,17,M77,17L68,21,M67,21L68,21,M66,18L67,21,M67,17L66,18M78,19L87,21,M77,17L78,19,M77,17L77,17,M77,15L77,17,M77,15L77,15,M77,14L77,15,M77,14L90,14,M90,14L87,21M146,12L141,18,M146,12L150,14,M150,14L148,25,M145,25L148,25,M142,23L145,25,M141,18L142,23M156,13L165,19,M156,13L158,21,M158,21L165,22,M165,19L165,22M118,21L129,21,M121,13L118,21,M124,10L121,13,M124,10L129,11,M129,11L131,12,M131,12L132,14,M132,14L129,21M62,17L64,23,M62,17L56,20,M56,20L55,20,M55,20L57,23,M57,23L61,24,M61,24L64,23,M64,23L64,23M90,14L87,21,M91,14L90,14,M91,14L93,15,M93,15L92,23,M92,23L91,24,M88,23L91,24,M87,21L88,23M100,21L93,24,M103,17L100,21,M102,16L103,17,M101,15L102,16,M93,15L101,15,M93,15L92,23,M92,23L93,24M133,16L141,18,M133,16L135,22,M135,22L140,23,M140,23L142,23,M141,18L142,23M165,19L167,17,M165,19L165,22,M165,22L168,26,M168,26L170,25,M167,17L170,18M0,21L9,23,M9,23L6,18,M6,18L0,19M28,16L22,26,M28,16L21,18,M21,18L17,25,M17,25L22,26M129,21L129,28,M132,14L129,21,M132,14L133,16,M133,16L135,22,M135,22L133,26,M129,28L133,26,M129,28L129,28M150,14L148,25,M150,14L156,13,M156,13L156,13,M156,13L158,21,M158,21L157,25,M151,27L157,25,M148,25L151,27M78,19L87,21,M78,19L81,26,M81,26L83,27,M88,23L83,27,M87,21L88,23M118,21L129,21,M118,21L117,24,M117,24L118,25,M118,25L123,29,M123,29L129,28,M129,21L129,28M0,21L9,23,M9,23L11,26,M11,26L11,26,M11,26L4,34,M0,35L4,34M28,16L22,26,M28,16L28,16,M28,16L31,19,M31,19L31,22,M31,22L23,27,M23,27L23,27,M22,26L23,27M39,22L40,28,M39,22L47,21,M47,21L47,23,M47,23L44,27,M40,28L44,27M68,21L70,25,M67,21L68,21,M67,21L64,23,M64,23L64,23,M64,23L66,27,M66,27L66,27,M66,27L68,27,M70,25L68,27M68,21L70,25,M77,17L68,21,M77,17L77,17,M77,17L76,20,M76,20L72,25,M70,25L72,25M39,22L40,28,M35,21L39,22,M35,21L38,29,M40,28L38,29M158,21L165,22,M158,21L157,25,M157,25L160,28,M160,28L167,27,M167,27L168,26,M165,22L168,26M48,25L54,29,M47,23L48,25,M47,21L47,23,M47,20L47,21,M49,18L47,20,M49,18L55,20,M55,20L57,23,M57,23L56,27,M56,27L54,29M76,20L75,27,M76,20L72,25,M72,25L73,28,M73,28L75,27M76,20L75,27,M77,17L76,20,M77,17L78,19,M78,19L81,26,M81,26L78,28,M75,27L78,28M98,25L95,28,M100,21L98,25,M100,21L100,21,M100,21L93,24,M93,24L95,28M98,25L100,29,M98,25L95,28,M95,28L95,30,M95,30L100,30,M100,29L100,30,M100,29L100,29M140,23L137,28,M135,22L140,23,M135,22L133,26,M133,26L137,28M31,23L28,29,M31,22L31,23,M31,22L23,27,M23,27L28,29,M28,29L28,29M35,21L38,29,M33,19L35,21,M31,19L33,19,M31,19L31,22,M31,22L31,23,M31,23L35,32,M38,29L35,32M61,24L60,30,M57,23L61,24,M57,23L56,27,M56,27L60,30M91,24L88,32,M88,23L91,24,M88,23L83,27,M83,27L86,32,M86,32L88,32M91,24L88,32,M92,23L91,24,M92,23L93,24,M93,24L95,28,M95,28L95,30,M95,30L91,34,M88,32L91,34M98,25L100,29,M100,21L98,25,M100,21L100,29M100,21L100,29,M100,21L100,21,M103,17L100,21,M103,17L111,25,M111,25L111,25,M111,25L107,27,M100,29L107,27,M100,29L100,29M140,23L137,28,M140,23L142,23,M142,23L145,25,M145,25L141,31,M137,28L141,31,M137,28L137,28M31,23L28,29,M31,23L35,32,M35,32L35,34,M35,34L34,35,M28,29L34,35M61,24L60,30,M61,24L64,23,M64,23L66,27,M66,27L61,31,M61,31L61,31,M60,30L61,31M48,25L49,33,M48,25L54,29,M54,29L53,29,M53,29L49,33M68,27L72,31,M70,25L68,27,M70,25L72,25,M72,25L73,28,M73,28L72,31,M72,31L72,31M73,28L75,27,M73,28L72,31,M72,31L77,31,M78,28L77,31,M75,27L78,28M48,25L49,33,M47,23L48,25,M47,23L44,27,M44,27L46,36,M46,36L47,37,M49,33L47,37M157,32L160,29,M151,33L157,32,M151,33L151,33,M151,27L151,33,M151,27L157,25,M157,25L160,28,M160,28L160,29M28,29L24,35,M23,27L28,29,M23,27L23,27,M23,27L24,35M28,29L24,35,M28,29L28,29,M28,29L34,35,M34,35L34,35,M34,35L25,39,M24,37L25,39,M24,35L24,37M68,27L72,31,M66,27L68,27,M66,27L67,32,M67,32L68,33,M68,33L70,33,M71,32L70,33,M72,31L71,32M78,28L77,31,M81,26L78,28,M81,26L83,27,M83,27L86,32,M86,32L83,35,M78,33L83,35,M77,31L78,33M105,31L102,33,M107,27L105,31,M100,29L107,27,M100,29L100,30,M100,30L100,30,M100,30L102,33M137,28L134,32,M137,28L137,28,M133,26L137,28,M129,28L133,26,M129,28L131,32,M131,32L134,32M144,35L151,33,M142,35L144,35,M141,32L142,35,M141,31L141,32,M145,25L141,31,M145,25L148,25,M148,25L151,27,M151,27L151,33M160,29L162,35,M160,28L160,29,M160,28L167,27,M167,27L166,35,M162,35L166,35M23,27L24,35,M22,26L23,27,M17,25L22,26,M17,25L14,26,M19,34L14,26,M19,34L24,37,M24,35L24,37M44,27L46,36,M40,28L44,27,M40,28L38,29,M38,29L35,32,M35,32L35,34,M35,34L46,36M53,29L55,33,M54,29L53,29,M56,27L54,29,M56,27L60,30,M60,30L61,31,M61,31L60,32,M55,33L60,32M66,27L67,32,M66,27L66,27,M66,27L61,31,M61,31L64,33,M64,33L67,32M105,31L102,33,M105,31L104,35,M103,35L104,35,M102,33L103,35M137,28L134,32,M137,28L141,31,M141,31L141,32,M136,33L141,32,M134,32L136,33M53,29L55,33,M53,29L49,33,M49,33L47,37,M47,37L49,40,M49,40L51,40,M55,33L51,40M71,32L75,36,M72,31L71,32,M72,31L72,31,M72,31L77,31,M77,31L78,33,M78,33L75,36M100,30L99,37,M100,30L100,30,M95,30L100,30,M95,30L91,34,M91,34L95,40,M99,37L95,40M100,30L99,37,M100,30L102,33,M102,33L103,35,M99,37L103,35M157,32L159,35,M157,32L160,29,M160,29L162,35,M161,35L162,35,M159,35L161,35M167,27L166,35,M167,27L168,26,M168,26L170,25,M166,35L170,38M64,33L64,36,M64,33L67,32,M67,32L68,33,M68,33L65,37,M64,36L65,37M105,31L104,35,M107,27L105,31,M111,25L107,27,M111,25L110,31,M110,31L106,36,M104,35L106,36M118,25L116,37,M117,24L118,25,M111,25L117,24,M111,25L111,25,M111,25L110,31,M110,31L114,39,M114,39L115,39,M116,37L115,39M118,25L116,37,M118,25L123,29,M123,29L123,32,M123,32L116,37M136,33L135,36,M136,33L141,32,M141,32L142,35,M140,37L142,35,M135,36L140,37M55,33L60,32,M55,33L51,40,M51,40L55,42,M55,42L55,42,M58,40L55,42,M60,36L58,40,M60,32L60,36M64,33L64,36,M61,31L64,33,M61,31L61,31,M61,31L60,32,M60,32L60,36,M60,36L64,36M131,32L132,37,M129,28L131,32,M129,28L129,28,M123,29L129,28,M123,29L123,32,M123,32L125,42,M125,42L128,43,M128,43L130,43,M132,37L130,43M136,33L135,36,M134,32L136,33,M131,32L134,32,M131,32L132,37,M132,37L135,36M157,32L159,35,M151,33L157,32,M151,33L152,35,M152,35L155,37,M155,37L159,35M19,34L9,40,M19,34L14,26,M12,26L14,26,M11,26L12,26,M11,26L4,34,M4,34L9,40M70,33L72,41,M70,33L70,33,M71,32L70,33,M71,32L75,36,M75,36L75,40,M75,40L74,41,M73,41L74,41,M72,41L73,41M110,31L106,36,M110,31L114,39,M114,39L106,45,M106,36L106,45M123,32L116,37,M123,32L125,42,M125,42L125,42,M119,41L125,42,M118,41L119,41,M115,39L118,41,M116,37L115,39M19,34L9,40,M19,34L24,37,M24,37L25,39,M25,39L23,44,M23,44L18,48,M14,47L18,48,M14,47L9,40M70,33L68,39,M70,33L70,33,M68,33L70,33,M68,33L65,37,M65,37L66,39,M66,39L68,39M70,33L68,39,M70,33L72,41,M68,39L72,41M78,33L75,36,M78,33L83,35,M83,35L82,38,M75,40L82,38,M75,36L75,40M99,37L103,35,M99,37L95,40,M95,40L96,45,M96,45L96,46,M96,46L105,46,M106,45L105,46,M106,36L106,45,M104,35L106,36,M103,35L104,35M147,41L151,39,M146,41L147,41,M144,35L146,41,M144,35L151,33,M151,33L151,33,M151,33L152,35,M152,35L151,39M156,38L161,39,M155,37L156,38,M155,37L159,35,M159,35L161,35,M161,35L161,39M58,40L65,40,M60,36L58,40,M60,36L64,36,M64,36L65,37,M65,37L66,39,M66,39L65,40M83,40L85,45,M82,38L83,40,M83,35L82,38,M86,32L83,35,M86,32L88,32,M88,32L91,34,M91,34L95,40,M95,40L96,45,M85,45L96,45M135,36L140,37,M132,37L135,36,M132,37L130,43,M130,43L135,45,M135,45L137,44,M140,37L137,44M161,35L161,39,M161,35L162,35,M162,35L166,35,M166,35L170,38,M161,39L162,41M35,38L44,46,M34,35L35,38,M34,35L34,35,M35,34L34,35,M35,34L46,36,M46,36L47,37,M47,37L49,40,M49,40L44,46M156,38L161,39,M156,38L156,43,M156,43L156,43,M156,43L159,43,M159,43L160,43,M160,43L162,41,M161,39L162,41M58,40L65,40,M58,40L55,42,M55,42L61,44,M61,44L65,43,M65,40L65,43M140,37L137,44,M140,37L142,35,M142,35L144,35,M144,35L146,41,M143,45L146,41,M137,44L143,45M151,39L153,42,M152,35L151,39,M152,35L155,37,M155,37L156,38,M156,38L156,43,M153,42L156,43M83,40L76,45,M82,38L83,40,M75,40L82,38,M75,40L74,41,M74,41L76,45M150,43L153,42,M147,41L150,43,M147,41L151,39,M151,39L153,42M65,40L65,43,M66,39L65,40,M66,39L68,39,M68,39L72,41,M72,41L73,41,M73,41L69,46,M67,45L69,46,M65,43L67,45M83,40L76,45,M83,40L85,45,M85,45L83,47,M78,47L83,47,M77,47L78,47,M76,45L77,47M35,38L35,48,M34,35L35,38,M34,35L25,39,M25,39L23,44,M23,44L35,48M35,38L44,46,M35,38L35,48,M35,48L37,50,M43,48L37,50,M44,46L43,48M111,47L116,44,M106,47L111,47,M105,46L106,47,M106,45L105,46,M114,39L106,45,M114,39L115,39,M115,39L118,41,M118,41L116,44M160,43L165,47,M160,43L162,41,M162,41L165,42,M165,42L165,47M150,43L153,42,M150,43L151,48,M151,48L153,48,M153,48L156,43,M156,43L156,43,M153,42L156,43M165,42L165,47,M165,42L170,39,M165,47L165,47M61,44L63,48,M61,44L65,43,M65,43L67,45,M67,45L63,48,M63,48L63,48M69,48L73,50,M69,46L69,48,M73,41L69,46,M73,41L74,41,M74,41L76,45,M76,45L77,47,M77,47L73,50M116,44L116,46,M111,47L116,44,M111,47L113,47,M113,47L116,46M116,44L116,46,M118,41L116,44,M118,41L119,41,M119,41L117,46,M116,46L117,46M150,43L151,48,M147,41L150,43,M146,41L147,41,M143,45L146,41,M143,45L144,47,M144,47L150,48,M150,48L151,48M160,43L165,47,M159,43L160,43,M159,43L161,49,M161,49L165,47,M165,47L165,47M0,43L9,51,M14,47L9,51,M14,47L9,40,M4,34L9,40,M0,35L4,34M61,44L63,48,M55,42L61,44,M55,42L55,42,M55,42L55,44,M55,44L59,51,M63,48L59,51M115,48L117,46,M115,48L115,48,M113,47L115,48,M113,47L116,46,M116,46L117,46,M117,46L117,46M115,48L117,46,M115,48L117,48,M118,47L117,48,M117,46L118,47M119,41L117,46,M119,41L125,42,M125,42L119,47,M118,47L119,47,M117,46L118,47,M117,46L117,46M159,43L161,49,M156,43L159,43,M153,48L156,43,M153,48L158,53,M158,53L158,53,M158,53L161,49M0,43L9,51,M9,51L9,52,M0,48L9,52M117,48L117,49,M115,48L117,48,M115,48L115,48,M115,48L116,50,M117,49L116,50M55,44L52,52,M55,42L55,44,M51,40L55,42,M49,40L51,40,M49,40L44,46,M44,46L43,48,M43,48L45,50,M45,50L52,52M69,48L66,52,M69,46L69,48,M67,45L69,46,M67,45L63,48,M63,48L66,52M118,47L117,48,M118,47L119,47,M119,47L119,48,M117,49L119,48,M117,48L117,49M120,51L128,44,M119,48L120,51,M119,47L119,48,M125,42L119,47,M125,42L125,42,M125,42L128,43,M128,43L128,44M117,49L119,48,M117,49L116,50,M116,50L116,53,M116,53L120,53,M120,53L120,53,M120,51L120,53,M119,48L120,51M120,51L128,44,M120,51L120,53,M120,53L121,53,M121,53L127,49,M128,44L127,49M136,47L142,53,M135,45L136,47,M135,45L135,45,M135,45L137,44,M137,44L143,45,M143,45L144,47,M144,47L143,52,M142,53L143,52M21,54L37,51,M21,54L18,48,M23,44L18,48,M23,44L35,48,M35,48L37,50,M37,50L37,51,M37,51L37,51M55,44L52,52,M55,44L59,51,M59,51L59,52,M55,53L59,52,M53,53L55,53,M52,52L53,53M63,48L66,52,M63,48L63,48,M63,48L59,51,M59,51L59,52,M59,52L62,55,M62,55L64,56,M64,56L65,55,M66,53L65,55,M66,52L66,53M78,47L78,54,M77,47L78,47,M77,47L73,50,M73,50L73,51,M73,51L73,53,M73,53L77,54,M77,54L78,54M84,52L88,55,M83,47L84,52,M85,45L83,47,M85,45L96,45,M96,45L96,46,M96,46L95,50,M95,50L90,55,M88,55L90,55M115,48L116,50,M113,47L115,48,M111,47L113,47,M106,47L111,47,M106,47L106,48,M106,48L115,53,M115,53L116,53,M116,50L116,53M135,45L131,57,M135,45L135,45,M130,43L135,45,M128,43L130,43,M128,43L128,44,M128,44L127,49,M127,49L127,50,M127,50L130,56,M130,56L131,57M0,52L7,53,M9,52L7,53,M0,48L9,52M66,53L73,51,M66,52L66,53,M69,48L66,52,M69,48L73,50,M73,50L73,51M78,47L78,54,M78,47L83,47,M83,47L84,52,M84,52L80,55,M78,54L80,55M135,45L131,57,M135,45L136,47,M136,47L137,61,M137,61L137,61,M136,61L137,61,M131,57L136,61M150,48L148,55,M144,47L150,48,M144,47L143,52,M143,52L148,55M149,56L158,53,M148,55L149,56,M150,48L148,55,M150,48L151,48,M151,48L153,48,M153,48L158,53M66,53L73,51,M66,53L65,55,M65,55L68,57,M68,57L70,57,M73,53L70,57,M73,51L73,53M127,50L123,56,M127,49L127,50,M121,53L127,49,M121,53L123,56M136,47L137,61,M136,47L142,53,M137,61L142,53M165,55L168,49,M161,56L165,55,M159,55L161,56,M158,53L159,55,M158,53L161,49,M161,49L165,47,M165,47L168,49M166,56L170,55,M165,55L166,56,M165,55L168,49,M168,49L170,49M21,54L37,51,M21,54L21,55,M21,55L23,58,M23,58L28,57,M37,51L28,57M127,50L123,56,M127,50L130,56,M124,58L130,56,M123,56L124,58M0,56L5,57,M7,57L5,57,M7,53L7,57,M0,52L7,53M98,57L105,56,M95,50L98,57,M96,46L95,50,M96,46L105,46,M105,46L106,47,M106,47L106,48,M106,48L107,54,M107,54L105,56M46,54L52,56,M45,50L46,54,M45,50L52,52,M52,52L53,53,M53,53L52,56M88,55L81,61,M84,52L88,55,M84,52L80,55,M80,55L81,61,M81,61L81,61M115,55L112,59,M115,53L115,55,M106,48L115,53,M106,48L107,54,M107,54L111,59,M111,59L112,59M120,53L118,58,M116,53L120,53,M115,53L116,53,M115,53L115,55,M115,55L118,58M46,54L46,58,M45,50L46,54,M43,48L45,50,M43,48L37,50,M37,50L37,51,M37,51L37,56,M37,56L40,59,M40,59L43,61,M43,61L43,61,M46,58L43,61,M46,58L46,58M46,54L52,56,M46,54L46,58,M46,58L48,59,M48,59L52,58,M52,56L52,58M55,53L56,59,M53,53L55,53,M53,53L52,56,M52,56L52,58,M52,58L53,60,M53,60L54,60,M54,60L56,59M55,53L56,59,M55,53L59,52,M59,52L62,55,M62,55L58,60,M56,59L58,60M77,54L75,58,M73,53L77,54,M73,53L70,57,M70,57L72,58,M72,58L75,58M120,53L118,58,M120,53L120,53,M120,53L121,53,M121,53L123,56,M123,56L124,58,M124,58L122,61,M119,61L122,61,M118,58L119,61M143,52L148,55,M142,53L143,52,M137,61L142,53,M137,61L137,61,M137,61L138,62,M138,62L148,62,M149,56L148,62,M148,55L149,56M166,56L168,59,M166,56L170,55,M168,59L170,59M0,56L5,57,M5,57L5,58,M5,58L0,60M37,51L28,57,M37,51L37,51,M37,51L37,56,M37,56L33,60,M28,57L33,60M77,54L75,58,M77,54L78,54,M78,54L80,55,M80,55L81,61,M79,62L81,61,M75,58L79,62M98,57L105,56,M98,57L98,59,M98,59L103,64,M105,56L103,64M115,55L118,58,M115,55L112,59,M112,59L117,62,M117,62L119,61,M118,58L119,61M149,56L158,53,M149,56L148,62,M148,62L149,63,M149,63L155,61,M155,61L159,55,M158,53L159,55,M158,53L158,53M7,58L14,61,M7,58L7,57,M7,53L7,57,M9,52L7,53,M9,51L9,52,M14,47L9,51,M14,47L18,48,M21,54L18,48,M21,54L21,55,M21,55L14,61M93,63L98,59,M92,62L93,63,M90,57L92,62,M90,55L90,57,M95,50L90,55,M95,50L98,57,M98,57L98,59M105,56L103,64,M107,54L105,56,M107,54L111,59,M111,59L107,66,M105,66L107,66,M103,64L105,66,M103,64L103,64M166,56L168,59,M165,55L166,56,M161,56L165,55,M161,56L163,62,M163,62L165,64,M165,64L168,59M28,57L33,60,M23,58L28,57,M23,58L24,64,M27,68L24,64,M27,68L31,70,M33,65L31,70,M33,60L33,65M48,61L50,63,M46,58L48,61,M46,58L46,58,M46,58L48,59,M48,59L50,63,M50,63L50,63M48,59L50,63,M48,59L52,58,M52,58L53,60,M53,60L52,62,M52,62L51,63,M50,63L51,63M64,60L61,61,M64,56L64,60,M62,55L64,56,M62,55L58,60,M58,60L59,61,M59,61L61,61M64,60L61,61,M64,60L64,62,M64,62L64,63,M61,62L64,63,M61,61L61,62M64,62L68,60,M64,60L64,62,M64,56L64,60,M64,56L65,55,M65,55L68,57,M68,57L68,60,M68,60L68,60M90,57L85,63,M90,55L90,57,M88,55L90,55,M88,55L81,61,M81,61L83,62,M83,62L85,63M126,63L134,63,M123,62L126,63,M122,61L123,62,M124,58L122,61,M124,58L130,56,M130,56L131,57,M131,57L136,61,M134,63L136,61M155,61L159,64,M155,61L159,55,M159,55L161,56,M161,56L163,62,M159,64L163,62M5,58L2,64,M5,58L0,60,M0,64L2,64M5,58L2,64,M5,57L5,58,M7,57L5,57,M7,58L7,57,M7,58L8,62,M8,62L6,66,M2,64L6,66M39,61L33,65,M40,59L39,61,M37,56L40,59,M37,56L33,60,M33,60L33,65M48,61L48,63,M48,61L50,63,M50,63L49,63,M48,63L49,63M64,62L68,60,M64,62L64,63,M64,63L64,63,M64,63L67,63,M68,60L67,63M68,60L71,63,M68,57L68,60,M68,57L70,57,M70,57L72,58,M72,58L72,62,M72,62L71,63M72,62L77,65,M72,58L72,62,M72,58L75,58,M75,58L79,62,M79,62L77,65M90,57L85,63,M90,57L92,62,M86,64L92,62,M85,63L86,64M168,59L170,59,M165,64L168,59,M165,64L168,70,M168,70L170,70M8,62L13,65,M7,58L8,62,M7,58L14,61,M14,61L14,62,M14,62L13,65M14,62L20,65,M14,61L14,62,M21,55L14,61,M21,55L23,58,M23,58L24,64,M20,65L24,64M39,61L35,71,M39,61L33,65,M33,65L31,70,M31,70L33,72,M33,72L35,71M48,61L48,63,M46,58L48,61,M46,58L43,61,M43,61L48,63M54,60L56,65,M53,60L54,60,M53,60L52,62,M52,62L55,66,M55,66L56,65M54,60L56,65,M54,60L56,59,M56,59L58,60,M58,60L59,61,M59,61L58,65,M56,65L58,65M61,62L63,64,M61,61L61,62,M59,61L61,61,M59,61L58,65,M58,65L60,66,M60,66L60,66,M63,64L60,66M68,60L71,63,M68,60L68,60,M68,60L67,63,M67,63L68,63,M68,63L71,63,M71,63L71,63M93,64L103,64,M93,63L93,64,M93,63L98,59,M98,59L103,64,M103,64L103,64M14,62L20,65,M14,62L13,65,M13,65L13,65,M13,65L16,67,M16,67L16,67,M20,65L16,67M39,61L35,71,M40,59L39,61,M40,59L43,61,M43,61L43,68,M43,68L43,69,M35,71L43,69M43,61L48,63,M43,61L43,61,M43,61L43,68,M43,68L47,67,M49,63L47,67,M48,63L49,63M52,62L55,66,M52,62L51,63,M51,63L52,66,M52,66L54,66,M55,66L54,66M61,62L63,64,M61,62L64,63,M64,63L64,63,M64,63L64,64,M63,64L64,64M64,64L68,66,M64,64L64,64,M64,63L64,64,M64,63L67,63,M67,63L68,63,M68,63L68,66M71,63L72,68,M71,63L71,63,M72,62L71,63,M72,62L77,65,M77,65L77,67,M72,68L77,67M112,69L117,64,M107,66L112,69,M111,59L107,66,M111,59L112,59,M112,59L117,62,M117,62L117,64M8,62L13,65,M8,62L6,66,M6,68L6,66,M7,69L6,68,M7,69L8,70,M13,65L8,70,M13,65L13,65M51,63L52,66,M50,63L51,63,M50,63L50,63,M50,63L49,63,M49,63L47,67,M47,67L49,67,M49,67L50,67,M52,66L50,67M64,64L68,66,M64,64L65,67,M65,67L68,68,M68,66L68,68M86,64L87,69,M86,64L92,62,M92,62L93,63,M93,63L93,64,M93,64L93,70,M93,70L93,70,M93,70L93,70,M87,69L93,70M93,64L103,64,M93,64L93,70,M93,70L104,67,M105,66L104,67,M103,64L105,66M126,63L126,69,M123,62L126,63,M123,62L123,70,M123,70L126,69M155,67L159,65,M149,65L155,67,M149,63L149,65,M149,63L155,61,M155,61L159,64,M159,65L159,64M64,64L65,67,M64,64L64,64,M63,64L64,64,M63,64L60,66,M60,66L62,67,M62,67L65,67M71,63L72,68,M68,63L71,63,M68,63L68,66,M68,66L68,68,M68,68L69,70,M69,70L72,68M83,62L83,70,M83,62L85,63,M85,63L86,64,M86,64L87,69,M85,70L87,69,M83,70L85,70M117,64L122,70,M117,62L117,64,M117,62L119,61,M119,61L122,61,M122,61L123,62,M123,62L123,70,M122,70L123,70M126,63L126,69,M126,63L134,63,M134,63L133,64,M129,69L133,64,M126,69L129,69M0,67L4,68,M4,68L6,68,M6,68L6,66,M2,64L6,66,M0,64L2,64M83,62L83,70,M81,61L83,62,M81,61L81,61,M79,62L81,61,M79,62L77,65,M77,65L77,67,M77,67L77,68,M77,68L80,69,M80,69L81,69,M81,69L83,70M117,64L122,70,M112,69L117,64,M112,69L112,70,M112,70L114,71,M114,71L120,73,M122,70L120,73M159,65L160,68,M159,65L159,64,M159,64L163,62,M163,62L165,64,M165,64L168,70,M165,71L168,70,M160,68L165,71M16,68L21,72,M16,68L16,67,M20,65L16,67,M20,65L24,64,M27,68L24,64,M27,68L21,72M54,68L58,69,M54,66L54,68,M55,66L54,66,M55,66L56,65,M56,65L58,65,M58,65L60,66,M60,66L58,69M156,69L159,68,M155,67L156,69,M155,67L159,65,M159,65L160,68,M159,68L160,68M16,67L12,76,M13,65L16,67,M13,65L8,70,M10,75L8,70,M10,75L12,76M50,67L52,69,M52,66L50,67,M52,66L54,66,M54,66L54,68,M54,68L54,69,M52,69L54,69,M52,69L52,69M50,69L52,69,M50,69L51,70,M51,70L51,70,M52,70L51,70,M52,69L52,70,M52,69L52,69M54,68L58,69,M54,68L54,69,M54,69L54,71,M54,71L54,73,M54,73L56,73,M56,73L57,73,M58,70L57,73,M58,69L58,70M62,67L65,67,M62,67L63,69,M63,69L66,71,M66,71L69,71,M69,70L69,71,M68,68L69,70,M65,67L68,68M141,68L148,71,M139,65L141,68,M138,62L139,65,M138,62L148,62,M148,62L149,63,M149,63L149,65,M149,65L148,71M157,72L159,68,M157,72L158,74,M158,74L158,74,M158,74L163,73,M163,73L165,71,M160,68L165,71,M159,68L160,68M4,68L1,70,M0,67L4,68,M0,70L1,70M46,71L51,70,M44,70L46,71,M43,69L44,70,M43,68L43,69,M43,68L47,67,M47,67L49,67,M49,67L50,69,M50,69L51,70M50,69L52,69,M49,67L50,69,M49,67L50,67,M50,67L52,69M52,70L54,71,M52,70L51,70,M51,70L52,72,M52,72L53,73,M53,73L54,73,M54,71L54,73M139,69L142,73,M139,65L139,69,M139,65L141,68,M141,68L143,73,M142,73L143,73M149,72L156,70,M148,71L149,72,M148,71L148,71,M149,65L148,71,M149,65L155,67,M155,67L156,69,M156,69L156,70M157,72L159,68,M156,70L157,72,M156,69L156,70,M156,69L159,68M4,68L1,70,M4,68L6,68,M7,69L6,68,M7,69L2,71,M2,71L1,70M16,68L15,79,M16,68L16,67,M16,67L16,67,M16,67L12,76,M12,76L14,79,M14,79L15,79M16,68L15,79,M16,68L21,72,M21,72L16,80,M15,79L16,80M47,72L52,72,M46,71L47,72,M46,71L51,70,M51,70L51,70,M51,70L52,72M52,70L54,71,M52,69L52,70,M52,69L54,69,M54,69L54,71M63,69L61,71,M62,67L63,69,M60,66L62,67,M60,66L60,66,M60,66L58,69,M58,69L58,70,M58,70L61,71M63,69L61,71,M63,69L66,71,M66,71L63,74,M61,71L63,74M133,64L135,71,M129,69L133,64,M129,69L131,74,M131,74L132,75,M132,75L135,71M133,64L135,71,M134,63L133,64,M134,63L136,61,M136,61L137,61,M137,61L138,62,M138,62L139,65,M139,65L139,69,M139,69L138,72,M135,71L138,72M141,68L148,71,M141,68L143,73,M143,73L146,75,M146,75L147,74,M147,74L148,71,M148,71L148,71M61,71L63,74,M58,70L61,71,M58,70L57,73,M57,73L61,76,M63,74L61,76M93,70L101,73,M93,70L93,70,M93,70L104,67,M104,67L104,69,M104,69L101,73M139,69L142,73,M139,69L138,72,M138,72L138,73,M138,73L142,73M149,72L156,70,M149,72L158,74,M157,72L158,74,M156,70L157,72M2,71L1,70,M2,71L2,73,M2,73L0,74,M0,70L1,70M7,69L2,71,M7,69L8,70,M10,75L8,70,M7,75L10,75,M2,73L7,75,M2,71L2,73M47,72L52,72,M47,72L50,77,M50,77L51,77,M53,73L51,77,M52,72L53,73M70,74L77,74,M69,71L70,74,M69,70L69,71,M69,70L72,68,M72,68L77,67,M77,67L77,68,M77,68L77,74M80,69L80,74,M80,69L81,69,M81,69L81,74,M80,74L81,74M81,69L81,74,M81,69L83,70,M83,70L85,70,M85,70L85,74,M81,74L85,74M93,70L101,73,M93,70L93,70,M93,70L94,79,M94,79L98,78,M101,73L98,78M112,70L108,76,M112,69L112,70,M107,66L112,69,M105,66L107,66,M105,66L104,67,M104,67L104,69,M104,69L106,75,M106,75L108,76M123,76L131,74,M121,75L123,76,M121,75L121,75,M120,73L121,75,M122,70L120,73,M122,70L123,70,M123,70L126,69,M126,69L129,69,M129,69L131,74M132,75L135,71,M132,75L132,75,M132,75L133,77,M133,77L136,77,M138,73L136,77,M138,72L138,73,M135,71L138,72M80,69L80,74,M77,68L80,69,M77,68L77,74,M77,74L78,75,M78,75L80,74M85,70L85,74,M85,70L87,69,M87,69L93,70,M93,70L94,79,M94,79L93,80,M85,75L93,80,M85,74L85,75M149,72L158,74,M148,71L149,72,M147,74L148,71,M147,74L150,75,M150,75L157,76,M157,76L158,74,M158,74L158,74M2,73L7,75,M2,73L0,74,M7,75L2,78M101,73L98,78,M104,69L101,73,M104,69L106,75,M104,76L106,75,M99,79L104,76,M98,78L99,79M110,78L113,75,M108,76L110,78,M112,70L108,76,M112,70L114,71,M114,71L113,75,M113,75L113,75M138,73L142,73,M138,73L136,77,M136,77L137,78,M137,78L143,79,M143,79L146,76,M146,75L146,76,M143,73L146,75,M142,73L143,73M44,70L44,78,M43,69L44,70,M35,71L43,69,M33,72L35,71,M33,72L33,74,M33,74L41,79,M41,79L44,78M47,72L50,77,M46,71L47,72,M44,70L46,71,M44,70L44,78,M44,78L47,79,M50,77L47,79M71,77L77,77,M70,75L71,77,M70,74L70,75,M70,74L77,74,M77,74L78,75,M78,75L78,76,M77,77L78,76M81,74L85,74,M80,74L81,74,M78,75L80,74,M78,75L78,76,M78,76L80,78,M80,78L82,78,M82,78L85,75,M85,74L85,75M113,75L117,77,M114,71L113,75,M114,71L120,73,M120,73L121,75,M119,76L121,75,M117,77L119,76M125,78L132,75,M123,76L125,78,M123,76L131,74,M131,74L132,75,M132,75L132,75M21,72L16,80,M27,68L21,72,M27,68L31,70,M31,70L33,72,M33,72L33,74,M33,74L32,78,M32,78L31,79,M31,79L29,82,M29,82L22,87,M22,87L22,87,M22,87L16,80M56,73L55,77,M54,73L56,73,M53,73L54,73,M53,73L51,77,M51,77L53,78,M53,78L55,77M56,73L55,77,M56,73L57,73,M57,73L61,76,M61,76L61,78,M55,77L61,78M62,79L70,75,M61,78L62,79,M61,78L61,78,M61,76L61,78,M63,74L61,76,M66,71L63,74,M66,71L69,71,M69,71L70,74,M70,74L70,75M113,75L115,78,M110,78L113,75,M110,78L110,78,M110,78L113,79,M113,79L115,78M113,75L117,77,M113,75L113,75,M113,75L115,78,M115,78L117,77M125,78L132,75,M125,78L128,83,M128,83L133,77,M132,75L133,77M150,75L155,79,M150,75L157,76,M156,79L157,76,M155,79L156,79M150,75L155,79,M147,74L150,75,M146,75L147,74,M146,75L146,76,M146,76L147,78,M147,78L155,79M55,77L61,78,M53,78L55,77,M53,78L53,79,M53,79L58,81,M61,78L58,81,M61,78L61,78M62,79L70,75,M62,79L63,80,M63,80L71,80,M71,77L71,80,M70,75L71,77M71,77L77,77,M71,77L71,80,M71,80L71,80,M71,80L74,82,M74,82L75,81,M77,77L75,81M104,76L107,82,M99,79L104,76,M99,79L105,84,M105,84L107,83,M107,82L107,83M104,76L107,82,M104,76L106,75,M106,75L108,76,M108,76L110,78,M110,78L110,78,M110,78L107,82M156,79L163,84,M156,79L156,79,M156,79L157,76,M157,76L158,74,M158,74L163,73,M163,73L165,83,M163,84L165,83M163,73L165,83,M163,73L165,71,M165,71L168,70,M168,70L170,70,M165,83L170,83M82,78L83,81,M82,78L85,75,M85,75L93,80,M93,80L92,82,M83,81L92,82M147,78L155,79,M147,78L152,85,M152,85L156,79,M156,79L156,79,M155,79L156,79M4,83L2,78,M4,83L7,84,M14,79L7,84,M12,76L14,79,M10,75L12,76,M7,75L10,75,M7,75L2,78M32,78L40,84,M33,74L32,78,M33,74L41,79,M41,79L40,84M75,81L79,81,M77,77L75,81,M77,77L78,76,M78,76L80,78,M80,78L79,79,M79,79L79,81M79,79L81,82,M80,78L79,79,M80,78L82,78,M82,78L83,81,M83,81L83,82,M81,82L83,82M119,76L117,82,M117,77L119,76,M115,78L117,77,M113,79L115,78,M113,79L113,80,M113,80L116,83,M116,83L117,82M117,82L121,82,M119,76L117,82,M119,76L121,75,M121,75L121,75,M121,75L121,82,M121,82L121,82M121,82L128,83,M121,75L121,82,M121,75L123,76,M123,76L125,78,M125,78L128,83,M128,83L128,83M137,78L134,87,M136,77L137,78,M133,77L136,77,M128,83L133,77,M128,83L128,83,M128,83L128,83,M128,83L132,87,M132,87L134,87M0,82L2,83,M2,83L4,83,M4,83L2,78,M0,77L2,78M32,78L40,84,M32,78L31,79,M31,79L38,85,M40,84L38,85,M40,84L40,84M41,79L40,84,M41,79L44,78,M44,78L47,79,M47,79L47,83,M47,83L47,84,M44,86L47,84,M40,84L44,86,M40,84L40,84M47,83L53,80,M47,79L47,83,M50,77L47,79,M50,77L51,77,M51,77L53,78,M53,78L53,79,M53,79L53,80M79,79L81,82,M79,79L79,81,M79,81L79,84,M79,84L81,82M113,80L110,86,M113,80L116,83,M116,83L115,86,M115,86L114,88,M112,88L114,88,M110,86L112,88M137,78L134,87,M137,78L143,79,M143,79L142,82,M139,86L142,82,M134,87L139,86,M134,87L134,87M47,83L53,80,M47,83L47,84,M47,84L52,87,M53,86L52,87,M54,85L53,86,M53,80L54,85M53,79L58,81,M53,79L53,80,M53,80L54,85,M54,85L57,83,M58,81L57,83M71,80L68,85,M71,80L71,80,M63,80L71,80,M63,80L64,87,M64,87L68,85M75,81L79,81,M74,82L75,81,M74,82L74,82,M74,82L76,84,M76,84L78,84,M79,84L78,84,M79,81L79,84M113,80L110,86,M113,79L113,80,M110,78L113,79,M110,78L107,82,M107,82L107,83,M107,83L110,86M142,82L148,88,M143,79L142,82,M143,79L146,76,M146,76L147,78,M147,78L152,85,M152,85L152,86,M149,88L152,86,M148,88L149,88M156,79L163,84,M152,85L156,79,M152,85L152,86,M152,86L160,90,M160,90L160,90,M160,90L163,84M57,83L61,87,M58,81L57,83,M61,78L58,81,M61,78L62,79,M62,79L63,80,M63,80L64,87,M64,87L63,88,M61,87L63,88M74,82L71,86,M74,82L74,82,M71,80L74,82,M71,80L68,85,M68,85L71,86M83,82L84,90,M83,81L83,82,M83,81L92,82,M92,82L92,84,M92,84L88,90,M86,90L88,90,M84,90L86,90M99,79L105,84,M98,78L99,79,M94,79L98,78,M94,79L93,80,M93,80L92,82,M92,82L92,84,M92,84L100,89,M100,89L101,89,M105,84L101,89M115,86L121,84,M116,83L115,86,M116,83L117,82,M117,82L121,82,M121,82L121,84M2,83L0,86,M0,82L2,83,M0,86L0,86M2,83L0,86,M2,83L4,83,M4,83L7,84,M7,84L6,86,M3,87L6,86,M0,86L3,87M83,82L84,90,M81,82L83,82,M79,84L81,82,M79,84L78,84,M78,84L82,90,M82,90L84,90M121,84L122,87,M121,82L121,84,M121,82L121,82,M121,82L128,83,M128,83L128,83,M123,87L128,83,M122,87L123,87M29,82L37,88,M31,79L29,82,M31,79L38,85,M38,85L37,87,M37,87L37,88M53,86L61,87,M54,85L53,86,M54,85L57,83,M57,83L61,87M74,82L71,86,M74,82L76,84,M76,84L73,90,M71,86L73,90M115,86L121,84,M115,86L114,88,M114,88L118,91,M118,91L122,87,M121,84L122,87M29,82L37,88,M29,82L22,87,M23,88L22,87,M23,88L28,92,M28,92L34,91,M34,91L36,91,M37,88L36,91M37,87L41,89,M38,85L37,87,M40,84L38,85,M40,84L44,86,M44,86L44,88,M41,89L44,88M53,86L61,87,M53,86L52,87,M52,87L52,89,M52,89L53,90,M53,90L63,93,M63,88L63,93,M61,87L63,88M3,87L1,91,M0,86L3,87,M0,86L0,86,M0,90L1,91M7,87L11,91,M7,87L6,86,M7,84L6,86,M14,79L7,84,M14,79L15,79,M15,79L16,80,M22,87L16,80,M22,87L17,90,M11,91L17,90M68,85L71,86,M64,87L68,85,M64,87L63,88,M63,88L63,93,M63,93L63,93,M63,93L64,94,M64,94L73,90,M73,90L73,90,M71,86L73,90M76,84L73,90,M76,84L78,84,M78,84L82,90,M77,93L82,90,M73,90L77,93,M73,90L73,90M123,87L126,93,M123,87L128,83,M128,83L132,87,M132,87L129,93,M126,93L129,93M142,82L148,88,M139,86L142,82,M139,86L142,90,M142,90L148,88M105,84L101,89,M105,84L107,83,M107,83L110,86,M110,86L112,88,M106,95L112,88,M103,93L106,95,M101,89L103,93M164,94L170,90,M160,90L164,94,M160,90L163,84,M163,84L165,83,M165,83L170,83M3,87L1,91,M3,87L6,86,M7,87L6,86,M7,87L4,94,M4,94L1,91M44,88L46,93,M44,86L44,88,M44,86L47,84,M47,84L52,87,M52,87L52,89,M51,90L52,89,M46,93L51,90M123,87L126,93,M122,87L123,87,M118,91L122,87,M118,91L119,94,M119,94L126,93M7,87L4,94,M7,87L11,91,M11,91L7,96,M7,96L7,96,M5,96L7,96,M4,96L5,96,M4,96L4,96,M4,96L4,94M41,89L40,93,M37,87L41,89,M37,87L37,88,M37,88L36,91,M36,91L40,93M136,90L141,93,M134,87L136,90,M134,87L139,86,M139,86L142,90,M142,92L142,90,M141,93L142,92M41,89L40,93,M41,89L44,88,M44,88L46,93,M46,93L45,94,M40,93L45,94,M40,93L40,93M94,94L100,89,M91,93L94,94,M90,93L91,93,M88,90L90,93,M92,84L88,90,M92,84L100,89M136,90L137,95,M134,87L136,90,M134,87L134,87,M132,87L134,87,M132,87L129,93,M129,93L131,97,M131,97L137,95M136,90L141,93,M136,90L137,95,M137,95L140,96,M140,96L141,93M149,94L158,92,M149,88L149,94,M149,88L152,86,M152,86L160,90,M158,92L160,90M0,90L1,91,M4,94L1,91,M4,96L4,94,M0,97L4,96M11,91L7,96,M11,91L17,90,M17,90L13,98,M7,96L13,98M94,94L100,89,M94,94L98,96,M98,96L103,93,M101,89L103,93,M100,89L101,89M142,92L148,95,M142,92L142,90,M142,90L148,88,M148,88L149,88,M149,88L149,94,M149,96L149,94,M148,95L149,96M164,94L170,90,M164,94L164,94,M164,94L165,96,M165,96L167,99,M167,99L170,99M51,90L50,98,M51,90L52,89,M52,89L53,90,M53,90L53,98,M51,98L53,98,M50,98L51,98M53,90L53,98,M53,90L63,93,M63,93L63,93,M55,99L63,93,M55,99L55,99,M53,98L55,99M106,95L112,88,M106,95L108,100,M108,100L109,101,M109,101L118,98,M119,94L118,98,M118,91L119,94,M114,88L118,91,M112,88L114,88M142,92L148,95,M141,93L142,92,M140,96L141,93,M140,96L141,97,M141,97L148,95M149,94L158,92,M149,96L149,94,M149,96L150,98,M150,98L155,98,M155,98L158,92M37,97L34,91,M37,97L37,97,M33,98L37,97,M31,97L33,98,M31,97L29,94,M28,92L29,94,M28,92L34,91M37,97L34,91,M37,97L39,97,M40,93L39,97,M40,93L40,93,M36,91L40,93,M34,91L36,91M39,97L45,97,M39,97L39,97,M40,93L39,97,M40,93L45,94,M45,94L46,96,M46,96L45,97M51,90L50,98,M46,93L51,90,M46,93L45,94,M45,94L46,96,M46,96L50,98M64,94L73,90,M64,94L65,96,M65,96L66,98,M66,98L73,100,M73,100L77,97,M77,93L77,97,M73,90L77,93M14,99L20,98,M14,99L13,98,M17,90L13,98,M22,87L17,90,M22,87L22,87,M23,88L22,87,M23,88L20,98M86,90L83,99,M84,90L86,90,M82,90L84,90,M77,93L82,90,M77,93L77,97,M77,97L78,97,M78,97L83,99M91,93L96,99,M91,93L94,94,M94,94L98,96,M98,96L97,99,M96,99L97,99M118,98L129,104,M118,98L118,98,M119,94L118,98,M119,94L126,93,M126,93L129,93,M129,93L131,97,M131,97L130,103,M129,104L130,103M156,99L164,94,M155,98L156,99,M155,98L158,92,M158,92L160,90,M160,90L160,90,M160,90L164,94,M164,94L164,94M39,97L45,97,M39,97L40,101,M40,101L42,102,M42,102L44,101,M45,97L44,101M86,90L83,99,M86,90L88,90,M88,90L90,93,M90,93L89,105,M89,105L89,105,M87,105L89,105,M83,99L87,105M91,93L96,99,M90,93L91,93,M90,93L89,105,M89,105L94,103,M94,103L96,99M156,99L164,94,M156,99L158,101,M158,101L165,96,M164,94L165,96M24,102L26,100,M21,101L24,102,M20,98L21,101,M23,88L20,98,M23,88L28,92,M28,92L29,94,M29,94L26,100M37,97L36,101,M37,97L37,97,M37,97L39,97,M39,97L39,97,M39,97L40,101,M37,102L40,101,M36,101L37,102,M36,101L36,101M97,99L101,101,M98,96L97,99,M98,96L103,93,M103,93L106,95,M106,95L108,100,M107,101L108,100,M101,101L107,101M130,103L141,102,M131,97L130,103,M131,97L137,95,M137,95L140,96,M140,96L141,97,M141,97L141,102M141,97L148,95,M141,97L141,102,M141,102L142,102,M142,102L142,103,M142,103L147,102,M147,102L149,101,M149,101L150,98,M149,96L150,98,M148,95L149,96M10,103L7,96,M10,103L12,103,M14,99L12,103,M14,99L14,99,M14,99L13,98,M7,96L13,98,M7,96L7,96M14,99L19,102,M14,99L14,99,M14,99L20,98,M20,98L21,101,M21,101L19,102M37,97L36,101,M33,98L37,97,M33,98L36,101M51,98L49,102,M50,98L51,98,M46,96L50,98,M46,96L45,97,M45,97L44,101,M44,101L45,102,M45,102L49,102M3,100L0,103,M4,97L3,100,M4,96L4,97,M4,96L4,96,M0,97L4,96M8,105L5,96,M8,105L8,105,M8,105L10,103,M10,103L7,96,M5,96L7,96M33,98L36,101,M31,97L33,98,M31,97L31,101,M33,104L31,101,M33,104L36,101,M36,101L36,101M158,101L165,96,M158,101L158,104,M158,104L159,106,M159,106L161,106,M161,106L167,99,M165,96L167,99M3,100L0,103,M3,100L2,104,M2,104L0,107M3,100L2,104,M4,97L3,100,M5,103L4,97,M2,104L5,103M8,105L5,96,M5,103L8,105,M5,103L4,97,M4,96L4,97,M4,96L5,96M28,103L31,101,M28,103L26,100,M29,94L26,100,M31,97L29,94,M31,97L31,101M55,99L61,102,M55,99L55,99,M55,99L55,106,M55,106L58,108,M61,102L58,108M55,99L61,102,M55,99L63,93,M63,93L64,94,M64,94L65,96,M65,96L61,102M78,97L82,107,M77,97L78,97,M73,100L77,97,M73,100L74,105,M74,105L82,107M78,97L82,107,M78,97L83,99,M83,99L87,105,M83,107L87,105,M82,107L83,107M14,99L19,102,M14,99L12,103,M14,105L12,103,M14,105L19,103,M19,102L19,103M51,98L49,102,M51,98L53,98,M53,98L55,99,M55,99L55,106,M51,106L55,106,M49,102L51,106M61,102L58,108,M65,96L61,102,M65,96L66,98,M66,98L64,109,M60,109L64,109,M58,109L60,109,M58,109L58,108M99,104L101,101,M94,103L99,104,M94,103L96,99,M96,99L97,99,M97,99L101,101M118,98L118,106,M118,98L129,104,M129,104L129,104,M127,108L129,104,M118,106L127,108M152,104L158,104,M149,101L152,104,M149,101L150,98,M150,98L155,98,M155,98L156,99,M156,99L158,101,M158,101L158,104M28,103L26,100,M28,103L28,105,M28,105L25,108,M25,108L25,108,M24,102L25,108,M24,102L26,100M28,105L33,105,M28,103L28,105,M28,103L31,101,M33,104L31,101,M33,104L33,105M37,102L37,105,M36,101L37,102,M33,104L36,101,M33,104L33,105,M34,107L33,105,M34,107L37,105M37,102L37,105,M37,102L40,101,M40,101L42,102,M42,102L41,104,M41,104L40,105,M39,106L40,105,M37,105L39,106M45,105L48,108,M45,102L45,105,M45,102L49,102,M49,102L51,106,M48,108L51,106M100,107L106,102,M99,104L100,107,M99,104L101,101,M101,101L107,101,M106,102L107,101M118,98L118,106,M118,98L118,98,M109,101L118,98,M109,101L110,104,M110,104L116,108,M116,108L118,106M163,107L170,105,M161,106L163,107,M161,106L167,99,M167,99L170,99M24,102L25,108,M21,101L24,102,M21,101L19,102,M19,102L19,103,M21,106L19,103,M21,106L22,107,M22,107L25,108M41,104L43,106,M42,102L41,104,M42,102L44,101,M44,101L45,102,M45,102L45,105,M43,106L45,105M66,98L64,109,M66,98L73,100,M73,100L74,105,M74,105L72,108,M67,110L72,108,M67,110L67,110,M64,109L67,110M2,104L5,103,M2,104L0,107,M5,103L8,105M28,105L33,105,M28,105L25,108,M26,109L25,108,M26,109L31,111,M31,111L33,110,M34,107L33,110,M34,107L33,105M41,104L43,106,M41,104L40,105,M42,110L40,105,M43,106L42,110M99,104L100,107,M94,103L99,104,M89,105L94,103,M89,105L89,105,M89,105L95,113,M95,113L96,113,M96,113L99,110,M100,109L99,110,M100,107L100,109M135,108L139,106,M129,104L135,108,M129,104L129,104,M129,104L130,103,M130,103L141,102,M141,102L142,102,M139,106L142,102M148,106L152,107,M147,106L148,106,M147,102L147,106,M147,102L149,101,M149,101L152,104,M152,104L152,107M9,109L13,110,M9,109L8,106,M8,105L8,106,M8,105L10,103,M10,103L12,103,M14,105L12,103,M14,107L14,105,M14,107L13,110M16,107L21,106,M14,107L16,107,M14,107L14,105,M14,105L19,103,M21,106L19,103M43,106L45,105,M43,106L42,110,M42,110L42,110,M42,110L44,111,M44,111L47,109,M48,108L47,109,M45,105L48,108M100,109L105,107,M100,107L100,109,M100,107L106,102,M106,102L105,107M144,109L147,106,M142,103L144,109,M142,103L147,102,M147,102L147,106M152,104L152,107,M152,104L158,104,M158,104L159,106,M156,111L159,106,M153,112L156,111,M152,107L153,112M39,106L38,110,M37,105L39,106,M34,107L37,105,M34,107L33,110,M33,110L37,111,M37,111L38,110M39,106L38,110,M39,106L40,105,M42,110L40,105,M42,110L42,110,M38,110L42,110M137,110L140,109,M136,110L137,110,M135,108L136,110,M135,108L139,106,M139,106L140,109M139,106L140,109,M139,106L142,102,M142,102L142,103,M142,103L144,109,M144,109L144,109,M142,111L144,109,M140,109L142,111M144,109L147,106,M144,109L144,109,M144,109L148,110,M148,106L148,110,M147,106L148,106M148,106L152,107,M148,106L148,110,M148,110L150,112,M150,112L151,113,M151,113L153,112,M152,107L153,112M0,109L8,106,M9,109L8,106,M9,109L7,112,M0,112L7,112M16,107L21,106,M16,107L18,110,M18,110L19,110,M22,107L19,110,M21,106L22,107M105,107L105,109,M106,102L105,107,M106,102L107,101,M107,101L108,100,M108,100L109,101,M109,101L110,104,M110,104L109,109,M105,109L109,109M118,106L127,108,M116,108L118,106,M116,108L116,110,M116,110L117,113,M117,113L125,113,M125,113L126,113,M127,108L126,113M163,107L170,105,M163,107L164,110,M164,110L170,110M47,109L53,113,M48,108L47,109,M48,108L51,106,M51,106L55,106,M55,106L58,108,M58,109L58,108,M58,109L55,113,M54,114L55,113,M53,113L54,114M100,109L105,107,M100,109L99,110,M99,110L105,110,M105,110L105,109,M105,107L105,109M110,111L116,110,M109,110L110,111,M109,109L109,110,M110,104L109,109,M110,104L116,108,M116,108L116,110M14,112L18,110,M14,112L13,111,M13,111L13,110,M14,107L13,110,M14,107L16,107,M16,107L18,110M14,112L18,110,M15,114L14,112,M15,114L18,115,M18,115L19,115,M19,115L20,115,M19,110L20,115,M18,110L19,110M74,111L82,112,M72,108L74,111,M74,105L72,108,M74,105L82,107,M82,107L83,107,M83,107L82,112M105,111L109,110,M105,110L105,111,M105,110L105,109,M105,109L109,109,M109,109L109,110M136,110L136,113,M135,108L136,110,M129,104L135,108,M127,108L129,104,M127,108L126,113,M126,113L128,116,M128,116L130,117,M130,117L130,117,M130,117L133,117,M133,117L136,113M19,110L20,115,M22,107L19,110,M22,107L25,108,M25,108L25,108,M26,109L25,108,M26,109L23,115,M20,115L23,115M44,114L53,113,M44,111L44,114,M44,111L47,109,M47,109L53,113M74,111L82,112,M74,111L75,115,M75,115L81,114,M81,114L82,114,M82,112L82,114M99,110L105,110,M96,113L99,110,M96,113L96,115,M96,115L102,116,M102,116L105,112,M105,111L105,112,M105,110L105,111M105,111L109,110,M105,111L105,112,M105,112L107,113,M107,113L109,112,M110,111L109,112,M109,110L110,111M110,111L116,110,M110,111L109,112,M109,112L112,117,M112,117L113,117,M113,117L116,114,M116,114L117,113,M116,110L117,113M137,110L140,112,M137,110L140,109,M140,109L142,111,M142,112L142,111,M140,112L142,112M160,115L164,113,M156,111L160,115,M156,111L159,106,M159,106L161,106,M161,106L163,107,M163,107L164,110,M164,113L164,110,M164,113L164,113M167,114L170,111,M164,113L167,114,M164,113L164,110,M164,110L170,110M10,112L13,111,M8,113L10,112,M8,113L7,112,M9,109L7,112,M9,109L13,110,M13,111L13,110M13,116L10,112,M13,116L10,118,M10,118L8,113,M8,113L10,112M74,111L75,115,M72,108L74,111,M67,110L72,108,M67,110L69,116,M69,116L74,116,M74,116L75,115M137,110L140,112,M136,110L137,110,M136,110L136,113,M136,113L139,113,M139,113L140,112M143,114L150,112,M142,112L143,114,M142,112L142,111,M142,111L144,109,M144,109L148,110,M148,110L150,112M13,116L10,112,M15,114L13,116,M15,114L14,112,M14,112L13,111,M10,112L13,111M37,111L38,117,M33,110L37,111,M31,111L33,110,M31,111L31,116,M31,116L34,119,M34,119L38,117M37,111L38,117,M37,111L38,110,M38,110L42,110,M42,110L44,111,M44,111L44,114,M44,114L44,117,M42,118L44,117,M38,117L42,118M107,113L106,117,M107,113L109,112,M109,112L112,117,M109,118L112,117,M106,117L109,118M167,114L170,111,M167,114L170,116M44,114L53,113,M44,114L44,117,M44,117L52,119,M54,114L52,119,M53,113L54,114M67,110L63,118,M64,109L67,110,M60,109L64,109,M60,109L62,118,M62,118L62,118,M62,118L63,118M86,117L95,113,M82,114L86,117,M82,112L82,114,M83,107L82,112,M83,107L87,105,M87,105L89,105,M89,105L95,113M107,113L106,117,M105,112L107,113,M102,116L105,112,M102,116L103,117,M103,117L106,117M139,113L140,116,M136,113L139,113,M133,117L136,113,M133,117L136,117,M136,117L140,116M139,113L140,116,M139,113L140,112,M140,112L142,112,M142,112L143,114,M143,114L143,116,M142,116L143,116,M140,116L142,116M143,114L150,112,M143,114L143,116,M143,116L150,116,M151,113L150,116,M150,112L151,113M167,114L170,116,M164,113L167,114,M164,113L164,113,M164,113L168,122,M168,122L170,121M10,118L8,113,M10,118L9,122,M9,122L9,122,M0,117L9,122,M8,113L7,112M24,116L27,118,M24,116L23,115,M26,109L23,115,M26,109L31,111,M31,111L31,116,M27,118L31,116M67,110L63,118,M67,110L67,110,M67,110L69,116,M69,116L68,119,M63,118L68,119M75,119L80,119,M74,116L75,119,M74,116L75,115,M75,115L81,114,M81,114L80,119M156,111L160,115,M153,112L156,111,M151,113L153,112,M151,113L150,116,M150,116L151,118,M151,118L157,121,M157,121L159,120,M159,120L160,115M18,115L17,122,M15,114L18,115,M15,114L13,116,M13,116L10,118,M10,118L9,122,M9,122L9,122,M9,122L17,122M60,119L55,113,M60,119L62,118,M60,109L62,118,M58,109L60,109,M58,109L55,113M86,117L95,113,M86,117L88,128,M88,128L89,129,M89,129L91,129,M91,129L93,128,M95,121L93,128,M96,115L95,121,M96,113L96,115,M95,113L96,113M119,119L125,113,M116,114L119,119,M116,114L117,113,M117,113L125,113M136,117L140,116,M136,117L139,120,M139,120L142,118,M142,116L142,118,M140,116L142,116M164,113L168,122,M160,115L164,113,M159,120L160,115,M159,120L166,123,M166,123L168,122M22,123L19,115,M24,116L22,123,M24,116L23,115,M20,115L23,115,M19,115L20,115M60,119L55,113,M54,125L60,119,M54,125L53,123,M52,119L53,123,M54,114L52,119,M54,114L55,113M74,116L75,119,M69,116L74,116,M69,116L68,119,M68,119L69,121,M69,122L69,121,M69,122L73,123,M73,123L74,122,M75,119L74,122M86,117L88,128,M82,114L86,117,M81,114L82,114,M81,114L80,119,M80,119L82,126,M82,126L83,128,M83,128L84,128,M84,128L88,128M116,114L119,119,M113,117L116,114,M113,117L115,122,M115,122L119,121,M119,119L119,121M119,119L125,113,M119,119L119,121,M119,121L120,122,M120,122L128,116,M126,113L128,116,M125,113L126,113M142,119L149,120,M142,118L142,119,M142,116L142,118,M142,116L143,116,M143,116L150,116,M150,116L151,118,M150,119L151,118,M149,120L150,119M22,123L19,115,M22,123L22,125,M17,122L22,125,M18,115L17,122,M18,115L19,115M24,116L22,123,M24,116L27,118,M27,118L27,122,M27,122L23,127,M23,127L22,125,M22,123L22,125M27,122L31,122,M27,118L27,122,M27,118L31,116,M31,116L34,119,M34,119L34,119,M31,122L34,119M37,127L43,122,M37,127L37,126,M37,126L34,119,M34,119L34,119,M34,119L38,117,M38,117L42,118,M42,118L43,122M43,122L53,123,M43,122L43,122,M42,118L43,122,M42,118L44,117,M44,117L52,119,M52,119L53,123M62,118L63,123,M62,118L62,118,M60,119L62,118,M54,125L60,119,M54,125L55,128,M55,128L58,130,M63,123L58,130M75,119L80,119,M75,119L74,122,M74,122L82,126,M80,119L82,126M104,123L108,120,M104,122L104,123,M103,117L104,122,M103,117L106,117,M106,117L109,118,M109,118L108,120M108,120L109,124,M109,118L108,120,M109,118L112,117,M112,117L113,117,M113,117L115,122,M115,122L115,122,M112,123L115,122,M109,124L112,123,M109,124L109,124M139,120L142,118,M139,120L139,125,M139,125L143,121,M142,119L143,121,M142,118L142,119M142,119L149,120,M142,119L143,121,M143,121L145,122,M145,122L149,120M62,118L63,123,M62,118L63,118,M63,118L68,119,M68,119L69,121,M63,123L69,121M95,121L104,122,M96,115L95,121,M96,115L102,116,M102,116L103,117,M103,117L104,122M104,123L108,120,M104,123L104,124,M104,124L109,124,M108,120L109,124M120,123L127,124,M120,122L120,123,M120,122L128,116,M128,116L130,117,M127,124L130,117M136,117L139,120,M133,117L136,117,M130,117L133,117,M130,117L135,126,M135,126L136,126,M136,126L139,126,M139,126L139,125,M139,120L139,125M95,121L104,122,M95,121L93,128,M93,128L103,125,M104,124L103,125,M104,123L104,124,M104,122L104,123M145,122L145,127,M143,121L145,122,M139,125L143,121,M139,126L139,125,M139,126L142,128,M142,128L145,127M146,127L149,123,M145,127L146,127,M145,122L145,127,M145,122L149,120,M149,120L150,119,M150,119L150,121,M149,123L150,121M150,121L153,128,M150,119L150,121,M150,119L151,118,M151,118L157,121,M155,128L157,121,M154,129L155,128,M153,128L154,129M31,122L31,124,M27,122L31,122,M27,122L23,127,M23,127L23,128,M23,128L27,129,M31,124L27,129M31,124L37,126,M31,122L31,124,M31,122L34,119,M37,126L34,119M46,130L43,122,M46,130L55,128,M54,125L55,128,M54,125L53,123,M43,122L53,123M63,123L69,121,M63,123L58,130,M58,130L58,130,M58,130L63,131,M63,131L68,128,M69,122L68,128,M69,122L69,121M73,123L77,130,M73,123L73,123,M73,123L74,122,M74,122L82,126,M82,126L83,128,M77,130L83,128M120,123L127,124,M120,123L120,123,M120,123L122,126,M122,126L124,127,M124,127L127,126,M127,124L127,126M157,129L166,124,M155,128L157,129,M155,128L157,121,M157,121L159,120,M159,120L166,123,M166,124L166,123M1,126L8,123,M0,126L1,126,M9,122L8,123,M0,117L9,122M31,124L37,126,M31,124L27,129,M27,129L37,133,M37,127L37,133,M37,127L37,126M46,130L43,122,M41,134L46,130,M39,135L41,134,M38,135L39,135,M38,135L37,133,M37,127L37,133,M37,127L43,122,M43,122L43,122M112,123L112,126,M112,123L115,122,M115,122L115,125,M114,127L115,125,M112,126L114,127M118,127L120,123,M115,125L118,127,M115,122L115,125,M115,122L115,122,M115,122L119,121,M119,121L120,122,M120,122L120,123,M120,123L120,123M129,129L135,126,M128,128L129,129,M127,126L128,128,M127,124L127,126,M127,124L130,117,M130,117L130,117,M130,117L135,126M149,123L150,128,M146,127L149,123,M146,127L148,128,M148,128L150,128M149,123L150,128,M149,123L150,121,M150,121L153,128,M150,128L153,128M16,132L9,122,M16,132L16,132,M16,132L20,132,M23,128L20,132,M23,127L23,128,M23,127L22,125,M17,122L22,125,M9,122L17,122M73,123L72,129,M73,123L73,123,M69,122L73,123,M69,122L68,128,M68,128L72,129M73,123L77,130,M73,123L72,129,M72,129L74,131,M74,131L76,130,M76,130L77,130M104,124L109,124,M104,124L103,125,M103,125L105,128,M105,128L108,128,M108,128L109,127,M109,127L109,127,M109,124L109,127,M109,124L109,124M109,127L112,126,M109,124L109,127,M109,124L112,123,M112,123L112,126M118,127L120,123,M118,127L118,129,M118,129L120,128,M120,128L122,126,M120,123L122,126M3,129L1,126,M0,127L3,129,M0,126L1,126M3,129L1,126,M3,129L4,129,M4,129L6,127,M8,123L6,127,M1,126L8,123M109,127L112,126,M109,127L109,127,M109,127L113,129,M113,129L113,129,M114,127L113,129,M112,126L114,127M122,130L124,127,M120,128L122,130,M120,128L122,126,M122,126L124,127M105,128L103,134,M103,125L105,128,M93,128L103,125,M91,129L93,128,M91,129L95,134,M95,134L101,137,M101,137L103,134M109,127L113,129,M108,128L109,127,M108,128L109,130,M109,130L110,132,M110,132L113,129M115,125L118,127,M114,127L115,125,M114,127L113,129,M113,129L117,132,M117,132L118,129,M118,127L118,129M157,129L166,124,M157,129L160,133,M160,133L166,128,M166,124L166,128M166,128L170,133,M166,124L166,128,M166,124L166,123,M166,123L168,122,M168,122L170,121M0,127L3,129,M3,129L4,129,M4,129L0,135,M0,135L0,135M122,130L124,127,M122,130L124,132,M124,132L128,128,M127,126L128,128,M124,127L127,126M146,137L148,128,M146,138L146,137,M144,139L146,138,M143,137L144,139,M142,128L143,137,M142,128L145,127,M145,127L146,127,M146,127L148,128M9,134L6,127,M9,134L16,132,M16,132L9,122,M9,122L9,122,M9,122L9,122,M9,122L8,123,M8,123L6,127M103,134L109,130,M105,128L103,134,M105,128L108,128,M108,128L109,130M110,132L113,129,M110,132L111,134,M111,134L117,133,M117,132L117,133,M113,129L117,132,M113,129L113,129M120,128L122,130,M118,129L120,128,M117,132L118,129,M117,132L117,133,M117,133L119,135,M119,135L120,135,M120,135L122,135,M122,135L123,135,M124,132L123,135,M122,130L124,132M129,129L136,131,M129,129L129,129,M129,129L135,126,M135,126L136,126,M136,126L136,131M136,126L136,131,M136,126L139,126,M139,126L142,128,M142,128L143,137,M135,136L143,137,M136,131L135,136M65,133L73,133,M65,133L63,131,M63,131L68,128,M68,128L72,129,M72,129L74,131,M74,131L73,133M103,134L109,130,M101,137L103,134,M101,137L102,140,M102,140L109,139,M109,139L111,134,M110,132L111,134,M109,130L110,132M129,129L136,131,M129,129L131,135,M131,135L134,136,M134,136L135,136,M136,131L135,136M146,137L154,129,M146,137L148,128,M148,128L150,128,M150,128L153,128,M153,128L154,129,M154,129L154,129M9,134L6,127,M9,134L8,135,M0,135L8,135,M4,129L0,135,M4,129L6,127M65,133L73,133,M66,134L65,133,M66,134L69,135,M69,135L72,133,M73,133L72,133M160,133L166,128,M160,133L161,141,M161,141L162,141,M162,141L170,141,M166,128L170,133M124,132L128,128,M124,132L123,135,M123,135L129,136,M129,136L131,135,M129,129L131,135,M129,129L129,129,M128,128L129,129M146,137L154,129,M146,138L146,137,M146,138L154,138,M154,129L154,138M22,134L30,140,M22,134L21,133,M21,133L20,132,M23,128L20,132,M23,128L27,129,M27,129L37,133,M38,135L37,133,M30,140L38,135M41,134L50,137,M41,134L46,130,M46,130L55,128,M55,128L58,130,M58,130L58,130,M58,130L58,131,M58,131L53,137,M52,137L53,137,M50,137L52,137M73,135L71,137,M72,133L73,135,M69,135L72,133,M70,136L69,135,M70,136L71,137M75,139L73,135,M76,136L75,139,M76,130L76,136,M74,131L76,130,M74,131L73,133,M73,133L72,133,M72,133L73,135M84,128L80,137,M83,128L84,128,M77,130L83,128,M76,130L77,130,M76,130L76,136,M76,136L80,137M154,129L154,138,M154,129L154,129,M154,129L155,128,M155,128L157,129,M157,129L160,133,M160,133L161,141,M154,138L161,141M84,128L80,137,M84,128L88,128,M88,128L89,129,M89,129L83,141,M82,140L83,141,M82,140L80,137M66,137L65,139,M66,134L66,137,M66,134L65,133,M65,133L63,131,M58,130L63,131,M58,130L58,131,M58,131L58,132,M58,132L61,139,M61,139L65,139M70,136L68,139,M70,136L69,135,M66,134L69,135,M66,134L66,137,M66,137L68,139M73,135L71,137,M75,139L73,135,M75,139L75,140,M73,140L75,140,M73,140L71,137M114,139L119,135,M112,139L114,139,M109,139L112,139,M109,139L109,139,M109,139L111,134,M111,134L117,133,M117,133L119,135M14,137L9,141,M16,132L14,137,M16,132L16,132,M9,134L16,132,M9,134L8,135,M9,141L8,135M17,145L14,137,M21,133L17,145,M21,133L20,132,M16,132L20,132,M16,132L14,137M70,136L68,139,M70,136L71,137,M73,140L71,137,M73,140L73,140,M69,139L73,140,M68,139L69,139M48,140L51,139,M50,137L48,140,M50,137L52,137,M52,137L51,139M76,136L80,137,M76,136L75,139,M75,139L75,140,M75,141L75,140,M75,141L82,140,M82,140L80,137M127,140L129,136,M124,141L127,140,M122,135L124,141,M122,135L123,135,M123,135L129,136M9,141L8,135,M9,141L9,143,M0,146L9,143,M0,146L0,146,M0,135L8,135,M0,135L0,135M17,145L14,137,M17,145L17,145,M15,146L17,145,M9,143L15,146,M9,141L9,143,M14,137L9,141M50,137L48,140,M41,134L50,137,M39,135L41,134,M43,145L39,135,M43,145L48,140M48,140L51,139,M43,145L48,140,M43,147L43,145,M43,147L46,146,M51,139L46,146M58,132L56,140,M58,131L58,132,M58,131L53,137,M53,137L53,139,M54,140L53,139,M54,140L56,140M66,137L68,139,M66,137L65,139,M66,141L65,139,M66,141L68,140,M69,139L68,140,M68,139L69,139M83,141L89,143,M83,141L83,141,M89,129L83,141,M89,129L91,129,M91,129L95,134,M92,140L95,134,M89,143L92,140M120,135L118,142,M119,135L120,135,M114,139L119,135,M114,139L118,142,M118,142L118,142M127,140L129,136,M127,140L130,143,M130,143L132,143,M132,143L134,136,M131,135L134,136,M129,136L131,135M24,144L22,134,M24,144L26,143,M26,143L27,143,M27,143L30,140,M30,140L30,140,M22,134L30,140M51,139L46,146,M52,137L51,139,M52,137L53,137,M53,137L53,139,M53,139L50,145,M48,146L50,145,M46,146L48,146M54,140L56,140,M54,140L55,143,M55,143L55,143,M55,143L57,141,M57,141L56,140M58,132L56,140,M58,132L61,139,M61,139L60,142,M57,141L60,142,M57,141L56,140M70,143L73,140,M69,143L70,143,M68,140L69,143,M69,139L68,140,M69,139L73,140M120,135L118,142,M120,135L122,135,M122,135L124,141,M122,144L124,141,M121,144L122,144,M118,142L121,144M134,144L144,140,M132,143L134,144,M132,143L134,136,M134,136L135,136,M135,136L143,137,M143,137L144,139,M144,139L144,140M24,144L22,134,M19,146L24,144,M17,145L19,146,M17,145L17,145,M21,133L17,145,M22,134L21,133M61,139L65,139,M61,139L60,142,M60,142L60,144,M60,144L63,144,M63,144L65,143,M65,143L65,143,M66,141L65,143,M66,141L65,139M53,139L50,145,M54,140L53,139,M54,140L55,143,M50,145L55,143M55,143L57,141,M58,146L55,143,M58,146L60,144,M60,142L60,144,M57,141L60,142M65,143L69,143,M66,141L65,143,M66,141L68,140,M68,140L69,143,M69,143L69,143M113,142L116,144,M112,139L113,142,M112,139L114,139,M114,139L118,142,M116,144L118,142M145,144L158,146,M144,140L145,144,M144,139L144,140,M144,139L146,138,M146,138L154,138,M154,138L161,141,M161,141L162,141,M160,144L162,141,M158,146L160,144M69,143L68,146,M65,143L69,143,M65,143L65,143,M67,146L65,143,M67,146L68,146M69,143L68,146,M69,143L69,143,M69,143L70,143,M71,145L70,143,M69,146L71,145,M68,146L69,146M70,143L73,140,M71,145L70,143,M71,145L73,145,M73,145L75,142,M75,141L75,142,M75,141L75,140,M73,140L75,140,M73,140L73,140M78,145L81,145,M78,145L75,142,M75,141L75,142,M75,141L82,140,M82,140L83,141,M83,141L83,141,M83,141L83,141,M83,141L82,144,M81,145L82,144M92,145L93,144,M89,144L92,145,M89,143L89,144,M89,143L92,140,M92,140L93,144M93,144L102,147,M92,140L93,144,M92,140L95,134,M95,134L101,137,M101,137L102,140,M102,140L102,147M113,142L113,146,M113,142L116,144,M115,145L116,144,M113,146L115,145M127,140L130,143,M124,141L127,140,M122,144L124,141,M122,144L126,148,M126,148L127,147,M127,147L130,143M50,145L55,143,M48,146L50,145,M48,146L57,150,M57,150L57,150,M58,146L57,150,M58,146L55,143,M55,143L55,143M113,142L113,146,M112,139L113,142,M109,139L112,139,M109,139L112,147,M112,147L113,146M134,144L144,140,M134,144L136,151,M136,151L145,144,M145,144L145,144,M144,140L145,144M30,151L27,143,M33,154L30,151,M30,140L33,154,M27,143L30,140M30,140L33,154,M30,140L30,140,M30,140L38,135,M38,135L39,135,M43,145L39,135,M43,147L43,145,M43,147L42,150,M34,154L42,150,M34,154L34,154,M34,154L33,154M64,147L66,147,M63,144L64,147,M63,144L65,143,M67,146L65,143,M66,147L67,146M86,146L83,141,M86,146L89,145,M89,144L89,145,M89,143L89,144,M83,141L89,143,M83,141L83,141M89,144L92,145,M89,144L89,145,M89,145L89,146,M89,146L91,149,M91,149L93,149,M93,149L94,149,M92,145L94,149M93,144L102,147,M92,145L93,144,M92,145L94,149,M94,149L101,147,M101,147L102,147,M102,147L102,147M109,139L112,147,M109,139L109,139,M102,140L109,139,M102,140L102,147,M102,147L102,147,M102,147L105,149,M105,149L112,148,M112,147L112,148M115,145L118,148,M115,145L116,144,M116,144L118,142,M118,142L118,142,M118,142L121,144,M119,148L121,144,M118,148L119,148M21,148L27,148,M21,148L19,146,M19,146L24,144,M24,144L26,143,M27,148L26,143M30,151L27,143,M30,151L27,148,M27,148L26,143,M26,143L27,143M73,145L71,149,M73,145L73,145,M71,145L73,145,M69,146L71,145,M69,146L70,149,M70,149L71,149M75,149L73,145,M75,149L77,148,M78,145L77,148,M78,145L75,142,M73,145L75,142,M73,145L73,145M81,145L80,150,M78,145L81,145,M78,145L77,148,M77,148L79,150,M79,150L80,150M86,146L83,141,M86,146L86,148,M84,147L86,148,M82,144L84,147,M83,141L82,144M64,147L63,149,M63,144L64,147,M60,144L63,144,M58,146L60,144,M58,146L57,150,M57,150L63,149M66,147L66,151,M64,147L66,147,M64,147L63,149,M63,149L66,151,M66,151L66,151M66,147L66,151,M66,147L67,146,M67,146L68,146,M68,146L69,146,M69,146L70,149,M68,151L70,149,M66,151L68,151M81,150L84,147,M80,150L81,150,M81,145L80,150,M81,145L82,144,M82,144L84,147M81,150L84,147,M81,150L81,151,M81,151L86,151,M86,150L86,151,M86,150L86,150,M86,148L86,150,M84,147L86,148M86,150L89,146,M86,148L86,150,M86,146L86,148,M86,146L89,145,M89,145L89,146M86,150L89,146,M86,150L86,150,M86,150L91,149,M89,146L91,149M114,149L118,148,M113,149L114,149,M112,148L113,149,M112,147L112,148,M112,147L113,146,M113,146L115,145,M115,145L118,148M127,147L135,152,M127,147L130,143,M130,143L132,143,M132,143L134,144,M134,144L136,151,M136,152L136,151,M135,152L136,152M73,145L71,149,M75,149L73,145,M73,150L75,149,M71,149L73,150M119,148L121,144,M119,148L121,155,M121,155L123,155,M123,155L126,148,M122,144L126,148,M121,144L122,144M145,144L158,146,M145,144L145,144,M145,144L147,152,M147,152L148,152,M148,152L149,153,M149,153L156,151,M156,151L158,148,M158,148L158,146M9,152L14,148,M5,153L9,152,M5,153L0,146,M0,146L9,143,M9,143L15,146,M15,146L14,148M21,148L27,148,M25,155L21,148,M25,155L34,154,M34,154L33,154,M33,154L30,151,M30,151L27,148M63,149L66,151,M57,150L63,149,M57,150L57,150,M57,150L57,153,M57,153L61,156,M61,156L66,151M160,144L166,152,M158,146L160,144,M158,148L158,146,M158,148L165,154,M165,154L166,152M75,155L79,150,M75,155L75,155,M73,150L75,155,M73,150L75,149,M75,149L77,148,M77,148L79,150M86,150L91,149,M86,150L86,151,M86,151L88,154,M88,154L88,155,M88,155L91,156,M93,149L91,156,M91,149L93,149M113,149L111,154,M112,148L113,149,M105,149L112,148,M105,149L108,155,M108,155L111,154M114,149L118,148,M114,149L117,155,M117,155L117,155,M117,155L121,155,M119,148L121,155,M118,148L119,148M160,144L166,152,M160,144L162,141,M162,141L170,141,M166,152L170,148M46,155L56,155,M46,155L42,150,M43,147L42,150,M43,147L46,146,M46,146L48,146,M48,146L57,150,M57,150L57,153,M56,155L57,153M71,149L73,150,M70,149L71,149,M68,151L70,149,M68,151L71,157,M71,157L75,155,M73,150L75,155M113,149L111,154,M113,149L114,149,M114,149L117,155,M111,154L117,155M127,147L135,152,M126,148L127,147,M123,155L126,148,M123,155L125,157,M125,157L135,152M136,151L145,144,M136,152L136,151,M136,152L139,157,M139,157L147,152,M145,144L147,152M25,155L21,148,M22,157L25,155,M19,157L22,157,M16,156L19,157,M16,156L14,148,M15,146L14,148,M15,146L17,145,M17,145L19,146,M21,148L19,146M5,153L4,159,M5,153L0,146,M0,146L0,146,M0,161L4,159M12,158L9,152,M12,158L16,156,M16,156L14,148,M9,152L14,148M61,156L66,151,M66,161L61,156,M66,161L69,159,M69,159L71,157,M68,151L71,157,M66,151L68,151,M66,151L66,151M75,155L79,150,M75,155L76,157,M76,157L79,156,M79,156L81,154,M81,151L81,154,M81,150L81,151,M80,150L81,150,M79,150L80,150M81,154L84,155,M81,151L81,154,M81,151L86,151,M86,151L88,154,M84,155L88,154M93,149L91,156,M93,149L94,149,M94,149L101,147,M101,147L98,159,M93,159L98,159,M93,159L91,156M166,152L170,148,M165,154L166,152,M165,154L165,156,M165,156L166,156,M166,156L170,157M101,147L98,159,M101,147L102,147,M102,147L105,149,M105,149L108,155,M108,155L107,160,M106,161L107,160,M102,162L106,161,M98,159L102,162M158,148L165,154,M156,151L158,148,M156,151L158,159,M158,159L165,156,M165,154L165,156M12,158L9,152,M11,159L12,158,M6,160L11,159,M4,159L6,160,M5,153L4,159,M5,153L9,152M82,157L84,155,M82,157L82,157,M79,156L82,157,M79,156L81,154,M81,154L84,155M82,157L85,159,M82,157L84,155,M84,155L88,154,M88,154L88,155,M85,159L88,155M125,157L135,152,M125,157L126,162,M126,162L129,163,M129,163L135,163,M135,163L139,158,M139,157L139,158,M136,152L139,157,M135,152L136,152M145,160L148,155,M142,160L145,160,M139,158L142,160,M139,157L139,158,M139,157L147,152,M147,152L148,152,M148,152L148,155M149,153L153,158,M149,153L156,151,M156,151L158,159,M157,160L158,159,M153,158L157,160M82,157L81,162,M79,156L82,157,M76,157L79,156,M76,157L78,162,M78,162L81,162M82,157L85,159,M82,157L82,157,M82,157L81,162,M81,162L82,162,M82,162L84,161,M85,159L84,161M111,154L117,155,M108,155L111,154,M108,155L107,160,M107,160L108,160,M108,160L115,159,M115,159L117,155,M117,155L117,155M148,155L149,160,M148,152L148,155,M148,152L149,153,M149,153L153,158,M149,160L153,158M48,165L56,156,M46,155L48,165,M46,155L56,155,M56,155L56,156M46,155L48,165,M46,155L42,150,M34,154L42,150,M34,154L35,165,M35,165L35,165,M38,167L35,165,M38,167L48,165,M48,165L48,165M69,159L78,162,M69,159L71,157,M71,157L75,155,M75,155L75,155,M75,155L76,157,M76,157L78,162,M78,162L78,162M145,160L148,155,M145,160L148,161,M148,161L149,160,M149,160L149,160,M148,155L149,160M165,161L166,156,M165,162L165,161,M158,168L165,162,M157,160L158,168,M157,160L158,159,M158,159L165,156,M165,156L166,156M165,161L170,160,M165,161L166,156,M166,156L170,157M15,166L11,159,M15,166L15,166,M19,157L15,166,M16,156L19,157,M12,158L16,156,M11,159L12,158M27,164L22,159,M27,164L35,165,M34,154L35,165,M34,154L34,154,M25,155L34,154,M22,157L25,155,M22,159L22,157M56,156L58,167,M48,165L56,156,M48,165L48,165,M50,167L48,165,M50,167L58,167M56,156L58,167,M56,155L56,156,M56,155L57,153,M57,153L61,156,M66,161L61,156,M66,161L66,162,M62,168L66,162,M61,167L62,168,M58,167L61,167M69,159L78,162,M66,161L69,159,M66,161L66,162,M66,162L72,165,M72,165L77,163,M77,163L78,162M85,159L88,155,M85,159L84,161,M84,161L90,163,M90,163L91,163,M91,163L93,159,M93,159L91,156,M88,155L91,156M149,160L158,169,M149,160L149,160,M149,160L153,158,M153,158L157,160,M157,160L158,168,M158,169L158,168,M158,169L158,169M165,161L170,160,M165,162L165,161,M165,162L170,163M108,160L117,165,M108,160L115,159,M115,159L117,165M115,159L117,165,M115,159L117,155,M117,155L121,155,M121,155L123,155,M123,155L125,157,M125,157L126,162,M123,168L126,162,M118,168L123,168,M117,165L118,168M15,166L11,159,M8,167L15,166,M8,167L6,160,M6,160L11,159M22,159L22,167,M22,159L22,157,M19,157L22,157,M19,157L15,166,M18,169L15,166,M18,169L21,169,M22,167L21,169M22,167L27,164,M22,159L22,167,M27,164L22,159M83,164L90,163,M82,162L83,164,M82,162L84,161,M84,161L90,163M108,160L117,165,M107,160L108,160,M106,161L107,160,M106,161L109,167,M109,167L115,169,M115,169L118,168,M117,165L118,168M142,160L147,170,M142,160L145,160,M145,160L148,161,M148,161L147,170M149,160L158,169,M148,161L149,160,M148,161L147,170,M147,170L147,171,M147,171L155,173,M155,173L158,169M165,162L170,163,M158,168L165,162,M158,169L158,168,M158,169L170,169M83,164L90,163,M83,164L83,165,M83,165L88,166,M88,166L91,166,M91,163L91,166,M90,163L91,163M83,165L82,168,M83,164L83,165,M82,162L83,164,M81,162L82,162,M78,162L81,162,M78,162L78,162,M77,163L78,162,M77,163L78,169,M78,169L80,170,M80,170L82,168M102,162L99,173,M98,159L102,162,M93,159L98,159,M91,163L93,159,M91,163L91,166,M91,166L94,173,M94,173L99,173M142,160L147,170,M139,158L142,160,M135,163L139,158,M135,163L139,172,M139,172L140,173,M140,173L147,171,M147,170L147,171M8,167L6,160,M8,167L6,171,M0,174L6,171,M4,159L6,160,M0,161L4,159M22,167L27,164,M22,167L21,169,M23,170L21,169,M23,170L29,169,M29,169L35,165,M35,165L35,165,M27,164L35,165M82,168L86,168,M83,165L82,168,M83,165L88,166,M86,168L88,166M72,165L74,170,M66,162L72,165,M62,168L66,162,M65,173L62,168,M65,173L70,175,M70,175L74,170M72,165L74,170,M72,165L77,163,M77,163L78,169,M74,170L78,169M102,175L109,167,M101,175L102,175,M99,173L101,175,M102,162L99,173,M102,162L106,161,M106,161L109,167M129,163L134,174,M126,162L129,163,M123,168L126,162,M123,168L124,170,M124,170L125,172,M125,172L127,173,M127,173L131,175,M131,175L134,174M86,168L86,172,M82,168L86,168,M80,170L82,168,M80,170L81,171,M81,171L83,172,M83,172L86,172M86,168L86,172,M86,168L88,166,M88,166L91,166,M91,166L94,173,M93,174L94,173,M86,172L93,174M129,163L134,174,M129,163L135,163,M135,163L139,172,M134,174L139,172M7,172L16,172,M7,172L6,171,M8,167L6,171,M8,167L15,166,M15,166L15,166,M18,169L15,166,M18,169L16,172M39,175L50,177,M38,167L39,175,M38,167L48,165,M50,167L48,165,M50,167L50,177,M50,177L50,177M75,180L81,171,M75,180L70,175,M70,175L74,170,M74,170L78,169,M78,169L80,170,M80,170L81,171M29,173L36,177,M29,169L29,173,M29,169L35,165,M38,167L35,165,M38,167L39,175,M39,175L38,176,M36,177L38,176M53,177L61,167,M50,177L53,177,M50,167L50,177,M50,167L58,167,M58,167L61,167M102,175L109,167,M102,175L111,180,M111,180L115,169,M109,167L115,169M29,173L26,180,M29,169L29,173,M23,170L29,169,M25,181L23,170,M25,181L25,180,M25,180L26,180M7,172L16,172,M12,178L7,172,M12,178L16,177,M16,172L16,177M25,181L23,170,M24,181L25,181,M24,181L16,177,M16,177L16,177,M16,172L16,177,M18,169L16,172,M18,169L21,169,M23,170L21,169M83,172L83,177,M81,171L83,172,M75,180L81,171,M75,180L75,183,M75,183L77,182,M77,182L83,177M113,181L124,170,M111,181L113,181,M111,180L111,181,M111,180L115,169,M115,169L118,168,M118,168L123,168,M123,168L124,170M155,174L170,180,M155,173L155,174,M155,173L158,169,M158,169L158,169,M158,169L170,169M29,173L36,177,M29,173L26,180,M26,180L27,180,M27,180L33,179,M33,179L36,177M53,177L61,167,M53,177L57,180,M57,180L63,176,M63,176L65,173,M65,173L62,168,M61,167L62,168M83,172L83,177,M83,172L86,172,M86,172L93,174,M91,178L93,174,M83,177L91,178M113,181L124,170,M113,181L118,182,M118,182L125,172,M124,170L125,172M12,178L7,172,M12,178L11,179,M1,184L11,179,M0,184L1,184,M7,172L6,171M83,177L91,178,M77,182L83,177,M77,182L89,185,M89,185L90,184,M91,178L90,184M127,173L125,184,M125,172L127,173,M118,182L125,172,M118,182L119,183,M119,183L121,185,M121,185L125,184M141,179L154,183,M140,173L141,179,M140,173L147,171,M147,171L155,173,M155,173L155,174,M154,183L155,174M45,183L39,179,M45,183L48,183,M50,177L48,183,M39,175L50,177,M39,175L38,176,M39,179L38,176M63,176L65,185,M63,176L65,173,M65,173L70,175,M75,180L70,175,M75,180L75,183,M75,183L75,183,M69,186L75,183,M65,185L69,186M131,177L137,188,M131,175L131,177,M131,175L134,174,M134,174L139,172,M139,172L140,173,M140,173L141,179,M139,185L141,179,M137,188L139,185M101,175L98,184,M99,173L101,175,M94,173L99,173,M93,174L94,173,M91,178L93,174,M91,178L90,184,M90,184L92,185,M92,185L98,184M127,173L125,184,M127,173L131,175,M131,175L131,177,M126,185L131,177,M125,184L126,185M156,186L170,180,M154,184L156,186,M154,183L154,184,M154,183L155,174,M155,174L170,180M16,177L14,185,M16,177L16,177,M12,178L16,177,M12,178L11,179,M14,185L11,179M63,176L65,185,M57,180L63,176,M57,180L57,184,M57,184L62,186,M62,186L65,185M141,179L154,183,M139,185L141,179,M139,185L151,186,M151,186L154,184,M154,183L154,184M14,185L11,179,M14,188L14,185,M14,188L14,188,M3,186L14,188,M3,186L1,184,M1,184L11,179M16,177L14,185,M24,181L16,177,M24,181L23,185,M23,185L22,186,M17,189L22,186,M14,188L17,189,M14,188L14,185M51,186L56,185,M51,186L48,184,M48,184L48,183,M50,177L48,183,M50,177L50,177,M50,177L53,177,M53,177L57,180,M57,180L57,184,M56,185L57,184M100,185L110,183,M98,184L100,185,M101,175L98,184,M101,175L102,175,M102,175L111,180,M111,180L111,181,M110,183L111,181M126,185L131,177,M126,185L135,191,M135,191L137,188,M131,177L137,188M35,186L33,179,M36,187L35,186,M36,187L37,187,M39,179L37,187,M39,179L38,176,M36,177L38,176,M33,179L36,177M156,186L170,180,M156,186L159,189,M159,189L170,185M34,186L27,180,M34,186L35,186,M35,186L33,179,M27,180L33,179M39,179L37,187,M45,183L39,179,M40,188L45,183,M37,187L40,188,M37,187L37,187M34,186L27,180,M31,186L34,186,M31,186L25,180,M25,180L26,180,M26,180L27,180M31,186L25,180,M30,188L31,186,M29,188L30,188,M29,188L23,185,M24,181L23,185,M24,181L25,181,M25,181L25,180M100,185L110,183,M100,185L101,193,M101,193L106,192,M106,192L107,192,M107,192L110,187,M110,183L110,187M48,184L44,193,M48,184L48,183,M45,183L48,183,M40,188L45,183,M41,189L40,188,M44,193L41,189M77,182L89,185,M75,183L77,182,M75,183L75,183,M75,183L76,187,M83,196L76,187,M83,196L86,196,M89,185L86,196M160,191L170,190,M159,191L160,191,M159,189L159,191,M159,189L170,185M30,188L31,186,M33,190L30,188,M33,190L33,190,M33,190L36,187,M36,187L35,186,M34,186L35,186,M31,186L34,186M99,195L92,185,M99,195L101,193,M100,185L101,193,M98,184L100,185,M92,185L98,184M115,191L119,183,M111,188L115,191,M110,187L111,188,M110,183L110,187,M110,183L111,181,M111,181L113,181,M113,181L118,182,M118,182L119,183M115,191L119,183,M116,192L115,191,M116,192L121,192,M121,185L121,192,M119,183L121,185M48,184L44,193,M51,186L48,184,M51,186L51,194,M44,193L51,194,M44,193L44,193M51,194L56,188,M51,194L51,194,M51,194L51,194,M51,186L51,194,M51,186L56,185,M56,185L56,188M58,191L56,188,M58,191L60,192,M60,192L61,190,M62,186L61,190,M57,184L62,186,M56,185L57,184,M56,185L56,188M126,185L135,191,M125,184L126,185,M121,185L125,184,M121,185L121,192,M124,196L121,192,M124,196L135,195,M135,195L135,194,M135,191L135,194M148,192L151,186,M141,199L148,192,M135,194L141,199,M135,191L135,194,M135,191L137,188,M137,188L139,185,M139,185L151,186M29,192L33,190,M29,192L29,188,M29,188L30,188,M33,190L30,188M51,194L56,188,M51,194L58,191,M58,191L56,188M99,195L92,185,M98,196L99,195,M88,197L98,196,M86,196L88,197,M86,196L86,196,M89,185L86,196,M89,185L90,184,M90,184L92,185M14,188L8,200,M3,186L14,188,M8,200L3,186,M8,200L8,200M29,192L29,188,M29,192L28,194,M25,193L28,194,M25,193L22,186,M23,185L22,186,M29,188L23,185M37,187L36,193,M37,187L37,187,M36,187L37,187,M33,190L36,187,M33,190L33,191,M35,194L33,191,M35,194L36,193M66,193L61,190,M66,193L68,192,M69,186L68,192,M65,185L69,186,M62,186L65,185,M62,186L61,190M111,188L113,196,M110,187L111,188,M107,192L110,187,M107,192L113,197,M113,197L113,196M111,188L113,196,M111,188L115,191,M116,192L115,191,M113,196L116,192M29,195L33,192,M29,195L28,194,M29,192L28,194,M29,192L33,190,M33,190L33,190,M33,190L33,191,M33,192L33,191M33,192L32,198,M29,195L33,192,M30,197L29,195,M31,198L30,197,M31,198L32,198M37,194L41,189,M37,194L36,193,M37,187L36,193,M37,187L40,188,M41,189L40,188M66,193L61,190,M66,193L65,198,M61,196L65,198,M61,196L60,195,M60,192L60,195,M60,192L61,190M69,193L74,191,M70,194L69,193,M70,194L73,193,M74,191L73,193M69,193L74,191,M69,193L68,192,M69,186L68,192,M69,186L75,183,M75,183L76,187,M74,191L76,187M148,192L157,197,M148,192L151,186,M151,186L154,184,M154,184L156,186,M156,186L159,189,M159,189L159,191,M157,197L159,191M8,200L3,186,M8,200L3,207,M3,207L3,207,M0,207L3,207,M3,186L1,184M23,195L17,192,M25,193L23,195,M25,193L22,186,M17,189L22,186,M17,192L17,189M33,192L32,198,M33,192L33,191,M35,194L33,191,M35,194L32,197,M32,198L32,197M37,194L41,189,M39,196L37,194,M39,196L42,196,M42,196L44,193,M44,193L44,193,M44,193L41,189M51,194L58,191,M51,194L51,194,M52,196L51,194,M52,196L54,197,M54,197L60,195,M60,192L60,195,M58,191L60,192M73,193L74,197,M74,191L73,193,M74,191L76,187,M83,196L76,187,M81,198L83,196,M75,198L81,198,M75,198L74,197M160,191L170,190,M160,191L170,198M14,188L8,200,M14,188L14,188,M14,188L17,189,M17,192L17,189,M17,192L17,195,M13,199L17,195,M8,200L13,199M23,195L17,192,M23,195L22,199,M22,199L17,195,M17,192L17,195M39,196L37,194,M35,198L39,196,M32,197L35,198,M35,194L32,197,M35,194L36,193,M37,194L36,193M70,195L74,197,M70,194L70,195,M70,194L73,193,M73,193L74,197M148,192L157,197,M141,199L148,192,M141,199L147,209,M147,209L150,208,M150,208L153,205,M153,205L156,200,M156,200L157,197M70,194L70,195,M70,194L69,193,M69,193L68,192,M66,193L68,192,M66,193L65,198,M66,200L65,198,M66,200L70,195M70,195L74,197,M66,200L70,195,M66,200L66,201,M66,201L70,202,M70,202L75,198,M75,198L74,197M106,192L108,200,M106,192L107,192,M107,192L113,197,M113,197L114,201,M108,200L114,201M113,196L116,192,M113,197L113,196,M113,197L114,201,M114,202L114,201,M114,202L116,201,M116,201L122,199,M122,199L124,196,M124,196L121,192,M116,192L121,192M22,200L30,197,M22,200L22,199,M23,195L22,199,M25,193L23,195,M25,193L28,194,M29,195L28,194,M30,197L29,195M57,202L61,196,M57,202L56,201,M56,201L54,197,M54,197L60,195,M61,196L60,195M106,192L108,200,M101,193L106,192,M99,195L101,193,M98,196L99,195,M98,196L100,202,M100,202L100,202,M100,202L108,200M160,191L170,198,M159,191L160,191,M157,197L159,191,M156,200L157,197,M156,200L170,199M46,201L51,199,M46,201L43,199,M43,199L42,197,M42,196L42,197,M42,196L44,193,M44,193L51,194,M51,194L51,194,M52,196L51,194,M52,196L51,199M19,202L13,199,M19,202L22,201,M22,200L22,201,M22,200L22,199,M22,199L17,195,M13,199L17,195M37,200L42,197,M37,200L35,198,M35,198L39,196,M39,196L42,196,M42,196L42,197M37,200L42,197,M37,200L37,202,M37,202L41,203,M43,199L41,203,M43,199L42,197M57,202L61,196,M59,204L57,202,M59,204L60,205,M60,205L62,205,M62,205L65,202,M65,202L66,201,M66,200L66,201,M66,200L65,198,M61,196L65,198M24,203L31,198,M24,203L22,201,M22,200L22,201,M22,200L30,197,M31,198L30,197,M31,198L31,198M24,203L31,198,M25,205L24,203,M25,205L31,200,M31,198L31,200M37,200L35,198,M37,200L37,202,M35,203L37,202,M33,204L35,203,M33,204L31,200,M31,198L31,200,M31,198L31,198,M31,198L32,198,M32,198L32,197,M32,197L35,198M72,204L78,205,M72,204L70,202,M70,202L75,198,M75,198L81,198,M81,198L80,201,M78,205L80,201M46,201L51,199,M47,205L46,201,M47,205L51,206,M51,204L51,206,M51,199L51,204M51,204L56,201,M51,199L51,204,M52,196L51,199,M52,196L54,197,M56,201L54,197M51,204L56,201,M51,204L51,206,M51,206L51,206,M52,207L51,206,M52,207L59,204,M59,204L57,202,M57,202L56,201M93,205L88,197,M90,209L93,205,M87,199L90,209,M86,196L87,199,M86,196L88,197M93,205L88,197,M93,205L100,202,M98,196L100,202,M88,197L98,196M100,202L108,200,M100,202L101,203,M106,208L101,203,M106,208L108,208,M108,208L114,203,M114,202L114,203,M114,202L114,201,M108,200L114,201M125,206L130,202,M122,199L125,206,M122,199L124,196,M124,196L135,195,M130,202L135,195M153,205L170,206,M153,205L156,200,M156,200L170,199M19,202L13,199,M13,210L19,202,M13,210L3,207,M8,200L3,207,M8,200L8,200,M8,200L13,199M25,205L31,200,M25,206L25,205,M30,211L25,206,M33,204L30,211,M33,204L31,200M47,205L46,201,M44,207L47,205,M44,207L41,205,M41,203L41,205,M43,199L41,203,M46,201L43,199M83,206L85,205,M83,206L80,201,M81,198L80,201,M81,198L83,196,M83,196L86,196,M86,196L86,196,M86,196L87,199,M87,199L85,205M39,206L35,203,M39,206L41,205,M41,203L41,205,M37,202L41,203,M35,203L37,202M89,211L85,205,M85,211L89,211,M85,211L85,211,M83,206L85,211,M83,206L85,205M122,207L116,201,M122,207L123,207,M123,207L125,206,M125,206L125,206,M122,199L125,206,M116,201L122,199M14,212L25,206,M14,212L13,210,M13,210L19,202,M19,202L22,201,M24,203L22,201,M25,205L24,203,M25,206L25,205M39,206L35,203,M37,208L39,206,M30,212L37,208,M30,212L30,211,M33,204L30,211,M33,204L35,203M83,206L80,201,M83,206L85,211,M79,208L85,211,M79,208L78,206,M78,205L78,206,M78,205L80,201M89,211L85,205,M89,211L89,211,M90,209L89,211,M87,199L90,209,M87,199L85,205M130,202L133,213,M130,202L135,195,M135,195L135,194,M135,194L141,199,M141,199L147,209,M145,211L147,209,M138,213L145,211,M133,213L138,213M69,208L71,207,M69,208L65,202,M65,202L66,201,M66,201L70,202,M72,204L70,202,M72,204L72,206,M71,207L72,206M73,209L72,206,M73,209L75,209,M75,209L78,206,M78,205L78,206,M72,204L78,205,M72,204L72,206M122,207L116,201,M117,209L122,207,M116,208L117,209,M114,203L116,208,M114,202L114,203,M114,202L116,201M130,202L133,213,M125,206L130,202,M125,206L125,206,M129,213L125,206,M129,213L133,213M43,211L37,208,M43,211L44,210,M44,207L44,210,M44,207L41,205,M39,206L41,205,M37,208L39,206M71,207L71,210,M69,208L71,207,M69,208L69,209,M70,210L69,209,M70,210L71,210M97,211L101,203,M90,211L97,211,M90,211L89,211,M90,209L89,211,M90,209L93,205,M93,205L100,202,M100,202L100,202,M100,202L101,203M153,205L170,206,M150,208L153,205,M150,208L157,213,M157,213L170,214M60,205L55,215,M59,204L60,205,M52,207L59,204,M54,214L52,207,M55,215L54,214M71,207L71,210,M71,207L72,206,M73,209L72,206,M72,209L73,209,M71,210L72,209M108,208L112,210,M108,208L114,203,M114,203L116,208,M114,210L116,208,M112,210L114,210M14,212L25,206,M20,221L14,212,M20,221L30,215,M30,212L30,215,M30,212L30,211,M30,211L25,206M45,211L49,209,M44,210L45,211,M44,207L44,210,M44,207L47,205,M47,205L51,206,M51,206L51,206,M49,209L51,206M64,212L69,209,M62,205L64,212,M62,205L65,202,M69,208L65,202,M69,208L69,209M120,215L123,207,M119,215L120,215,M117,209L119,215,M117,209L122,207,M122,207L123,207M120,215L123,207,M120,215L123,215,M123,215L128,214,M128,214L129,213,M129,213L125,206,M123,207L125,206M43,211L37,208,M43,211L43,212,M31,216L43,212,M31,216L30,215,M30,212L30,215,M30,212L37,208M49,209L49,213,M45,211L49,209,M47,212L45,211,M47,212L49,213M49,209L49,213,M49,209L51,206,M52,207L51,206,M54,214L52,207,M50,213L54,214,M50,213L49,213M60,205L55,215,M60,205L62,205,M62,205L64,212,M64,212L63,216,M60,216L63,216,M55,215L60,216,M55,215L55,215M73,212L72,209,M73,212L75,210,M75,209L75,210,M73,209L75,209,M72,209L73,209M73,212L75,210,M73,212L73,213,M73,213L77,213,M77,212L77,213,M77,212L75,210M77,212L75,210,M79,208L77,212,M79,208L78,206,M75,209L78,206,M75,209L75,210M79,208L77,212,M79,208L85,211,M85,211L85,211,M81,216L85,211,M81,216L79,215,M79,215L77,213,M77,212L77,213M99,213L106,209,M99,213L99,213,M99,213L97,211,M97,211L101,203,M106,208L101,203,M106,208L106,209M64,212L69,209,M64,212L63,216,M68,218L63,216,M68,218L71,214,M70,210L71,214,M70,210L69,209M73,212L72,209,M73,212L73,213,M72,214L73,213,M71,214L72,214,M70,210L71,214,M70,210L71,210,M71,210L72,209M112,212L112,210,M109,213L112,212,M107,212L109,213,M107,212L107,212,M106,209L107,212,M106,208L106,209,M106,208L108,208,M108,208L112,210M112,212L112,210,M114,214L112,212,M114,210L114,214,M112,210L114,210M114,210L114,214,M114,210L116,208,M116,208L117,209,M117,209L119,215,M116,217L119,215,M116,217L115,216,M114,214L115,216M47,212L47,215,M47,212L45,211,M44,210L45,211,M43,211L44,210,M43,211L43,212,M44,217L43,212,M44,217L45,217,M47,215L45,217M47,215L50,213,M47,212L47,215,M47,212L49,213,M50,213L49,213,M50,213L50,213M99,213L104,215,M99,213L106,209,M106,209L107,212,M104,215L107,212M50,213L47,218,M50,213L50,213,M50,213L54,214,M55,215L54,214,M55,215L55,215,M54,218L55,215,M53,218L54,218,M48,218L53,218,M48,218L47,218M76,216L72,214,M76,216L79,215,M79,215L77,213,M73,213L77,213,M72,214L73,213M92,218L99,215,M90,211L92,218,M90,211L97,211,M99,213L97,211,M99,213L99,215M113,216L109,213,M108,216L113,216,M107,212L108,216,M107,212L109,213M113,216L109,213,M113,216L115,216,M114,214L115,216,M114,214L112,212,M109,213L112,212M47,215L50,213,M47,215L45,217,M45,217L47,218,M50,213L47,218M76,216L72,214,M69,220L76,216,M69,220L68,220,M68,220L68,218,M68,218L71,214,M71,214L72,214M104,215L107,212,M104,215L103,220,M103,220L107,221,M107,221L108,216,M107,212L108,216,M107,212L107,212M31,216L43,212,M38,223L31,216,M38,223L42,220,M42,220L44,217,M44,217L43,212M99,213L104,215,M99,213L99,213,M99,213L99,215,M101,219L99,215,M101,219L101,220,M101,220L103,220,M104,215L103,220M15,225L5,214,M15,225L19,224,M20,221L19,224,M20,221L14,212,M14,212L13,210,M13,210L3,207,M3,207L3,207,M5,214L3,207M69,220L76,216,M71,223L69,220,M71,223L81,219,M81,216L81,219,M81,216L79,215,M76,216L79,215M81,216L85,211,M81,216L81,219,M84,223L81,219,M85,225L84,223,M85,225L92,219,M92,218L92,219,M90,211L92,218,M90,211L89,211,M89,211L89,211,M85,211L89,211M92,218L99,215,M92,218L92,219,M96,221L92,219,M96,221L101,219,M101,219L99,215M108,216L113,216,M107,221L108,216,M107,222L107,221,M107,222L115,220,M116,217L115,220,M116,217L115,216,M113,216L115,216M161,224L170,217,M159,222L161,224,M157,213L159,222,M157,213L170,214M15,225L5,214,M8,226L15,225,M8,226L5,221,M5,221L5,214M0,221L5,221,M5,221L5,214,M5,214L3,207,M0,207L3,207M48,218L48,222,M48,218L47,218,M45,217L47,218,M44,217L45,217,M42,220L44,217,M47,223L42,220,M47,223L48,222M48,222L51,221,M48,218L48,222,M48,218L53,218,M51,221L53,218M121,225L123,215,M121,225L116,221,M115,220L116,221,M116,217L115,220,M116,217L119,215,M119,215L120,215,M120,215L123,215M121,225L123,215,M122,227L121,225,M122,227L125,228,M125,228L128,224,M128,214L128,224,M123,215L128,214M151,226L159,222,M145,218L151,226,M145,211L145,218,M145,211L147,209,M147,209L150,208,M150,208L157,213,M157,213L159,222M0,221L5,221,M8,226L5,221,M5,228L8,226,M0,228L5,228M60,216L59,223,M55,215L60,216,M54,218L55,215,M55,223L54,218,M56,224L55,223,M56,224L59,223M60,216L59,223,M60,216L63,216,M68,218L63,216,M68,220L68,218,M63,226L68,220,M63,226L59,223M134,224L138,213,M128,224L134,224,M128,214L128,224,M128,214L129,213,M129,213L133,213,M133,213L138,213M134,224L138,213,M139,229L134,224,M139,229L145,218,M145,211L145,218,M138,213L145,211M48,222L51,221,M47,223L48,222,M47,223L47,223,M51,224L47,223,M51,221L51,224M51,224L55,223,M51,224L51,224,M51,221L51,224,M51,221L53,218,M53,218L54,218,M55,223L54,218M101,220L100,228,M101,219L101,220,M96,221L101,219,M96,221L96,223,M100,228L96,223M56,226L51,225,M56,224L56,226,M56,224L55,223,M51,224L55,223,M51,224L51,224,M51,225L51,224M72,225L84,223,M71,223L72,225,M71,223L81,219,M84,223L81,219M111,230L116,221,M107,230L111,230,M107,222L107,230,M107,222L115,220,M115,220L116,221M161,224L170,217,M161,224L162,227,M162,227L170,225M47,223L47,227,M47,223L47,223,M47,223L42,220,M38,223L42,220,M38,223L38,228,M42,232L38,228,M42,232L45,231,M47,227L45,231M49,226L51,224,M47,227L49,226,M47,223L47,227,M51,224L47,223,M51,224L51,224,M51,224L51,224M56,224L59,223,M56,224L56,226,M56,226L56,228,M61,233L56,228,M61,233L62,233,M63,226L62,233,M63,226L59,223M88,231L96,223,M88,231L85,229,M85,225L85,229,M85,225L92,219,M96,221L92,219,M96,221L96,223M101,220L100,228,M101,220L103,220,M103,220L107,221,M107,222L107,221,M107,222L107,230,M104,231L107,230,M100,230L104,231,M100,228L100,230M72,225L84,223,M72,225L73,231,M73,231L78,231,M78,231L85,229,M85,225L85,229,M85,225L84,223M151,226L159,222,M151,226L151,227,M151,227L161,232,M161,232L162,227,M161,224L162,227,M159,222L161,224M34,229L20,226,M34,229L38,228,M38,223L38,228,M38,223L31,216,M31,216L30,215,M20,221L30,215,M20,221L19,224,M20,225L19,224,M20,226L20,225M49,226L51,227,M49,226L51,224,M51,225L51,224,M51,225L51,227M49,226L51,227,M47,227L49,226,M47,227L45,231,M45,231L48,231,M48,231L52,229,M51,227L52,229M56,226L51,225,M56,226L56,228,M52,229L56,228,M51,227L52,229,M51,225L51,227M63,226L68,220,M63,226L62,233,M62,233L71,233,M71,233L73,231,M72,225L73,231,M71,223L72,225,M71,223L69,220,M69,220L68,220M88,231L96,223,M90,234L88,231,M90,234L100,230,M100,228L100,230,M100,228L96,223M111,230L116,221,M116,233L111,230,M116,233L122,227,M122,227L121,225,M121,225L116,221M128,224L134,224,M125,228L128,224,M133,239L125,228,M133,239L139,234,M139,229L139,234,M139,229L134,224M139,229L145,218,M139,229L139,234,M139,234L145,235,M145,235L148,232,M148,232L151,227,M151,226L151,227,M145,218L151,226M162,227L170,225,M161,232L162,227,M161,232L162,235,M162,235L170,237M34,229L20,226,M27,239L34,229,M27,239L20,226M52,229L56,228,M48,231L52,229,M51,234L48,231,M59,237L51,234,M59,237L61,233,M61,233L56,228M20,225L11,242,M20,225L19,224,M15,225L19,224,M8,226L15,225,M5,228L8,226,M7,236L5,228,M11,242L7,236M148,232L161,236,M148,232L151,227,M151,227L161,232,M161,232L162,235,M161,236L162,235M27,239L34,229,M27,242L27,239,M29,243L27,242,M29,243L42,232,M42,232L42,232,M42,232L38,228,M34,229L38,228M133,239L125,228,M131,243L133,239,M122,244L131,243,M122,244L118,241,M116,233L118,241,M116,233L122,227,M122,227L125,228M148,232L161,236,M145,235L148,232,M149,241L145,235,M149,241L157,240,M157,240L161,236M0,237L7,236,M7,236L5,228,M0,228L5,228M20,225L11,242,M20,226L20,225,M27,239L20,226,M27,242L27,239,M20,246L27,242,M13,246L20,246,M13,246L11,243,M11,243L11,242M47,241L51,234,M47,241L43,238,M43,238L43,237,M43,237L42,232,M42,232L42,232,M42,232L45,231,M45,231L48,231,M51,234L48,231M47,241L51,234,M49,244L47,241,M49,244L50,244,M50,244L58,240,M59,237L58,240,M59,237L51,234M103,239L90,235,M103,239L105,237,M104,231L105,237,M100,230L104,231,M90,234L100,230,M90,234L90,235M113,243L105,237,M113,243L118,241,M116,233L118,241,M116,233L111,230,M107,230L111,230,M104,231L107,230,M104,231L105,237M0,237L7,236,M11,242L7,236,M11,243L11,242,M3,244L11,243,M0,243L3,244M80,242L71,236,M78,231L80,242,M73,231L78,231,M71,233L73,231,M71,233L71,236M78,231L80,242,M78,231L85,229,M88,231L85,229,M90,234L88,231,M90,234L90,235,M90,235L90,244,M81,246L90,244,M81,246L80,242M103,239L90,235,M97,250L103,239,M97,250L90,244,M90,235L90,244M33,246L43,237,M33,246L33,246,M33,246L29,243,M29,243L42,232,M43,237L42,232M62,246L71,237,M62,246L58,240,M59,237L58,240,M59,237L61,233,M61,233L62,233,M62,233L71,233,M71,233L71,236,M71,236L71,237M80,242L71,236,M81,246L80,242,M74,251L81,246,M71,237L74,251,M71,236L71,237M43,238L39,248,M43,238L43,237,M33,246L43,237,M39,248L33,246M62,246L71,237,M66,255L62,246,M71,237L74,251M113,243L105,237,M102,255L113,243,M103,239L105,237,M97,250L103,239,M99,255L97,250M133,246L147,248,M133,246L131,243,M131,243L133,239,M133,239L139,234,M139,234L145,235,M149,241L145,235,M148,246L149,241,M147,248L148,246M43,238L39,248,M47,241L43,238,M49,244L47,241,M43,250L49,244,M43,250L39,248M158,244L164,249,M157,240L158,244,M157,240L161,236,M161,236L162,235,M162,235L170,237,M164,249L170,244M148,246L156,247,M148,246L149,241,M149,241L157,240,M157,240L158,244,M156,247L158,244M56,255L50,244,M50,244L58,240,M62,246L58,240,M66,255L62,246M148,246L156,247,M147,248L148,246,M147,248L149,255,M154,255L156,247M3,244L2,255,M0,243L3,244M3,244L2,255,M3,244L11,243,M13,246L11,243,M13,246L10,255M102,255L113,243,M113,243L118,241,M122,244L118,241,M118,255L122,244M154,255L156,247,M156,247L158,244,M158,244L164,249,M164,255L164,249M164,249L170,244,M164,255L164,249M56,255L50,244,M49,244L50,244,M43,250L49,244,M44,255L43,250M147,255L133,252,M133,246L133,252,M133,246L147,248,M147,248L149,255M28,255L32,250,M33,246L32,250,M33,246L29,243,M29,243L27,242,M20,246L27,242,M23,255L20,246M34,255L32,250,M33,246L32,250,M33,246L33,246,M39,248L33,246,M43,250L39,248,M44,255L43,250M118,255L122,244,M122,244L131,243,M133,246L131,243,M133,246L133,252,M133,252L133,255M81,246L90,244,M74,251L81,246,M71,255L74,251,M97,250L90,244,M99,255L97,250M23,255L20,246,M13,246L20,246,M13,246L10,255M28,255L32,250,M34,255L32,250M147,255L133,252,M133,252L133,255"/>

</svg>