<?xml version="1.0" encoding="utf-8"?>
<!-- Generator: Adobe Illustrator 25.3.1, SVG Export Plug-In . SVG Version: 6.00 Build 0)  -->
<svg version="1.1" id="Layer_1" xmlns="http://www.w3.org/2000/svg" xmlns:xlink="http://www.w3.org/1999/xlink" x="0px" y="0px"
	 viewBox="0 0 100 100" style="enable-background:new 0 0 100 100;" xml:space="preserve">
<style type="text/css">
	.st0{fill:#939598;}
	.st1{fill:#414042;stroke:#414042;stroke-miterlimit:10;}
</style>
<path class="st0" d="M50,5.48C25.41,5.48,5.48,25.41,5.48,50c0,24.59,19.93,44.52,44.52,44.52S94.52,74.59,94.52,50
	C94.52,25.41,74.59,5.48,50,5.48z"/>
<path class="st1" d="M41.89,33.75v2.04c0,1.62,1.31,2.93,2.93,2.93h38.6c1.62,0,2.93,1.31,2.93,2.93v16.72
	c0,1.62-1.31,2.93-2.93,2.93h-38.6c-1.62,0-2.93,1.31-2.93,2.93v2.04c0,2.39-2.71,3.77-4.64,2.37L14.87,52.37
	c-1.61-1.17-1.61-3.57,0-4.73l22.37-16.25C39.17,29.98,41.89,31.36,41.89,33.75z"/>
</svg>
