<?xml version="1.0" encoding="utf-8"?>
<!-- Generator: Adobe Illustrator 25.3.1, SVG Export Plug-In . SVG Version: 6.00 Build 0)  -->
<svg version="1.1" id="Layer_1" xmlns="http://www.w3.org/2000/svg" xmlns:xlink="http://www.w3.org/1999/xlink" x="0px" y="0px"
	 viewBox="0 0 100 100" style="enable-background:new 0 0 100 100;" xml:space="preserve">
<style type="text/css">
	.st0{fill:#A7A9AC;}
	.st1{fill:#58595B;}
	.st2{fill:#414042;}
</style>
<path class="st0" d="M50,5.48C25.41,5.48,5.48,25.41,5.48,50c0,24.59,19.93,44.52,44.52,44.52S94.52,74.59,94.52,50
	C94.52,25.41,74.59,5.48,50,5.48z"/>
<path class="st1" d="M29.41,78.73c-6.04-4.41,11.77-44.96,25.22-35.57C68.33,52.72,36.77,84.11,29.41,78.73z"/>
<path class="st2" d="M61.11,25.76c-13.23,4.47-5.69,15.2,1.69,15c12.92-0.36,8.11-30.85,2.27-19.12
	C64.09,23.62,62.98,25.13,61.11,25.76z"/>
</svg>
