<?xml version="1.0" encoding="utf-8"?>
<!-- Generator: Adobe Illustrator 25.3.1, SVG Export Plug-In . SVG Version: 6.00 Build 0)  -->
<svg version="1.1" id="Layer_1" xmlns="http://www.w3.org/2000/svg" xmlns:xlink="http://www.w3.org/1999/xlink" x="0px" y="0px"
	 viewBox="0 0 100 100" style="enable-background:new 0 0 100 100;" xml:space="preserve">
<style type="text/css">
	.st0{fill:#A7A9AC;}
	.st1{fill:#6D6E71;}
	.st2{fill:#F33;stroke:#58595B;stroke-width:2;stroke-miterlimit:10;}
	.st3{fill:#3F3;stroke:#58595B;stroke-width:2;stroke-miterlimit:10;}
	.st4{fill:#33F;stroke:#58595B;stroke-width:2;stroke-miterlimit:10;}
</style>
<path class="st0" d="M50,5.48C25.41,5.48,5.48,25.41,5.48,50c0,24.59,19.93,44.52,44.52,44.52S94.52,74.59,94.52,50
	C94.52,25.41,74.59,5.48,50,5.48z"/>
<path class="st1" d="M80.09,42.71L54.24,21.37c-8.77-7.24-22.09-2.36-24.1,8.83l-5.82,32.31c-2.02,11.19,8.76,20.41,19.5,16.69
	l31.67-10.97C86.45,64.43,89.04,50.1,80.09,42.71z"/>
<circle class="st2" cx="45.22" cy="34.85" r="12.06"/>
<circle class="st3" cx="39.5" cy="63.82" r="12.06"/>
<circle class="st4" cx="68.03" cy="53.42" r="12.06"/>
</svg>
