<?xml version="1.0" encoding="utf-8"?>
<!-- Generator: Adobe Illustrator 25.3.1, SVG Export Plug-In . SVG Version: 6.00 Build 0)  -->
<svg version="1.1" id="Layer_1" xmlns="http://www.w3.org/2000/svg" xmlns:xlink="http://www.w3.org/1999/xlink" x="0px" y="0px"
	 viewBox="0 0 100 100" style="enable-background:new 0 0 100 100;" xml:space="preserve">
<style type="text/css">
	.st0{fill:#A7A9AC;}
	.st1{fill:#58595B;}
	.st2{fill:none;stroke:#414042;stroke-width:8;stroke-linecap:round;stroke-miterlimit:10;}
</style>
<path class="st0" d="M50,5.48C25.41,5.48,5.48,25.41,5.48,50c0,24.59,19.93,44.52,44.52,44.52S94.52,74.59,94.52,50
	C94.52,25.41,74.59,5.48,50,5.48z"/>
<g>
	<g>
		<path class="st1" d="M73.61,50.12c0.34-0.93,0.58-1.9,0.82-2.85c0.22-0.96,0.41-1.92,0.55-2.88c0.26-1.92,0.38-3.83,0.22-5.69
			c-0.08-0.85,0.55-1.6,1.4-1.67c0.85-0.08,1.6,0.55,1.67,1.4c0.01,0.09,0.01,0.17,0,0.26l0,0.01c-0.18,2.14-0.61,4.23-1.35,6.18
			c-0.7,1.96-1.65,3.81-2.88,5.47c-0.08,0.11-0.24,0.14-0.35,0.05C73.61,50.35,73.57,50.23,73.61,50.12L73.61,50.12z"/>
		<path class="st1" d="M72.44,30.11c-0.95-1.54-2.01-3-3.31-4.24c-1.29-1.25-2.74-2.31-4.27-3.24l-0.01-0.01
			c-1.05-0.63-1.4-2-0.76-3.05c0.61-1.02,1.92-1.37,2.96-0.82c1.95,1.04,3.72,2.42,5.24,4.03c1.51,1.61,2.84,3.41,3.79,5.38
			c0.49,1.03,0.06,2.26-0.96,2.75c-0.96,0.46-2.1,0.12-2.65-0.77L72.44,30.11z"/>
		<path class="st1" d="M55.44,19.56c-2.43-0.16-4.95,0.22-7.05,1.47l-0.01,0.01c-0.47,0.28-1.07,0.12-1.35-0.34
			c-0.26-0.43-0.14-0.98,0.24-1.28c2.32-1.79,5.2-2.72,8.09-3.03l0.02,0c0.88-0.09,1.66,0.54,1.75,1.42
			c0.09,0.88-0.54,1.66-1.42,1.75C55.62,19.57,55.53,19.57,55.44,19.56z"/>
		<path class="st1" d="M44.63,34.62c0.91,3.76,2.79,7.22,4.84,10.56c0.5,0.81,0.24,1.88-0.57,2.38c-0.81,0.5-1.88,0.24-2.38-0.57
			c-0.04-0.07-0.08-0.14-0.11-0.21c-0.82-1.87-1.58-3.79-2.21-5.76c-0.62-1.97-1.14-3.99-1.42-6.05c-0.07-0.51,0.29-0.99,0.81-1.05
			C44.07,33.85,44.52,34.16,44.63,34.62z"/>
		<path class="st1" d="M54.72,53.73c1,1.8,1.97,3.68,2.72,5.78c0.74,2.08,1.27,4.49,0.9,7.08l0,0.02c-0.2,1.41-1.51,2.39-2.92,2.19
			c-1.41-0.2-2.39-1.51-2.19-2.92c0.01-0.04,0.02-0.1,0.02-0.14c0.28-1.38,0.07-3.03-0.42-4.74c-0.5-1.71-1.26-3.46-2.09-5.21
			l-0.01-0.01c-0.53-1.12-0.06-2.46,1.06-2.99C52.87,52.28,54.15,52.71,54.72,53.73z"/>
		<path class="st1" d="M51.61,77.32c-1.23,0.97-2.6,1.8-4.09,2.39c-1.49,0.58-3.07,0.94-4.65,1.04c-1.37,0.08-2.55-0.96-2.63-2.33
			c-0.08-1.31,0.87-2.44,2.15-2.61l0.03,0c2.16-0.28,4.14-1.2,5.83-2.62c1.13-0.95,2.81-0.8,3.76,0.33c0.95,1.13,0.8,2.81-0.33,3.76
			C51.66,77.28,51.63,77.31,51.61,77.32z"/>
		<path class="st1" d="M27.07,73.54c-1.38-1.71-2.4-3.65-3.1-5.66c-0.67-2.02-1.04-4.11-0.95-6.22c0.01-0.28,0.25-0.5,0.54-0.49
			c0.24,0.01,0.44,0.19,0.48,0.42l0,0.02c0.37,1.89,1.1,3.71,2.03,5.35c0.91,1.66,2.1,3.12,3.41,4.37c0.66,0.63,0.68,1.67,0.05,2.32
			s-1.67,0.68-2.32,0.05C27.16,73.65,27.11,73.59,27.07,73.54z"/>
	</g>
</g>
<path class="st2" d="M44.07,25.42c-4.92,17.04,16.2,32.05,11.03,42.97"/>
</svg>
