<?xml version="1.0" encoding="utf-8"?>
<!-- Generator: Adobe Illustrator 25.3.1, SVG Export Plug-In . SVG Version: 6.00 Build 0)  -->
<svg version="1.1" id="Layer_1" xmlns="http://www.w3.org/2000/svg" xmlns:xlink="http://www.w3.org/1999/xlink" x="0px" y="0px"
	 viewBox="0 0 100 100" style="enable-background:new 0 0 100 100;" xml:space="preserve">
<style type="text/css">
	.st0{fill:#A7A9AC;}
	.st1{fill:#58595B;}
	.st2{fill:none;stroke:#6D6E71;stroke-width:2;stroke-miterlimit:10;}
	.st3{fill:#6D6E71;}
</style>
<path class="st0" d="M50,5.48C25.41,5.48,5.48,25.41,5.48,50c0,24.59,19.93,44.52,44.52,44.52S94.52,74.59,94.52,50
	C94.52,25.41,74.59,5.48,50,5.48z"/>
<g id="Layer_2">
	<circle class="st1" cx="50" cy="50" r="13.75"/>
	<path class="st1" d="M66.31,47.11v5.77c0,1.58-1.28,2.86-2.86,2.86H36.56c-1.58,0-2.86-1.28-2.86-2.86v-5.77
		c0-1.58,1.28-2.86,2.86-2.86h26.89C65.03,44.25,66.31,45.53,66.31,47.11z"/>
	<path class="st1" d="M55.65,34.43l5,2.89c1.37,0.79,1.84,2.54,1.05,3.91L48.26,64.52c-0.79,1.37-2.54,1.84-3.91,1.05l-5-2.89
		c-1.37-0.79-1.84-2.54-1.05-3.91l13.44-23.29C52.53,34.11,54.28,33.64,55.65,34.43z"/>
	<path class="st1" d="M39.35,37.32l5-2.89c1.37-0.79,3.12-0.32,3.91,1.05L61.7,58.77c0.79,1.37,0.32,3.12-1.05,3.91l-5,2.89
		c-1.37,0.79-3.12,0.32-3.91-1.05L38.3,41.23C37.51,39.86,37.98,38.11,39.35,37.32z"/>
	<circle class="st0" cx="50" cy="50" r="5.22"/>
</g>
<g id="Layer_3">
	<g>
		<g>
			<line class="st2" x1="22.85" y1="21.3" x2="22.85" y2="77.72"/>
			<g>
				<polygon class="st3" points="19.46,25.29 22.85,21.89 26.24,25.29 26.24,22.41 22.85,19.02 19.46,22.41 				"/>
			</g>
		</g>
	</g>
	<g>
		<g>
			<line class="st2" x1="78.78" y1="77.23" x2="22.36" y2="77.23"/>
			<g>
				<polygon class="st3" points="74.8,73.84 78.19,77.23 74.8,80.62 77.68,80.62 81.07,77.23 77.68,73.84 				"/>
			</g>
		</g>
	</g>
</g>
</svg>
