<?xml version="1.0" encoding="utf-8"?>
<!-- Generator: Adobe Illustrator 25.3.1, SVG Export Plug-In . SVG Version: 6.00 Build 0)  -->
<svg version="1.1" id="Layer_1" xmlns="http://www.w3.org/2000/svg" xmlns:xlink="http://www.w3.org/1999/xlink" x="0px" y="0px"
	 viewBox="0 0 100 100" style="enable-background:new 0 0 100 100;" xml:space="preserve">
<style type="text/css">
	.st0{fill:#A7A9AC;}
	.st1{fill:#6D6E71;}
	.st2{fill:none;stroke:#414042;stroke-width:12;stroke-linecap:round;stroke-miterlimit:10;}
</style>
<path class="st0" d="M50,5.48C25.41,5.48,5.48,25.41,5.48,50c0,24.59,19.93,44.52,44.52,44.52S94.52,74.59,94.52,50
	C94.52,25.41,74.59,5.48,50,5.48z"/>
<g>
	<path class="st1" d="M73.57,50.1c1.78-6.03,2.13-12.35-0.28-17.41c-1.16-2.6-2.8-4.9-4.81-6.8c-2.05-1.85-4.4-3.38-7-4.44
		c-2.57-1.08-5.42-1.75-8.28-1.59c-2.82,0.16-5.7,1.34-7.28,3.75c-0.39,0.59-0.7,1.24-0.93,1.92c-0.19,0.71-0.43,1.45-0.5,2.19
		c-0.24,1.49-0.28,3.01-0.09,4.51c0.07,0.75,0.23,1.49,0.38,2.23c0.2,0.73,0.39,1.46,0.66,2.18c0.48,1.44,1.15,2.82,1.86,4.18
		c2.89,5.44,6.86,10.23,9.75,16.46c0.71,1.57,1.35,3.27,1.7,5.18c0.35,1.9,0.32,4.1-0.38,6.18c-0.38,1.11-0.77,1.84-1.18,2.65
		c-0.44,0.79-0.9,1.57-1.43,2.33c-1.04,1.51-2.34,2.89-3.81,4.11c-1.51,1.18-3.24,2.14-5.1,2.77c-1.87,0.61-3.84,0.83-5.75,0.74
		c-3.83-0.26-7.27-1.68-10.13-3.62c-1.51-1.01-2.83-2.25-3.97-3.61c-1.11-1.38-2.01-2.9-2.68-4.49c-0.69-1.58-1.1-3.24-1.33-4.9
		c-0.11-0.83-0.14-1.68-0.11-2.52c0.02-0.42,0.06-0.84,0.14-1.27c0.08-0.42,0.19-0.85,0.44-1.28c0.08-0.14,0.26-0.19,0.4-0.11
		c0.11,0.06,0.16,0.18,0.14,0.3l-0.01,0.09c-0.1,0.62,0.05,1.43,0.22,2.15c0.18,0.74,0.43,1.45,0.7,2.16
		c0.56,1.4,1.27,2.73,2.11,3.93c0.85,1.2,1.82,2.26,2.86,3.21c1.08,0.91,2.25,1.64,3.46,2.26c0.64,0.29,1.31,0.57,1.96,0.84
		c0.67,0.19,1.33,0.46,1.99,0.6c0.66,0.16,1.31,0.32,1.97,0.37c0.65,0.12,1.29,0.07,1.93,0.09c1.25-0.1,2.46-0.31,3.58-0.76
		c1.11-0.49,2.17-1.09,3.12-1.9c0.94-0.84,1.84-1.77,2.6-2.86c0.39-0.54,0.75-1.11,1.09-1.7l0.5-0.9c0.21-0.33,0.23-0.5,0.36-0.74
		c0.79-1.77,0.37-4.39-0.65-7.1c-1.02-2.72-2.47-5.48-3.84-8.36c-0.69-1.44-1.36-2.9-1.98-4.41c-0.63-1.5-1.22-3.03-1.72-4.6
		c-1.04-3.12-1.76-6.39-1.9-9.71c-0.03-1.66-0.01-3.33,0.32-4.96c0.05-0.41,0.15-0.81,0.25-1.22c0.1-0.41,0.17-0.81,0.3-1.21
		c0.26-0.82,0.58-1.64,1.02-2.39c1.75-3.07,4.98-5.11,8.36-6c3.4-0.92,7.04-0.82,10.45,0.11c3.42,0.93,6.58,2.83,9.11,5.35
		c2.53,2.52,4.41,5.66,5.47,9c0.55,1.63,0.86,3.46,0.94,5.19c0.1,1.75-0.07,3.49-0.43,5.15c-0.71,3.32-2.06,6.41-4.09,9
		c-0.1,0.13-0.29,0.16-0.43,0.05c-0.1-0.08-0.14-0.21-0.1-0.32L73.57,50.1z"/>
</g>
<path class="st2" d="M44.07,25.42c-4.92,17.04,16.2,32.05,11.03,42.97"/>
</svg>
