<?xml version="1.0" encoding="utf-8"?>
<!-- Generator: Adobe Illustrator 25.3.1, SVG Export Plug-In . SVG Version: 6.00 Build 0)  -->
<svg version="1.1" id="Layer_1" xmlns="http://www.w3.org/2000/svg" xmlns:xlink="http://www.w3.org/1999/xlink" x="0px" y="0px"
	 viewBox="0 0 100 100" style="enable-background:new 0 0 100 100;" xml:space="preserve">
<style type="text/css">
	.st0{fill:#A7A9AC;}
	.st1{fill:none;stroke:#6D6E71;stroke-width:5;stroke-linecap:round;stroke-linejoin:round;stroke-miterlimit:10;}
	.st2{fill:none;stroke:#414042;stroke-width:8;stroke-linejoin:round;stroke-miterlimit:10;}
</style>
<path class="st0" d="M50,5.48C25.41,5.48,5.48,25.41,5.48,50c0,24.59,19.93,44.52,44.52,44.52S94.52,74.59,94.52,50
	C94.52,25.41,74.59,5.48,50,5.48z"/>
<path class="st1" d="M43.33,17.15c-8.47-4.68-19.69,4.59-22.08,13.23c-2.93,12.51,15.21,10.41,16.81,0.46
	C38.86,25.84,50.2,20.94,43.33,17.15z"/>
<path class="st2" d="M66.62,32.78C25.82,30.6,33.33,77.52,48.43,66.69c5.42-4.89-1.98-16.38,2.61-20.84
	c3.97-3.86,10.2-3.58,15.57-3.41C72.84,42.65,72.83,32.99,66.62,32.78z"/>
<path class="st1" d="M79.11,55.22C67.2,54.87,45.83,73.63,62.8,80.15c4.02,1.54,6.27-4.48,2.84-6.75c-1.19-0.79-1.4-1.94-0.79-2.97
	c3.46-5.85,8.15-7.31,14.26-7.83C83.82,62.2,83.87,55.36,79.11,55.22z"/>
</svg>
