<?xml version="1.0" encoding="utf-8"?>
<!-- Generator: Adobe Illustrator 25.3.1, SVG Export Plug-In . SVG Version: 6.00 Build 0)  -->
<svg version="1.1" id="Layer_1" xmlns="http://www.w3.org/2000/svg" xmlns:xlink="http://www.w3.org/1999/xlink" x="0px" y="0px"
	 viewBox="0 0 100 100" style="enable-background:new 0 0 100 100;" xml:space="preserve">
<style type="text/css">
	.st0{fill:#A7A9AC;}
	.st1{fill:#939598;stroke:#6D6E71;stroke-linecap:round;stroke-linejoin:round;stroke-miterlimit:10;}
	.st2{fill:#808285;stroke:#6D6E71;stroke-linecap:round;stroke-linejoin:round;stroke-miterlimit:10;}
	.st3{fill:#58595B;stroke:#414042;stroke-linecap:round;stroke-linejoin:round;stroke-miterlimit:10;}
</style>
<path class="st0" d="M50,5.48C25.41,5.48,5.48,25.41,5.48,50c0,24.59,19.93,44.52,44.52,44.52S94.52,74.59,94.52,50
	C94.52,25.41,74.59,5.48,50,5.48z"/>
<path class="st1" d="M77.18,59.04c-2.61,5.21-9.32,10.09-10.84,11.14c-0.2,0.14-0.43,0.19-0.67,0.15l-29.86-5.08
	c-0.34-0.06-0.62-0.3-0.72-0.63L24.33,29.34c-0.17-0.56,0.22-1.14,0.81-1.18C52.19,26.68,91.74,29.98,77.18,59.04z"/>
<path class="st2" d="M66.77,62.01l-1.11,8.26l-30.39-5.11L25.05,31.73c-0.47-1.55,0.91-3.02,2.49-2.65l19.77,4.71
	C60.07,36.82,68.47,49.01,66.77,62.01z"/>
<path class="st3" d="M34.06,39.53c-6.53-14.42-18.78-24.36-9.55,19.72C26.8,70.15,38.07,85.6,54.19,77.83
	C86.87,62.07,49.92,74.57,34.06,39.53z"/>
</svg>
