<?xml version="1.0" encoding="utf-8"?>
<!-- Generator: Adobe Illustrator 25.3.1, SVG Export Plug-In . SVG Version: 6.00 Build 0)  -->
<svg version="1.1" id="Layer_1" xmlns="http://www.w3.org/2000/svg" xmlns:xlink="http://www.w3.org/1999/xlink" x="0px" y="0px"
	 viewBox="0 0 100 100" style="enable-background:new 0 0 100 100;" xml:space="preserve">
<style type="text/css">
	.st0{fill:#A7A9AC;}
	.st1{fill:#808285;}
	.st2{fill:#58595B;}
</style>
<path class="st0" d="M50,5.48C25.41,5.48,5.48,25.41,5.48,50c0,24.59,19.93,44.52,44.52,44.52S94.52,74.59,94.52,50
	C94.52,25.41,74.59,5.48,50,5.48z"/>
<path class="st1" d="M66.21,75.36H33.79c-3.36,0-6.11-2.75-6.11-6.11V30.75c0-3.36,2.75-6.11,6.11-6.11h22.69
	c8.71,0,15.83,7.13,15.83,15.83v28.77C72.32,72.61,69.57,75.36,66.21,75.36z"/>
<path class="st2" d="M64.79,51.07L51.41,67.82c-0.65,0.82-2.18,0.82-2.83,0L35.21,51.07c-0.69-0.87,0.11-1.99,1.41-1.99h2.81
	c0.92,0,1.67-0.58,1.67-1.3V32.86c0-0.72,0.75-1.3,1.67-1.3h13.45c0.92,0,1.67,0.58,1.67,1.3v14.92c0,0.72,0.75,1.3,1.67,1.3h3.82
	C64.68,49.08,65.48,50.2,64.79,51.07z"/>
</svg>
