<?xml version="1.0" encoding="utf-8"?>
<!-- Generator: Adobe Illustrator 25.3.1, SVG Export Plug-In . SVG Version: 6.00 Build 0)  -->
<svg version="1.1" id="Layer_1" xmlns="http://www.w3.org/2000/svg" xmlns:xlink="http://www.w3.org/1999/xlink" x="0px" y="0px"
	 viewBox="0 0 100 100" style="enable-background:new 0 0 100 100;" xml:space="preserve">
<style type="text/css">
	.st0{fill:#A7A9AC;}
	.st1{fill:#58595B;}
	.st2{fill:#414042;}
</style>
<path class="st0" d="M50,5.48C25.41,5.48,5.48,25.41,5.48,50c0,24.59,19.93,44.52,44.52,44.52S94.52,74.59,94.52,50
	C94.52,25.41,74.59,5.48,50,5.48z"/>
<path class="st1" d="M29.41,78.73c-6.04-4.41,11.77-44.96,25.22-35.57C68.33,52.72,36.77,84.11,29.41,78.73z"/>
<g>
	<g>
		<path class="st2" d="M77.5,27.89c0.3-5.24-1.94-10.59-6.61-13.28c-4-2.3-9.23-2.15-12.64,1.16c-1.86,1.8-3.09,4.36-2.61,6.97
			c0.38,2.06,1.84,3.75,3.34,5.13c1.55,1.42,3.26,2.66,4.72,4.19c0.17,0.18,0.34,0.37,0.51,0.56c0.08,0.09,0.16,0.19,0.24,0.29
			c0.23,0.27-0.25-0.36-0.05-0.07c0.29,0.43,0.53,0.87,0.79,1.31c0.08,0.14,0.11,0.41-0.04-0.11c0.03,0.11,0.09,0.22,0.12,0.33
			c0.06,0.23,0.11,0.47,0.18,0.69c0.03,0.1,0.06,0.44,0.01-0.05c0.02,0.14,0.03,0.27,0.03,0.41c0.01,0.16-0.05,0.93,0.01,0.6
			c0.06-0.37-0.13,0.35-0.15,0.47c0.06-0.39,0.18-0.4,0.07-0.18c-0.13,0.24-0.34,0.35,0.07-0.02c-0.09,0.08-0.58,0.56-0.26,0.3
			c0.31-0.26-0.25,0.12-0.36,0.19c-0.18,0.12-0.3-0.01,0.18-0.08c-0.12,0.02-0.25,0.08-0.37,0.12c-0.28,0.08-0.8,0.11-0.2,0.07
			c-0.55,0.03-1.1-0.02-1.64,0c-0.34,0.01,0.46,0.11,0.12,0.02c-0.15-0.04-0.31-0.05-0.46-0.08c-0.31-0.06-0.62-0.14-0.92-0.23
			c-0.28-0.08-0.55-0.18-0.82-0.28c-0.08-0.03-0.46-0.2-0.15-0.06c0.33,0.15-0.17-0.08-0.23-0.12c-0.52-0.26-1-0.56-1.49-0.88
			c-0.37-0.24-0.01,0,0.05,0.05c-0.14-0.12-0.29-0.24-0.42-0.36c-0.22-0.2-0.43-0.42-0.64-0.65c-0.9-1.01-2.62-0.92-3.54,0
			c-1,1-0.9,2.52,0,3.54c2.95,3.31,8.72,5.33,12.9,3.33c2.21-1.06,3.39-3.43,3.23-5.83c-0.16-2.56-1.34-4.71-3.05-6.58
			c-1.41-1.53-3.09-2.77-4.64-4.15c-0.33-0.3-0.66-0.6-0.98-0.92c-0.16-0.16-0.32-0.33-0.47-0.5c-0.07-0.08-0.14-0.17-0.22-0.25
			c-0.36-0.38,0.19,0.31,0.04,0.06c-0.1-0.18-0.24-0.34-0.34-0.52c-0.04-0.07-0.4-0.69-0.18-0.3c0.2,0.37-0.06-0.21-0.09-0.32
			c-0.02-0.07-0.03-0.14-0.05-0.21c-0.14-0.39-0.03,0.51,0.01,0.09c0.02-0.19,0.01-0.4,0.02-0.59c-0.02,0.54-0.01,0.22,0.07-0.11
			c0.02-0.08,0.07-0.16,0.08-0.24c0.05-0.3-0.24,0.35-0.04,0.11c0.17-0.21,0.28-0.53,0.44-0.76c0.08-0.12,0.16-0.23,0.24-0.35
			c-0.28,0.4-0.1,0.13-0.03,0.05c0.16-0.17,0.31-0.35,0.49-0.52c0.17-0.16,0.34-0.31,0.52-0.46c-0.45,0.38,0.06-0.02,0.26-0.14
			c0.17-0.1,0.35-0.18,0.51-0.28c0.36-0.22-0.07,0.02-0.14,0.05c0.1-0.04,0.2-0.08,0.31-0.12c0.21-0.07,0.42-0.14,0.63-0.19
			c0.12-0.03,0.88-0.18,0.48-0.11c-0.42,0.07,0.32-0.02,0.41-0.02c0.22-0.01,0.45-0.01,0.67,0c0.2,0.01,0.39,0.04,0.59,0.04
			c-0.72-0.01,0.11,0.03,0.34,0.08c0.25,0.06,0.5,0.13,0.75,0.21c0.19,0.06,0.91,0.38,0.31,0.09c0.49,0.23,0.96,0.47,1.42,0.76
			c0.13,0.08,0.71,0.52,0.49,0.34c-0.22-0.18,0.35,0.31,0.45,0.41c0.21,0.2,0.41,0.4,0.6,0.61c0.11,0.13,0.6,0.78,0.28,0.32
			c0.34,0.5,0.67,1,0.94,1.54c0.06,0.12,0.12,0.25,0.18,0.37c0.29,0.6-0.14-0.46,0.07,0.18c0.1,0.31,0.21,0.61,0.3,0.93
			c0.09,0.32,0.17,0.65,0.23,0.98c0.03,0.15,0.05,0.3,0.08,0.45c-0.06-0.37,0-0.04,0.01,0.15c0.07,0.79,0.08,1.58,0.03,2.38
			c-0.08,1.35,1.2,2.5,2.5,2.5C76.42,30.39,77.42,29.24,77.5,27.89L77.5,27.89z"/>
	</g>
</g>
</svg>
